<?xml version="1.0" encoding="UTF-8" standalone="no"?>
<svg
   width="60"
   height="58.200001"
   viewBox="0 0 60 58.200003"
   version="1.1"
   id="svg1173"
   sodipodi:docname="corner.svg"
   inkscape:version="1.4 (e7c3feb1, 2024-10-09)"
   inkscape:export-filename="corner.png"
   inkscape:export-xdpi="1200"
   inkscape:export-ydpi="1200"
   xmlns:inkscape="http://www.inkscape.org/namespaces/inkscape"
   xmlns:sodipodi="http://sodipodi.sourceforge.net/DTD/sodipodi-0.dtd"
   xmlns="http://www.w3.org/2000/svg"
   xmlns:svg="http://www.w3.org/2000/svg">
  <defs
     id="defs3096" />
  <sodipodi:namedview
     id="namedview3094"
     pagecolor="#ffffff"
     bordercolor="#666666"
     borderopacity="1.0"
     inkscape:showpageshadow="2"
     inkscape:pageopacity="0.0"
     inkscape:pagecheckerboard="0"
     inkscape:deskcolor="#d1d1d1"
     showgrid="false"
     inkscape:zoom="10.720473"
     inkscape:cx="24.532499"
     inkscape:cy="37.638263"
     inkscape:current-layer="svg1173"
     inkscape:window-width="1712"
     inkscape:window-height="1040"
     inkscape:window-x="0"
     inkscape:window-y="39"
     inkscape:window-maximized="0" />
  <g
     id="g3255"
     transform="matrix(1.0254086,0,0,1.0254086,1.8961317,0.06635452)"
     style="fill:#1a1a1a">
    <path
       d="M 20.03212,7.57814 C 20.86433,6.23511 21.29013,4.00803 21.07035,2.6329 20.81847,1.06057 19.53294,0.04139 18.38359,-0.05351 16.62852,-0.1985 15.91732,1.09761 16.91886,1.90018 c 0.80892,0.64876 1.32045,1.26682 1.74766,1.99954 0.42757,0.73237 0.635,1.98967 0.38912,3.06811 -0.29775,1.30457 0.30092,1.70145 0.97648,0.61031"
       style="fill:#1a1a1a;fill-opacity:1;fill-rule:nonzero;stroke:none;stroke-width:0.0352778"
       id="path455" />
    <path
       d="m 20.87174,13.16473 c 1.34337,-0.83221 3.57081,-1.25872 4.94523,-1.03823 1.57234,0.25189 2.59186,1.53705 2.68641,2.68676 0.14534,1.75436 -1.15076,2.46591 -1.95369,1.46508 -0.6484,-0.80892 -1.26612,-1.32044 -1.99989,-1.74836 -0.73202,-0.42651 -1.98896,-0.63465 -3.06776,-0.38877 -1.30422,0.2974 -1.70145,-0.30091 -0.6103,-0.97648"
       style="fill:#1a1a1a;fill-opacity:1;fill-rule:nonzero;stroke:none;stroke-width:0.0352778"
       id="path457" />
    <path
       d="m 3.91406,25.34791 c -0.91475,0.71861 -2.51072,1.2125 -3.53483,1.16311 -1.17158,-0.0554 -2.02248,-0.91335 -2.18546,-1.74696 -0.24942,-1.27318 0.64099,-1.899 1.31057,-1.23261 0.54116,0.53975 1.03469,0.86396 1.60584,1.1169 0.57115,0.25259 1.50813,0.30268 2.27718,0.0342 0.93134,-0.3235 1.27071,0.0815 0.5267,0.66534"
       style="fill:#1a1a1a;fill-opacity:1;fill-rule:nonzero;stroke:none;stroke-width:0.0352778"
       id="path459" />
    <path
       d="m 9.513,22.53239 c 0.0631,1.1617 0.74436,2.68675 1.45591,3.42441 0.81421,0.84349 2.02036,0.91793 2.75484,0.49142 1.12184,-0.65228 1.00542,-1.73461 0.0621,-1.79775 -0.762,-0.0508 -1.33103,-0.20885 -1.89759,-0.47132 -0.56727,-0.26281 -1.22202,-0.9345 -1.52788,-1.68945 -0.37007,-0.9144 -0.89853,-0.90135 -0.84737,0.0427"
       style="fill:#1a1a1a;fill-opacity:1;fill-rule:nonzero;stroke:none;stroke-width:0.0352778"
       id="path461" />
    <path
       d="m 36.83634,0.59032 c 0.72531,0.32067 1.88242,1.50001 2.25249,2.37066 0.24941,0.58597 0.43885,0.55915 0.9084,-0.0836 0.68263,-0.93557 1.83162,-1.46579 3.29636,-1.77059 0.73307,-0.152755 5.342156,-0.38797191 9.96541,-0.37979 0,0 1.97812,0.010075 2.741,-0.00968 C 56.88124,0.69402 56.88972,0 56,0 H 36.88749 c -0.45191,0 -0.50377,0.3903 -0.0512,0.59032"
       style="fill:#1a1a1a;fill-opacity:1;fill-rule:nonzero;stroke:none;stroke-width:0.0352778"
       id="path463"
       sodipodi:nodetypes="ccccscssc" />
    <path
       d="m 0.58948,36.10375 c 0.32138,0.72602 1.49966,1.88313 2.37067,2.25284 0.58596,0.25012 0.55915,0.43991 -0.084,0.90911 -0.93522,0.68297 -1.46509,1.83127 -1.77059,3.29741 -0.1524,0.73219 -0.3827037,7.652166 -0.38856,10.695559 0,0 0.019755,1.978626 0,2.741331 C 0.6937,56.88159 0,56.88831 0,56 V 36.15595 c 0,-0.45226 0.38942,-0.50342 0.58944,-0.0522"
       style="fill:#1a1a1a;fill-opacity:1;fill-rule:nonzero;stroke:none;stroke-width:0.0352778"
       id="path465"
       sodipodi:nodetypes="ccccscssc" />
    <path
       d="M 38.59282,4.2525 C 36.84446,0.35325 31.21059,-0.45744 27.59709,0.84537 23.38916,2.36126 21.50144,7.04827 19.27401,10.54253 16.94073,14.20472 12.36767,17.22414 7.88105,15.71884 5.74568,15.00235 3.94122,13.30795 3.03705,11.25726 2.17769,9.30816 2.45603,6.96254 3.29599,5.05754 4.93253,1.34985 10.35331,-0.78693 13.10286,2.96839 15.23929,5.88586 13.3618,10.41165 9.77546,10.97362 7.95337,11.25902 6.72252,9.62072 6.73805,7.94115 6.74605,7.0839 7.27815,6.34553 7.89163,5.79978 8.02004,5.68584 8.18726,5.55919 8.37352,5.43713 8.49453,5.92502 8.99794,6.36599 9.67704,6.51381 10.5417,6.70148 11.35414,6.34447 11.49173,5.71406 11.61732,5.13445 11.12554,4.5319 10.37377,4.29131 10.29197,4.26311 10.21996,4.24231 10.17375,4.23201 8.46489,3.85489 6.73769,4.41051 5.63138,5.79411 4.50285,7.20487 4.91348,9.35681 6.24874,10.48923 9.30203,13.07967 13.86627,11.71407 15.44637,8.21028 16.21895,6.49614 15.73494,4.51035 14.72635,3.01387 13.64473,1.40767 11.75102,0.5603 9.90458,0.23221 5.95029,-0.47123 2.26906,1.93683 1.10701,5.71297 c -1.31586,4.27672 1.1497,8.17845 4.953,10.0718 3.91971,1.95087 8.73301,1.28341 12.11897,-1.42486 3.36056,-2.68782 4.68101,-7.15822 7.46161,-10.35262 1.60478,-1.84362 3.88937,-2.94887 6.34647,-2.90513 2.32551,0.0416 4.2986,1.3074 5.09693,3.50026 0.60114,1.65065 0.45297,3.54013 -0.42016,5.05954 -1.01811,1.77095 -3.42723,2.74708 -5.38127,2.11138 -1.99813,-0.64911 -2.38019,-3.05612 -1.80305,-4.80801 0.31151,-0.94509 1.03858,-1.76601 1.94804,-2.16747 0.76412,-0.33725 1.51342,-0.14499 1.85068,0.44697 -0.29281,0.28187 -0.48507,0.72249 -0.48507,1.22308 0,0.85161 0.54645,1.54199 1.22131,1.54199 0.67416,0 1.22061,-0.69038 1.22061,-1.54199 -0.004,-1.93357 -2.02212,-2.54 -3.6389,-2.66523 -1.90712,-0.14676 -3.39725,1.2072 -3.96804,2.94075 -1.44569,4.38468 3.63678,6.6033 7.17832,5.90832 3.88761,-0.7627 5.29625,-5.03343 3.78636,-8.39928"
       style="fill:#1a1a1a;fill-opacity:1;fill-rule:nonzero;stroke:none;stroke-width:0.0352778"
       id="path467" />
    <path
       d="m 13.39002,32.77106 c -0.1143,-2.16323 -1.31656,-3.94194 -3.42864,-4.5332 -2.53542,-0.70802 -5.67549,0.83609 -5.44513,3.76062 0.10266,1.3028 1.02588,2.22496 2.24543,2.54035 1.10561,0.2861 2.70651,0.23918 3.46287,-0.74577 0.44697,-0.5715 0.46355,-1.30352 0.0388,-1.63583 -0.42509,-0.33267 -1.13171,-0.139 -1.57832,0.43285 -0.26,0.33232 -0.36971,0.71791 -0.33585,1.04916 -0.94086,0.98884 -1.8669,-0.6805 -2.00342,-1.54199 -0.19403,-1.21673 0.52211,-2.33609 1.50318,-2.98485 1.13242,-0.74965 2.32834,0.0974 2.9644,1.07421 0.68297,1.04845 0.83149,2.407 0.73201,3.6255 -0.20814,2.53823 -3.04412,4.2552 -5.43243,3.64983 C 3.71686,36.85552 2.19991,34.41042 2.35267,32.02246 2.50965,29.55196 4.47745,27.77431 6.08893,26.12331 7.75334,24.41904 9.58426,22.73771 9.3098,20.14444 9.09037,18.0701 7.54026,16.87031 5.60422,16.49424 3.76977,16.13864 1.54868,16.67557 0.80256,18.57069 0.16897,20.18077 0.91192,21.82189 2.43098,22.58813 3.7733,23.26405 5.90831,22.86259 6.5613,21.42925 6.9169,20.7117 6.72746,19.89326 6.13832,19.60151 5.54954,19.30976 4.78295,19.65411 4.42735,20.37198 4.18782,20.85669 4.20087,21.38339 4.41215,21.76616 4.2093,22.01698 3.96518,22.22018 3.75281,22.14045 3.25257,21.95419 2.90897,21.44442 2.65673,21.00345 2.04572,19.93418 2.46623,18.65324 3.23846,17.80587 c 0.82585,-0.90699 2.08421,-0.7807 3.00531,-0.11641 0.97085,0.69991 1.28835,2.02 1.27424,3.14854 -0.0328,2.53788 -2.64795,4.42136 -4.24216,6.09106 -1.56527,1.63971 -2.90053,3.49391 -2.75448,5.87763 0.28504,4.63762 5.98981,6.56378 9.77935,4.94277 2.11525,-0.90417 3.20957,-2.70757 3.08927,-4.9784"
       style="fill:#1a1a1a;fill-opacity:1;fill-rule:nonzero;stroke:none;stroke-width:0.0352778"
       id="path469" />
  </g>
</svg>
