<?xml version="1.0" encoding="UTF-8" standalone="no"?>
<svg
   width="35"
   height="35"
   viewBox="0 0 35 35.000001"
   version="1.1"
   id="svg1173"
   sodipodi:docname="style21.svg"
   inkscape:version="1.4 (e7c3feb1, 2024-10-09)"
   inkscape:export-filename="style21.png"
   inkscape:export-xdpi="2509.2644"
   inkscape:export-ydpi="2509.2644"
   xmlns:inkscape="http://www.inkscape.org/namespaces/inkscape"
   xmlns:sodipodi="http://sodipodi.sourceforge.net/DTD/sodipodi-0.dtd"
   xmlns="http://www.w3.org/2000/svg"
   xmlns:svg="http://www.w3.org/2000/svg">
  <defs
     id="defs5372">
    <inkscape:path-effect
       effect="mirror_symmetry"
       start_point="0,0"
       end_point="9,9"
       center_point="4.5,4.5"
       id="path-effect5516"
       is_visible="true"
       lpeversion="1.2"
       lpesatellites=""
       mode="free"
       discard_orig_path="false"
       fuse_paths="false"
       oposite_fuse="false"
       split_items="false"
       split_open="false"
       link_styles="false" />
    <inkscape:path-effect
       effect="mirror_symmetry"
       start_point="0,0"
       end_point="9,9"
       center_point="4.5,4.5"
       id="path-effect5514"
       is_visible="true"
       lpeversion="1.2"
       lpesatellites=""
       mode="free"
       discard_orig_path="false"
       fuse_paths="false"
       oposite_fuse="false"
       split_items="false"
       split_open="false"
       link_styles="false" />
    <inkscape:path-effect
       effect="mirror_symmetry"
       start_point="0,0"
       end_point="9,9"
       center_point="4.5,4.5"
       id="path-effect5512"
       is_visible="true"
       lpeversion="1.2"
       lpesatellites=""
       mode="free"
       discard_orig_path="false"
       fuse_paths="false"
       oposite_fuse="false"
       split_items="false"
       split_open="false"
       link_styles="false" />
  </defs>
  <sodipodi:namedview
     id="namedview5370"
     pagecolor="#ffffff"
     bordercolor="#666666"
     borderopacity="1.0"
     inkscape:showpageshadow="2"
     inkscape:pageopacity="0.0"
     inkscape:pagecheckerboard="0"
     inkscape:deskcolor="#d1d1d1"
     showgrid="false"
     inkscape:zoom="17.53642"
     inkscape:cx="19.815903"
     inkscape:cy="20.614242"
     inkscape:current-layer="svg1173"
     inkscape:window-width="2128"
     inkscape:window-height="1264"
     inkscape:window-x="0"
     inkscape:window-y="25"
     inkscape:window-maximized="0" />
  <g
     id="g5552"
     style="fill:#000000">
    <path
       d="m 16.784432,4.2555554 c 1.277064,-1.38924 3.04907,-1.76248 4.870816,-1.87325 1.816107,-0.11042 3.980764,-0.17851 4.486296,-2.33468997 0.0917,-0.39158 1.408994,-0.15028 1.326444,0.20249998 -0.886183,3.78177999 -5.8332,1.94979999 -8.321698,3.41664999 -0.0751,0.0441 -0.143941,0.0921 -0.215551,0.13794 1.293285,-0.31644 2.685709,-0.25259 3.996984,0.18485 2.394668,0.79834 3.235691,3.43888 2.018957,5.611294 -0.212371,0.3792327 -1.447455,-0.0737 -1.297165,-0.342553 0.740123,-1.321151 0.798538,-4.1871556 -1.042859,-4.675345 -1.841397,-0.4881894 -4.892153,0.049527 -5.712154,1.512684 -1.415355,3.00072 -0.0755,7.1405776 1.982967,9.6273076 0.332321,0.40182 -0.960263,0.36583 -1.186044,0.0924 C 15.023716,12.593073 13.670451,7.6446454 16.784432,4.2555154 M 4.2555554,16.784432 c -1.38924,1.277064 -1.76248,3.04907 -1.87325,4.870816 -0.11042,1.816107 -0.17851,3.980764 -2.33468997,4.486296 -0.39158,0.0917 -0.15028,1.408994 0.20249998,1.326444 3.78177999,-0.886183 1.94979999,-5.8332 3.41664999,-8.321698 0.0441,-0.0751 0.0921,-0.143941 0.13794,-0.215551 -0.31644,1.293285 -0.25259,2.685709 0.18485,3.996984 0.79834,2.394668 3.43888,3.235691 5.611294,2.018957 0.3792327,-0.212371 -0.0737,-1.447455 -0.342553,-1.297165 -1.321151,0.740123 -4.1871556,0.798538 -4.675345,-1.042859 -0.4881894,-1.841397 0.049527,-4.892153 1.512684,-5.712154 3.00072,-1.415355 7.1405776,-0.0755 9.6273076,1.982967 0.40182,0.332321 0.36583,-0.960263 0.0924,-1.186044 -3.22227,-2.667709 -8.1706976,-4.020974 -11.5598276,-0.906993"
       style="fill:#000000;fill-opacity:1;fill-rule:nonzero;stroke:none;stroke-width:0.0352778"
       id="path493"
       sodipodi:nodetypes="ccccccccczcccc"
       inkscape:path-effect="#path-effect5516"
       inkscape:original-d="m 16.784432,4.2555554 c 1.277064,-1.38924 3.04907,-1.76248 4.870816,-1.87325 1.816107,-0.11042 3.980764,-0.17851 4.486296,-2.33468997 0.0917,-0.39158 1.408994,-0.15028 1.326444,0.20249998 -0.886183,3.78177999 -5.8332,1.94979999 -8.321698,3.41664999 -0.0751,0.0441 -0.143941,0.0921 -0.215551,0.13794 1.293285,-0.31644 2.685709,-0.25259 3.996984,0.18485 2.394668,0.79834 3.235691,3.43888 2.018957,5.611294 -0.212371,0.3792327 -1.447455,-0.0737 -1.297165,-0.342553 0.740123,-1.321151 0.798538,-4.1871556 -1.042859,-4.675345 -1.841397,-0.4881894 -4.892153,0.049527 -5.712154,1.512684 -1.415355,3.00072 -0.0755,7.1405776 1.982967,9.6273076 0.332321,0.40182 -0.960263,0.36583 -1.186044,0.0924 -2.667709,-3.22227 -4.020974,-8.1706976 -0.906993,-11.5598276"
       class="UnoptimicedTransforms" />
    <path
       d="m 13.358135,-2.7229024 c -0.637462,0.0547 -1.235424,0.35842 -1.793166,0.91687 -1.172644,1.17157013 -1.7222764,2.72873998 -1.6513662,4.67219 0.0857,2.00025 0.8318532,4.19135 2.2408582,6.5711907 0.843843,1.2724757 1.438625,2.1187857 1.791406,2.5407157 0.204611,0.30832 0.441331,0.66639 0.705562,1.0735 0.178861,0.29139 0.288571,0.45932 0.333021,0.50306 0.0554,0.0565 0.130531,0.0963 0.224371,0.11712 0.0854,-0.15769 0.11394,-0.29245 0.084,-0.4071 -0.0198,-0.0497 -0.0914,-0.16475 -0.21237,-0.34361 -0.365132,-0.52105 -0.754953,-1.1744 -1.169114,-1.95862 C 13.432265,10.037783 13.049854,9.1194973 12.763743,8.2057973 11.98657,5.6820276 11.589349,3.5424276 11.574529,1.7852476 c -0.007,-1.69474987 0.340781,-2.8913699 1.041053,-3.59199 0.177441,-0.1778 0.455432,-0.29809 0.829733,-0.35912 0.374651,-0.06 0.642762,-0.0113 0.798693,0.14464 0.0928,0.0935 0.254351,0.35066 0.484011,0.7708101 0.227191,0.42299003 0.456502,0.74860003 0.684393,0.97544003 0.420861,0.42262 0.746122,0.5214 0.975783,0.29139 0.172161,-0.17357 0.0794,-0.43674 -0.279401,-0.79446 -0.0349,-0.0346 -0.078,-0.0794 -0.1277,-0.12841001 -0.0564,-0.0437 -0.0938,-0.0716 -0.108311,-0.0864 -0.006,-0.007 -0.0998,-0.14217002 -0.277981,-0.40710002 -0.17992,-0.2642301 -0.383831,-0.5104701 -0.610312,-0.7394301 -0.444151,-0.44203 -0.986723,-0.63746 -1.626315,-0.58349 z m -5.476191,6.6675 c -0.239531,-0.01 -0.426501,0.0508 -0.563732,0.18733 -0.049,0.0504 -0.0988,0.2099 -0.1481702,0.48118 -0.0515,0.27235 -0.0988,0.43075 -0.1404105,0.47308 -0.036,0.0353 -0.1749706,0.0328 -0.4169814,-0.0127 -0.6230121,-0.0907 -0.9570933,-0.14041 -1.0093035,-0.14852 -0.308681,-0.0363 -0.5034117,-0.0529 -0.589842,-0.0543 -0.1640405,0.008 -0.305861,0.0716 -0.4289814,0.19332 -0.1562806,0.15875 -0.1742706,0.59726 -0.0519,1.31869 0.0497,0.26317 0.0988,0.53022 0.1509905,0.7934 0.0349,0.19226 0.0314,0.31079 -0.0131,0.35348 -0.049,0.0501 -0.2049707,0.1023 -0.4663716,0.15557 -0.2585909,0.0536 -0.4191014,0.10866 -0.4759016,0.1644 -0.079,0.0794 -0.1185304,0.20884 -0.1185304,0.3880497 0,0.17745 0.0522,0.31786 0.1502805,0.41628 0.0794,0.079 0.7754026,0.39723 2.0898571,0.955683 1.9173565,0.8135037 3.0205005,1.2961037 3.3140115,1.4474437 0.8353839,0.43498 1.643247,0.98672 2.42148,1.651 0.612772,0.54187 1.230134,1.07809 1.843266,1.60691 0.423331,0.35101 0.700622,0.4579 0.836443,0.32314 l 0.0212,-0.0219 c 0.0639,-0.0642 -0.350311,-0.54328 -1.243544,-1.43651 -0.243061,-0.24377 -0.621952,-0.57891 -1.135244,-1.00965 -0.557742,-0.45614 -0.964853,-0.8061 -1.223784,-1.04952 -0.411702,-0.39969 -0.7994033,-0.756 -1.1557053,-1.072441 C 9.212939,9.7774313 9.066178,9.6511303 9.088758,9.6737103 8.851687,9.4359383 8.773367,9.2814173 8.851687,9.2023973 c 0.0854,-0.085 0.471312,0.135471 1.158526,0.664285 0.786703,0.6141917 1.711336,1.4548617 2.77532,2.5195417 l 0.0868,0.0854 c 0.078,0.079 0.192261,0.19968 0.342901,0.36513 0.150641,0.16333 0.267411,0.28892 0.352422,0.37359 0.407461,0.40781 0.654412,0.56868 0.740492,0.48225 0.0642,-0.0635 0.0134,-0.20038 -0.15064,-0.40711 -0.235661,-0.29351 -0.474842,-0.58243 -0.717553,-0.86889 -1.157464,-1.39876 -1.895126,-2.30787 -2.207337,-2.7209827 -0.643823,-0.843844 -1.101374,-1.551874 -1.3730153,-2.1237237 -0.315742,-0.66992 -0.6212437,-1.44251 -0.9225247,-2.31493 -0.219781,-0.62159 -0.377472,-0.9786 -0.471312,-1.07103 -0.15063,-0.14993 -0.344661,-0.23142 -0.583852,-0.2413 z m 4.519458,10.2196264 c -0.986724,-0.51329 -1.954397,-1.06892 -2.9069014,-1.66123 -1.7713066,-1.11478 -3.5747131,-1.81046 -5.4116293,-2.0895 -1.3440846,-0.20003 -2.5456487,-0.18521 -3.60293179,0.0423 -1.02129315,0.23671 -1.82809611,0.65088 -2.42182871,1.24284 -0.2501209,0.25259 -0.4427315,0.59513 -0.579612,1.03081 -0.1566405,0.45685 -0.2070807,0.87771 -0.1506405,1.26365 0.0444,0.31327 0.1986207,0.60466 0.4632016,0.8689 0.4201614,0.42086 0.8498434,0.72001 1.28552516,0.90099 0.3707712,0.15663 0.614192,0.17992 0.7288424,0.0646 0.0356,-0.0356 0.005,-0.16863 -0.0914,-0.39264 -0.096701,-0.22437 -0.1876809,-0.37995 -0.2741112,-0.46673 -0.0716,-0.0716 -0.2116607,-0.15663 -0.4233315,-0.2607 -0.21061066,-0.10478 -0.35878136,-0.20108 -0.44521186,-0.2854 -0.3277315,-0.32949 -0.4984721,-0.68686 -0.5083521,-1.07703 -0.0109,-0.38735 0.1386405,-0.73801 0.4441518,-1.04493 0.50129216,-0.50024 1.51271566,-0.72531 3.0346,-0.67662 1.6510056,0.0515 3.6265724,0.42686 5.9270404,1.12712 1.737086,0.52282 3.527084,1.29752 5.37106,2.32622 0.227191,0.12876 0.382771,0.20179 0.461792,0.22472 0.12065,0.0349 0.22684,0.008 0.320681,-0.0864 0.12135,-0.12136 0.12135,-0.24201 0,-0.36407 -0.0582,-0.0586 -0.464972,-0.2854 -1.220974,-0.68686"
       style="fill:#000000;fill-opacity:1;fill-rule:nonzero;stroke:none;stroke-width:0.0352778"
       id="path495" />
    <path
       d="m 29.536295,0.01516543 c -0.16633,0 -0.851213,0.01 -0.831813,0.30973997 0.122411,1.90147 -0.850553,3.93629 -2.792949,4.48169 -0.091,0.0254 -0.433922,0.1651 -0.289281,0.32138 2.292708,2.47579 2.239087,6.1834976 -0.548222,8.3019276 -1.607255,1.22202 -4.094354,0.83679 -5.103647,-0.9331 -0.445922,-0.78246 -0.487542,-1.63583 -0.221551,-2.38019 0.351721,0.31926 0.916873,0.44238 1.479905,0.26881 0.786703,-0.24165 1.262604,-0.9644951 1.062924,-1.6136076 -0.189791,-0.61595 -0.920394,-0.93874 -1.666876,-0.76306 -0.243309,0.072458 -0.341273,0.1182814 -0.527292,0.21619 -1.555755,0.82374 -2.332578,2.5703476 -1.505665,4.2933176 0.872423,1.81822 3.126681,2.35867 4.993947,2.13325 2.257778,-0.27235 4.143384,-1.8662 4.849996,-4.02202 0.650773,-1.9857976 -0.0755,-4.0498976 -1.379004,-5.5499076 1.865636,-0.72426 3.00543,-2.51848 2.994,-4.52650004 H 35 C 35.565392,0.55308536 35.917504,0 35,0 M 0.01516543,29.536295 c 0,-0.16633 0.01,-0.851213 0.30973997,-0.831813 1.90147,0.122411 3.93629,-0.850553 4.48169,-2.792949 0.0254,-0.091 0.1651,-0.433922 0.32138,-0.289281 2.47579,2.292708 6.1834976,2.239087 8.3019276,-0.548222 1.22202,-1.607255 0.83679,-4.094354 -0.9331,-5.103647 -0.78246,-0.445922 -1.63583,-0.487542 -2.38019,-0.221551 0.31926,0.351721 0.44238,0.916873 0.26881,1.479905 -0.24165,0.786703 -0.9644951,1.262604 -1.6136076,1.062924 -0.61595,-0.189791 -0.93874,-0.920394 -0.76306,-1.666876 0.072458,-0.243309 0.1182814,-0.341273 0.21619,-0.527292 0.82374,-1.555755 2.5703476,-2.332578 4.2933176,-1.505665 1.81822,0.872423 2.35867,3.126681 2.13325,4.993947 -0.27235,2.257778 -1.8662,4.143384 -4.02202,4.849996 -1.9857976,0.650773 -4.0498976,-0.0755 -5.5499076,-1.379004 -0.72426,1.865636 -2.51848,3.00543 -4.52650004,2.994 V 35 C 0.55308536,35.565392 0,35.917504 0,35"
       style="fill:#000000;fill-opacity:1;fill-rule:nonzero;stroke:none;stroke-width:0.0352778"
       id="path497"
       sodipodi:nodetypes="ccccccccccccccccsc"
       inkscape:path-effect="#path-effect5512"
       inkscape:original-d="m 29.536295,0.01516543 c -0.16633,0 -0.851213,0.01 -0.831813,0.30973997 0.122411,1.90147 -0.850553,3.93629 -2.792949,4.48169 -0.091,0.0254 -0.433922,0.1651 -0.289281,0.32138 2.292708,2.47579 2.239087,6.1834976 -0.548222,8.3019276 -1.607255,1.22202 -4.094354,0.83679 -5.103647,-0.9331 -0.445922,-0.78246 -0.487542,-1.63583 -0.221551,-2.38019 0.351721,0.31926 0.916873,0.44238 1.479905,0.26881 0.786703,-0.24165 1.262604,-0.9644951 1.062924,-1.6136076 -0.189791,-0.61595 -0.920394,-0.93874 -1.666876,-0.76306 -0.243309,0.072458 -0.341273,0.1182814 -0.527292,0.21619 -1.555755,0.82374 -2.332578,2.5703476 -1.505665,4.2933176 0.872423,1.81822 3.126681,2.35867 4.993947,2.13325 2.257778,-0.27235 4.143384,-1.8662 4.849996,-4.02202 0.650773,-1.9857976 -0.0755,-4.0498976 -1.379004,-5.5499076 1.865636,-0.72426 3.00543,-2.51848 2.994,-4.52650004 H 35 C 35.565392,0.55308536 35.917504,0 35,0"
       class="UnoptimicedTransforms" />
    <path
       d="M 30.718919,2.2814054 H 35 c 0.565392,0 0.917504,-0.8703 0,-0.8703 h -4.13446 c -0.0143,0.22472 -0.0732,0.60431 -0.146621,0.8703 M 2.2814054,30.718919 V 35 c 0,0.565392 -0.8703,0.917504 -0.8703,0 v -4.13446 c 0.22472,-0.0143 0.60431,-0.0732 0.8703,-0.146621"
       style="fill:#000000;fill-opacity:1;fill-rule:nonzero;stroke:none;stroke-width:0.0352778"
       id="path557"
       sodipodi:nodetypes="csscc"
       inkscape:path-effect="#path-effect5514"
       inkscape:original-d="M 30.718919,2.2814054 H 35 c 0.565392,0 0.917504,-0.8703 0,-0.8703 h -4.13446 c -0.0143,0.22472 -0.0732,0.60431 -0.146621,0.8703"
       class="UnoptimicedTransforms" />
  </g>
</svg>
