<?xml version="1.0" encoding="UTF-8" standalone="no"?>
<svg
   width="61.204029"
   height="61.20372"
   viewBox="0 0 61.204029 61.203723"
   version="1.1"
   id="svg1173"
   sodipodi:docname="style26.svg"
   inkscape:version="1.4 (e7c3feb1, 2024-10-09)"
   inkscape:export-filename="style26.png"
   inkscape:export-xdpi="1568.5242"
   inkscape:export-ydpi="1568.5242"
   xmlns:inkscape="http://www.inkscape.org/namespaces/inkscape"
   xmlns:sodipodi="http://sodipodi.sourceforge.net/DTD/sodipodi-0.dtd"
   xmlns="http://www.w3.org/2000/svg"
   xmlns:svg="http://www.w3.org/2000/svg">
  <defs
     id="defs6548" />
  <sodipodi:namedview
     id="namedview6546"
     pagecolor="#ffffff"
     bordercolor="#666666"
     borderopacity="1.0"
     inkscape:showpageshadow="2"
     inkscape:pageopacity="0.0"
     inkscape:pagecheckerboard="0"
     inkscape:deskcolor="#d1d1d1"
     showgrid="false"
     inkscape:zoom="8.5420137"
     inkscape:cx="21.950328"
     inkscape:cy="20.428438"
     inkscape:current-layer="svg1173"
     inkscape:window-width="1984"
     inkscape:window-height="1070"
     inkscape:window-x="0"
     inkscape:window-y="25"
     inkscape:window-maximized="0" />
  <g
     id="g2675"
     transform="translate(-97.11334,-565.49331)"
     style="fill:#000000">
    <path
       d="m 114.07207,576.60546 c 0.54011,0.16192 0.87489,0.64205 0.74507,1.07103 -0.12665,0.42334 -0.65299,0.6343 -1.18533,0.48719 -7.1e-4,10e-4 -0.002,0.006 -0.002,0.006 -0.007,-0.003 -0.0127,-0.006 -0.0198,-0.009 -0.002,-7.1e-4 -0.004,0 -0.006,-7.1e-4 -0.0886,-0.0268 -0.16828,-0.0646 -0.24483,-0.10618 -1.00401,-0.48966 -1.43192,-2.12725 -0.99589,-3.11397 0.75494,-1.70851 3.06917,-1.62948 4.18747,-0.34643 0.91687,1.05269 0.77752,2.96651 0.10583,4.07952 -0.95144,1.57798 -3.04976,1.77835 -4.73639,1.62666 0.15311,1.68628 -0.0483,3.7846 -1.6256,4.73569 -1.11513,0.67204 -3.02719,0.81103 -4.07917,-0.10548 -1.28376,-1.11866 -1.36278,-3.43253 0.34572,-4.18783 0.98602,-0.43532 2.62432,-0.008 3.11397,0.9966 0.0416,0.0755 0.0794,0.15628 0.10619,0.24483 10e-4,10e-4 0,0.002 10e-4,0.005 0.001,0.006 0.006,0.0123 0.008,0.0194 0,7e-4 -0.005,0.002 -0.006,0.002 0.14605,0.53269 -0.0642,1.05939 -0.48718,1.18568 -0.42898,0.12983 -0.90946,-0.20496 -1.07174,-0.74542 -0.12383,-0.4131 -0.0247,-0.82373 0.21978,-1.05445 -0.38735,-0.46037 -1.17934,-0.44273 -1.53388,-0.0716 -0.38382,0.40182 -0.57115,0.96167 -0.57291,1.52259 -0.003,0.98178 0.69462,2.82328 2.04329,2.42006 2.37243,-0.70979 2.68958,-3.34469 2.42217,-5.46312 -0.0533,-0.44909 0.1898,-0.68086 0.62089,-0.62089 2.11878,0.26635 4.75368,-0.0508 5.46347,-2.42358 0.40322,-1.34726 -1.43828,-2.04541 -2.41935,-2.04223 -0.56127,10e-4 -1.12078,0.18909 -1.52294,0.57185 -0.37112,0.3556 -0.38876,1.14794 0.0709,1.53388 0.23071,-0.24413 0.64135,-0.3422 1.05515,-0.21802 z m -12.42165,15.51375 c 2.78518,0.50624 5.45853,-1.34408 7.67679,-2.82539 1.66794,-1.11443 3.1556,-2.37914 4.53496,-3.82658 -2.7746,0.52246 -5.57142,0.7373 -8.388,0.18415 -0.69038,-0.13618 -1.39629,-0.35102 -2.05034,-0.65829 1.38324,0.78176 2.22179,2.33751 1.12642,3.81318 -0.0776,0.11395 -0.16475,0.22542 -0.26988,0.32808 -0.6551,0.63712 -1.57868,0.74754 -2.0641,0.24871 -0.48507,-0.49883 -0.34854,-1.41958 0.30692,-2.05669 0.41345,-0.40217 0.93521,-0.59338 1.38571,-0.55457 -0.048,-0.23813 -0.13864,-0.47025 -0.28187,-0.68368 -1.17969,-1.7579 -3.62232,-1.04352 -4.54766,0.50447 -1.33385,2.23238 -0.11254,5.03872 2.57105,5.52661 z m 2.26024,-17.58279 c 0.17957,-0.37465 0.29916,-0.73555 0.39123,-1.08938 -0.56338,0.0198 -1.12218,-0.0353 -1.64324,-0.18098 -0.51752,-0.14393 -0.98883,-0.33231 -1.42487,-0.5535 0.35102,0.502 0.5207,1.16593 0.5775,1.7526 0.0818,0.63782 -0.31926,1.21602 -0.89746,1.29257 -0.57856,0.0751 -1.11514,-0.381 -1.19769,-1.01882 -0.084,-0.63712 0.31715,-1.21532 0.89641,-1.29046 0.0565,-0.007 0.11148,-0.006 0.16616,-0.003 -0.33725,-0.35419 -0.90629,-0.56268 -1.46403,-0.43392 -1.36842,0.43392 -1.53776,1.69404 -1.05233,2.93476 0.12382,0.22049 0.41804,0.47378 0.66498,0.58773 0.38312,0.16827 0.78458,0.26846 1.20615,0.30057 1.76248,0.23459 3.04412,-0.77647 3.77719,-2.298 z m 3.73909,1.49225 c -0.19155,-1.25871 -0.23636,-2.54847 0.097,-3.74086 -0.79375,0.57044 -1.76036,0.94686 -2.74461,1.09255 -0.14641,0.98461 -0.52317,1.95192 -1.09397,2.74603 1.19274,-0.33373 2.4825,-0.28858 3.74156,-0.0977 z m 0.80575,-7.51593 c -0.0328,-0.42052 -0.133,-0.82303 -0.30127,-1.2065 -0.1136,-0.24695 -0.36619,-0.54152 -0.58667,-0.66393 -1.24143,-0.48507 -2.50155,-0.3168 -2.93511,1.05198 -0.12947,0.55774 0.0801,1.12642 0.43356,1.46368 -0.003,-0.055 -0.005,-0.11042 0.003,-0.16651 0.0751,-0.57891 0.6537,-0.98002 1.29082,-0.89606 0.63747,0.0822 1.09396,0.61877 1.01776,1.19733 -0.0748,0.57891 -0.65405,0.98001 -1.29187,0.89676 -0.58596,-0.0561 -1.25095,-0.22507 -1.75295,-0.57644 0.22119,0.43639 0.41063,0.90699 0.55421,1.42557 0.14499,0.5207 0.19967,1.0788 0.17992,1.64254 0.35348,-0.0924 0.71473,-0.21132 1.08938,-0.39194 1.52188,-0.73307 2.534,-2.01401 2.29905,-3.77649 z m -9.84674,-1.52436 c 0.43251,3.10727 2.6088,6.22618 5.82331,5.82225 0.40216,-3.21381 -2.71604,-5.39009 -5.82331,-5.82225 z m 18.66301,6.864 c 0.55386,2.81693 0.33937,5.61411 -0.18309,8.38906 1.44709,-1.38042 2.7118,-2.86632 3.82587,-4.53531 1.48132,-2.21792 3.33199,-4.89092 2.8254,-7.6768 -0.48789,-2.68358 -3.29353,-3.9049 -5.52591,-2.57105 -1.54834,0.92604 -2.26272,3.36762 -0.50553,4.54837 0.21449,0.14287 0.44591,0.23318 0.68403,0.28187 -0.0388,-0.45121 0.15205,-0.97261 0.55457,-1.38642 0.63747,-0.65511 1.55822,-0.79128 2.0574,-0.30621 0.49812,0.48542 0.38735,1.40864 -0.24906,2.0634 -0.10301,0.10477 -0.21414,0.19261 -0.32844,0.27022 -1.47567,1.09538 -3.03212,0.25683 -3.81317,-1.12642 0.30727,0.6537 0.52211,1.35926 0.65793,2.04929 z m -15.65028,10.6299 c 0.50376,0.0124 1.00753,0.13617 1.46861,0.3429 -1.12677,-0.60537 -2.04823,-1.51694 -2.36784,-2.83669 -0.32914,-1.3589 -0.23389,-2.89701 0.54081,-4.06576 -2.68994,0.57644 -4.44359,-1.75048 -3.80648,-4.26826 0.31609,-1.24671 1.37901,-1.86725 2.6028,-1.6951 0.003,0 0.005,10e-4 0.007,10e-4 -1.54905,-1.25024 -2.37596,-3.11326 -2.57457,-5.28531 -0.0522,-0.54152 0.21907,-0.83044 0.80539,-0.80363 2.17099,0.1965 4.03401,1.02376 5.28461,2.57351 -3.5e-4,-0.004 -0.002,-0.005 -0.002,-0.006 -0.1711,-1.22413 0.44944,-2.2867 1.69474,-2.60244 2.51848,-0.63853 4.8454,1.11619 4.26897,3.80542 1.16875,-0.7747 2.70721,-0.8696 4.06505,-0.54117 1.32045,0.32033 2.23238,1.24284 2.8381,2.36997 -0.20708,-0.46108 -0.33126,-0.96556 -0.3436,-1.47003 -0.066,-2.76296 2.64548,-4.82882 5.25004,-3.99909 2.91958,0.93133 3.54259,5.07965 2.64406,7.55474 -1.06644,2.93793 -2.90688,5.68995 -5.04436,8.04615 2.53329,-1.95297 4.73145,-4.22522 6.76345,-6.77968 0.7493,-0.94227 1.45239,-1.96497 2.11632,-3.01731 0.35489,-0.56197 0.29421,-3.13408 1.35431,-4.10316 1.04316,-0.95426 2.4578,-1.46685 3.93312,-1.46685 1.17369,0 1.05233,0.43604 0.34149,1.0093 -3.33516,2.43523 -5.37986,5.9757 -7.85813,9.01171 -2.5527,3.12561 -5.65644,6.18349 -9.04769,8.36295 -7.1e-4,-0.003 -0.001,-0.007 -0.002,-0.009 -0.11888,0.0995 -0.27058,-0.69145 -0.22895,-0.86642 0.97966,-4.11868 2.67159,-12.28126 -2.98767,-13.65215 -3.80965,-0.92287 -5.94784,2.54635 -5.36364,5.98664 0.0455,0.30021 -0.012,0.34149 -0.27446,0.27375 -3.43958,-0.58349 -6.90986,1.5547 -5.98664,5.36434 1.37125,5.65926 9.53417,3.96699 13.65285,2.98803 0.18274,-0.0434 1.03894,0.12347 0.84491,0.24377 0.002,0.003 0.006,0.006 0.008,0.01 -2.17911,3.3909 -5.21512,6.47206 -8.34108,9.02406 -3.0353,2.47932 -6.57648,4.52437 -9.01136,7.85883 -0.57255,0.71085 -1.00859,0.8315 -1.00859,-0.34184 0,-1.47497 0.51259,-2.88996 1.46579,-3.93207 0.97014,-1.06009 3.54189,-0.99941 4.10457,-1.35501 1.05128,-0.66429 2.0754,-1.36702 3.01625,-2.11597 2.55517,-2.0327 4.82742,-4.23086 6.78039,-6.76416 -2.3562,2.13784 -5.10857,3.97828 -8.0458,5.04543 -2.47615,0.89782 -6.62446,0.27517 -7.55509,-2.64477 -0.83044,-2.60456 1.23613,-5.31637 3.99874,-5.25004"
       style="fill:#000000;fill-opacity:1;fill-rule:nonzero;stroke:none;stroke-width:0.0352778"
       id="path196" />
    <path
       d="m 106.75687,596.46332 c -2.59185,1.95897 -5.00874,4.39843 -6.72676,7.16245 -1.65206,2.65783 -1.87713,5.36575 -1.87713,8.39646 0,1.95228 0,3.90525 0,5.85752 0,0.96344 -1.03964,1.52189 -1.03964,2.88961 0,1.40546 0.4251,2.90936 1.03964,4.96111 0.38064,1.27247 1.07808,1.27247 1.07808,0.0949 0,-4.16172 0,-8.32308 0,-12.48445 0,-2.50966 -0.13687,-4.9851 0.78247,-7.37482 1.35325,-3.51649 4.58822,-6.25581 7.33989,-9.07592 0.60043,-0.61418 0.92498,-1.03716 0.51929,-1.08267 -0.27023,-0.0303 -0.91616,0.50553 -1.11584,0.65581 v 0"
       style="fill:#000000;fill-opacity:1;fill-rule:nonzero;stroke:none;stroke-width:0.0352778"
       id="path198" />
    <path
       d="m 128.083,575.13684 c 1.95897,-2.5915 4.39843,-5.00874 7.1635,-6.72747 2.65713,-1.651 5.36505,-1.87678 8.39541,-1.87678 1.95298,0 3.90525,0 5.85787,0 0.96379,0 1.52224,-1.03928 2.88996,-1.03928 1.40511,0 2.90901,0.42439 4.96111,1.03928 1.27247,0.38136 1.27247,1.07844 0.0946,1.07844 -4.16137,0 -8.32344,0 -12.48516,0 -2.50825,0 -4.98404,-0.13652 -7.37376,0.78247 -3.5172,1.35325 -6.25687,4.58822 -9.07592,7.33989 -0.61489,0.59937 -1.03716,0.92498 -1.08267,0.51858 -0.0303,-0.26987 0.50553,-0.91616 0.65511,-1.11513 v 0"
       style="fill:#000000;fill-opacity:1;fill-rule:nonzero;stroke:none;stroke-width:0.0352778"
       id="path200" />
  </g>
</svg>
