<?xml version="1.0" encoding="UTF-8" standalone="no"?>
<svg
   width="1000"
   height="1000.0074"
   viewBox="0 0 1000 1000.0074"
   version="1.1"
   id="svg1173"
   sodipodi:docname="style11.svg"
   inkscape:version="1.4 (e7c3feb1, 2024-10-09)"
   inkscape:export-filename="style11.png"
   inkscape:export-xdpi="3480.365"
   inkscape:export-ydpi="3480.365"
   xmlns:inkscape="http://www.inkscape.org/namespaces/inkscape"
   xmlns:sodipodi="http://sodipodi.sourceforge.net/DTD/sodipodi-0.dtd"
   xmlns="http://www.w3.org/2000/svg"
   xmlns:svg="http://www.w3.org/2000/svg">
  <defs
     id="defs5444" />
  <sodipodi:namedview
     id="namedview5442"
     pagecolor="#ffffff"
     bordercolor="#666666"
     borderopacity="1.0"
     inkscape:showpageshadow="2"
     inkscape:pageopacity="0.0"
     inkscape:pagecheckerboard="0"
     inkscape:deskcolor="#d1d1d1"
     showgrid="false"
     inkscape:zoom="2.4786672"
     inkscape:cx="898.265"
     inkscape:cy="80.688525"
     inkscape:current-layer="svg1173"
     inkscape:window-width="1912"
     inkscape:window-height="979"
     inkscape:window-x="0"
     inkscape:window-y="25"
     inkscape:window-maximized="0" />
  <path
     d="m 356.35088,405.85293 c 1.8417,1.8562 -14.83578,-31.64141 -50.08353,-100.46201 -2.99094,-5.79372 -7.40521,-13.37765 -13.12207,-22.79095 -3.00544,-4.87288 -4.02888,-7.75034 -3.10695,-8.6585 0.21752,-0.25377 13.59518,4.37402 40.04414,13.82539 7.63541,2.50876 16.49838,4.93704 26.64038,7.21342 7.58432,1.66405 11.81771,2.88943 12.75124,3.83674 0.47493,0.44955 6.11352,13.44182 16.94623,39.00836 13.33966,31.78191 29.13482,63.21885 47.30896,94.28455 -50.65958,-16.57535 -76.45646,-25.32342 -77.37731,-26.257 z m -5.89595,251.09728 c 2.99094,2.98006 6.22876,2.78791 9.69465,-0.66345 6.45865,-6.4713 12.4315,-26.6915 17.95658,-60.80125 8.50521,-54.11278 3.44049,-110.97506 -15.19404,-170.65103 43.04983,8.10856 92.09778,39.59644 147.13141,94.64276 0.70333,0.70333 1.63867,1.88157 2.78792,3.45136 1.16375,1.13837 1.9432,1.93233 2.40363,2.40363 2.09909,2.0991 6.10079,1.04774 12.09898,-3.05619 14.68242,-15.20702 23.13645,-24.10842 25.20835,-26.64075 4.36097,-6.2284 4.56581,-11.25463 0.66345,-15.15554 -0.70333,-0.71782 -2.5849,-2.13535 -5.67844,-4.3229 -3.13232,-2.1861 -5.70417,-4.31022 -7.77607,-6.38212 -6.45862,-6.4713 -16.94612,-19.95155 -31.43676,-40.37662 -21.89585,-30.6564 -42.81937,-64.7536 -62.86047,-102.2908 l 4.10538,-1.38127 c 37.33272,20.25862 83.19595,30.40062 137.50016,30.38794 22.10031,0.0127 41.80897,-2.17523 59.03678,-6.53548 15.46224,-3.93933 25.80908,-8.56895 31.10394,-13.83844 1.8562,-1.84169 3.56738,-4.74489 5.17995,-8.63275 l -4.502,-4.48931 c -33.58552,16.14056 -72.63195,22.45851 -117.07549,18.97995 -45.79943,-3.87553 -88.51619,-17.84158 -128.12565,-41.79628 -18.21224,-37.05138 -32.11456,-76.16162 -41.82191,-117.38256 -9.63053,-41.24631 -11.44685,-76.1105 -5.48669,-104.669424 l 7.60971,-35.22237 c -2.51964,-2.534141 -5.69152,-1.957705 -9.38763,1.740183 -3.45136,3.451361 -7.55859,12.904537 -12.39307,28.316024 -6.42059,19.33777 -11.84309,42.448477 -16.25554,69.408617 -6.65076,41.69404 -3.54199,88.54193 9.36184,140.55707 -29.94022,-4.10538 -63.20598,-20.37391 -99.8477,-48.67689 -5.02659,-2.75166 -16.92074,-11.6643 -35.58057,-26.57657 -5.71686,-4.8475 -10.02708,-6.77874 -12.91759,-5.72992 -2.88943,1.02236 -10.29536,7.09813 -22.31748,18.14829 -0.21752,0.21753 -0.77946,0.56194 -1.66405,1.01148 -0.49668,0.4713 -0.94622,0.90635 -1.41752,1.39578 -4.14381,4.15686 -3.74756,9.80991 1.07311,16.92073 8.46671,11.33149 17.12521,22.70141 25.89863,34.23773 25.7837,37.26855 46.96317,73.41177 63.52572,108.42977 -2.30211,0.47492 -10.83263,-2.0846 -25.56618,-7.59706 -18.60871,-7.13656 -36.60365,-12.21428 -53.86952,-15.19398 -35.46528,-6.03662 -67.91244,-7.84025 -97.37953,-5.52508 -20.744781,1.82719 -32.268049,3.9136 -34.58285,6.21572 -1.573415,1.58429 -2.04834,5.28182 -1.330515,11.05016 l -0.02574,0.67795 24.850157,-3.45499 c 21.908538,-3.01631 45.633028,-3.23384 71.161138,-0.68882 30.6051,3.01994 57.94916,8.63316 81.87849,16.9335 20.47614,7.11122 34.77464,14.73362 42.78093,22.76572 10.62817,10.58977 21.92123,28.54639 33.86685,53.92079 14.28581,29.86334 25.00352,61.33853 32.11435,94.22036 6.42056,29.50552 6.68884,53.94638 0.68882,73.24573 -5.30756,17.29162 -7.02128,26.84522 -5.19263,28.67422"
     style="fill:#000000;fill-opacity:1;fill-rule:nonzero;stroke:none;stroke-width:1.27895"
     id="path759" />
  <g
     id="g6032"
     style="fill:#000000"
     transform="matrix(36.253801,0,0,36.253801,71.122581,71.129959)">
    <path
       d="m -0.84521084,10.173364 c -1.68381046,1.79211 -1.56175046,5.87586 1.04315964,6.73558 3.0289497,0.99942 4.9297197,-3.64313 2.5202497,-5.20453 -0.0952,-0.0716 -0.20215,-0.13476 -0.3228,-0.18168 -0.5588,-0.21308 -1.14829,-0.0279 -1.31797,0.41487 -0.16933994,0.44309 0.14569,0.97543 0.70449,1.18886 0.30092,0.115 0.6089,0.11112 0.8569,0.0169 0.30304,0.10619 0.43462,0.26317 0.508,0.5835 0.19509,0.85866 -0.61595,1.51765 -1.143,1.77517 -0.87418,0.42687 -1.87712967,0.23107 -2.55410943,-0.35066 -1.66793027,-1.43369 -0.43885988,-4.27214 1.68168943,-4.70782 2.14912,-0.44167 4.10634,1.11196 4.60128,3.08857 0.59337,2.36891 -1.70356,5.00627 -3.97122,5.54743 -0.25506,0.0614 -0.31503,0.47132 -0.31503,0.68757 L 1.446,24.98645 c 0,0.82087 0.732,0.86289 0.732,0.0271 l 4.985e-4,-4.645316 c 2.97744,-0.99589 4.62244,-4.26191 4.07352,-7.30391 -0.57397,-3.1788808 -4.5466,-5.6049399 -7.09717934,-2.89101"
       style="fill:#000000;fill-opacity:1;fill-rule:nonzero;stroke:none;stroke-width:0.0352778"
       id="path763"
       sodipodi:nodetypes="ccccccccccccccccccc" />
    <path
       d="m 0,24.986665 c 0,0.82087 0.767,0.862465 0.767,0.02667 v -5.725069 c 0,-0.0945 -0.0197113,-0.20179 -0.13967122,-0.22683 -0.11958997,-0.0254 -0.32772988,-0.0572 -0.43496985,-0.0822 C 0.08546889,18.954236 0,19.029636 0,19.193726"
       style="fill:#000000;fill-opacity:1;fill-rule:nonzero;stroke:none;stroke-width:0.0352778"
       id="path765"
       sodipodi:nodetypes="cccccc" />
  </g>
  <g
     id="g6028"
     style="fill:#000000"
     transform="matrix(36.253801,0,0,36.253801,71.122581,71.129959)">
    <path
       d="m 10.974996,-0.8454143 c 1.79211,-1.6838105 5.87586,-1.5617505 6.73558,1.04315964 0.99942,3.02894966 -3.64313,4.92971966 -5.20453,2.52024966 -0.0716,-0.0952 -0.13476,-0.20215 -0.18168,-0.3228 -0.21308,-0.5588 -0.0279,-1.14829 0.41487,-1.31797 0.44309,-0.1693399 0.97543,0.14569 1.18886,0.70449 0.115,0.30092 0.11112,0.6089 0.0169,0.8569 0.10619,0.30304 0.26317,0.43462 0.5835,0.508 0.85866,0.19509 1.51765,-0.61595 1.77517,-1.143 0.42687,-0.87418 0.23107,-1.87712963 -0.35066,-2.55410939 -1.43369,-1.66793031 -4.27214,-0.43885988 -4.70782,1.68168939 -0.44167,2.14912 1.11196,4.10634 3.08857,4.60128 2.36891,0.59337 5.00627,-1.70356 5.54743,-3.97122 0.0614,-0.25506 0.47132,-0.31503 0.68757,-0.31503 l 4.417694,-4.285e-4 c 0.82087,0 0.86289,0.732 0.0271,0.732 l -3.843684,4.985e-4 c -0.99589,2.97744 -4.26191,4.62244 -7.30391,4.07352 -3.178881,-0.57397 -5.6049398,-4.5466 -2.89101,-7.0971793"
       style="fill:#000000;fill-opacity:1;fill-rule:nonzero;stroke:none;stroke-width:0.0352778"
       id="path763-9"
       sodipodi:nodetypes="ccccccccccccccccccc" />
    <path
       d="m 24.986665,-2.0346313e-4 c 0.82087,0 0.862465,0.76700000313 0.02667,0.76700000313 h -4.923437 c -0.0945,0 -0.20179,-0.0197113 -0.22683,-0.13967122 -0.0254,-0.11958997 -0.0572,-0.32772988 -0.0822,-0.43496985 -0.025,-0.10689004 0.0504,-0.19235893313 0.21449,-0.19235893313"
       style="fill:#000000;fill-opacity:1;fill-rule:nonzero;stroke:none;stroke-width:0.0352778"
       id="path765-6"
       sodipodi:nodetypes="cccccc" />
  </g>
  <g
     id="g707"
     style="fill:#000000" />
</svg>
