<?xml version="1.0" encoding="UTF-8" standalone="no"?>
<svg
   width="1000"
   height="995.11499"
   viewBox="0 0 1000 995.11502"
   version="1.1"
   id="svg1173"
   sodipodi:docname="style28.svg"
   inkscape:version="1.4 (e7c3feb1, 2024-10-09)"
   inkscape:export-filename="style28.png"
   inkscape:export-xdpi="1578.6106"
   inkscape:export-ydpi="1578.6106"
   xmlns:inkscape="http://www.inkscape.org/namespaces/inkscape"
   xmlns:sodipodi="http://sodipodi.sourceforge.net/DTD/sodipodi-0.dtd"
   xmlns="http://www.w3.org/2000/svg"
   xmlns:svg="http://www.w3.org/2000/svg">
  <defs
     id="defs6959" />
  <sodipodi:namedview
     id="namedview6957"
     pagecolor="#ffffff"
     bordercolor="#666666"
     borderopacity="1.0"
     inkscape:showpageshadow="2"
     inkscape:pageopacity="0.0"
     inkscape:pagecheckerboard="0"
     inkscape:deskcolor="#d1d1d1"
     showgrid="false"
     inkscape:zoom="0.85838074"
     inkscape:cx="532.98027"
     inkscape:cy="359.98012"
     inkscape:current-layer="svg1173"
     inkscape:window-width="2240"
     inkscape:window-height="1157"
     inkscape:window-x="0"
     inkscape:window-y="25"
     inkscape:window-maximized="0" />
  <g
     id="g7092"
     style="fill:#000000"
     transform="matrix(16.44386,0,0,16.44386,20.18784,14.39743)">
    <path
       d="m 4.08009,0.23467 c -0.096,0.0977 -0.1,0.49459 -0.017,1.19239 0.094,0.76024 0.035,1.31692 -0.1782,1.6704 C 3.61079,2.92178 3.39209,2.75068 3.22729,2.581 2.83569,2.19153 2.53729,1.67859 2.33059,1.04782 2.12209,0.41459 1.95419,0.03076 1.82259,-0.10117 c -0.1059,-0.10407 -0.2674,-0.12312 -0.478,-0.0543 -0.2495,0.10689 -0.4012,0.16016 -0.4548,0.15381 -0.053,-0.009 -0.2533,-0.0737 -0.5948,-0.20638 -0.2148,-0.0691 -0.3676,-0.0586 -0.4614,0.0378 -0.1196,0.11677 -0.1115,0.29704 0.023,0.54187 0.1386,0.24024 0.2007,0.39828 0.1887,0.47307 -0.01,0.0691 -0.1125,0.2092 -0.3019,0.42439 -0.1292,0.15417 -0.1387,0.29034 -0.019,0.40746 0.1425,0.14358 0.5563,0.3863 1.2453,0.72884 0.6861,0.34537 1.185,0.66781 1.4961,0.97861 0.3662,0.36689 0.436,0.66393 0.2099,0.88794 -0.2716,0.27234 -0.7585,0.40852 -1.4577,0.40852 -0.6974,0 -1.0728,0.0254 -1.1186,0.072 -0.082,0.0818 -0.072,0.17568 0.033,0.28398 0.1778,0.17816 0.8604,0.46849 2.0443,0.87207 1.4221,0.49389 2.6148,1.02411 3.5737,1.58044 1.1497,0.6791 2.5167,1.77201 4.1077,3.28824 1.5882,1.51765 2.4578,2.19605 2.6106,2.04506 0.083,-0.085 -0.241,-0.58279 -0.9783,-1.51201 -0.1993,-0.2473 -0.7334,-0.86466 -1.5995,-1.8482 C 9.20329,8.68028 8.66569,8.01142 8.27519,7.45226 7.21899,5.97166 6.40119,4.49211 5.82269,3.01009 5.28859,1.69387 5.05189,1.06593 5.11039,1.12625 l -0.088,-0.0914 C 4.96339,0.97845 4.86969,0.85917 4.73809,0.67925 4.60749,0.50392 4.50099,0.37339 4.41699,0.28979 4.28649,0.16067 4.17539,0.13915 4.07939,0.23479"
       style="fill:#000000;fill-opacity:1;fill-rule:nonzero;stroke:none;stroke-width:0.0352778"
       id="path214" />
    <path
       d="m 19.85099,21.54739 c -0.126,0.12523 -0.1295,0.26529 -0.01,0.42404 0.4272,0.0254 0.7542,0.15098 0.98,0.37853 0.5094,0.5087 0.8407,1.08796 0.9906,1.73566 0.151,0.647 0.079,1.11902 -0.2173,1.41323 -0.1319,0.13441 -0.2865,0.19403 -0.4604,0.17992 -0.064,0 -0.254,-0.0381 -0.5683,-0.11254 -0.1683,-0.0434 -0.2875,-0.0296 -0.3577,0.0384 -0.076,0.0741 -0.017,0.20991 0.1785,0.40429 0.076,0.0765 0.4029,0.24518 0.9814,0.51047 -0.013,0.0254 -0.037,0.0561 -0.075,0.0938 -0.094,0.0942 -0.2409,0.16862 -0.4395,0.22154 -0.1976,0.054 -0.3182,0.10301 -0.3627,0.14711 -0.2194,0.21978 -0.315,0.53869 -0.2868,0.95461 0.029,0.42016 0.1711,0.75954 0.4279,1.016 0.2388,0.23989 0.4025,0.31504 0.4904,0.22614 0.032,-0.0318 0.017,-0.15911 -0.045,-0.38665 -0.065,-0.22613 -0.058,-0.37782 0.017,-0.45297 0.05,-0.0497 0.1309,-0.0646 0.2416,-0.0427 0.109,0.0222 0.2205,0.0473 0.3345,0.0705 0.3577,0.0459 0.6819,-0.0776 0.9719,-0.36547 0.1132,-0.1136 0.2515,-0.36548 0.4152,-0.75671 0.3016,0.13935 0.6103,0.27869 0.9246,0.41628 0.2251,0.0861 0.3831,0.0878 0.4706,0.002 0.1076,-0.10901 0.079,-0.28152 -0.084,-0.52106 -0.3718,-0.53375 -0.611,-0.89993 -0.7179,-1.09431 -0.2766,-0.60361 -0.5545,-1.20721 -0.8297,-1.81293 -0.3397,-0.72778 -0.6957,-1.27741 -1.0665,-1.64959 -0.012,-0.0116 -0.034,-0.0279 -0.066,-0.0473 -0.019,-0.0173 -0.037,-0.0367 -0.037,-0.0367 -0.1827,-0.18097 -0.201,-0.34784 -0.057,-0.49001 0.1066,-0.1083 0.2837,-0.10089 0.5296,0.0187 0.3503,0.17498 0.7341,0.43251 1.1504,0.77259 0.5083,0.40816 0.8057,0.64064 0.8865,0.69779 0.2568,0.16969 0.7511,0.33055 1.4813,0.4826 0.653,0.13759 1.0717,0.2988 1.2541,0.48154 0.012,0.0113 0.033,0.0392 0.066,0.0836 0.032,0.0318 0.055,0.0561 0.075,0.0762 0.1951,0.19509 0.356,0.2286 0.4812,0.10337 0.095,-0.0938 0.084,-0.23072 -0.029,-0.4057 -0.037,-0.0639 -0.2138,-0.29033 -0.5277,-0.67804 -0.1697,-0.2106 -0.2142,-0.35313 -0.1313,-0.43462 0.03,-0.0328 0.1429,-0.0878 0.3387,-0.16933 0.1961,-0.0826 0.3366,-0.16757 0.4244,-0.25718 0.1136,-0.11289 0.1665,-0.30938 0.1605,-0.59266 -0.01,-0.28399 0,-0.4311 0.01,-0.4438 0.05,-0.0508 0.1838,-0.0526 0.4004,-0.005 0.2173,0.0473 0.3344,0.0617 0.3531,0.0427 0.026,-0.0254 0.015,-0.10125 -0.032,-0.23177 -0.048,-0.13088 -0.1213,-0.24518 -0.2222,-0.34396 -0.2007,-0.20179 -0.5207,-0.30163 -0.9613,-0.30163 -0.4784,0 -0.8492,0.13229 -1.1141,0.39582 -0.069,0.0688 -0.1478,0.22966 -0.2356,0.48154 -0.088,0.24906 -0.1641,0.40746 -0.2269,0.47131 -0.018,0.0198 -0.046,0.0286 -0.084,0.0286 0.01,-0.28504 0.012,-0.56691 0.019,-0.84913 -0.01,-0.23354 -0.054,-0.39512 -0.1418,-0.48084 -0.076,-0.0762 -0.1767,-0.1016 -0.3016,-0.0762 -0.032,0.0836 -0.089,0.29563 -0.1704,0.64135 -0.056,0.23283 -0.1348,0.39864 -0.2364,0.49918 -0.2695,0.27199 -0.6692,0.33161 -1.1973,0.18027 -0.6544,-0.18697 -1.1973,-0.49953 -1.633,-0.9331 -0.1122,-0.11324 -0.1873,-0.31503 -0.2254,-0.60395 -0.037,-0.28893 -0.069,-0.44556 -0.093,-0.47202 -0.071,-0.0691 -0.2135,-0.15875 -0.3359,-0.0614 -0.1319,0.10478 -0.2268,0.34855 -0.3401,0.46073 -0.026,0.0268 0.031,-0.0564 0,0 -0.1457,-0.24412 -0.3369,-0.39617 -0.4356,-0.65335 -0.099,-0.25752 -0.5454,-0.8322 -0.8573,-0.81738 0.015,-0.41593 -0.054,-1.06504 -0.55,-1.56069 -0.4949,-0.49495 -2.5163,-1.88278 -2.9937,-2.26448 -0.066,-0.0529 -0.1414,-0.14429 -0.2472,-0.25012 -0.1087,-0.0847 -0.1778,-0.14358 -0.2124,-0.17745 -0.1785,-0.17815 -0.2029,-0.3302 -0.074,-0.45826 0.037,-0.037 0.1312,-0.0871 0.2864,-0.14252 0.1514,-0.0632 0.2653,-0.12841 0.3352,-0.19826 0.237,-0.23601 0.2437,-0.502 0.018,-0.79904 -0.8054,-0.0459 -1.4221,-0.28469 -1.8472,-0.71191 -0.9613,-0.95885 -1.5843,-2.05175 -1.8683,-3.27095 -0.2836,-1.22061 -0.1474,-2.10926 0.4096,-2.66418 0.2498,-0.25224 0.5405,-0.36442 0.8689,-0.33831 0.1199,0 0.4776,0.0713 1.0703,0.21096 0.3168,0.0854 0.5426,0.0589 0.6735,-0.0716 0.1432,-0.13935 0.03,-0.39406 -0.3362,-0.76306 -0.1429,-0.14288 -0.7589,-0.46179 -1.8489,-0.95991 0.025,-0.0476 0.07,-0.10619 0.1411,-0.1778 0.1757,-0.17639 0.4544,-0.31644 0.829,-0.41698 0.3715,-0.10196 0.5994,-0.19297 0.6826,-0.27764 0.4142,-0.41451 0.5934,-1.01424 0.5405,-1.79987 -0.054,-0.79022 -0.3207,-1.42911 -0.8061,-1.91453 -0.4498,-0.45155 -0.7588,-0.59231 -0.9254,-0.42545 -0.06,0.0607 -0.032,0.30092 0.088,0.72849 0.1196,0.42757 0.1094,0.71155 -0.034,0.85443 -0.093,0.0935 -0.2472,0.12029 -0.4554,0.0804 -0.2057,-0.0434 -0.4156,-0.0892 -0.63,-0.13476 -0.6739,-0.0829 -1.2849,0.14781 -1.8317,0.69215 -0.212,0.21272 -0.473,0.68721 -0.7814,1.42487 -0.5683,-0.26247 -1.1493,-0.52529 -1.7434,-0.78458 -0.4247,-0.16263 -0.7214,-0.1651 -0.8872,-0.003 -0.2008,0.20673 -0.1479,0.52916 0.1594,0.98072 0.7006,1.00612 1.1501,1.69616 1.3522,2.06234 0.5218,1.13841 1.0435,2.27506 1.5639,3.41383 0.6389,1.37477 1.3102,2.41124 2.0073,3.10938 0.025,0.0251 0.067,0.0547 0.1273,0.0893 0.035,0.0346 0.069,0.0716 0.069,0.0716 0.3429,0.34043 0.3779,0.653 0.1066,0.92393 -0.2004,0.20214 -0.5341,0.18909 -0.9966,-0.0367 -0.6618,-0.32985 -1.384,-0.81562 -2.1685,-1.45591 C 8.82709,10.93213 8.26659,10.49503 8.11339,10.38673 7.62839,10.06747 6.69919,9.76443 5.32189,9.48009 4.09109,9.21762 3.30329,8.91635 2.96009,8.57063 2.93609,8.54773 2.89609,8.49553 2.83479,8.41329 2.77579,8.35509 2.73079,8.30605 2.69409,8.27006 2.32579,7.90247 2.02239,7.83791 1.78569,8.07498 c -0.1785,0.1778 -0.1581,0.43321 0.055,0.76517 0.071,0.11854 0.4036,0.5454 0.9945,1.27671 0.3192,0.39511 0.4032,0.66604 0.248,0.82056 -0.057,0.0607 -0.2699,0.16439 -0.6382,0.31785 -0.3694,0.15663 -0.6347,0.31574 -0.8008,0.48436 -0.212,0.21238 -0.3143,0.58314 -0.3024,1.11654 0.012,0.53552 0.01,0.81315 -0.019,0.83785 -0.094,0.0945 -0.346,0.097 -0.7549,0.008 -0.4085,-0.0896 -0.629,-0.11748 -0.6639,-0.0825 -0.049,0.0494 -0.029,0.19297 0.059,0.43815 0.091,0.24518 0.2289,0.46073 0.4187,0.64805 0.3789,0.3803 0.9832,0.56797 1.8136,0.56797 0.9003,0 1.5988,-0.24906 2.098,-0.74471 0.1288,-0.13053 0.278,-0.43427 0.4442,-0.90946 0.1668,-0.47025 0.3094,-0.76729 0.4275,-0.88724 0.033,-0.0367 0.086,-0.0543 0.157,-0.0543 -0.012,0.53552 -0.021,1.06927 -0.034,1.60055 0.013,0.44062 0.1,0.74366 0.2664,0.90629 0.1435,0.14288 0.333,0.19156 0.5679,0.14288 0.06,-0.15558 0.168,-0.55704 0.3211,-1.2065 0.1065,-0.44098 0.254,-0.7553 0.4448,-0.94404 0.5084,-0.50941 1.2619,-0.6223 2.2571,-0.33831 1.2319,0.35348 2.2567,0.94156 3.0773,1.7586 0.2109,0.21237 0.3538,0.59302 0.4229,1.13911 0.072,0.54328 0.1316,0.83891 0.1778,0.88936 0.1313,0.12947 0.3429,0.1658 0.6315,0.11641 0.2918,-0.0557 0.5429,-0.18767 0.7567,-0.40146 0.047,-0.048 0.1023,-0.12559 0.1598,-0.23142 0.059,-0.10724 0.1083,-0.1785 0.1429,-0.21272 0.1662,-0.16475 0.3602,-0.13688 0.5842,0.0885 0.085,0.0825 0.1739,0.23001 0.2769,0.43638 0.3394,0.68016 1.1723,2.40277 1.608,2.89807 0.435,0.49671 1.2284,0.6343 1.4855,0.6343 0.1189,0.43568 0.3955,0.79375 0.6735,0.93204 0.2776,0.13828 0.6015,0.26035 0.8855,0.55562 -0.081,0.0342 -0.1418,0.0688 -0.1782,0.10513"
       style="fill:#000000;fill-opacity:1;fill-rule:nonzero;stroke:none;stroke-width:0.0352778"
       id="path216" />
    <path
       d="m 26.30259,28.88763 c 0.05,-0.0511 0.053,-0.26281 0.01,-0.63323 -0.049,-0.40217 -0.018,-0.69815 0.095,-0.88583 0.1453,0.0924 0.2614,0.18521 0.3489,0.27411 0.2074,0.20638 0.3658,0.47837 0.4759,0.8128 0.1104,0.33655 0.2,0.5401 0.2695,0.61243 0.056,0.0526 0.1422,0.0631 0.253,0.0275 0.1319,-0.0557 0.2137,-0.0857 0.2416,-0.0822 0.028,0.005 0.1344,0.0392 0.3165,0.10937 0.1132,0.0363 0.195,0.0321 0.2448,-0.0201 0.063,-0.0617 0.059,-0.1577 -0.012,-0.28681 -0.074,-0.12841 -0.1066,-0.21237 -0.1009,-0.25153 0.01,-0.036 0.059,-0.11148 0.1601,-0.22507 0.069,-0.0819 0.073,-0.15417 0.01,-0.21661 -0.075,-0.0758 -0.2938,-0.20532 -0.6604,-0.387 -0.3637,-0.18168 -0.629,-0.35419 -0.7941,-0.51929 -0.1936,-0.19367 -0.231,-0.35172 -0.1118,-0.47166 0.145,-0.14323 0.4029,-0.21625 0.7747,-0.21625 0.3701,0 0.5687,-0.012 0.5937,-0.0374 0.043,-0.0438 0.039,-0.0935 -0.019,-0.15029 -0.095,-0.0949 -0.4561,-0.24906 -1.0844,-0.4639 -0.7542,-0.26211 -1.3871,-0.54292 -1.8965,-0.83785 -0.6093,-0.36054 -1.335,-0.94015 -2.1802,-1.74625 -0.8424,-0.80504 -1.3039,-1.16487 -1.3847,-1.08444 -0.044,0.0444 0.1274,0.30904 0.519,0.80222 0.1051,0.13194 0.3891,0.46002 0.8484,0.98037 0.3651,0.41451 0.6502,0.76976 0.858,1.06645 0.5605,0.78563 0.9937,1.57198 1.3017,2.35761 0.2836,0.69815 0.4082,1.03293 0.3771,0.99942 l 0.048,0.0483 c 0.031,0.0318 0.081,0.0938 0.1507,0.19085 0.069,0.0914 0.1256,0.16158 0.1697,0.20638 0.07,0.0656 0.1287,0.079 0.1795,0.0279"
       style="fill:#000000;fill-opacity:1;fill-rule:nonzero;stroke:none;stroke-width:0.0352778"
       id="path218" />
    <path
       d="m 1.77819,43.0178 c -4.0111,-1.90112 -3.2904,-8.29981 1.56,-8.10119 1.6439,0.0681 3.8558,0.59231 4.5684,2.32233 0.7889,1.91418 0.065,3.5613 -1.9642,4.07353 -0.8717,0.23707 -1.7382,-0.16157 -1.9364,-0.88935 -0.1979,-0.72814 0.3471,-1.51166 1.2178,-1.74802 0.3609,-0.0995 0.7179,-0.0833 1.0301,0.0145 0.2854,-1.67816 -0.8308,-3.0607 -3.1062,-2.64371 -1.7177,0.31503 -2.7902,2.34879 -2.2479,4.0326 1.5176,4.71487 7.7008,2.59433 10.6514,0.52634 4.645,-3.25508 7.1081,-9.8365 5.2578,-15.32396 -0.9155,-2.71321 -2.8508,-5.60246 -5.7041,-6.57013 -2.982,-1.01247 -7.3469,-0.0667 -9.1436,2.72944 -2.0617,3.20992 -1.6069,9.14294 2.9129,9.99737 1.9371,0.36583 4.3769,-0.10231 5.5513,-1.86831 0.8181,-1.23261 1.4368,-4.63868 -0.7511,-5.0666 0.063,0.1136 0.1129,0.2346 0.1358,0.36442 0.1581,0.87242 -0.6565,1.75013 -1.8192,1.96215 -1.1628,0.21061 -2.2335,-0.32526 -2.3915,-1.19768 -0.15,-0.82797 0.5817,-1.65523 1.6524,-1.91629 0.043,-0.0169 0.097,-0.0335 0.1665,-0.0437 2.3153,-0.38029 5.6967,0.91087 5.654,3.71193 -0.073,4.62562 -5.5559,5.82965 -9.1878,4.57024 -4.4344,-1.53776 -6.8372,-7.11342 -3.6597,-11.13614 5.9672,-7.5558 18.0908,-1.75436 18.8539,6.85059 0.4279,4.82671 -1.1134,10.28101 -5.2762,13.19848 -1.8775,1.31551 -4.0904,2.39853 -6.3641,2.80564 -0.02,3.22404 -1.3984,7.69091 -5.0888,7.89975 -1.4849,0.0836 -3.3359,-1.13524 -3.0501,-2.82928 0.2773,-1.64323 1.4252,-2.3188 3.0109,-2.34244 0.1344,-0.002 0.2209,0.0123 0.289,0.0325 0.4885,0.0847 0.8763,0.44485 0.9112,0.92322 0.042,0.57397 -0.4279,1.07491 -1.0506,1.12042 -0.6237,0.0441 -1.1599,-0.38417 -1.2012,-0.95708 -0.011,-0.14746 0.014,-0.28822 0.064,-0.41875 -1.0333,0.59549 -0.9878,2.45357 -0.23,3.2318 1.4841,1.52611 3.2953,-0.031 3.9091,-1.48026 0.6622,-1.5621 1.1684,-3.31152 1.1998,-5.02849 -1.4954,0.0967 -2.9958,-0.12912 -4.4238,-0.80575"
       style="fill:#000000;fill-opacity:1;fill-rule:nonzero;stroke:none;stroke-width:0.0352778"
       id="path220" />
    <path
       d="m 20.46589,0.57581 c 4.022,-3.17571 9.5977,-0.77294 11.1356,3.66148 1.2592,3.6322 0.055,9.11542 -4.5704,9.18809 -2.8011,0.0416 -4.0922,-3.33939 -3.7123,-5.65502 0.011,-0.0702 0.027,-0.12242 0.044,-0.16687 0.2618,-1.06997 1.0887,-1.80234 1.917,-1.65135 0.8713,0.15734 1.4076,1.22731 1.197,2.39148 -0.2106,1.1624 -1.0894,1.97697 -1.9615,1.81927 -0.1302,-0.0236 -0.2505,-0.073 -0.3651,-0.13581 0.4279,2.18757 3.8354,1.5688 5.0666,0.75071 1.7662,-1.1737 2.2347,-3.61386 1.8688,-5.55096 -0.8546,-4.52014 -6.7883,-4.97487 -9.9979,-2.91289 -2.7961,1.79599 -3.7419,6.16197 -2.7294,9.144 0.9687,2.85221 3.8573,4.78826 6.5705,5.70371 5.4878,1.84997 12.0693,-0.61383 15.3235,-5.2585 2.0689,-2.95028 4.1891,-9.13342 -0.5252,-10.65036 -1.6844,-0.54258 -3.7184,0.52952 -4.0332,2.24719 -0.417,2.27577 0.9652,3.39196 2.6434,3.10621 -0.098,-0.31221 -0.1133,-0.66922 -0.015,-1.03011 0.2366,-0.87101 1.02,-1.41535 1.7482,-1.21779 0.7277,0.19826 1.1261,1.06503 0.8892,1.9364 -0.5115,2.02953 -2.1589,2.75237 -4.0736,1.96356 -1.7294,-0.71191 -2.254,-2.92347 -2.3218,-4.56742 -0.199,-4.84999 6.2006,-5.57106 8.1006,-1.55963 0.6768,1.42805 0.9028,2.92806 0.8062,4.42348 1.7165,-0.031 3.4672,-0.53763 5.029,-1.19944 1.4487,-0.61419 3.0062,-2.425 1.48,-3.90948 -0.7787,-0.75918 -2.6362,-0.80434 -3.2321,0.23001 0.1308,-0.0505 0.2727,-0.0751 0.419,-0.0642 0.5728,0.0413 1.0011,0.57785 0.9566,1.20156 -0.045,0.62195 -0.546,1.09114 -1.1198,1.04987 -0.4786,-0.0349 -0.8392,-0.42263 -0.9234,-0.91158 -0.021,-0.067 -0.035,-0.15452 -0.033,-0.28822 0.025,-1.58539 0.6999,-2.73403 2.3425,-3.01096 1.6943,-0.28646 2.9133,1.56492 2.8292,3.04835 -0.2082,3.69218 -4.6756,5.07048 -7.8996,5.09023 -0.4068,2.2733 -1.4893,4.48663 -2.8057,6.36482 -2.9172,4.16243 -8.3718,5.70371 -13.1978,5.27579 -8.6053,-0.76411 -14.4071,-12.88732 -6.8502,-18.85562"
       style="fill:#000000;fill-opacity:1;fill-rule:nonzero;stroke:none;stroke-width:0.0352778"
       id="path222" />
    <path
       d="M 0.00759,52.4853 0,59 c 0.01791562,0.851979 1.4140351,0.855615 1.421,0 v -4.4439 c 0,-0.63465 0.15749,-0.9913 0.58899,-1.63019 C 2.25299,52.56432 0,52.11206 0,52.4853"
       style="fill:#000000;fill-opacity:1;fill-rule:nonzero;stroke:none;stroke-width:0.0352778"
       id="path224"
       sodipodi:nodetypes="cccscc" />
    <path
       d="M 51.95469,0.00395 59,0 c 0.802003,0.00521744 0.758469,1.4235426 0,1.42106 h -4.97501 c -0.6341,0 -0.9908,0.15311 -1.6302,0.58385 C 52.03359,2.24974 51.58149,0 51.95469,0"
       style="fill:#000000;fill-opacity:1;fill-rule:nonzero;stroke:none;stroke-width:0.0352778"
       id="path226"
       sodipodi:nodetypes="cccscc" />
  </g>
</svg>
