<?xml version="1.0" encoding="UTF-8" standalone="no"?>
<svg
   width="41"
   height="41"
   viewBox="0 0 41 41.000002"
   version="1.1"
   id="svg1173"
   sodipodi:docname="style12.svg"
   inkscape:version="1.4 (e7c3feb1, 2024-10-09)"
   inkscape:export-filename="style12.png"
   inkscape:export-xdpi="2309.3389"
   inkscape:export-ydpi="2309.3389"
   xmlns:inkscape="http://www.inkscape.org/namespaces/inkscape"
   xmlns:sodipodi="http://sodipodi.sourceforge.net/DTD/sodipodi-0.dtd"
   xmlns="http://www.w3.org/2000/svg"
   xmlns:svg="http://www.w3.org/2000/svg">
  <defs
     id="defs2675" />
  <sodipodi:namedview
     id="namedview2673"
     pagecolor="#ffffff"
     bordercolor="#666666"
     borderopacity="1.0"
     inkscape:showpageshadow="2"
     inkscape:pageopacity="0.0"
     inkscape:pagecheckerboard="0"
     inkscape:deskcolor="#d1d1d1"
     showgrid="false"
     inkscape:zoom="85.038694"
     inkscape:cx="-0.38805864"
     inkscape:cy="41.445839"
     inkscape:current-layer="svg1173"
     inkscape:window-width="1848"
     inkscape:window-height="1230"
     inkscape:window-x="0"
     inkscape:window-y="25"
     inkscape:window-maximized="0" />
  <g
     id="g2814"
     style="fill:#000000">
    <path
       d="M 9.89589,21.6529 C 7.06168,24.10611 4.96512,27.1774 3.72122,30.71428 2.48544,34.22593 2.45193,37.20285 2.45193,40.877 V 41 c 0,0.60957 -0.80702,0.57402 -0.80539,0 l 3.5e-4,-0.12325 c 0.0104,-3.6501 0.21519,-7.15077 1.49154,-10.61145 1.24319,-3.37055 3.4089,-6.31405 6.1147,-8.65579 0.16193,-0.14006 0.97755,-0.24624 0.64276,0.0434 v 0"
       style="fill:#000000;fill-opacity:1;fill-rule:nonzero;stroke:none;stroke-width:0.0352778"
       id="path707"
       sodipodi:nodetypes="ccssssccsc" />
    <path
       d="m 5.72359,14.14473 c -0.0296,-0.12418 -0.0596,-0.248 -0.0921,-0.37077 -0.0625,0.0773 -0.12665,0.15416 -0.18768,0.23283 0.091,0.0487 0.18379,0.0952 0.27975,0.13794 z M 5.33201,12.89766 c -0.16404,-0.28787 -0.70168,-0.53481 -0.75036,-0.008 -0.0289,0.30833 0.13688,0.57433 0.39476,0.79905 0.15134,-0.18592 0.30727,-0.36901 0.46566,-0.55034 -0.0317,-0.0833 -0.0667,-0.16474 -0.11006,-0.24059 z m 1.37971,3.27237 c 0.15311,0.94332 0.31856,1.92652 0.37888,2.90477 0.95392,0.0522 1.9103,0.19826 2.83845,0.34925 0.39053,0.0639 0.80998,0.12347 1.23155,0.19967 C 11.0795,19.37748 11.01702,19.13583 10.97469,18.90758 10.78701,17.89193 10.62438,16.87241 10.43353,15.85605 9.42811,15.67331 8.42234,15.49516 7.41904,15.3096 7.12765,15.256 6.8232,15.17378 6.52016,15.06759 c 0.0716,0.36725 0.13194,0.7366 0.19156,1.10244 z m 5.77921,-0.63889 c 1.25059,0.23495 2.528,0.3863 3.77542,0.64876 -0.26281,-1.24707 -0.41416,-2.52412 -0.64911,-3.77542 -0.0991,-0.52705 -0.20249,-1.0541 -0.30515,-1.58045 -1.00577,-0.19614 -2.01189,-0.39088 -3.02189,-0.56197 -0.79128,-0.13371 -1.5808,-0.25577 -2.35973,-0.41805 0.16192,0.77929 0.28398,1.56881 0.41804,2.36009 0.17109,1.00965 0.36547,2.01577 0.56162,3.02189 0.52705,0.10266 1.05339,0.20602 1.5808,0.30515 z m 4.80412,2.06869 c 0.31045,1.19451 0.77365,2.22568 1.74449,3.02049 0.65864,0.53834 1.52788,0.80398 2.34668,0.67945 0.12488,-0.81915 -0.14111,-1.6884 -0.6798,-2.34633 -0.79446,-0.97119 -1.82563,-1.43404 -3.02013,-1.74484 -0.1711,-0.0448 -0.34396,-0.0843 -0.51647,-0.12523 0.0406,0.17286 0.0808,0.34537 0.12523,0.51646 z m 1.69863,-6.71089 c 0.22825,0.042 0.47025,0.10478 0.71614,0.18592 C 19.63402,10.65293 19.57435,10.23313 19.51085,9.84225 19.35986,8.91409 19.21381,7.95806 19.16125,7.00451 18.18335,6.94421 17.1998,6.77837 16.25612,6.62527 15.89065,6.56597 15.52094,6.50532 15.15405,6.43371 c 0.10654,0.30304 0.18803,0.60748 0.242,0.89888 0.18592,1.00295 0.36372,2.00907 0.54645,3.01449 1.01565,0.1912 2.03624,0.35348 3.05118,0.54186 z M 7.80498,6.00226 C 7.11107,5.34116 5.96136,4.80388 4.94219,4.85609 4.89029,5.87456 5.42726,7.02461 6.08872,7.71817 6.87823,8.54685 8.05722,8.93103 9.25384,9.16739 9.01748,7.97112 8.6333,6.79213 7.80498,6.00226 Z M 2.84775,22.57788 c -0.072,0.28187 -0.16405,0.59584 -0.1203,0.88971 -0.0198,-0.13124 0.16616,-0.0187 0.3496,-0.0413 0.4759,-0.0614 0.98531,-0.18097 1.40335,-0.42615 C 5.20995,22.57116 5.91727,21.89171 6.18255,21.0655 6.30638,20.68027 6.37693,20.27634 6.4101,19.86324 4.74393,20.0174 3.32117,20.71273 2.84775,22.57786 Z m 9.84779,-1.21461 c 0.23918,0.15981 0.88582,0.41416 0.99695,-0.0677 0.085,-0.3683 -1.06892,-0.64346 -1.63089,-0.76058 0.15451,0.32737 0.35454,0.64099 0.63394,0.82832 z m 8.68609,-7.75688 c 0.48225,-0.11148 0.2279,-0.75812 0.0681,-0.9973 -0.18733,-0.27976 -0.50095,-0.47978 -0.82868,-0.63465 0.11713,0.56197 0.39194,1.71662 0.76059,1.63195 z M 21.15197,6.0961 c 0.82656,-0.26564 1.50566,-0.97225 1.93464,-1.7018 0.24553,-0.41839 0.36406,-0.9271 0.4258,-1.4037 0.0233,-0.18344 -0.0892,-0.36936 0.0416,-0.3496 -0.29387,-0.0438 -0.60748,0.0483 -0.88971,0.12029 -1.86478,0.47343 -2.56046,1.89654 -2.71427,3.562 0.41275,-0.0328 0.81633,-0.10372 1.20191,-0.22719 z M 13.87629,5.54859 c 0.11782,0.0314 0.23636,0.06 0.35524,0.0882 -0.0409,-0.0917 -0.0854,-0.18098 -0.13194,-0.26812 -0.0755,0.0582 -0.14852,0.1203 -0.2233,0.17992 z M 12.976,4.49484 c -0.52705,0.049 -0.27976,0.58632 0.008,0.75107 0.0783,0.0448 0.16193,0.0801 0.24801,0.11289 C 13.41333,5.20181 13.59784,5.04941 13.7834,4.89948 13.55691,4.63596 13.2881,4.46556 12.97554,4.49484 Z M 0,27.50799 C 0.0921,22.59905 1.71356,17.84572 4.72311,14.00538 4.41302,13.70623 4.16149,13.35909 4.00697,12.96116 3.85422,12.56993 3.75932,11.89859 4.31565,11.77053 c 0.45191,-0.10477 0.89571,0.2981 1.14971,0.63112 0.0998,0.13053 0.18697,0.2667 0.26952,0.40464 0.0399,-0.0437 0.0769,-0.0892 0.11712,-0.133 0.55633,-0.60043 1.15852,-1.15711 1.77694,-1.69192 0.16228,-0.14076 0.9779,-0.24694 0.64312,0.0434 -0.82621,0.71473 -1.58327,1.48132 -2.27189,2.292 0.15169,0.34078 0.26881,0.69673 0.36336,1.06115 0.2547,0.0752 0.48965,0.12559 0.66393,0.14888 0.42157,0.0554 0.83996,0.121 1.25836,0.19685 0.66886,0.12347 1.33702,0.25294 2.00518,0.38276 C 10.04935,13.87698 9.80135,12.6472 9.60697,11.4093 9.52407,10.88331 9.45104,10.30369 9.35332,9.71455 8.69363,9.55545 8.0431,9.3586 7.40846,9.0859 5.99876,8.48019 4.36787,6.7357 4.11845,5.05118 3.73851,5.23287 3.41219,5.54437 3.18465,6.02415 2.3027,7.88328 3.07599,10.12307 4.98311,10.92564 c 0.21378,0.0896 0.38276,0.26741 0.48683,0.47449 0.0413,0.0836 0.1203,0.39969 -0.0952,0.30938 C 4.20599,11.21704 3.16388,10.31181 2.61814,9.1494 2.04099,7.92209 1.80992,6.13421 2.72256,4.99333 3.14025,4.47016 3.62885,4.17841 4.14813,4.06129 4.26561,3.54235 4.55665,3.05376 5.07982,2.63607 6.22141,1.72308 8.00823,1.95485 9.2359,2.53129 c 1.1624,0.5461 2.06798,1.58821 2.55975,2.75696 0.0907,0.21555 -0.22542,0.13688 -0.30833,0.0949 C 11.28024,5.27943 11.10209,5.1101 11.01213,4.89702 10.20992,2.98955 7.96978,2.21556 6.11028,3.09821 5.63086,3.32504 5.319,3.65172 5.13768,4.03166 c 1.68486,0.24906 3.42864,1.8803 4.03436,3.29071 0.27305,0.63429 0.46955,1.28446 0.6283,1.94416 0.58949,0.0981 1.16981,0.17109 1.6958,0.25364 1.2372,0.19544 2.46698,0.44239 3.69676,0.68404 C 15.06273,9.5364 14.93326,8.86824 14.81049,8.19937 14.73399,7.78063 14.66832,7.36258 14.61294,6.94066 14.58964,6.76674 14.53954,6.53179 14.46442,6.27709 14.10458,6.18359 13.75251,6.06895 13.41525,5.91972 12.56824,6.63057 11.76814,7.41268 11.02448,8.2724 10.7345,8.60683 10.84033,7.79156 10.98108,7.62928 11.51624,7.01051 12.07328,6.40867 12.67335,5.85164 12.74705,5.78324 12.82469,5.7197 12.89913,5.65232 12.75837,5.56902 12.62008,5.48016 12.48779,5.37892 12.15477,5.12527 11.7526,4.68077 11.85703,4.22921 11.98508,3.67323 12.65677,3.76848 13.04765,3.92053 13.44946,4.07646 13.80013,4.33152 14.1014,4.6462 17.92516,1.68604 22.64038,0.09172 27.50801,0 c 3.53431,-0.066 6.303,0 9.83699,0 H 41 c 0.744,0 0.75473,0.8279 0,0.8279 h -3.65492 c -3.76467,0 -7.62744,-0.2353 -11.38188,0.0787 -4.22064,0.35243 -8.17422,1.75013 -11.4935,4.18924 0.1531,0.21449 0.29104,0.44309 0.40887,0.68156 0.45367,0.0879 0.91087,0.16087 1.36595,0.23037 0.9144,0.1397 1.91559,0.31044 2.89631,0.33231 -0.001,-0.37958 0.0148,-0.75847 0.0561,-1.13347 0.18768,-1.70392 1.61678,-2.91677 3.23074,-3.23144 1.30775,-0.25436 2.05528,0.7313 1.81927,1.9431 -0.32455,1.66722 -1.7219,2.87584 -3.38102,3.05893 -0.31362,0.0346 -0.63112,0.0466 -0.95038,0.0473 -0.0141,1.5039 0.31997,3.11891 0.58667,4.37621 0.81033,0.40358 1.54728,1.00612 1.84608,1.77518 0.17287,0.44344 0.18133,0.90064 -0.30056,1.11936 -0.45403,0.20603 -1.02835,-0.3503 -1.29046,-0.63888 -0.4886,-0.5401 -0.75072,-1.24918 -0.92393,-1.98578 -1.03082,-0.33514 -2.24614,-0.4057 -3.29812,-0.6089 l -0.47801,-0.0931 c 0.0469,0.25435 0.091,0.50906 0.14005,0.76235 0.29563,1.52894 0.49742,3.09034 0.81174,4.62033 0.0184,0.005 0.037,0.008 0.0554,0.0131 1.66158,0.43285 3.02436,1.11477 4.07564,2.50825 0.48542,0.64382 0.85549,1.41887 0.95109,2.2098 0.0995,-0.0476 0.1972,-0.10019 0.29175,-0.16263 1.03434,-0.68087 1.16134,-2.18582 0.94474,-3.28825 -0.23002,-1.1691 -1.04987,-2.08315 -2.12972,-2.53717 -0.28152,-0.11889 -0.75636,-0.82974 -0.16581,-0.58173 1.32186,0.55633 2.35797,1.60937 2.90371,2.93264 0.54857,1.32679 0.40923,3.45369 -0.98001,4.22663 -0.28681,0.16016 -0.58456,0.25858 -0.88618,0.31115 -0.0522,0.30162 -0.15064,0.59901 -0.3108,0.88618 -0.77329,1.38888 -2.89983,1.52858 -4.22804,0.98037 -1.32186,-0.54646 -2.3749,-1.58257 -2.93123,-2.90372 -0.24836,-0.59125 0.46249,-0.11606 0.58102,0.1644 0.45438,1.08091 1.36843,1.90076 2.53754,2.13077 1.10207,0.21696 2.60738,0.0889 3.28824,-0.94438 0.0624,-0.0945 0.115,-0.19262 0.16263,-0.2921 -0.79093,-0.0956 -1.56563,-0.46532 -2.21016,-0.95109 -1.39311,-1.05163 -2.07503,-2.41406 -2.50754,-4.07529 -0.005,-0.0187 -0.009,-0.0374 -0.0138,-0.0557 -1.52964,-0.31397 -3.09104,-0.51611 -4.62033,-0.81104 -0.25365,-0.0494 -0.508,-0.0931 -0.76165,-0.14075 l 0.0928,0.47801 c 0.2032,1.05198 0.27411,2.26695 0.60855,3.29812 0.73695,0.17286 1.44603,0.43533 1.98578,0.92428 0.28893,0.26176 0.84526,0.83608 0.63959,1.29011 -0.21908,0.48154 -0.67628,0.47272 -1.11972,0.30056 -0.76905,-0.29915 -1.37195,-1.03611 -1.77518,-1.84608 -1.2573,-0.26706 -2.87231,-0.60078 -4.37656,-0.58667 -7e-4,0.31891 -0.0123,0.63641 -0.0469,0.95038 -0.18274,1.65911 -1.39171,3.05647 -3.05893,3.38102 -1.21109,0.23601 -2.19781,-0.51082 -1.9431,-1.81927 0.31432,-1.61396 1.52752,-3.04306 3.23144,-3.23074 0.375,-0.0413 0.75353,-0.0575 1.13348,-0.0561 C 6.40484,18.07325 6.23412,17.07242 6.09477,16.15802 6.02527,15.70294 5.9519,15.24574 5.8637,14.79207 5.61958,14.67071 5.38604,14.5296 5.16697,14.37191 2.68341,17.7113 1.26242,21.70087 0.90682,25.96313 0.59285,29.71739 0.82822,33.58031 0.82812,37.34511 L 0.828,41 C 0.82798,41.65788 0,41.57691 0,41 v -3.655"
       style="fill:#000000;fill-opacity:1;fill-rule:nonzero;stroke:none;stroke-width:0.0352778"
       id="path709"
       sodipodi:nodetypes="cccccccccccccccccccccccccccccccccccccccccccccccccccccccccccccccccccccccccccccccccccccccccccccccccccccccccccccccccccccccccccccccccccccccsssscccccccccccccccccccccccccccccccccccccccccccccccccccccccccsssc" />
    <path
       d="M 21.65292,9.89587 C 24.10578,7.0613 27.17742,4.96545 30.71444,3.72156 33.897788,2.600989 36.380665,2.4522358 41,2.45191 c 0.74306,-0.0206 0.77765,-0.80539 0,-0.80539 -5.36896,0 -8.17843,0.5490642 -10.73521,1.49189 -3.3703,1.24319 -6.31352,3.40925 -8.65526,6.1147 -0.14041,0.16228 -0.24659,0.9779 0.0434,0.64276 v 0"
       style="fill:#000000;fill-opacity:1;fill-rule:nonzero;stroke:none;stroke-width:0.0352778"
       id="path711"
       sodipodi:nodetypes="cccsccsc" />
  </g>
</svg>
