<?xml version="1.0" encoding="UTF-8" standalone="no"?>
<svg
   width="64.856552"
   height="64.647507"
   viewBox="0 0 64.856552 64.647509"
   version="1.1"
   id="svg1173"
   sodipodi:docname="style29.svg"
   inkscape:version="1.4 (e7c3feb1, 2024-10-09)"
   inkscape:export-filename="style29.png"
   inkscape:export-xdpi="1480.1897"
   inkscape:export-ydpi="1480.1897"
   xmlns:inkscape="http://www.inkscape.org/namespaces/inkscape"
   xmlns:sodipodi="http://sodipodi.sourceforge.net/DTD/sodipodi-0.dtd"
   xmlns="http://www.w3.org/2000/svg"
   xmlns:svg="http://www.w3.org/2000/svg">
  <defs
     id="defs224" />
  <sodipodi:namedview
     id="namedview222"
     pagecolor="#ffffff"
     bordercolor="#666666"
     borderopacity="1.0"
     inkscape:showpageshadow="2"
     inkscape:pageopacity="0.0"
     inkscape:pagecheckerboard="0"
     inkscape:deskcolor="#d1d1d1"
     showgrid="false"
     inkscape:zoom="3.9637265"
     inkscape:cx="72.532754"
     inkscape:cy="-5.4241886"
     inkscape:current-layer="svg1173"
     inkscape:window-width="2376"
     inkscape:window-height="1338"
     inkscape:window-x="0"
     inkscape:window-y="25"
     inkscape:window-maximized="0" />
  <g
     id="g2700"
     transform="translate(-230.36205,-630.20764)"
     style="fill:#000000">
    <path
       d="m 238.2633,645.7171 c -0.163,0.74507 -0.1429,1.40758 0.061,1.98508 0.064,0.19579 0.3002,0.63288 0.7059,1.31692 l -0.109,0.10901 c -0.115,-0.002 -0.2036,-0.0328 -0.2674,-0.097 -0.332,-0.33373 -0.5849,-0.83009 -0.7557,-1.4859 -0.1951,-0.74754 -0.169,-1.35149 0.085,-1.81681 0.055,-0.0399 0.1496,-0.0427 0.2801,-0.0113 z m -1.4245,-1.57022 c 0.09,-0.0893 0.1957,-0.13723 0.3224,-0.14181 0.1252,-0.002 0.2293,0.0353 0.3104,0.11677 0.048,0.0473 0.085,0.11783 0.1094,0.20567 -0.097,0.22719 -0.086,0.53975 0.037,0.93803 -0.01,0.025 -0.033,0.0568 -0.073,0.0984 -0.034,0.0335 -0.065,0.0554 -0.099,0.072 -0.2099,0 -0.3979,-0.0808 -0.5602,-0.24306 -0.3651,-0.36477 -0.381,-0.71402 -0.048,-1.04599 z m 9.5627,-0.94473 c -0.2349,-0.23566 -0.5108,-0.35102 -0.8269,-0.34149 -0.3157,0.009 -0.5867,0.12841 -0.8086,0.34995 -0.05,0.0497 -0.086,0.10195 -0.1277,0.15346 -0.011,0.13899 -0.088,0.28257 -0.2349,0.42968 -0.01,0.01 -0.019,0.0166 -0.029,0.0258 -0.1937,0.57538 0.058,1.21744 0.7666,1.92723 0.7411,0.73907 1.6545,1.32891 2.7474,1.76847 0.06,-0.0208 0.1143,-0.0557 0.1623,-0.10195 0.047,-0.0476 0.084,-0.10513 0.1111,-0.17216 0.1418,-1.37583 -0.4417,-2.72168 -1.76,-4.03895 z m 1.0478,5.03731 c -0.526,-0.0822 -1.0164,-0.18556 -1.4648,-0.30797 -0.9567,-0.26212 -1.6549,-0.61666 -2.0944,-1.05834 -0.7532,-0.75247 -1.1981,-1.43228 -1.3314,-2.04364 -0.024,-0.10654 -0.041,-0.21308 -0.052,-0.31997 -0.013,-0.006 -0.025,-0.0109 -0.028,-0.0109 -0.4399,-0.13017 -1.0026,-0.0776 -1.694,0.1584 -1.293,0.43039 -2.0148,0.66745 -2.1672,0.70696 l -0.1344,-0.13511 c -0.025,-0.13688 0.001,-0.24377 0.072,-0.31574 0.024,-0.0233 0.085,-0.0596 0.1831,-0.11077 0.096,-0.0476 0.1782,-0.10372 0.2448,-0.16898 l 0.1221,-0.12206 c 0.3711,-0.37289 0.6569,-0.62477 0.8506,-0.75671 0.2998,-0.18556 0.6134,-0.27905 0.938,-0.27905 0.6015,0.0173 1.1169,0.16793 1.5476,0.45156 0.023,0.0152 0.042,0.0279 0.064,0.0427 0.013,-0.15064 0.034,-0.30127 0.071,-0.45261 0.031,-0.12277 0.067,-0.23531 0.1073,-0.34149 -0.1175,-0.15981 -0.2053,-0.36583 -0.2597,-0.61878 -0.027,-0.12488 -0.036,-0.2286 -0.036,-0.32208 -0.03,0.006 -0.059,0.0152 -0.09,0.0183 -0.2466,0.0222 -0.4558,-0.0508 -0.6268,-0.21872 -0.1549,-0.1577 -0.2325,-0.33796 -0.2325,-0.54046 0,-0.20602 0.078,-0.38417 0.2325,-0.53904 0.1636,-0.16405 0.4363,-0.26953 0.8142,-0.3168 0.3806,-0.048 0.641,0 0.7845,0.14358 0.1,0.0998 0.1267,0.26564 0.076,0.49424 -0.046,0.2092 -0.1509,0.39688 -0.3055,0.56304 0.01,10e-4 0.015,10e-4 0.023,0.003 0.2505,0.0423 0.4442,0.12453 0.5881,0.23848 0.2261,-0.12947 0.471,-0.22684 0.7356,-0.28787 -0.3743,-0.66393 -0.4431,-1.42593 -0.2022,-2.28847 0.039,-0.13794 0.2187,-0.55245 0.5345,-1.24284 0.17,-0.37959 0.175,-0.65299 0.012,-0.81527 -0.048,-0.0476 -0.1796,-0.0593 -0.3955,-0.0279 -0.2166,0.0261 -0.3507,0.0109 -0.4082,-0.0452 -0.1862,-0.18662 -0.1506,-0.40922 0.1094,-0.66851 0.1214,-0.12206 0.2808,-0.1965 0.4745,-0.22049 0.1947,-0.0251 0.3482,0.0198 0.4635,0.13441 0.1045,0.10548 0.1662,0.28364 0.1828,0.53552 0.015,0.25259 0.06,0.41522 0.1337,0.4886 0.057,0.0554 0.2018,0.031 0.4402,-0.0734 0.3158,-0.15382 0.6506,-0.22437 1.0097,-0.20744 0.9013,0.0243 1.6824,0.36477 2.3382,1.02306 0.1796,0.17709 0.2074,0.32808 0.086,0.44908 -0.1549,0.15558 -0.3489,0.11466 -0.586,-0.121 -0.017,-0.0162 -0.039,-0.0504 -0.066,-0.10336 -0.03,-0.0533 -0.056,-0.0914 -0.08,-0.11501 -0.2998,-0.30021 -0.7147,-0.49671 -1.2421,-0.58596 -0.5937,-0.0871 -1.2107,-0.0159 -1.8517,0.22013 -0.1136,0.64946 -0.2314,1.29434 -0.3528,1.9364 -0.098,0.53798 -0.1312,0.9024 -0.098,1.09608 0.025,0.1718 0.074,0.3563 0.1457,0.55139 0.08,-0.002 0.1595,-0.005 0.242,-0.002 0.8982,0.0332 1.6672,0.36583 2.3037,1.00471 0.2529,0.25118 0.491,0.63394 0.7217,1.14829 0.26,0.59761 0.4378,1.2252 0.531,1.89089 0.019,0.12877 0.057,0.46391 0.1111,1.00718 0.029,0.27164 0.066,0.4318 0.1136,0.47943 0.093,0.0935 0.5302,0.0571 1.3123,-0.11077 1.24,-0.26565 2.2973,-0.83291 3.1718,-1.71098 0.375,-0.37077 0.6001,-0.74118 0.6816,-1.10878 0.068,-0.32526 0.014,-0.57503 -0.1609,-0.75177 -0.042,-0.0416 -0.1178,-0.10019 -0.231,-0.1785 -0.1097,-0.0787 -0.1944,-0.14641 -0.2487,-0.19932 -0.1948,-0.1965 -0.1514,-0.46955 0.1323,-0.82303 0.026,-0.0268 0.063,-0.0727 0.1012,-0.14147 -0.1901,-0.0547 -0.4149,-0.024 -0.6805,0.0907 -0.2177,0.10831 -0.3556,0.13194 -0.417,0.0706 -0.076,-0.0744 -0.1005,-0.19544 -0.076,-0.36018 0.025,-0.16581 0.094,-0.36195 0.2085,-0.58738 0.1228,-0.0663 0.2914,-0.11924 0.5087,-0.16086 0.1898,-0.0265 0.3087,-0.0656 0.3574,-0.11254 0.032,-0.0339 0.041,-0.0801 0.024,-0.13582 -0.017,-0.0582 0,-0.1083 0.037,-0.14711 0.071,-0.0748 0.1951,-0.10019 0.3633,-0.0702 0.1694,0.0265 0.3027,0.085 0.398,0.18204 0.061,0.0603 0.188,0.34748 0.3817,0.85936 0.1915,0.51294 0.3238,0.80328 0.3912,0.86889 0.054,0.0547 0.1485,0.0801 0.2805,0.0758 0.1326,-0.005 0.2324,-0.0388 0.2995,-0.10689 0.053,-0.0547 0.1062,-0.18803 0.157,-0.39899 0.051,-0.21661 0.11,-0.35701 0.1795,-0.4251 0.405,-0.40534 0.8707,-0.34748 1.3931,0.17428 0.5525,0.55738 0.7395,0.92815 0.5472,1.11724 -0.1358,0.13723 -0.3948,0.19579 -0.7761,0.17886 -0.3835,-0.0166 -0.6167,0.0141 -0.6964,0.0949 -0.041,0.0427 -0.2378,0.37677 -0.592,1.00894 -0.3506,0.63042 -0.7104,1.1296 -1.0773,1.49508 -0.3179,0.3175 -0.8061,0.65228 -1.4641,0.99589 -0.7655,0.40111 -1.5441,0.69673 -2.3318,0.88794 -0.3577,0.0861 -0.8428,0.1778 -1.4531,0.27129 -0.4018,0.0617 -0.628,0.12241 -0.6812,0.17709 -0.028,0.0261 -0.05,0.19121 -0.071,0.49424 -0.047,0.50906 -0.09,0.93134 -0.1231,1.26295 -0.1623,1.32962 -0.6594,2.40912 -1.4845,3.23568 -0.3884,0.38452 -0.8809,0.76482 -1.4806,1.13559 -0.5998,0.36865 -0.9374,0.59019 -1.0125,0.66604 -0.3471,0.34537 -0.5154,0.66463 -0.5073,0.95497 0.012,0.24553 0.028,0.47943 0.043,0.70767 0.018,0.22578 -0.011,0.37748 -0.085,0.45121 -0.1432,0.1464 -0.3577,0.0716 -0.6406,-0.21167 -0.1627,-0.16369 -0.2498,-0.36125 -0.2639,-0.59231 -0.011,-0.18839 0.026,-0.47978 0.1227,-0.87525 -0.6448,-0.16651 -1.0696,-0.3563 -1.2728,-0.55915 -0.1668,-0.16933 -0.32,-0.41557 -0.4477,-0.74048 -0.1277,-0.32456 -0.189,-0.62971 -0.1816,-0.90558 0.013,-0.39511 0.2427,-0.8128 0.6903,-1.26294 0.1084,-0.10831 0.3295,-0.15064 0.6619,-0.13194 0.6279,0.0476 1.0237,0.14993 1.1811,0.30585 0.1612,0.16405 0.158,0.3302 -0.012,0.49883 -0.072,0.0741 -0.2424,0.12383 -0.501,0.14852 -0.2639,0.0236 -0.4156,0.0589 -0.4657,0.10619 -0.079,0.0815 -0.1347,0.23565 -0.1615,0.46778 -0.033,0.27728 -0.01,0.55633 0.08,0.83397 0,0.0145 0,0.024 0.011,0.0307 0.019,0.007 0.046,-0.007 0.08,-0.0427 0.074,-0.0727 0.1421,-0.21837 0.2042,-0.43145 0.053,-0.21237 0.1126,-0.34995 0.1736,-0.41169 0.109,-0.1083 0.3087,-0.11853 0.599,-0.0303 0.4364,0.121 0.7296,0.18697 0.8887,0.19509 0.4988,0.0102 1.1419,-0.36936 1.9226,-1.15041 0.5281,-0.52811 0.8855,-1.28835 1.0795,-2.28106 0.079,-0.43321 0.1058,-0.83185 0.089,-1.18851 -0.013,-0.31327 -0.058,-0.50518 -0.1334,-0.57926 -0.027,-0.0279 -0.2356,-0.0699 -0.6311,-0.12136"
       style="fill:#000000;fill-opacity:1;fill-rule:nonzero;stroke:none;stroke-width:0.0352778"
       id="path300" />
    <path
       d="m 254.8974,662.64514 c 0,-0.14958 -0.038,-0.26917 -0.1294,-0.35842 -0.054,-0.0557 -0.1295,-0.0974 -0.2314,-0.12488 -0.2152,0.11077 -0.4026,0.14322 -0.5617,0.10195 -0.1584,-0.0399 -0.3146,-0.0826 -0.4702,-0.12877 l -0.188,0.18909 c 0,0.23707 0.087,0.44027 0.2582,0.61137 0.1817,0.18027 0.3813,0.27904 0.6036,0.29457 0.2219,0.0123 0.4046,-0.0533 0.55,-0.19791 0.109,-0.10936 0.164,-0.23954 0.1689,-0.387 z m -1.9053,-1.24072 c -1.0319,0.17992 -1.9315,0.10266 -2.7009,-0.23248 -0.036,-0.0162 -0.1605,-0.115 -0.3739,-0.29175 -0.211,-0.1778 -0.4128,-0.28751 -0.6036,-0.3309 l -0.1193,0.12241 c 0,0.12489 0.034,0.22402 0.1052,0.29704 0.2452,0.24553 0.7609,0.50624 1.5469,0.7867 0.8431,0.29739 1.5565,0.29033 2.1456,-0.0272 0.024,-0.0825 0.024,-0.18873 0,-0.32385 z m 1.01,-0.52493 c 0.077,-0.14923 0.2141,-0.32032 0.4149,-0.52035 l 0.2981,-0.29986 c 0.3524,-0.35101 0.5817,-0.69144 0.6911,-1.01812 0.2444,-0.71261 0.1414,-1.42134 -0.307,-2.12372 -0.4455,-0.69956 -0.7207,-1.11795 -0.8191,-1.25342 -0.054,-0.0547 -0.145,-0.0466 -0.2699,0.0268 -0.018,0.18098 0.021,0.37536 0.1221,0.58314 l 0.2138,0.46179 c 0.1471,0.46884 0.093,1.09361 -0.1613,1.87043 -0.4967,1.45662 -0.7651,2.25883 -0.8001,2.40312 l 0.1486,0.14852 c 0.1989,10e-4 0.3302,-0.0307 0.3947,-0.0924 -0.027,0.0261 0,-0.0349 0.074,-0.18591 z m 3.2353,-4.90326 c -0.089,-0.38911 -0.2021,-0.65193 -0.3376,-0.78705 -0.01,-0.008 -0.1704,-0.12947 -0.4752,-0.36794 l -0.1224,-0.12171 c -0.1803,-0.18098 -0.3312,-0.30304 -0.4459,-0.36478 -0.2173,-0.109 -0.4604,-0.0307 -0.7211,0.23002 -0.1732,0.17215 -0.2579,0.36724 -0.2501,0.5916 0,0.2212 0.096,0.42016 0.2773,0.60325 0.091,0.0896 0.1908,0.20285 0.3002,0.34044 0.1079,0.13299 0.1753,0.21554 0.2025,0.242 0.1707,0.17321 0.4477,0.30057 0.8333,0.38911 0.3852,0.0836 0.6321,0.0713 0.7373,-0.0356 0.092,-0.0907 0.093,-0.3302 0,-0.71931 z m 6.0315,-1.51412 c 0.033,-0.23072 -0.015,-0.40887 -0.1426,-0.53376 -0.1188,-0.11782 -0.3146,-0.18626 -0.5976,-0.20602 -0.2801,-0.0162 -0.4543,-0.0614 -0.527,-0.13441 -0.056,-0.0568 -0.015,-0.23177 0.1224,-0.52987 0.1715,-0.40675 0.2279,-0.85372 0.1764,-1.34196 -0.109,-0.92499 -0.489,-1.71027 -1.1416,-2.36362 -0.1905,-0.19014 -0.3521,-0.21484 -0.4879,-0.0815 -0.1714,0.17287 -0.1351,0.38171 0.1083,0.62513 0.046,0.0455 0.1267,0.10019 0.2459,0.16333 0.3433,0.34467 0.5574,0.80575 0.6488,1.38501 0.099,0.6604 0.028,1.35678 -0.2156,2.08844 -0.7525,0.13582 -1.5018,0.27129 -2.2535,0.40852 -0.7028,0.10901 -1.2658,0.0907 -1.6817,-0.0547 -0.1986,-0.0734 -0.4904,-0.19791 -0.8693,-0.38171 -0.2176,-0.10795 -0.3475,-0.13793 -0.393,-0.0935 -0.034,0.0363 -0.055,0.10443 -0.054,0.2025 0,0.1016 0.014,0.16369 0.042,0.19015 0.053,0.0526 0.1616,0.10865 0.3242,0.16368 l 0.025,0.0265 c 1.0146,1.01389 2.268,1.23332 3.761,0.66499 0.3433,-0.16157 0.6893,-0.32456 1.0425,-0.48683 0.3549,-0.16404 0.6226,-0.15593 0.8036,0.0254 0.053,0.0557 0.066,0.2032 0.033,0.44132 -0.033,0.23848 -0.014,0.39264 0.048,0.45438 0.082,0.0808 0.1975,0.11606 0.3468,0.10231 0.1488,-0.0127 0.2716,-0.0716 0.3714,-0.16969 0.145,-0.14393 0.2329,-0.33232 0.2646,-0.56409"
       style="fill:#000000;fill-opacity:1;fill-rule:nonzero;stroke:none;stroke-width:0.0352778"
       id="path302" />
    <path
       d="m 246.6753,654.24656 c -0.1443,0.14429 -0.2085,0.32773 -0.198,0.54963 0.018,0.22154 0.1136,0.42192 0.2946,0.60254 0.1708,0.17392 0.3743,0.25965 0.6128,0.25965 l 0.188,-0.18909 c -0.047,-0.15417 -0.089,-0.31115 -0.1284,-0.4699 -0.041,-0.15875 -0.01,-0.34502 0.1013,-0.56198 -0.028,-0.10124 -0.068,-0.17674 -0.1242,-0.23142 -0.09,-0.091 -0.2092,-0.13264 -0.3591,-0.12841 -0.1479,0.004 -0.277,0.0596 -0.387,0.16898 z m 1.3038,1.73708 c -0.3164,0.58808 -0.3238,1.3021 -0.027,2.14524 0.2801,0.78493 0.5426,1.30104 0.786,1.54587 0.074,0.0716 0.1732,0.10936 0.2978,0.10654 l 0.1213,-0.12065 c -0.044,-0.1905 -0.1524,-0.39264 -0.3305,-0.60395 -0.1761,-0.21344 -0.2749,-0.33797 -0.2897,-0.37183 -0.3369,-0.77082 -0.4124,-1.67076 -0.2328,-2.70122 -0.1365,-0.0254 -0.2427,-0.0254 -0.3256,0 z m 0.6632,-0.93769 c -0.062,0.0653 -0.093,0.19756 -0.091,0.39512 l 0.1468,0.14851 c 0.1439,-0.0346 0.9461,-0.30268 2.4024,-0.79939 0.7772,-0.25471 1.402,-0.30974 1.8708,-0.16192 l 0.4621,0.21413 c 0.2078,0.10125 0.4029,0.14217 0.5832,0.12206 0.073,-0.12488 0.081,-0.21449 0.027,-0.26952 -0.1369,-0.0991 -0.5542,-0.37359 -1.2542,-0.81986 -0.7027,-0.44873 -1.4114,-0.54927 -2.1237,-0.30656 -0.327,0.10901 -0.6671,0.33902 -1.017,0.69074 l -0.3006,0.29986 c -0.2011,0.19932 -0.3718,0.33655 -0.5203,0.41346 -0.1517,0.0759 -0.2135,0.10089 -0.1863,0.0734 z m 4.3699,-3.30694 c -0.1072,0.10619 -0.1199,0.35243 -0.034,0.73696 0.087,0.38558 0.2152,0.66322 0.3874,0.83573 0.026,0.0268 0.1093,0.0928 0.2437,0.20073 0.1369,0.10865 0.2498,0.2099 0.3397,0.29915 0.1821,0.18133 0.3814,0.27552 0.6022,0.27799 0.2251,0.007 0.4202,-0.0769 0.5931,-0.25047 0.2603,-0.26141 0.3376,-0.50341 0.2286,-0.71967 -0.062,-0.11641 -0.1835,-0.26599 -0.3641,-0.44661 l -0.1224,-0.12277 c -0.2381,-0.3048 -0.3591,-0.46531 -0.3666,-0.47343 -0.1365,-0.13546 -0.3986,-0.24941 -0.7874,-0.33937 -0.3898,-0.0907 -0.6293,-0.0896 -0.72,0.002 z m 1.6697,-5.76897 c -0.099,0.0998 -0.1573,0.22331 -0.169,0.37183 -0.013,0.14993 0.021,0.26564 0.1016,0.34607 0.063,0.0631 0.2156,0.0811 0.4537,0.0487 0.2402,-0.0325 0.3852,-0.0198 0.4413,0.0325 0.1835,0.18239 0.1895,0.44874 0.026,0.80328 -0.1633,0.35313 -0.3259,0.69956 -0.4868,1.04316 -0.5698,1.49225 -0.3489,2.74638 0.6639,3.75955 l 0.028,0.0268 c 0.053,0.16228 0.1097,0.27094 0.1626,0.3235 0.027,0.0279 0.09,0.042 0.1905,0.042 0.098,0.002 0.1658,-0.0176 0.2029,-0.0547 0.044,-0.0444 0.014,-0.17498 -0.094,-0.39193 -0.1817,-0.37854 -0.3087,-0.66887 -0.3814,-0.8689 -0.146,-0.41557 -0.1644,-0.9779 -0.055,-1.68204 0.1373,-0.75248 0.2717,-1.50107 0.4082,-2.25355 0.7317,-0.24412 1.4291,-0.31538 2.0891,-0.2159 0.5782,0.0907 1.0404,0.30516 1.3847,0.65017 0.062,0.11818 0.1182,0.19968 0.1626,0.24413 0.2445,0.24412 0.4533,0.28045 0.6255,0.10865 0.1334,-0.13582 0.109,-0.29668 -0.081,-0.48683 -0.6537,-0.65335 -1.439,-1.03329 -2.3643,-1.143 -0.4868,-0.0501 -0.9342,0.006 -1.3399,0.17639 -0.2998,0.13758 -0.4755,0.1785 -0.5305,0.12276 -0.072,-0.072 -0.1186,-0.24694 -0.1359,-0.52775 -0.018,-0.28117 -0.086,-0.47766 -0.2053,-0.5969 -0.1249,-0.12594 -0.3023,-0.17463 -0.5351,-0.14323 -0.2301,0.0328 -0.4181,0.12241 -0.5624,0.26529"
       style="fill:#000000;fill-opacity:1;fill-rule:nonzero;stroke:none;stroke-width:0.0352778"
       id="path304" />
    <path
       d="m 275.4414,643.69427 c -2.712,-5.84729 -10.3751,-6.32213 -15.1179,-3.00355 -0.3711,0.25964 -1.022,1.18145 -1.2012,1.87642 -0.2378,0.92464 -0.1623,1.60761 0.6244,0.88195 5.0462,-4.65455 15.8138,-3.0286 15.412,5.35305 -0.2032,4.25556 -4.7369,6.56696 -8.4305,5.19642 -2.5037,-0.92957 -3.8146,-3.69888 -2.2881,-6.10376 1.7141,-2.69911 7.5347,-0.92675 5.6847,2.07891 -0.4038,-0.0131 -0.8496,0.18027 -1.1679,0.58174 -0.4793,0.60113 -0.4814,1.39311 -0.01,1.77023 0.4696,0.3743 1.243,0.19086 1.7188,-0.40957 3.5188,-4.43442 -1.8803,-10.08415 -6.3582,-6.34153 -1.9184,1.60231 -2.1741,4.54836 -1.5349,6.77298 0.8086,2.82363 3.8104,4.26931 6.536,4.26931 6.421,0 8.3237,-8.19785 6.1315,-12.9226"
       style="fill:#000000;fill-opacity:1;fill-rule:nonzero;stroke:none;stroke-width:0.0352778"
       id="path306" />
    <path
       d="m 243.8534,675.28199 c -5.847,-2.71145 -6.3218,-10.37343 -3.0039,-15.11652 0.2586,-0.37183 1.1818,-1.02271 1.8771,-1.20121 0.9254,-0.23883 1.6066,-0.16334 0.882,0.62336 -4.6556,5.04578 -3.0297,15.81361 5.3523,15.41251 4.2542,-0.2032 6.5673,-4.73781 5.1968,-8.43104 -0.9299,-2.50367 -3.6989,-3.81459 -6.1041,-2.28777 -2.7002,1.71415 -0.9264,7.53499 2.0789,5.68431 -0.013,-0.40393 0.181,-0.84913 0.5821,-1.16769 0.6,-0.47978 1.3934,-0.48154 1.7684,-0.008 0.3761,0.4699 0.193,1.24249 -0.4092,1.71874 -4.4337,3.51895 -10.0824,-1.87996 -6.3401,-6.35882 1.6016,-1.9177 4.5487,-2.17241 6.7723,-1.53494 2.8229,0.80892 4.2703,3.81035 4.2703,6.53732 0,6.42056 -8.1989,8.32309 -12.9229,6.13022"
       style="fill:#000000;fill-opacity:1;fill-rule:nonzero;stroke:none;stroke-width:0.0352778"
       id="path308" />
    <path
       d="m 238.7494,678.54378 c 0.022,0.0561 0.053,0.10442 0.091,0.14323 0.041,0.0395 0.086,0.0674 0.1369,0.0857 0.9073,-0.36618 1.6683,-0.85654 2.2839,-1.47073 0.8061,-0.80786 0.9094,-1.50918 0.3115,-2.10855 -0.1856,-0.18451 -0.4089,-0.28328 -0.6721,-0.28999 -0.2642,-0.008 -0.4935,0.0871 -0.689,0.28328 -1.0939,1.09538 -1.5808,2.21333 -1.4626,3.35704 z m -7.8659,-4.33 c 0.4339,-0.43321 0.8216,-0.48048 1.1571,-0.14499 0.056,0.0564 0.1076,0.17463 0.15,0.35349 0.041,0.17674 0.086,0.28786 0.1312,0.33266 0.056,0.0564 0.1369,0.0854 0.2498,0.0885 0.1086,0.004 0.1855,-0.0173 0.2324,-0.0628 0.056,-0.0547 0.1637,-0.29634 0.3249,-0.72249 0.1599,-0.42651 0.266,-0.66428 0.3172,-0.71473 0.078,-0.0804 0.1891,-0.12912 0.3309,-0.15169 0.139,-0.024 0.2402,-0.003 0.302,0.0589 0.034,0.0321 0.046,0.0744 0.031,0.12171 -0.015,0.0462 -0.01,0.0857 0.019,0.11395 0.039,0.0392 0.1386,0.0713 0.297,0.0921 0.1796,0.0356 0.3232,0.0801 0.4244,0.13511 0.095,0.18804 0.1503,0.35031 0.1732,0.48754 0.018,0.13794 0,0.23848 -0.064,0.29986 -0.051,0.0501 -0.1654,0.0307 -0.3489,-0.0589 -0.2187,-0.0952 -0.4067,-0.11994 -0.5658,-0.0751 0.033,0.0568 0.062,0.0949 0.085,0.11747 0.2374,0.29387 0.2737,0.52106 0.11,0.68404 -0.044,0.0448 -0.1143,0.10125 -0.2078,0.1651 -0.093,0.0663 -0.1555,0.11536 -0.1894,0.14887 -0.146,0.14676 -0.1937,0.35454 -0.1362,0.62512 0.069,0.30586 0.2565,0.6149 0.5662,0.92252 0.7275,0.72884 1.6087,1.20121 2.6406,1.42169 0.6466,0.14006 1.0107,0.1711 1.0901,0.0921 0.039,-0.0392 0.07,-0.17251 0.092,-0.39794 0.045,-0.4512 0.076,-0.72989 0.092,-0.83643 0.079,-0.55422 0.224,-1.07703 0.4416,-1.57339 0.1909,-0.42757 0.392,-0.74542 0.6019,-0.95462 0.5292,-0.53093 1.1656,-0.80751 1.9127,-0.83537 0.7483,-0.0254 1.3565,0.1979 1.8243,0.66428 0.1901,0.1905 0.3309,0.4706 0.4219,0.83855 0.091,0.36724 0.096,0.72884 0.016,1.09043 -0.1104,0.50765 -0.4812,1.07386 -1.1074,1.69934 -0.3637,0.36724 -0.9451,0.66181 -1.7413,0.88088 -0.3732,0.10054 -0.7793,0.18733 -1.2164,0.25435 -0.3302,0.043 -0.5023,0.0783 -0.526,0.1016 -0.063,0.0614 -0.099,0.22049 -0.1104,0.48225 -0.015,0.29704 0.01,0.62759 0.075,0.98778 0.073,0.37994 0.1796,0.71367 0.3122,1.01177 0.2159,-0.51718 0.4343,-0.97967 0.5539,-1.24143 0.2427,-0.52917 0.8343,-0.35384 0.5217,0.20602 -0.236,0.42298 -0.4864,1.04211 -0.7006,1.66617 0.068,0.0875 0.1341,0.1771 0.2103,0.25259 0.6473,0.64911 1.1807,0.96661 1.5981,0.95815 0.1298,-0.007 0.3757,-0.0621 0.7369,-0.16299 0.242,-0.073 0.4096,-0.0642 0.4992,0.0251 0.051,0.0508 0.099,0.16581 0.1464,0.34219 0.048,0.1778 0.1044,0.29845 0.1665,0.35878 0.028,0.0296 0.052,0.0409 0.068,0.0353 0,-0.006 0.01,-0.0131 0.01,-0.0254 0.073,-0.23107 0.096,-0.46214 0.067,-0.69392 -0.021,-0.1912 -0.068,-0.31961 -0.1341,-0.3884 -0.041,-0.0385 -0.1665,-0.0684 -0.3852,-0.0879 -0.2166,-0.0215 -0.3559,-0.0617 -0.418,-0.12382 -0.1404,-0.14005 -0.1454,-0.27834 -0.01,-0.41522 0.1284,-0.12876 0.4565,-0.21449 0.9803,-0.2533 0.2749,-0.0155 0.4601,0.0194 0.55,0.10937 0.3719,0.37429 0.5641,0.72143 0.5751,1.05057 0,0.22966 -0.045,0.48189 -0.1528,0.75177 -0.1076,0.27093 -0.2314,0.47589 -0.3718,0.61559 -0.1697,0.16969 -0.5214,0.32738 -1.0573,0.46532 0.079,0.32808 0.1129,0.57044 0.1005,0.72813 -0.011,0.19191 -0.084,0.3556 -0.2187,0.49213 -0.2356,0.2353 -0.4145,0.29739 -0.5327,0.17603 -0.061,-0.0617 -0.087,-0.18767 -0.073,-0.375 0.014,-0.18909 0.027,-0.38417 0.037,-0.58914 0.01,-0.24095 -0.1337,-0.50623 -0.4212,-0.7934 -0.063,-0.0628 -0.3429,-0.24694 -0.841,-0.55386 -0.5003,-0.30832 -0.9091,-0.62371 -1.2312,-0.94332 -0.052,-0.0526 -0.1,-0.10831 -0.1489,-0.16299 -0.011,0.0374 -0.023,0.0765 -0.034,0.1136 -0.3676,1.30845 -0.4558,2.94005 -0.4787,4.46017 0,0.29739 0.01,0.62759 0.075,0.98777 0.1594,0.82445 0.4568,1.45662 0.8975,1.89513 0.6473,0.64911 1.1807,0.96661 1.598,0.95814 0.1299,-0.007 0.3757,-0.0621 0.737,-0.16298 0.242,-0.073 0.4096,-0.0642 0.4992,0.025 0.051,0.0508 0.099,0.16581 0.1464,0.3422 0.048,0.1778 0.1044,0.29845 0.1665,0.35877 0.028,0.0296 0.052,0.0409 0.068,0.0353 0,-0.006 0.01,-0.013 0.01,-0.0254 0.073,-0.23107 0.096,-0.46214 0.067,-0.69391 -0.021,-0.19121 -0.068,-0.31962 -0.1341,-0.38841 -0.041,-0.0384 -0.1665,-0.0684 -0.3852,-0.0878 -0.2166,-0.0215 -0.356,-0.0617 -0.418,-0.12383 -0.1405,-0.14005 -0.1454,-0.27834 -0.01,-0.41522 0.1284,-0.12876 0.4565,-0.21449 0.9803,-0.25329 0.2748,-0.0155 0.46,0.0194 0.55,0.10936 0.3718,0.3743 0.5641,0.72143 0.575,1.05057 0,0.22966 -0.045,0.4819 -0.1527,0.75177 -0.1076,0.27094 -0.2314,0.4759 -0.3718,0.6156 -0.1697,0.16969 -0.5215,0.32738 -1.0573,0.46531 0.079,0.32809 0.1129,0.57044 0.1005,0.72814 -0.011,0.19191 -0.084,0.3556 -0.2187,0.49212 -0.2357,0.2353 -0.4145,0.29739 -0.5327,0.17604 -0.061,-0.0617 -0.087,-0.18768 -0.073,-0.37501 0.014,-0.18908 0.027,-0.38417 0.037,-0.58913 0.01,-0.24095 -0.1337,-0.50624 -0.4212,-0.7934 -0.063,-0.0628 -0.3429,-0.24695 -0.841,-0.55386 -0.5003,-0.30833 -0.9091,-0.62371 -1.2312,-0.94333 -0.6879,-0.68862 -1.101,-1.58538 -1.2358,-2.68993 -0.028,-0.27693 -0.053,-0.72708 -0.064,-1.15182 -0.029,-1.08761 0.1323,-2.58692 0.4777,-4.13773 0.054,-0.2413 0.1344,-0.50659 0.2289,-0.77717 -0.3362,-0.55139 -0.5528,-1.19345 -0.6427,-1.9297 -0.028,-0.27693 -0.062,-0.62688 -0.1009,-1.04986 -0.017,-0.2533 -0.037,-0.38982 -0.06,-0.41275 -0.044,-0.0448 -0.2332,-0.0945 -0.5663,-0.1457 -0.5072,-0.0787 -0.9115,-0.15381 -1.21,-0.22684 -0.6537,-0.15804 -1.2989,-0.40428 -1.9364,-0.7373 -0.5493,-0.2861 -0.9528,-0.56374 -1.2195,-0.82727 -0.3048,-0.30444 -0.6015,-0.71931 -0.895,-1.24389 -0.2932,-0.52564 -0.4562,-0.80363 -0.4929,-0.8382 -0.067,-0.0674 -0.2607,-0.0938 -0.5764,-0.0797 -0.3207,0.0138 -0.533,-0.0356 -0.6463,-0.14887 -0.1605,-0.15734 -0.01,-0.46496 0.4555,-0.92922 z m 47.8193,-35.62315 c -1.1442,-0.11818 -2.2626,0.36866 -3.3577,1.46192 -0.1957,0.19684 -0.2911,0.4265 -0.2828,0.68968 0.01,0.26317 0.105,0.48612 0.2902,0.67345 0.5984,0.59619 1.3009,0.49248 2.1085,-0.31327 0.614,-0.61524 1.1043,-1.37618 1.4701,-2.28353 -0.018,-0.0504 -0.046,-0.096 -0.085,-0.13546 -0.039,-0.0402 -0.087,-0.0709 -0.1434,-0.0928 z m -5.2004,-5.3033 c 0.05,-0.0515 0.2881,-0.15664 0.7146,-0.3175 0.4267,-0.16122 0.6668,-0.26882 0.7215,-0.32527 0.047,-0.0459 0.068,-0.12311 0.063,-0.23283 0,-0.11042 -0.032,-0.19332 -0.087,-0.24977 -0.045,-0.0452 -0.156,-0.0882 -0.3323,-0.13052 -0.1799,-0.0416 -0.2973,-0.0928 -0.3536,-0.14923 -0.3362,-0.3362 -0.2886,-0.7239 0.1452,-1.15781 0.4625,-0.46144 0.7716,-0.6156 0.9284,-0.45544 0.1135,0.11254 0.1633,0.32702 0.1494,0.64594 -0.014,0.3175 0.012,0.51117 0.079,0.5789 0.036,0.0339 0.3131,0.19791 0.8388,0.49036 0.5241,0.29351 0.939,0.59126 1.2438,0.89712 0.2635,0.26493 0.5403,0.66992 0.8272,1.21743 0.3331,0.63783 0.5778,1.28341 0.7372,1.93781 0.073,0.29739 0.1485,0.70168 0.227,1.20933 0.05,0.33337 0.1012,0.5207 0.1453,0.5655 0.023,0.0219 0.1605,0.043 0.4124,0.06 0.4232,0.0395 0.7744,0.0741 1.0504,0.10195 0.5107,0.0624 0.9755,0.18697 1.3979,0.36795 0.5046,-0.20814 1.052,-0.40887 1.513,-0.51153 1.551,-0.34572 3.0503,-0.50729 4.1379,-0.47801 0.4248,0.0113 0.8751,0.0356 1.1517,0.0638 1.1045,0.13511 2.0017,0.54821 2.69,1.23613 0.3197,0.32173 0.6352,0.7306 0.9435,1.23084 0.3066,0.49812 0.491,0.77823 0.5537,0.84102 0.2873,0.28752 0.5526,0.42792 0.7934,0.42122 0.205,-0.0102 0.4,-0.0229 0.5891,-0.037 0.1874,-0.0148 0.3135,0.0109 0.3752,0.0727 0.1213,0.11818 0.059,0.29669 -0.1761,0.53234 -0.1364,0.13512 -0.3004,0.20814 -0.4922,0.21908 -0.1575,0.012 -0.4001,-0.0219 -0.7281,-0.1009 -0.138,0.53587 -0.2956,0.88759 -0.4653,1.05728 -0.1396,0.1404 -0.3445,0.26423 -0.6157,0.37183 -0.2697,0.10795 -0.5219,0.15733 -0.7517,0.15275 -0.329,-0.0106 -0.6763,-0.20285 -1.0504,-0.57503 -0.09,-0.09 -0.1251,-0.27481 -0.1095,-0.54998 0.039,-0.52388 0.1247,-0.85196 0.2531,-0.98037 0.1371,-0.13723 0.2753,-0.13229 0.4155,0.008 0.062,0.0621 0.1024,0.20144 0.1237,0.41804 0.019,0.21872 0.049,0.34431 0.088,0.38524 0.069,0.0663 0.1971,0.11324 0.3886,0.1344 0.2315,0.0293 0.4628,0.005 0.6939,-0.0674 0.012,10e-4 0.02,-0.004 0.025,-0.007 0.01,-0.0169 -0.01,-0.0406 -0.035,-0.0684 -0.06,-0.0617 -0.1809,-0.11853 -0.3587,-0.16651 -0.1764,-0.0476 -0.2914,-0.096 -0.3425,-0.14605 -0.089,-0.09 -0.098,-0.25753 -0.025,-0.49918 0.1011,-0.3616 0.1555,-0.60748 0.1631,-0.7373 0.01,-0.41734 -0.3091,-0.95074 -0.9582,-1.59809 -0.4384,-0.44062 -1.0707,-0.73801 -1.8951,-0.89711 -0.3603,-0.0674 -0.6903,-0.0801 -0.988,-0.0755 -1.52,0.0226 -3.1516,0.11077 -4.46,0.47837 -0.2454,0.0688 -0.5069,0.14993 -0.7697,0.23777 0.2201,0.14711 0.4261,0.31326 0.6149,0.50235 0.319,0.32068 0.6356,0.7299 0.9437,1.22979 0.3062,0.49812 0.4902,0.77822 0.5529,0.84102 0.2885,0.28787 0.5526,0.42827 0.7941,0.42157 0.2043,-0.01 0.3988,-0.0233 0.5887,-0.036 0.1881,-0.0162 0.314,0.01 0.3756,0.0713 0.12,0.11959 0.058,0.29704 -0.1766,0.53305 -0.1362,0.13476 -0.3001,0.20743 -0.4925,0.21907 -0.1568,0.0113 -0.3993,-0.0219 -0.7277,-0.10125 -0.1387,0.53517 -0.2949,0.8883 -0.4651,1.05728 -0.1396,0.1404 -0.3441,0.26599 -0.6149,0.37112 -0.2706,0.10901 -0.5234,0.15875 -0.7534,0.15381 -0.328,-0.0123 -0.6755,-0.20179 -1.05,-0.57538 -0.089,-0.0903 -0.1243,-0.27411 -0.1092,-0.54892 0.04,-0.52423 0.1254,-0.85231 0.254,-0.98284 0.1355,-0.13511 0.2748,-0.13123 0.4146,0.009 0.062,0.061 0.1028,0.20214 0.1235,0.4184 0.02,0.21766 0.049,0.34466 0.089,0.38488 0.068,0.0667 0.1956,0.11359 0.3874,0.13546 0.2315,0.0282 0.4637,0.005 0.6938,-0.0684 0.013,10e-4 0.02,-0.002 0.026,-0.007 0.01,-0.0169 -0.01,-0.0399 -0.036,-0.0677 -0.06,-0.0614 -0.1813,-0.11782 -0.3588,-0.16721 -0.1761,-0.0469 -0.2923,-0.0956 -0.3426,-0.14535 -0.089,-0.0907 -0.098,-0.25753 -0.024,-0.49847 0.1,-0.36266 0.1545,-0.60819 0.1615,-0.73801 0.01,-0.41664 -0.3081,-0.95004 -0.9579,-1.59809 -0.2018,-0.2032 -0.4496,-0.37218 -0.7335,-0.51505 -0.372,0.1471 -0.7158,0.30056 -0.9807,0.44873 -0.5599,0.31221 -0.7352,-0.2794 -0.2061,-0.52176 0.113,-0.0519 0.2693,-0.12453 0.4454,-0.20496 -0.1361,-0.0378 -0.2716,-0.0762 -0.4204,-0.10478 -0.3594,-0.0663 -0.691,-0.0907 -0.9879,-0.0744 -0.2603,0.0109 -0.42,0.0476 -0.4819,0.10972 -0.023,0.0236 -0.057,0.19685 -0.1005,0.52528 -0.067,0.43745 -0.1551,0.84526 -0.2558,1.21814 -0.2185,0.79481 -0.5129,1.37548 -0.8798,1.74132 -0.6257,0.62582 -1.1919,0.99553 -1.7001,1.10736 -0.3612,0.0794 -0.7228,0.0741 -1.0902,-0.0162 -0.3675,-0.0903 -0.6482,-0.23071 -0.8388,-0.42262 -0.4658,-0.46849 -0.6894,-1.07598 -0.6643,-1.82316 0.028,-0.74577 0.3042,-1.38465 0.8356,-1.91452 0.2093,-0.20955 0.5268,-0.41064 0.9547,-0.60079 0.4969,-0.21625 1.0199,-0.36195 1.5729,-0.44061 0.1071,-0.0162 0.3852,-0.0476 0.8366,-0.0924 0.2265,-0.0236 0.3595,-0.0547 0.3985,-0.0938 0.079,-0.0794 0.048,-0.44203 -0.092,-1.09115 -0.2206,-1.03152 -0.6926,-1.91064 -1.4225,-2.63948 -0.3076,-0.30939 -0.616,-0.49742 -0.9222,-0.5655 -0.2704,-0.0564 -0.4777,-0.0102 -0.6245,0.13546 -0.034,0.0328 -0.083,0.097 -0.1497,0.18945 -0.064,0.0935 -0.1202,0.16369 -0.1645,0.20814 -0.1635,0.16298 -0.39,0.12664 -0.684,-0.11007 -0.023,-0.0219 -0.061,-0.0515 -0.1181,-0.0847 -0.045,0.15769 -0.02,0.34643 0.076,0.56621 0.09,0.18168 0.1089,0.29598 0.058,0.34713 -0.062,0.0621 -0.1623,0.0829 -0.2994,0.0642 -0.1377,-0.0215 -0.3002,-0.078 -0.4887,-0.17427 -0.054,-0.10019 -0.1,-0.24271 -0.1339,-0.42192 -0.02,-0.15875 -0.053,-0.25824 -0.092,-0.29775 -0.028,-0.0272 -0.068,-0.0353 -0.1139,-0.0205 -0.047,0.0148 -0.09,0.002 -0.1219,-0.03 -0.062,-0.0607 -0.082,-0.16263 -0.059,-0.30339 0.022,-0.14146 0.072,-0.25153 0.1516,-0.3302"
       style="fill:#000000;fill-opacity:1;fill-rule:nonzero;stroke:none;stroke-width:0.0352778"
       id="path310" />
  </g>
</svg>
