<?xml version="1.0" encoding="UTF-8" standalone="no"?>
<svg
   width="57"
   height="57"
   viewBox="0 0 57 57.000002"
   version="1.1"
   id="svg1173"
   sodipodi:docname="style27.svg"
   inkscape:version="1.4 (e7c3feb1, 2024-10-09)"
   inkscape:export-filename="style27.png"
   inkscape:export-xdpi="1592.8406"
   inkscape:export-ydpi="1592.8406"
   xmlns:inkscape="http://www.inkscape.org/namespaces/inkscape"
   xmlns:sodipodi="http://sodipodi.sourceforge.net/DTD/sodipodi-0.dtd"
   xmlns="http://www.w3.org/2000/svg"
   xmlns:svg="http://www.w3.org/2000/svg">
  <defs
     id="defs6723" />
  <sodipodi:namedview
     id="namedview6721"
     pagecolor="#ffffff"
     bordercolor="#666666"
     borderopacity="1.0"
     inkscape:showpageshadow="2"
     inkscape:pageopacity="0.0"
     inkscape:pagecheckerboard="0"
     inkscape:deskcolor="#d1d1d1"
     showgrid="false"
     inkscape:zoom="4.7160045"
     inkscape:cx="62.658973"
     inkscape:cy="36.471551"
     inkscape:current-layer="svg1173"
     inkscape:window-width="2224"
     inkscape:window-height="1085"
     inkscape:window-x="0"
     inkscape:window-y="25"
     inkscape:window-maximized="0" />
  <g
     id="g6903"
     style="fill:#000000">
    <path
       d="m 11.77253,15.45951 c -2.4003,-2.02388 -8.68574,-4.14126 -9.50912,0.55845 -0.31786,1.8154 0.87594,3.41771 2.45251,3.81988 1.67816,0.43074 3.76978,-0.44768 4.20828,-2.0895 0.0413,-0.12065 0.0752,-0.24695 0.0914,-0.38347 0.0871,-0.76906 -0.30903,-1.44533 -0.88512,-1.5113 -0.57643,-0.0656 -1.11618,0.50376 -1.20262,1.27282 -0.0547,0.48154 0.0794,0.92569 0.32915,1.20721 -0.98672,0.80186 -2.96051,0.369 -3.58634,-0.83997 -0.43533,-0.8389 -0.266,-1.89653 0.24236,-2.62855 1.20191,-1.72967 5.0426,-0.50129 6.5793,0.64841 3.02154,2.26131 4.26438,6.5599 4.62915,10.12931 0.30515,2.99543 -0.10266,6.16761 -1.37089,8.90552 -1.25377,2.70475 -3.76873,4.49333 -6.13516,6.16585 -1.49895,1.05833 0.66851,0.64488 1.00295,0.41769 4.07917,-2.75237 6.8393,-5.85646 7.59283,-10.85003 0.7486,-4.95865 -0.42545,-11.44023 -4.43865,-14.82232"
       style="fill:#000000;fill-opacity:1;fill-rule:nonzero;stroke:none;stroke-width:0.0352778"
       id="path202" />
    <path
       d="M -0.44875,0.36627 C -1.77061,3.03927 1.78187,6.276 3.38665,7.40489 5.22921,8.69923 7.3935,9.28837 9.56238,9.76074 9.0886,7.59222 8.50017,5.42792 7.20582,3.58607 6.07729,1.98023 2.66487,-1.64562 0.16791,-0.25039 -0.04905,-0.14561 -0.32422,0.12956 -0.44875,0.36627 Z m -0.24447,-1.18745 c 2.43134,-1.75825 5.77814,0.36019 7.60342,2.10114 2.44051,2.32728 3.49426,5.55414 4.17124,8.79123 5.11175,1.01212 10.36743,1.47425 15.57161,1.18357 5.02215,-0.28082 11.05641,-1.61961 13.74176,-6.3119 2.0581,-3.59516 -2.10468,-5.95031 -5.08988,-4.28484 -1.62737,0.90805 -2.35232,3.544 -0.248,4.32364 0.41627,0.15452 0.8703,0.15452 1.30598,0.13476 0.50059,-0.0212 1.1617,-0.48048 1.4418,-1.04387 -0.49353,0.10725 -1.07385,-0.0995 -1.46473,-0.57326 -0.5267,-0.64065 -0.51224,-1.52188 0.0314,-1.96885 0.50447,-0.41699 1.28481,-0.30622 1.81645,0.22189 0.0399,0.0321 0.0804,0.0706 0.12171,0.12524 0.0801,0.0967 0.14322,0.19967 0.19896,0.30586 1.01389,1.78858 -0.27869,4.29295 -2.3622,4.38361 -2.74672,0.11995 -4.22874,-2.8201 -3.048,-5.15267 1.55999,-3.08257 5.61164,-3.83469 7.9121,-1.09608 2.30294,2.73967 -0.0758,6.5151 -2.18898,8.45009 -2.94252,2.69663 -7.57449,3.52284 -11.41025,3.87491 -4.94806,0.45544 -10.06228,-0.0399 -14.94508,-0.87842 -0.36195,-0.061 -0.72742,-0.12629 -1.09325,-0.19297 0.0667,0.36548 0.13123,0.73166 0.19332,1.09256 0.83855,4.8835 1.33279,9.99737 0.87841,14.94613 -0.35277,3.83576 -1.17898,8.46738 -3.87526,11.4106 -1.93499,2.11208 -5.71006,4.49086 -8.45044,2.18863 -2.73756,-2.30152 -1.98579,-6.35247 1.09679,-7.9128 2.33256,-1.1804 5.27191,0.30127 5.15232,3.04835 -0.091,2.08351 -2.59468,3.37644 -4.38397,2.36149 C 1.87853,38.65146 1.77552,38.58798 1.67815,38.5086 1.62385,38.4673 1.58535,38.4264 1.55397,38.38654 1.02516,37.85491 0.91474,37.07421 1.33137,36.57044 c 0.44661,-0.54398 1.32821,-0.55809 1.96885,-0.0314 0.47484,0.39088 0.68086,0.97085 0.57326,1.46474 0.5641,-0.27976 1.02235,-0.94122 1.04458,-1.44216 0.0191,-0.43533 0.0198,-0.889 -0.13476,-1.30457 -0.78035,-2.10573 -3.4163,-1.38077 -4.32435,0.24694 -1.66441,2.98521 0.68862,7.14763 4.28448,5.08988 4.69265,-2.68534 6.0318,-8.71926 6.31296,-13.74175 C 11.34708,21.64759 10.88424,16.3912 9.87247,11.28086 6.63503,10.60282 3.40852,9.54942 1.08019,7.10926 -0.66006,5.28434 -2.77849,1.93718 -1.02025,-0.49381 c 0.0709,-0.10195 0.20779,-0.21449 0.32703,-0.32738"
       style="fill:#000000;fill-opacity:1;fill-rule:nonzero;stroke:none;stroke-width:0.0352778"
       id="path204" />
    <path
       d="M 15.2608,11.97125 C 13.23727,9.5713 11.11919,3.28586 15.81854,2.46247 c 1.81575,-0.3182 3.41807,0.87489 3.82023,2.45216 0.43039,1.67852 -0.44732,3.76979 -2.0895,4.20935 -0.1203,0.0409 -0.24765,0.0741 -0.38277,0.0903 -0.76905,0.0875 -1.44638,-0.30939 -1.51235,-0.88477 -0.0653,-0.57644 0.50447,-1.11548 1.27352,-1.20297 0.48049,-0.0554 0.92605,0.0797 1.20721,0.32949 0.80116,-0.98707 0.36936,-2.96086 -0.83996,-3.58669 -0.83926,-0.43497 -1.89724,-0.2667 -2.6289,0.24271 -1.72967,1.20333 -0.50095,5.04225 0.6484,6.57895 2.26166,3.0219 6.55955,4.26438 10.12931,4.6288 2.99544,0.30551 6.16761,-0.1023 8.90588,-1.37019 2.70474,-1.25377 4.49297,-3.76872 6.16514,-6.13516 1.05869,-1.4993 0.64523,0.66781 0.4191,1.0033 -2.75272,4.07847 -5.85787,6.8386 -10.85074,7.59249 -4.95829,0.74859 -11.44058,-0.42545 -14.82231,-4.43901"
       style="fill:#000000;fill-opacity:1;fill-rule:nonzero;stroke:none;stroke-width:0.0352778"
       id="path206" />
    <path
       d="M 4.62949,42.48829 C 1.81044,44.01017 0,46.46304 0,49.70224 V 57 c 0,1.0534 1.601,1.18074 1.601,0 v -6.02493 c 0,-1.48626 -0.0887,-2.89631 0.46908,-4.31165 0.65547,-1.66265 2.23027,-2.9457 3.73134,-3.83893 1.51518,-0.90205 -0.81457,-0.52882 -1.17193,-0.3362 v 0"
       style="fill:#000000;fill-opacity:1;fill-rule:nonzero;stroke:none;stroke-width:0.0352778"
       id="path208"
       sodipodi:nodetypes="cssssccsc" />
    <path
       d="M 42.49736,4.62042 C 44.0196,1.80137 46.47176,0 49.71132,0 H 57 c 1.0537,0 1.1815,1.60099 0,1.60099 h -6.01551 c -1.48731,0 -2.89701,-0.0977 -4.312,0.46108 -1.663,0.65476 -2.9457,2.22956 -3.83893,3.73027 -0.9017,1.51518 -0.52952,-0.81421 -0.3362,-1.17192 v 0"
       style="fill:#000000;fill-opacity:1;fill-rule:nonzero;stroke:none;stroke-width:0.0352778"
       id="path210"
       sodipodi:nodetypes="cssssccsc" />
    <path
       d="m 21.14302,20.46578 c 3.34715,-3.41982 4.39455,-9.09214 3.52919,-13.71141 -0.93945,-4.99921 -4.59176,-8.27546 -9.60897,-8.99654 -0.38276,-0.0554 -0.20567,1.11231 0.1143,1.15852 4.52226,0.65052 8.57956,3.54612 9.08685,8.38341 0.48119,4.58435 -1.02058,9.55887 -4.21534,12.9339 -3.37432,3.1944 -8.35201,4.69864 -12.93636,4.21745 -4.83694,-0.50764 -7.73218,-4.56459 -8.38271,-9.08685 -0.0466,-0.32032 -1.21426,-0.49706 -1.15887,-0.11394 0.72108,5.01685 3.99768,8.66916 8.99619,9.6079 4.61821,0.86713 10.18716,-0.0759 13.71317,-3.5306 0.21061,-0.16298 0.65123,-0.61136 0.86255,-0.86184"
       style="fill:#000000;fill-opacity:1;fill-rule:nonzero;stroke:none;stroke-width:0.0352778"
       id="path212" />
  </g>
</svg>
