<?xml version="1.0" encoding="UTF-8" standalone="no"?>
<svg
   width="25"
   height="25"
   viewBox="0 0 25 25.000001"
   version="1.1"
   id="svg1173"
   sodipodi:docname="style11.svg"
   inkscape:version="1.4 (e7c3feb1, 2024-10-09)"
   inkscape:export-filename="style11.png"
   inkscape:export-xdpi="3480.365"
   inkscape:export-ydpi="3480.365"
   xmlns:inkscape="http://www.inkscape.org/namespaces/inkscape"
   xmlns:sodipodi="http://sodipodi.sourceforge.net/DTD/sodipodi-0.dtd"
   xmlns="http://www.w3.org/2000/svg"
   xmlns:svg="http://www.w3.org/2000/svg">
  <defs
     id="defs5444" />
  <sodipodi:namedview
     id="namedview5442"
     pagecolor="#ffffff"
     bordercolor="#666666"
     borderopacity="1.0"
     inkscape:showpageshadow="2"
     inkscape:pageopacity="0.0"
     inkscape:pagecheckerboard="0"
     inkscape:deskcolor="#d1d1d1"
     showgrid="false"
     inkscape:zoom="17.453907"
     inkscape:cx="10.026408"
     inkscape:cy="7.3336014"
     inkscape:current-layer="svg1173"
     inkscape:window-width="1912"
     inkscape:window-height="979"
     inkscape:window-x="0"
     inkscape:window-y="25"
     inkscape:window-maximized="0" />
  <path
     d="m 7.8675419,9.2327687 c 0.0508,0.0512 -0.40922,-0.872775 -1.38147,-2.771075 -0.0825,-0.15981 -0.20426,-0.369 -0.36195,-0.62865 -0.0829,-0.13441 -0.11113,-0.21378 -0.0857,-0.23883 0.006,-0.007 0.375,0.12065 1.10455,0.38135 0.21061,0.0692 0.45508,0.13618 0.73483,0.19897 0.209201,0.0459 0.3259715,0.0797 0.351722,0.10583 0.0131,0.0124 0.168631,0.37077 0.4674325,1.07598 0.367952,0.87665 0.803635,1.743785 1.3049376,2.6006799 C 8.6045359,9.4998207 7.8929719,9.2585197 7.8675719,9.2327687 Z m -0.16263,6.9260953 c 0.0825,0.0822 0.17181,0.0769 0.2674105,-0.0183 0.178151,-0.1785 0.342902,-0.73624 0.4953025,-1.6771 0.2346015,-1.49261 0.094901,-3.06106 -0.419102,-4.7071208 1.1874565,0.2236605 2.5403611,1.0922008 4.0583711,2.6105608 0.0194,0.0194 0.0452,0.0519 0.0769,0.0952 0.0321,0.0314 0.0536,0.0533 0.0663,0.0663 0.0579,0.0579 0.16828,0.0289 0.33373,-0.0843 0.40499,-0.41946 0.63818,-0.66499 0.69533,-0.73484 0.12029,-0.1718 0.12594,-0.31044 0.0183,-0.41804 -0.0194,-0.0198 -0.0713,-0.0589 -0.15663,-0.11924 -0.0864,-0.0603 -0.15734,-0.11889 -0.21449,-0.17604 -0.17815,-0.1785 -0.46743,-0.55033 -0.86713,-1.1137215 -0.60396,-0.8456048 -1.1811,-1.7861188 -1.7339,-2.8215188 l 0.11324,-0.0381 c 1.02976,0.5588 2.29482,0.83855 3.79271,0.8382 0.6096,3.5e-4 1.15323,-0.06 1.62843,-0.18027 0.4265,-0.10866 0.7119,-0.23636 0.85795,-0.38171 0.0512,-0.0508 0.0984,-0.13088 0.14288,-0.23812 l -0.12418,-0.12383 c -0.9264,0.44521 -2.00343,0.61948 -3.22933,0.52353 -1.2633,-0.1069 -2.44157,-0.49213 -3.5341299,-1.15288 -0.5023532,-1.022 -0.8858252,-2.10079 -1.1535867,-3.2378 -0.265642,-1.13771 -0.315742,-2.09938005 -0.151341,-2.88712973 l 0.209901,-0.9715497 c -0.069501,-0.0699 -0.156991,-0.054 -0.2589415,0.048 -0.0952,0.0952 -0.208491,0.3559499 -0.341842,0.7810498 -0.177101,0.5333998 -0.326672,1.17086963 -0.448382,1.91451963 -0.18345,1.15006 -0.0977,2.44228 0.258231,3.87703 -0.825851,-0.11324 -1.743431,-0.56198 -2.754131,-1.34267 -0.13865,-0.0759 -0.46673,-0.32174 -0.98143,-0.73307 -0.15769,-0.13371 -0.27658,-0.18698 -0.35631,-0.15805 -0.0797,0.0282 -0.28398,0.19579 -0.61559,0.50059 -0.006,0.006 -0.0215,0.0155 -0.0459,0.0279 -0.0137,0.013 -0.0261,0.025 -0.0391,0.0385 -0.1143,0.11466 -0.10337,0.27059 0.0296,0.46673 0.23354,0.31256 0.47237,0.62618 0.71437,0.94439 0.7112,1.02799 1.2954,2.02494 1.75225,2.990852 -0.0635,0.0131 -0.2988,-0.0575 -0.7052,-0.209552 -0.51329,-0.19685 -1.00965,-0.33691 -1.4859,-0.4191 -0.97825,-0.16651 -1.87325,-0.21626 -2.68605002,-0.1524 -0.57220989,0.0504 -0.89005977,0.10795 -0.95390974,0.17145 -0.0434,0.0437 -0.0565,0.14569 -0.0367,0.3048 l -7.1e-4,0.0187 0.68544976,-0.0953 c 0.60431,-0.0832 1.25871,-0.0892 1.96286,-0.019 0.84419,0.0833 1.59843,0.238131 2.25848,0.467082 0.5648,0.196151 0.9592,0.406402 1.18004,0.627954 0.29316,0.292101 0.60466,0.7874043 0.93416,1.4873143 0.39405,0.82373 0.68968,1.69192 0.88582,2.59891 0.1771005,0.81386 0.1845005,1.48802 0.019,2.02036 -0.1464,0.47696 -0.19367,0.74048 -0.14323,0.79093"
     style="fill:#000000;fill-opacity:1;fill-rule:nonzero;stroke:none;stroke-width:0.0352778"
     id="path759" />
  <g
     id="g6032"
     style="fill:#000000">
    <path
       d="m -0.84521084,10.173364 c -1.68381046,1.79211 -1.56175046,5.87586 1.04315964,6.73558 3.0289497,0.99942 4.9297197,-3.64313 2.5202497,-5.20453 -0.0952,-0.0716 -0.20215,-0.13476 -0.3228,-0.18168 -0.5588,-0.21308 -1.14829,-0.0279 -1.31797,0.41487 -0.16933994,0.44309 0.14569,0.97543 0.70449,1.18886 0.30092,0.115 0.6089,0.11112 0.8569,0.0169 0.30304,0.10619 0.43462,0.26317 0.508,0.5835 0.19509,0.85866 -0.61595,1.51765 -1.143,1.77517 -0.87418,0.42687 -1.87712967,0.23107 -2.55410943,-0.35066 -1.66793027,-1.43369 -0.43885988,-4.27214 1.68168943,-4.70782 2.14912,-0.44167 4.10634,1.11196 4.60128,3.08857 0.59337,2.36891 -1.70356,5.00627 -3.97122,5.54743 -0.25506,0.0614 -0.31503,0.47132 -0.31503,0.68757 L 1.446,24.98645 c 0,0.82087 0.732,0.86289 0.732,0.0271 l 4.985e-4,-4.645316 c 2.97744,-0.99589 4.62244,-4.26191 4.07352,-7.30391 -0.57397,-3.1788808 -4.5466,-5.6049399 -7.09717934,-2.89101"
       style="fill:#000000;fill-opacity:1;fill-rule:nonzero;stroke:none;stroke-width:0.0352778"
       id="path763"
       sodipodi:nodetypes="ccccccccccccccccccc" />
    <path
       d="m 0,24.986665 c 0,0.82087 0.767,0.862465 0.767,0.02667 v -5.725069 c 0,-0.0945 -0.0197113,-0.20179 -0.13967122,-0.22683 -0.11958997,-0.0254 -0.32772988,-0.0572 -0.43496985,-0.0822 C 0.08546889,18.954236 0,19.029636 0,19.193726"
       style="fill:#000000;fill-opacity:1;fill-rule:nonzero;stroke:none;stroke-width:0.0352778"
       id="path765"
       sodipodi:nodetypes="cccccc" />
  </g>
  <g
     id="g6028"
     style="fill:#000000">
    <path
       d="m 10.974996,-0.8454143 c 1.79211,-1.6838105 5.87586,-1.5617505 6.73558,1.04315964 0.99942,3.02894966 -3.64313,4.92971966 -5.20453,2.52024966 -0.0716,-0.0952 -0.13476,-0.20215 -0.18168,-0.3228 -0.21308,-0.5588 -0.0279,-1.14829 0.41487,-1.31797 0.44309,-0.1693399 0.97543,0.14569 1.18886,0.70449 0.115,0.30092 0.11112,0.6089 0.0169,0.8569 0.10619,0.30304 0.26317,0.43462 0.5835,0.508 0.85866,0.19509 1.51765,-0.61595 1.77517,-1.143 0.42687,-0.87418 0.23107,-1.87712963 -0.35066,-2.55410939 -1.43369,-1.66793031 -4.27214,-0.43885988 -4.70782,1.68168939 -0.44167,2.14912 1.11196,4.10634 3.08857,4.60128 2.36891,0.59337 5.00627,-1.70356 5.54743,-3.97122 0.0614,-0.25506 0.47132,-0.31503 0.68757,-0.31503 l 4.417694,-4.285e-4 c 0.82087,0 0.86289,0.732 0.0271,0.732 l -3.843684,4.985e-4 c -0.99589,2.97744 -4.26191,4.62244 -7.30391,4.07352 -3.178881,-0.57397 -5.6049398,-4.5466 -2.89101,-7.0971793"
       style="fill:#000000;fill-opacity:1;fill-rule:nonzero;stroke:none;stroke-width:0.0352778"
       id="path763-9"
       sodipodi:nodetypes="ccccccccccccccccccc" />
    <path
       d="m 24.986665,-2.0346313e-4 c 0.82087,0 0.862465,0.76700000313 0.02667,0.76700000313 h -4.923437 c -0.0945,0 -0.20179,-0.0197113 -0.22683,-0.13967122 -0.0254,-0.11958997 -0.0572,-0.32772988 -0.0822,-0.43496985 -0.025,-0.10689004 0.0504,-0.19235893313 0.21449,-0.19235893313"
       style="fill:#000000;fill-opacity:1;fill-rule:nonzero;stroke:none;stroke-width:0.0352778"
       id="path765-6"
       sodipodi:nodetypes="cccccc" />
  </g>
  <g
     id="g707"
     style="fill:#000000" />
</svg>
