<?xml version="1.0" encoding="UTF-8" standalone="no"?>
<svg
   width="46"
   height="46"
   viewBox="0 0 46 46.000002"
   version="1.1"
   id="svg1173"
   sodipodi:docname="style19.svg"
   inkscape:version="1.4 (e7c3feb1, 2024-10-09)"
   inkscape:export-filename="style19.png"
   inkscape:export-xdpi="1902.7014"
   inkscape:export-ydpi="1902.7014"
   xmlns:inkscape="http://www.inkscape.org/namespaces/inkscape"
   xmlns:sodipodi="http://sodipodi.sourceforge.net/DTD/sodipodi-0.dtd"
   xmlns="http://www.w3.org/2000/svg"
   xmlns:svg="http://www.w3.org/2000/svg">
  <defs
     id="defs4714" />
  <sodipodi:namedview
     id="namedview4712"
     pagecolor="#ffffff"
     bordercolor="#666666"
     borderopacity="1.0"
     inkscape:showpageshadow="2"
     inkscape:pageopacity="0.0"
     inkscape:pagecheckerboard="0"
     inkscape:deskcolor="#d1d1d1"
     showgrid="false"
     inkscape:zoom="13.829479"
     inkscape:cx="17.896553"
     inkscape:cy="21.186626"
     inkscape:current-layer="svg1173"
     inkscape:window-width="2096"
     inkscape:window-height="1315"
     inkscape:window-x="0"
     inkscape:window-y="25"
     inkscape:window-maximized="0" />
  <g
     id="g4967"
     style="fill:#000000">
    <path
       d="m -2.7442798,14.413422 c 0.24554,-0.14393 0.4819,-0.29281 0.71191,-0.43991 1.022,-0.58138 2.12337,-0.95356 3.30235,-1.11725 0.7941,-0.10654 1.91029,-0.13476 3.34927,-0.0868 1.97344,0.0589 3.76732,0.24271 5.3890398,0.5528 1.27741,0.24483 1.99249,0.44662 2.147,0.60149 0.0582,0.0575 0.11042,0.22331 0.15946,0.50376 0.0501,0.27588 0.11183,0.45368 0.18556,0.52847 0.62971,0.62935 1.33773,0.54962 2.12443,-0.23495 0.80751,-0.80787 0.91087,-1.51624 0.3055,-2.12232 -0.16474,-0.16404 -0.39864,-0.2801 -0.69955,-0.34572 -0.30375,-0.0642 -0.47943,-0.121 -0.52705,-0.1718 -0.39265,-0.39194 -0.71191,-2.2246202 -0.95921,-5.4973402 -0.25294,-3.31435 0.1143,-6.31648 1.10596,-9.00924 l -0.29351,-0.27128 c -0.23742,0.042 -0.46002,0.1658 -0.66393,0.36865 -0.31891,0.32067 -0.54575,0.69921 -0.68086,1.13595 -0.13547,0.43815 -0.20602,0.66357 -0.21555,0.66957 -0.0243,0.0226 -0.0561,0.0395 -0.0928,0.042 -0.0356,0.004 -0.0617,0.0169 -0.0804,0.0328 -0.14499,0.14464 -0.28716,0.42263 -0.41628,0.83326 -0.44203,1.37618 -0.63359,2.47473 -0.57679,3.302 0.0991,1.57233 0.29986,2.82681 0.60219,3.76625 0.39229,1.2118 0.55951,1.8542 0.50271,1.92899 l -0.29386,-0.19685 c -0.16369,-0.21096 -0.35349,-0.57397 -0.56551,-1.08126 -0.23742,-0.58032 -0.47378,-1.16205 -0.7119,-1.74131 -0.5252898,-1.62208 -0.9574398,-3.02013 -1.3006898,-4.19735 -0.17216,-0.50165 -0.29845,-0.79234 -0.37924,-0.87278 -0.10795,-0.10548 -0.20638,-0.1143 -0.29633,-0.024 -0.0819,0.0833 -0.0741,0.42722 0.0243,1.03188 0.12488,0.72566 0.34748,1.55787 0.67521,2.49026 0.23742,0.66428 0.647,1.62066 1.2273198,2.87232 0.53234,1.137 0.88053,1.98366 1.04246,2.5407002 0.10901,0.35243 0.14464,0.54398 0.11183,0.5775 -0.0494,0.0483 -0.10901,0.0374 -0.18309,-0.0367 -0.043,-0.0427 -0.0977,-0.10901 -0.16546,-0.2032 -0.0691,-0.0928 -0.12594,-0.16193 -0.16898,-0.20355 C 10.2418,9.6279618 9.3090502,7.9339218 8.1544102,5.2598718 c -0.31891,-0.74683 -0.64064,-1.542 -0.96837,-2.39642 -0.2212,-0.57997 -0.34749,-0.88689 -0.38171,-0.91899 -0.12982,-0.13194 -0.30903,-0.21026 -0.5334,-0.23848 -0.22472,-0.0293 -0.38171,0.002 -0.47202,0.0914 -0.15557,0.15628 -0.22048,0.4632 -0.19226,0.92816 0.031,0.46002 0.0282,0.70908 -0.004,0.74048 -0.0822,0.0829 -0.15205,0.0942 -0.2092,0.0367 -0.0571,-0.0575 -0.15134,-0.17956 -0.28257,-0.36795 -0.13159,-0.18662 -0.24695,-0.3309 -0.34326,-0.42933 -0.21343,-0.21343 -0.65017,0.0141 -1.31339,0.67557 -0.58067,0.58103 -0.73625,1.00613 -0.46637,1.276 l 0.34361,0.34361 c 0.29527,0.29527 0.37676,0.50694 0.24341,0.64029 -0.0219,0.0215 -0.29457,0.0127 -0.8135,-0.0332 -0.51929,-0.0434 -0.87419,0.0265 -1.06186,0.21625 -0.29387,0.29281 -0.2593,0.62548 0.11006,0.99342 0.0406,0.0409 0.48719,0.20744 1.33738,0.5013 1.08797,0.38664 2.18581,0.85937 3.28966,1.42522 2.5601,1.3172702 4.0788098,2.2129802 4.5543598,2.6871102 0.0801,0.0833 0.0885,0.15663 0.0229,0.22119 -0.0169,0.0169 -0.51823,-0.20743 -1.5084798,-0.67521 -1.34232,-0.62089 -2.72909,-1.1571202 -4.16172,-1.6069102 -1.23437,-0.38453 -2.39042,-0.61383 -3.46146,-0.68615 -0.85019,-0.0508 -1.33279,-0.0183 -1.44815,0.0981 -0.0483,0.0476 -0.0455,0.10231 0.0141,0.15875 0.0222,0.0236 0.52811,0.16087 1.50777,0.40428 1.26048,0.30974 2.47545,0.6914502 3.6449,1.1412402 1.50566,0.57326 2.31917,0.9204 2.44405,1.04457 0.0815,0.0815 0.15945,0.17534 0.23142,0.28223 -0.38453,-0.0423 -0.92392,-0.17181 -1.61854,-0.39229 -0.76871,-0.24554 -1.32609,-0.39405 -1.6697,-0.44239 -1.44074,-0.23001 -2.79506,-0.1852 -4.06329,0.13688 -1.20157,0.30057 -2.14242,0.79093 -2.82223,1.47179 -0.0903,0.09 -0.1905,0.20532 -0.30162,0.34749 -0.11042,0.14464 -0.18168,0.23283 -0.21379,0.26493 -0.11394,0.11466 -0.26987,0.22966 -0.46602,0.34467 -0.19614,0.11324 -0.30797,0.18274 -0.33161,0.20673 -0.0825,0.0822 -0.13899,0.1972 -0.1725,0.34536 -0.0328,0.14535 -0.0198,0.24871 0.036,0.30692 0.15522,0.15628 0.35595,0.15946 0.60254,0.0102"
       style="fill:#000000;fill-opacity:1;fill-rule:nonzero;stroke:none;stroke-width:0.0352778"
       id="path561" />
    <path
       d="M 45.97723,0.0119718 31.47976,0 c -0.19897,-1.6430649e-4 -0.77823,0.047572 -0.80257,0.3467618 -0.16722,2.08456 -1.18005,3.82552 -3.07235,4.78296 -0.13476,0.0688 -0.18767,0.17392 -0.13405,0.31291 1.09784,2.84763 1.55645,5.9058602 -0.52035,8.4116402 -2.7559,3.32316 -6.62375,0.47977 -6.18067,-2.63596 0.48649,0.0148 1.01318,-0.18097 1.42911,-0.58808 0.72319,-0.7112002 0.83044,-1.7737702 0.24094,-2.3738402 -0.59019,-0.60008 -1.65311,-0.51259 -2.37666,0.19756 -3.5e-4,10e-4 -7e-4,10e-4 -0.001,10e-4 -1.95474,1.8400902 -2.14665,5.2592202 0.33902,6.8128502 2.09479,1.3081 4.57447,1.26824 6.8012,0.29633 2.60456,-1.13382 3.45123,-4.05094 3.26778,-6.6477402 -0.10407,-1.47426 -1.19662,-2.81834 0.0229,-3.89996 1.30246,-1.15323 2.0246,-2.46698 2.23238,-4.15078 H 46 C 47.43369,0.8656518 47.37623,0 46,0"
       style="fill:#000000;fill-opacity:1;fill-rule:nonzero;stroke:none;stroke-width:0.0352778"
       id="path563"
       sodipodi:nodetypes="csccccccccccccccsc" />
    <path
       d="m 17.72424,3.6279518 c 2.67088,-2.12831 5.91468,-2.75485 9.19586,-1.84715 1.11443,0.30762 -0.35207,0.78564 -0.88335,0.63853 -1.51413,-0.41875 -3.31894,-0.29422 -4.89973,0.33514 1.09502,-0.16793 2.2172,-0.0737 3.16159,0.50588 1.75084,1.07879 2.50084,3.29882 1.8916,5.23628 -0.28928,0.79904 -1.06045,1.24989 -1.72262,1.01142 -0.66393,-0.24166 -0.96626,-1.08268 -0.67663,-1.88066 0.18945,-0.52282 0.58597,-0.89147 1.02235,-1.01953 -0.18803,-0.89676 -0.63076,-1.73531 -1.36101,-2.2726 -1.36067,-1.00188 -2.95064,-0.96026 -4.44712,-0.254 -0.004,0.002 -0.007,0.003 -0.0102,0.004 -0.53023,0.49142 -0.97437,1.07068 -1.27988,1.74555 -1.33773,2.95628 -0.40746,6.1528002 0.70556,8.9997102 0.20284,0.53129 0.18626,0.7934 -0.37077,0.77753 -0.47837,-0.0148 -1.24213,-0.28717 -1.34232,-0.54434 -1.45556,-3.71934 -2.58657,-8.5654502 1.0167,-11.4360002"
       style="fill:#000000;fill-opacity:1;fill-rule:nonzero;stroke:none;stroke-width:0.0352778"
       id="path565" />
    <path
       d="M 0.0073902,46.151412 2e-7,31.484692 c -1.0078243e-4,-0.20002 0.04339,-0.77858 0.3421802,-0.80327 2.08421,-0.16687 3.82552,-1.1804 4.78331,-3.07235 0.0681,-0.13299 0.17427,-0.18697 0.31291,-0.13299 2.8476298,1.09749 5.9058596,1.55575 8.4112896,-0.5207 3.32387,-2.75626 0.47942,-6.62411 -2.63596,-6.18067 0.0155,0.48683 -0.18027,1.01318 -0.58808,1.4284 -0.7104998,0.72319 -1.7734198,0.83008 -2.3738398,0.23989 -0.59937,-0.58844 -0.51224,-1.65171 0.19755,-2.37561 l 0.001,-7.1e-4 c 1.8390298,-1.95544 5.2592098,-2.14735 6.8128498,0.33797 1.30774,2.0955 1.26788,4.57552 0.29703,6.8012 -1.13453,2.60526 -4.05165,3.45193 -6.6491498,3.26884 -1.47391,-0.10407 -2.8169298,-1.19698 -3.8988998,0.0219 -1.15288,1.30281 -2.4627404,2.02424 -4.1461904,2.23167 V 46 C 0.866,47.43299 2e-7,47.37653 2e-7,46"
       style="fill:#000000;fill-opacity:1;fill-rule:nonzero;stroke:none;stroke-width:0.0352778"
       id="path567"
       sodipodi:nodetypes="csccccccccccccccsc" />
    <path
       d="m 3.6237202,17.728832 c 2.87055,-3.60469 7.7155998,-2.47227 11.4359898,-1.01706 0.25647,0.10019 0.52917,0.8643 0.54363,1.34302 0.0166,0.55669 -0.24588,0.57291 -0.77717,0.37007 -2.84691,-1.11337 -6.0437898,-2.04294 -8.9997098,-0.70521 -0.67522,0.30551 -1.25448,0.75001 -1.74625,1.28094 -10e-4,0.003 -0.002,0.006 -0.004,0.009 -0.7052,1.49613 -0.74789,3.08716 0.25435,4.44712 0.53728,0.73095 1.37584,1.17369 2.2726,1.36172 0.12735,-0.43744 0.496,-0.83361 1.01988,-1.02376 0.79763,-0.28892 1.6383,0.0138 1.8803,0.67663 0.23848,0.66216 -0.21202,1.43404 -1.01071,1.72332 -1.93816,0.60925 -4.15854,-0.14111 -5.23663,-1.89195 -0.57926,-0.94368 -0.67416,-2.06481 -0.50694,-3.15877 -0.6283,1.58044 -0.75283,3.3842 -0.33408,4.89726 0.1464,0.53128 -0.33055,1.99813 -0.63923,0.88371 -0.90735,-3.28189 -0.28011,-6.52569 1.84785,-9.19622"
       style="fill:#000000;fill-opacity:1;fill-rule:nonzero;stroke:none;stroke-width:0.0352778"
       id="path569" />
    <path
       d="m 2.5004702,32.679268 v 9.84039 c 0,0.69215 0.84561,0.92569 0.84561,-0.0769 0,-2.3883 0.12241,-5.80319 0.36583,-7.23371 0.18521,-1.08973 0.50412,-2.4003 0.81139,-3.24591 -0.46355,0.20885 -1.56175,1.110562 -2.02283,1.187112"
       style="fill:#000000;fill-opacity:1;fill-rule:nonzero;stroke:none;stroke-width:0.0352778"
       id="path571"
       sodipodi:nodetypes="cssccc" />
    <path
       d="m 32.804085,2.3956918 h 9.84038 c 0.69215,0 0.92569,0.84561 -0.0769,0.84561 -2.38866,0 -5.8032,0.12241 -7.23371,0.36583 -1.08973,0.18556 -2.40065,0.50412 -3.24591,0.81174 0.20885,-0.4639 1.064263,-1.56174 1.141163,-2.02318"
       style="fill:#000000;fill-opacity:1;fill-rule:nonzero;stroke:none;stroke-width:0.0352778"
       id="path573"
       sodipodi:nodetypes="cssccc" />
  </g>
</svg>
