<?xml version="1.0" encoding="UTF-8" standalone="no"?>
<svg
   width="55"
   height="55"
   viewBox="0 0 55 55.000002"
   version="1.1"
   id="svg1173"
   sodipodi:docname="style20.svg"
   inkscape:version="1.4 (e7c3feb1, 2024-10-09)"
   inkscape:export-filename="style20.png"
   inkscape:export-xdpi="1630.7322"
   inkscape:export-ydpi="1630.7322"
   xmlns:inkscape="http://www.inkscape.org/namespaces/inkscape"
   xmlns:sodipodi="http://sodipodi.sourceforge.net/DTD/sodipodi-0.dtd"
   xmlns="http://www.w3.org/2000/svg"
   xmlns:svg="http://www.w3.org/2000/svg">
  <defs
     id="defs5041" />
  <sodipodi:namedview
     id="namedview5039"
     pagecolor="#ffffff"
     bordercolor="#666666"
     borderopacity="1.0"
     inkscape:showpageshadow="2"
     inkscape:pageopacity="0.0"
     inkscape:pagecheckerboard="0"
     inkscape:deskcolor="#d1d1d1"
     showgrid="false"
     inkscape:zoom="10.934996"
     inkscape:cx="26.017385"
     inkscape:cy="19.204397"
     inkscape:current-layer="svg1173"
     inkscape:window-width="2192"
     inkscape:window-height="1387"
     inkscape:window-x="0"
     inkscape:window-y="25"
     inkscape:window-maximized="0" />
  <g
     id="g5312"
     style="fill:#000000">
    <path
       d="m 11.25921,10.13004 c 0.72425,0.37606 1.4351,0.78141 2.13324,1.21497 1.30175,0.81597 2.62643,1.32539 3.9751,1.52894 0.98778,0.14569 1.86831,0.13547 2.64548,-0.031 0.75036,-0.17251 1.34232,-0.47625 1.77836,-0.91052 0.18415,-0.18239 0.32526,-0.43357 0.42474,-0.75283 0.11642,-0.33373 0.1524,-0.64241 0.11077,-0.92392 C 22.2952,10.02496 22.18226,9.81364 21.98788,9.62032 21.67814,9.31164 21.36276,9.09257 21.04385,8.96169 20.77045,8.84739 20.593,8.83045 20.50833,8.91479 c -0.0261,0.025 -0.004,0.12065 0.0663,0.2861 0.0716,0.16545 0.1397,0.27764 0.20214,0.34043 0.0526,0.0519 0.15487,0.11677 0.31079,0.19332 0.15417,0.0755 0.26353,0.14394 0.32632,0.20708 0.24201,0.23954 0.36689,0.50342 0.37324,0.7874 0.009,0.28469 -0.10089,0.54081 -0.32632,0.76447 -0.36653,0.36619 -1.10984,0.53058 -2.22673,0.4946 -1.21214,-0.0374 -2.66383,-0.31221 -4.35363,-0.82339 -1.27635,-0.38206 -2.58974,-0.94862 -3.94476,-1.70144 -0.16722,-0.0935 -0.28046,-0.14782 -0.33761,-0.16475 -0.0907,-0.0258 -0.16863,-0.004 -0.23777,0.0631 -0.0889,0.0889 -0.0878,0.17709 0.002,0.26635 0.0413,0.0409 0.34079,0.20884 0.89677,0.502"
       style="fill:#000000;fill-opacity:1;fill-rule:nonzero;stroke:none;stroke-width:0.0352778"
       id="path523" />
    <path
       d="M 12.06989,8.82864 C 12.87704,8.71188 13.6909,8.62509 14.51005,8.56865 16.04393,8.47095 17.41588,8.10968 18.63014,7.4895 19.51562,7.02948 20.22611,6.50666 20.76022,5.91858 21.26751,5.33791 21.57125,4.74701 21.67109,4.13952 21.71449,3.88482 21.68199,3.59801 21.57729,3.28121 21.47604,2.94325 21.32576,2.6702 21.12715,2.46524 20.96628,2.29802 20.75108,2.19325 20.48156,2.14774 c -0.4318,-0.0684 -0.81633,-0.0617 -1.15217,0.0176 -0.28893,0.0653 -0.44274,0.15734 -0.46179,0.27481 -0.006,0.036 0.0677,0.10055 0.22155,0.19403 0.15381,0.091 0.27446,0.14358 0.3623,0.15663 0.0723,0.013 0.19368,0.005 0.36442,-0.024 0.16898,-0.0289 0.29845,-0.037 0.38629,-0.0222 0.33691,0.0533 0.59126,0.19333 0.76306,0.42157 0.17357,0.22508 0.2346,0.49742 0.18168,0.81033 -0.0836,0.51153 -0.59196,1.07915 -1.51871,1.7018 -1.00647,0.67734 -2.34491,1.30317 -4.01426,1.87572 -1.25941,0.43357 -2.65712,0.74084 -4.19593,0.92181 -0.19156,0.0215 -0.31539,0.0434 -0.37148,0.0635 -0.0882,0.0332 -0.13864,0.0945 -0.15593,0.18944 -0.0201,0.12489 0.0328,0.1965 0.15805,0.2159 0.0572,0.009 0.39864,-0.03 1.02129,-0.11606"
       style="fill:#000000;fill-opacity:1;fill-rule:nonzero;stroke:none;stroke-width:0.0352778"
       id="path525" />
    <path
       d="m 9.03565,10.9566 c -0.0198,-0.12453 -0.0907,-0.17709 -0.2152,-0.15698 -0.0949,0.0162 -0.15698,0.067 -0.18944,0.15522 -0.0201,0.0557 -0.0423,0.18062 -0.0635,0.37182 C 8.38618,12.86619 8.07962,14.26283 7.6457,15.5226 7.07279,17.19089 6.44732,18.53039 5.76963,19.53757 5.14733,20.4629 4.57971,20.97161 4.06818,21.05522 3.75492,21.10712 3.48257,21.04722 3.25785,20.87389 3.0296,20.70173 2.8899,20.44703 2.83558,20.11083 c -0.0145,-0.0882 -0.007,-0.21696 0.0226,-0.38594 0.0286,-0.17109 0.0374,-0.29245 0.0244,-0.36442 -0.0134,-0.0882 -0.066,-0.20955 -0.15699,-0.36265 -0.0928,-0.15346 -0.15804,-0.22754 -0.19403,-0.2219 -0.11712,0.0198 -0.20919,0.17286 -0.27516,0.46179 -0.0794,0.33584 -0.0857,0.72037 -0.0173,1.15323 0.0452,0.26881 0.15099,0.48366 0.31785,0.64417 0.20461,0.19967 0.47731,0.3496 0.81527,0.4512 0.31715,0.10442 0.6036,0.13759 0.85937,0.0942 0.60713,-0.10089 1.19768,-0.40463 1.77835,-0.91157 0.58843,-0.53446 1.11055,-1.24566 1.57092,-2.12937 0.62089,-1.21461 0.98143,-2.58692 1.07915,-4.12115 0.0568,-0.81809 0.14323,-1.63266 0.2607,-2.44052 0.0854,-0.62265 0.12418,-0.96343 0.11501,-1.02129"
       style="fill:#000000;fill-opacity:1;fill-rule:nonzero;stroke:none;stroke-width:0.0352778"
       id="path527" />
    <path
       d="m 14.57673,17.60576 c 0.17603,0.007 0.31362,-0.0381 0.41345,-0.13759 0.037,-0.0374 0.0734,-0.15487 0.11007,-0.35383 0.0367,-0.19826 0.0716,-0.31292 0.10301,-0.34431 0.0261,-0.0251 0.12735,-0.0243 0.30621,0.007 0.45755,0.0684 0.70274,0.10442 0.74013,0.11041 0.22648,0.0272 0.36971,0.0381 0.43356,0.0395 0.12136,-0.006 0.22613,-0.0519 0.31433,-0.14146 0.11677,-0.11465 0.12912,-0.43603 0.0406,-0.96414 -0.0388,-0.19297 -0.0744,-0.38629 -0.11077,-0.57961 -0.0272,-0.14112 -0.0233,-0.22755 0.008,-0.26035 0.0353,-0.0353 0.15099,-0.0734 0.34149,-0.11254 0.19191,-0.0395 0.30903,-0.0801 0.35066,-0.12171 0.0575,-0.0572 0.0871,-0.15169 0.0861,-0.28152 10e-4,-0.13158 -0.0363,-0.23248 -0.11042,-0.30585 -0.0582,-0.0579 -0.56903,-0.29069 -1.53388,-0.6978 C 14.66204,12.86612 13.85136,12.51299 13.63651,12.40433 13.02233,12.08542 12.42896,11.68079 11.85746,11.19572 11.40625,10.79884 10.9554,10.4062 10.5042,10.02026 10.1934,9.76379 9.98914,9.68512 9.88966,9.78425 l -0.0162,0.0155 c -0.0476,0.048 0.25718,0.39758 0.91299,1.05128 0.17957,0.1778 0.4565,0.42263 0.83362,0.73695 0.40992,0.33479 0.70943,0.59126 0.89852,0.76765 0.3041,0.29245 0.58808,0.55456 0.8502,0.78352 0.23001,0.19932 0.33796,0.29033 0.32173,0.27411 0.17462,0.17356 0.23248,0.28927 0.17462,0.34642 -0.0635,0.0624 -0.34607,-0.10054 -0.8509,-0.48648 -0.57785,-0.45014 -1.25624,-1.06327 -2.0387,-1.84326 l -0.0624,-0.0624 C 10.85494,11.31114 10.77203,11.2222 10.66055,11.1019 10.55013,10.98125 10.4637,10.89058 10.4002,10.82744 10.10175,10.52969 9.92007,10.41151 9.85692,10.47466 c -0.0473,0.0469 -0.009,0.14605 0.11042,0.29774 0.17427,0.21449 0.34996,0.42616 0.52741,0.635 0.8509,1.02482 1.39135,1.6884 1.62172,1.99143 0.47272,0.61595 0.80856,1.13418 1.00753,1.55258 0.23142,0.49142 0.45755,1.05551 0.67768,1.69333 0.16299,0.45473 0.27905,0.71544 0.34537,0.78282 0.11254,0.11148 0.254,0.16862 0.42969,0.17815"
       style="fill:#000000;fill-opacity:1;fill-rule:nonzero;stroke:none;stroke-width:0.0352778"
       id="path529" />
    <path
       d="m 10.55471,22.4815 c 0.46919,-0.0399 0.9084,-0.26388 1.31903,-0.67098 0.86008,-0.85725 1.26401,-1.99567 1.21215,-3.41736 -0.0635,-1.46438 -0.61172,-3.06705 -1.64606,-4.80625 C 10.8207,12.65734 10.3822,12.03751 10.12538,11.73024 9.97262,11.50446 9.80082,11.2427 9.60574,10.94496 9.4745,10.73047 9.39266,10.6077 9.36232,10.57666 c -0.0416,-0.0416 -0.0977,-0.0713 -0.16651,-0.0868 -0.0621,0.11536 -0.0836,0.21484 -0.0621,0.2981 0.0162,0.037 0.0684,0.12135 0.15698,0.25047 0.26741,0.38241 0.55387,0.86078 0.85761,1.43475 0.35207,0.67415 0.63253,1.3462 0.84314,2.01577 0.57114,1.84432 0.86219,3.40995 0.87418,4.69582 0.004,1.23825 -0.24906,2.1142 -0.76376,2.62643 -0.1323,0.13053 -0.3355,0.21802 -0.61101,0.26211 -0.27517,0.0441 -0.47061,0.009 -0.58703,-0.10583 -0.067,-0.0674 -0.1845,-0.25541 -0.35313,-0.56444 C 9.38277,21.09506 9.21485,20.85694 9.04657,20.68937 8.73683,20.3821 8.49906,20.31084 8.33043,20.47841 c -0.12629,0.12559 -0.0572,0.3182 0.20461,0.57926 0.0261,0.0272 0.0579,0.0572 0.0952,0.0949 0.0416,0.0318 0.067,0.0519 0.0776,0.0628 0.006,0.005 0.0744,0.10372 0.20461,0.2988 0.13229,0.19191 0.28116,0.37254 0.44979,0.5394 0.32526,0.32491 0.72284,0.46778 1.19239,0.42792"
       style="fill:#000000;fill-opacity:1;fill-rule:nonzero;stroke:none;stroke-width:0.0352778"
       id="path531" />
    <path
       d="m -2.07262,16.89561 c 0.0378,-0.002 0.091,0.0794 0.16616,0.24342 0.0713,0.16475 0.10795,0.29034 0.11077,0.37924 0.004,0.0734 -0.0198,0.19261 -0.0684,0.35877 -0.0497,0.1644 -0.0734,0.29034 -0.0706,0.38065 0.0127,0.34114 0.11994,0.60995 0.32455,0.80857 0.2025,0.20002 0.46602,0.29421 0.78246006,0.28116 0.5182301,-0.0215 1.1437101,-0.45579 1.87607014,-1.29928 C 1.84285,17.13127 2.62884,15.88103 3.40213,14.29494 3.86215,13.35408 4.25268,12.31585 4.57864,11.18626 4.24738,11.27866 3.92494,11.37888 3.61062,11.48683 1.94163,12.06009 0.60248016,12.68521 -0.40469984,13.3629 -1.33039,13.9852 -1.83874,14.55282 -1.92305,15.0647 c -0.0512,0.31291 0.008,0.58561 0.18203,0.80998 0.1718,0.22824 0.42686,0.3683 0.76271002,0.42262 0.0882,0.0145 0.21731006,0.007 0.3859301,-0.0226 0.17145004,-0.0289 0.29281004,-0.037 0.36442004,-0.0247 0.0889,0.0141 0.20991,0.0663 0.36301,0.15769 0.15311,0.0924 0.22754,0.15699 0.22225,0.19368 -0.0201,0.11677 -0.17356,0.20884 -0.46214,0.27517 -0.33549,0.0794 -0.7200201,0.0861 -1.15323016,0.0169 -0.26881,-0.0448 -0.48366,-0.15064 -0.64417,-0.31786 -0.19932,-0.20425 -0.35031,-0.4766 -0.4512,-0.81491 -0.10442,-0.3168 -0.13723,-0.60431 -0.0938,-0.85937 0.10019,-0.60748 0.40464,-1.19803 0.91158,-1.77835 0.5341,-0.58808 1.24495016,-1.11055 2.12901016,-1.57057 C 1.80797,10.93114 3.17992,10.57025 4.71415,10.47288 c 0.0198,-10e-4 0.0392,-0.003 0.0589,-0.005 0.019,-0.0759 0.0416,-0.14746 0.0603,-0.22401 0.0441,-0.18733 0.0811,-0.30904 0.1083,-0.36125 0.0427,-0.0836 0.11007,-0.12629 0.20567,-0.13158 0.127,-0.004 0.19121,0.0561 0.19579,0.18238 10e-4,0.0395 -0.0356,0.20638 -0.10865,0.49354 0.64311,-0.0547 1.28446,-0.12242 1.92017,-0.21484 0.623,-0.0861 0.96414,-0.12418 1.02164,-0.11536 0.12453,0.0201 0.17674,0.091 0.15699,0.21519 -0.0162,0.0949 -0.0674,0.15769 -0.15558,0.1898 -0.0557,0.0198 -0.17992,0.0423 -0.37147,0.0632 C 6.83536,10.6796 5.92766,10.84964 5.069,11.06413 4.86898,11.80849 4.69259,12.56167 4.54372,13.32296 4.25938,14.83391 3.73162,16.15083 2.96821,17.28007 2.40236,18.1024 1.79734,18.74375 1.1464701,19.20095 0.50829016,19.6331 -0.11470984,19.86241 -0.73030992,19.88675 -0.98818998,19.89835 -1.269,19.83175 -1.57028,19.68813 c -0.32385,-0.14181 -0.57643,-0.3242 -0.75494,-0.5468 -0.1457,-0.18098 -0.22401,-0.40746 -0.23566,-0.6791 -0.0145,-0.43744 0.0385,-0.81774 0.15875,-1.14229 0.1009,-0.27835 0.21097,-0.42016 0.3295,-0.4244 z M 10.09504,4.72937 c 0.0529,-0.0272 0.17356,-0.0642 0.36089,-0.10831 0.0381,-0.009 0.0734,-0.0205 0.11148,-0.03 0.10054,-1.52117 0.45967,-2.8836 1.07632,-4.08904 0.46003,-0.88442 0.98249,-1.59562 1.57092,-2.12902 0.57997,-0.50729 1.17087,-0.81139 1.77836,-0.91122 0.2547,-0.0438 0.54221,-0.0113 0.85901,0.0938 0.33796,0.10054 0.61066,0.25117 0.81562,0.45049 0.16687,0.16122 0.27199,0.37571 0.31715,0.64488 0.0691,0.43286 0.0624,0.81739 -0.0173,1.15253 -0.0653,0.28892 -0.15734,0.44238 -0.27481,0.46249 -0.036,0.005 -0.1009,-0.0695 -0.19403,-0.22225 -0.091,-0.15381 -0.14358,-0.27411 -0.15699,-0.36301 -0.0127,-0.0723 -0.005,-0.19262 0.0244,-0.36477 0.0286,-0.16828 0.0374,-0.29739 0.0226,-0.38559 -0.054,-0.33549 -0.19367,-0.59125 -0.42227,-0.7627 -0.22437,-0.17427 -0.49706,-0.23354 -0.80998,-0.18204 -0.51153,0.0836 -1.0795,0.59267 -1.7018,1.51871 -0.67768,1.00683 -1.30281,2.34562 -1.87607,4.01461 -0.0974,0.28328 -0.18627,0.57538 -0.27093,0.87242 1.16487,-0.33126 2.23414,-0.72884 3.19969,-1.2012 1.58574,-0.77365 2.83704,-1.55928 3.7532,-2.3548 0.84314,-0.73131 1.27882,-1.35784 1.29893,-1.87501 0.0127,-0.3168 -0.0808,-0.58067 -0.28081,-0.78281 -0.19861,-0.20426 -0.46814,-0.31186 -0.80857,-0.32421 -0.09,-0.003 -0.21625,0.0205 -0.381,0.0699 -0.1658,0.049 -0.28469,0.0727 -0.35807,0.0688 -0.0889,-0.003 -0.21484,-0.0395 -0.37959,-0.11077 -0.16368,-0.0751 -0.24518,-0.12876 -0.24341,-0.16616 0.005,-0.11853 0.1464,-0.2286 0.42439,-0.32914 0.32385,-0.11994 0.7045,-0.17392 1.14124,-0.1591 0.2734,0.012 0.49918,0.0896 0.6798,0.2353 0.2226,0.17851 0.40534,0.43145 0.54716,0.75494 0.14287,0.30163 0.21025,0.58244 0.19826,0.84032 -0.024,0.61525 -0.25294,1.2386 -0.6858,1.87643 -0.45791,0.65087 -1.0982,1.25659 -1.92017,1.82174 -1.12924,0.76341 -2.44687,1.29152 -3.95711,1.57586 -0.7941,0.15522 -1.58044,0.33902 -2.3562,0.54963 -0.22649,0.88653 -0.40429,1.82668 -0.52317,2.83421 -0.0208,0.19086 -0.043,0.31503 -0.0628,0.37113 -0.0328,0.0889 -0.0945,0.13864 -0.18979,0.15487 C 10.27961,8.26138 10.208,8.20918 10.18824,8.085 10.17924,8.0268 10.21784,7.68565 10.30395,7.063 10.40065,6.39695 10.47117,5.72456 10.52691,5.0504 10.30924,5.1044 10.18013,5.1319 10.14626,5.1308 10.02032,5.1258 9.95894,5.062 9.96352,4.93501 c 0.006,-0.0952 0.048,-0.16334 0.13159,-0.20567 z M -2.67728,7.25949 C -1.82003,6.39906 -0.6816199,5.99513 0.73972016,6.04699 2.2041,6.11049 3.80677,6.65906 5.54632,7.69305 c 0.92922,0.61878 1.5487,1.05763 1.85632,1.31445 0.22578,0.15311 0.48754,0.32421 0.78528,0.51894 0.21484,0.13159 0.33761,0.21308 0.36795,0.24412 0.0416,0.0409 0.0713,0.0974 0.0868,0.16687 -0.11536,0.0617 -0.21484,0.0836 -0.29774,0.0617 C 8.30793,9.98293 8.22392,9.93073 8.0941,9.84249 7.7124,9.57473 7.23368,9.28828 6.65936,8.98489 5.98555,8.63282 5.31316,8.35165 4.64394,8.1414 2.79926,7.57025 1.2339901,7.27921 -0.05188984,7.26722 -1.29049,7.26322 -2.16573,7.51592 -2.67797,8.03027 c -0.13088,0.133 -0.21837,0.3362 -0.26282,0.61172 -0.0441,0.27411 -0.009,0.47131 0.10584,0.58667 0.0674,0.0667 0.25611,0.18521 0.56444,0.35348 0.30762,0.16828 0.5461,0.33585 0.71402,0.50377 0.30763,0.31009 0.37889,0.54892 0.21096,0.71649 -0.12558,0.1263 -0.3182,0.0575 -0.5789,-0.20496 -0.0272,-0.0258 -0.0582,-0.0572 -0.0949,-0.0949 -0.0317,-0.0413 -0.0522,-0.0667 -0.0631,-0.0769 -0.005,-0.006 -0.10372,-0.0751 -0.2988,-0.20602 C -2.5735,10.08803 -2.75412,9.9388 -2.92063,9.77053 -3.24518,9.44527 -3.38806,9.04698 -3.3482,8.57814 -3.3087,8.10895 -3.08467,7.66938 -2.67721,7.25946 Z M 7.13523,7.07005 C 6.72389,6.56628 6.40957,6.19939 6.19226,5.96585 5.83313,5.59261 5.51175,5.24407 5.23059,4.92269 4.98576,4.64011 4.87357,4.50641 4.89333,4.52722 4.68096,4.31344 4.53949,4.24218 4.46823,4.31344 c -0.0762,0.0776 0.12453,0.42545 0.59831,1.04422 0.5521,0.7105 1.30493,1.54376 2.26237,2.50332 l 0.0769,0.0776 c 0.0695,0.0702 0.17886,0.1725 0.32668,0.31044 C 7.881,8.38343 7.99142,8.48997 8.06904,8.56758 8.43487,8.93447 8.58021,9.15707 8.5026,9.23503 8.4447,9.29253 8.32268,9.24523 8.13712,9.09886 7.87254,8.88543 7.6136,8.66988 7.35678,8.45222 6.09912,7.40659 5.2835,6.74231 4.91167,6.46008 4.15567,5.87941 3.51891,5.46807 3.00597,5.22395 2.40166,4.93785 1.70951,4.66092 0.92564016,4.39104 c -0.5581,-0.19967 -0.87842,-0.34325 -0.96062,-0.42474 -0.13687,-0.13759 -0.20814,-0.3108 -0.21872,-0.52776 -0.01,-0.21555 0.0462,-0.38417 0.16828,-0.50694 0.0466,-0.0455 0.19014,-0.0896 0.43427,-0.1337 0.24341,-0.0473 0.38417,-0.0896 0.42333,-0.12841 0.0307,-0.0318 0.0296,-0.15628 -0.009,-0.37571 -0.084,-0.56198 -0.12841,-0.86396 -0.13512,-0.90876 -0.0335,-0.27905 -0.048,-0.45296 -0.0487,-0.53269 0.006,-0.14887 0.0646,-0.27799 0.17392,-0.38594 0.14076,-0.14288 0.53515994,-0.15946 1.18321984,-0.049 0.23706,0.0469 0.47554,0.0914 0.71261,0.13582 0.17251,0.0328 0.27904,0.0286 0.31891,-0.0106 0.043,-0.043 0.0907,-0.1845 0.13864,-0.41945 0.049,-0.23566 0.0984,-0.37889 0.14993,-0.43075 0.0695,-0.0702 0.18556,-0.10653 0.34537,-0.10653 0.16157,0 0.28575,0.0452 0.37536,0.13617 0.0709,0.0716 0.35665,0.69991 0.85654,1.88418 0.73237,1.72756 1.16558,2.72345 1.29963,2.98697 0.39123,0.7546 0.88759,1.48414 1.48379,2.18546 0.48789,0.55351 0.96908,1.10772 1.44356,1.66159 0.31468,0.381 0.41099,0.63323 0.28928,0.75494 l -0.019,0.0198 C 9.27292,9.27249 8.84288,8.89925 8.04031,8.09421 7.82229,7.87267 7.52172,7.53294 7.13543,7.0701 Z M 7.78787,5.74078 C 6.9719,4.43903 6.46249,3.11435 6.25858,1.76533 6.11359,0.77826 6.12347,-0.10228 6.28958,-0.88015 c 0.17287,-0.75036 0.47661,-1.34303 0.91123,-1.778 0.18239,-0.18486 0.43286,-0.32562 0.75283,-0.42581 0.33337,-0.11571 0.6417,-0.15134 0.92357,-0.10971 0.23107,0.0303 0.44203,0.14429 0.63535,0.33831 0.30833,0.30939 0.52776,0.62583 0.65864,0.94474 0.1143,0.27235 0.13158,0.45121 0.0466,0.53482 -0.025,0.0268 -0.121,0.004 -0.2861,-0.066 C 9.76695,-1.5138 9.65407,-1.5815 9.59198,-1.64395 9.53938,-1.69615 9.4745,-1.79917 9.3983,-1.95474 9.3232,-2.10926 9.25437,-2.21792 9.19157,-2.28071 8.95133,-2.52272 8.68781,-2.64795 8.40382,-2.65395 c -0.28469,-0.01 -0.54081,0.1009 -0.76482,0.32632 -0.36583,0.36618 -0.53023,1.11019 -0.49389,2.22673 0.0367,1.21179 0.31186,2.66348 0.82268,4.35328 0.38276,1.276 0.94897,2.5901 1.7018,3.94406 0.0938,0.16792 0.14781,0.28151 0.1651,0.33831 0.025,0.0903 0.004,0.16934 -0.0635,0.23742 -0.0892,0.0882 -0.17745,0.0882 -0.266,-10e-4 C 9.46359,8.72917 9.29564,8.43003 9.00249,7.87441 8.62642,7.15016 8.22144,6.43966 7.78787,5.74116"
       style="fill:#000000;fill-opacity:1;fill-rule:nonzero;stroke:none;stroke-width:0.0352778"
       id="path533" />
    <path
       d="m 38.93727,2.39856 c 0,-0.0388 0.003,-0.0776 -9.9e-4,-0.11641 C 38.90818,1.99992 38.76444,1.76109 38.5109,1.56918 38.09886,1.25521 37.33887,1.19453 36.23852,1.38009 35.26672,1.54202 34.15699,1.88421 32.91535,2.39856 Z M 50.14086,2.28215 C 50.11306,1.99992 49.96927,1.76109 49.71572,1.56918 49.30329,1.25521 48.54369,1.19453 47.44334,1.38009 46.4714,1.54202 45.36181,1.88421 44.12021,2.39856 h 6.02146 c 1.4e-4,-0.0388 0.004,-0.0776 -8.1e-4,-0.11641 z M 23.65017,2.55484 c 0.52211,0.52988 0.74472,1.09362 0.74295,1.68522 1.34267,-0.81915 2.77037,-1.54022 4.32019,-1.72543 0.77971,-0.0931 1.55554,-0.11183 2.3344,-0.11501 1.02651,-0.76905 2.09903,-1.31868 3.21991,-1.64853 0.95941,-0.27446 1.83444,-0.38453 2.62795,-0.32491 0.76605,0.072 1.39347,0.29175 1.88334,0.66464 0.2074,0.15487 0.38061,0.38558 0.52324,0.68791 0.10777,0.21273 0.17543,0.41946 0.20863,0.61983 h 2.74355 c 1.02595,-0.7687 2.0978,-1.31762 3.21815,-1.64747 0.95938,-0.27446 1.83444,-0.38453 2.62749,-0.32491 0.76687,0.072 1.39389,0.29175 1.8838,0.66464 0.20764,0.15487 0.38075,0.38558 0.52338,0.68791 0.10759,0.21273 0.1754,0.41946 0.20888,0.61983 H 55 c 0.66397,0 0.70779,0.6731 0,0.6731 h -4.34611 c -0.0408,0.0949 -0.0929,0.18909 -0.16277,0.28223 -0.26621,0.34783 -0.54984,0.60642 -0.84818,0.7814 -0.2545,0.14993 -0.42951,0.18979 -0.52462,0.11747 -0.0296,-0.0219 -0.0204,-0.121 0.0283,-0.29315 0.0485,-0.17287 0.10033,-0.29352 0.15434,-0.36407 0.0431,-0.0586 0.13808,-0.13582 0.28155,-0.23213 0.14263,-0.096 0.24074,-0.1785 0.29475,-0.24906 0.0109,-0.0141 0.0178,-0.0286 0.028,-0.0427 h -7.25935 c -1.01907,0.51223 -2.04612,1.149 -3.08656,1.92511 -0.15378,0.11677 -0.2581,0.18521 -0.31253,0.20955 -0.0864,0.0374 -0.16563,0.0265 -0.2432,-0.0293 -0.10062,-0.078 -0.11233,-0.16475 -0.0349,-0.26529 0.0363,-0.0466 0.3109,-0.25294 0.82144,-0.61913 0.54875,-0.3877 1.08469,-0.79763 1.61191,-1.22096 h -1.95322 c -0.0407,0.0949 -0.0928,0.18909 -0.16277,0.28222 -0.26596,0.34784 -0.54956,0.60643 -0.84791,0.78141 -0.25453,0.14993 -0.42954,0.18979 -0.52461,0.11747 -0.0296,-0.0219 -0.0204,-0.121 0.0278,-0.29316 0.0491,-0.17286 0.10076,-0.29351 0.15434,-0.36406 0.0436,-0.0586 0.13864,-0.13582 0.2818,-0.23213 0.14263,-0.096 0.24116,-0.17851 0.29506,-0.24906 0.0107,-0.0141 0.0176,-0.0286 0.0278,-0.0427 h -7.25939 c -1.01904,0.51223 -2.0465,1.14899 -3.08691,1.92511 -0.15325,0.11677 -0.25771,0.1852 -0.31214,0.20955 -0.0864,0.0374 -0.1662,0.0265 -0.24345,-0.0293 -0.10055,-0.078 -0.11219,-0.16475 -0.0346,-0.26529 0.0363,-0.0466 0.31084,-0.25294 0.82124,-0.61913 0.52214,-0.36865 1.03201,-0.75882 1.53444,-1.15958 -2.32322,0.28116 -4.2508,1.4859 -6.23764,2.76366 -0.2346,0.15099 -1.46756,-0.12276 -1.27282,-0.48613 0.55456,-1.03857 0.7373,-2.02212 -0.18451,-2.95698 -0.32984,-0.33443 0.97014,-0.15804 1.22555,0.10125"
       style="fill:#000000;fill-opacity:1;fill-rule:nonzero;stroke:none;stroke-width:0.0352778"
       id="path535"
       sodipodi:nodetypes="cccccccccccccccccccccccccccsscccccccccccccccccccccccccccccccccccc" />
    <path
       d="M 22.06796,0.00391 48.34155,-9e-5 H 55 c 0.48507,0 0.43997,0.50556 0,0.50556 H 29.60494 21.65872 c -0.68615,0 0.0826,-0.50556 0.40887,-0.50556"
       style="fill:#000000;fill-opacity:1;fill-rule:nonzero;stroke:none;stroke-width:0.0352778"
       id="path575"
       sodipodi:nodetypes="ccsscsc" />
    <path
       d="m 2.39865,38.632565 c -0.0388,0 -0.0776,0.003 -0.11641,-9.9e-4 -0.28223,-0.0281 -0.52106,-0.17184 -0.71297,-0.42538 -0.31397,-0.41204 -0.37465,-1.17203 -0.18909,-2.27238 0.16193,-0.9718 0.50412,-2.08153 1.01847,-3.32317 z m -0.11641,11.20359 c -0.28223,-0.0278 -0.52106,-0.17159 -0.71297,-0.42514 -0.31397,-0.41243 -0.37465,-1.17203 -0.18909,-2.27238 0.16193,-0.97194 0.50412,-2.08153 1.01847,-3.32313 v 6.02146 c -0.0388,1.4e-4 -0.0776,0.004 -0.11641,-8.1e-4 z m 0.27269,-26.49069 c 0.52988,0.52211 1.09362,0.74472 1.68522,0.74295 -0.81915,1.34267 -1.54022,2.77037 -1.72543,4.32019 -0.0931,0.77971 -0.11183,1.55554 -0.11501,2.3344 -0.76905,1.02651 -1.31868,2.09903 -1.64853,3.21991 -0.27446,0.95941 -0.38453,1.83444 -0.32491,2.62795 0.072,0.76605 0.29175,1.39347 0.66464,1.88334 0.15487,0.2074 0.38558,0.38061 0.68791,0.52324 0.21273,0.10777 0.41946,0.17543 0.61983,0.20863 v 2.74355 c -0.7687,1.02595 -1.31762,2.0978 -1.64747,3.21815 -0.27446,0.95938 -0.38453,1.83444 -0.32491,2.62749 0.072,0.76687 0.29175,1.39389 0.66464,1.8838 0.15487,0.20764 0.38558,0.38075 0.68791,0.52338 0.21273,0.10759 0.41946,0.1754 0.61983,0.20888 V 55 c 0,0.66397 0.6731,0.70779 0.6731,0 v -4.650815 c 0.0949,-0.0408 0.18909,-0.0929 0.28223,-0.16277 0.34783,-0.26621 0.60642,-0.54984 0.7814,-0.84818 0.14993,-0.2545 0.18979,-0.42951 0.11747,-0.52462 -0.0219,-0.0296 -0.121,-0.0204 -0.29315,0.0283 -0.17287,0.0485 -0.29352,0.10033 -0.36407,0.15434 -0.0586,0.0431 -0.13582,0.13808 -0.23213,0.28155 -0.096,0.14263 -0.1785,0.24074 -0.24906,0.29475 -0.0141,0.0109 -0.0286,0.0178 -0.0427,0.028 v -7.25935 c 0.51223,-1.01907 1.149,-2.04612 1.92511,-3.08656 0.11677,-0.15378 0.18521,-0.2581 0.20955,-0.31253 0.0374,-0.0864 0.0265,-0.16563 -0.0293,-0.2432 -0.078,-0.10062 -0.16475,-0.11233 -0.26529,-0.0349 -0.0466,0.0363 -0.25294,0.3109 -0.61913,0.82144 -0.3877,0.54875 -0.79763,1.08469 -1.22096,1.61191 v -1.95322 c 0.0949,-0.0407 0.18909,-0.0928 0.28222,-0.16277 0.34784,-0.26596 0.60643,-0.54956 0.78141,-0.84791 0.14993,-0.25453 0.18979,-0.42954 0.11747,-0.52461 -0.0219,-0.0296 -0.121,-0.0204 -0.29316,0.0278 -0.17286,0.0491 -0.29351,0.10076 -0.36406,0.15434 -0.0586,0.0436 -0.13582,0.13864 -0.23213,0.2818 -0.096,0.14263 -0.17851,0.24116 -0.24906,0.29506 -0.0141,0.0107 -0.0286,0.0176 -0.0427,0.0278 v -7.25939 c 0.51223,-1.01904 1.14899,-2.0465 1.92511,-3.08691 0.11677,-0.15325 0.1852,-0.25771 0.20955,-0.31214 0.0374,-0.0864 0.0265,-0.1662 -0.0293,-0.24345 -0.078,-0.10055 -0.16475,-0.11219 -0.26529,-0.0346 -0.0466,0.0363 -0.25294,0.31084 -0.61913,0.82124 -0.36865,0.52214 -0.75882,1.03201 -1.15958,1.53444 0.28116,-2.32322 1.4859,-4.2508 2.76366,-6.23764 0.15099,-0.2346 -0.12276,-1.46756 -0.48613,-1.27282 -1.03857,0.55456 -2.02212,0.7373 -2.95698,-0.18451 -0.33443,-0.32984 -0.15804,0.97014 0.10125,1.22555"
       style="fill:#000000;fill-opacity:1;fill-rule:nonzero;stroke:none;stroke-width:0.0352778"
       id="path535-9"
       sodipodi:nodetypes="cccccccccccccccccccccccccccsscccccccccccccccccccccccccccccccccccc" />
    <path
       d="M 0.004,21.763255 0,48.036845 V 55 c 0,0.48507 0.50556,0.43997 0.50556,0 V 29.300235 21.354015 C 0.50556,20.667865 0,21.436615 0,21.762885"
       style="fill:#000000;fill-opacity:1;fill-rule:nonzero;stroke:none;stroke-width:0.0352778"
       id="path575-3"
       sodipodi:nodetypes="ccsscsc" />
  </g>
</svg>
