<?xml version="1.0" encoding="UTF-8" standalone="no"?>
<svg
   width="1000"
   height="993.521"
   viewBox="0 0 1000 993.52099"
   version="1.1"
   id="svg1173"
   sodipodi:docname="style09.svg"
   inkscape:version="1.4 (e7c3feb1, 2024-10-09)"
   inkscape:export-filename="style09.png"
   inkscape:export-xdpi="1711.6626"
   inkscape:export-ydpi="1711.6626"
   xmlns:inkscape="http://www.inkscape.org/namespaces/inkscape"
   xmlns:sodipodi="http://sodipodi.sourceforge.net/DTD/sodipodi-0.dtd"
   xmlns="http://www.w3.org/2000/svg"
   xmlns:svg="http://www.w3.org/2000/svg">
  <defs
     id="defs2255" />
  <sodipodi:namedview
     id="namedview2253"
     pagecolor="#ffffff"
     bordercolor="#666666"
     borderopacity="1.0"
     inkscape:showpageshadow="2"
     inkscape:pageopacity="0.0"
     inkscape:pagecheckerboard="0"
     inkscape:deskcolor="#d1d1d1"
     showgrid="false"
     inkscape:zoom="9.604825"
     inkscape:cx="23.998355"
     inkscape:cy="32.275445"
     inkscape:current-layer="svg1173"
     inkscape:window-width="1816"
     inkscape:window-height="965"
     inkscape:window-x="0"
     inkscape:window-y="25"
     inkscape:window-maximized="0" />
  <g
     id="g2537"
     transform="matrix(17.829819,0,0,17.829819,-536.38387,-4770.9447)"
     style="fill:#000000">
    <path
       d="m 59.9484,271.25439 c 0,0 25.0049,-0.31326 25.9447,-0.31326 0.3916,-0.0522 0.3443,-0.25541 0,-0.28716 -0.9398,0 -25.6314,-0.31292 -25.6314,-0.31292 -0.1175,-0.008 -0.2593,0.0861 -0.345,0.35243 -0.086,0.26599 -0.1722,0.5655 0.032,0.56091"
       style="fill:#000000;fill-opacity:1;fill-rule:nonzero;stroke:none;stroke-width:0.0352778"
       id="path721" />
    <path
       d="m 34.0341,297.0826 c 0,0 -0.3133,25.00563 -0.3133,25.94518 -0.052,0.39257 -0.2554,0.34534 -0.2868,0 0,-0.93983 -0.3133,-25.6311 -0.3133,-25.6311 -0.01,-0.11755 0.086,-0.25866 0.3524,-0.34467 0.2664,-0.0868 0.5659,-0.17251 0.561,0.0306"
       style="fill:#000000;fill-opacity:1;fill-rule:nonzero;stroke:none;stroke-width:0.0352778"
       id="path723" />
    <path
       d="m 34.722,291.41247 c 0.2349,0.81844 0.3725,1.86902 0.2064,2.811 0.424,-0.60152 0.6283,-1.34556 0.4953,-2.15871 -0.1285,-0.78846 -0.3909,-1.50883 -0.7268,-2.19887 -0.1432,0.0896 -0.2928,0.17427 -0.4547,0.24871 -0.017,0.0102 -0.036,0.0173 -0.053,0.0268 0.217,0.40852 0.4054,0.82727 0.5331,1.27106 z m 0.689,-6.2043 c 0.2353,0.81809 0.3725,1.86866 0.207,2.81023 0.4237,-0.60114 0.6273,-1.34515 0.4946,-2.15759 -0.2388,-1.4665 -0.932,-2.70122 -1.7226,-3.93171 -0.1668,-0.25965 -0.3238,-0.52705 -0.4755,-0.79799 -0.2219,-0.0191 -0.4287,0.0328 -0.6192,0.13653 0.6851,1.32468 1.704,2.50931 2.1157,3.94053 z m -2.744,-7.97102 c -0.013,0.0624 -0.024,0.12383 -0.032,0.18133 -0.1401,1.01071 -0.043,2.10256 0.3136,3.06811 0.1482,-0.13335 0.308,-0.24201 0.4773,-0.32032 -0.4198,-0.93416 -0.7077,-1.917 -0.7585,-2.92912 z m 2.1382,11.38379 c 0.6227,-0.84561 0.4301,-2.13678 0.016,-3.04694 -0.6008,-1.31833 -1.5367,-2.45851 -2.1082,-3.7846 -0.066,0.0854 -0.1288,0.17603 -0.187,0.27023 0,0.0402 -0.01,0.0797 -0.015,0.11853 -0.5069,2.38725 1.1381,4.37021 2.2948,6.44278 z m -2.8592,-4.9978 c -0.1482,1.06256 -0.037,2.21685 0.3672,3.21768 0.3531,0.87489 0.8996,1.66935 1.4009,2.48179 0.2014,-0.0504 0.3948,-0.12594 0.5715,-0.23353 -0.1849,-0.32138 -0.381,-0.63853 -0.5842,-0.95568 -0.9151,-1.42452 -1.639,-3.01766 -1.7233,-4.68947 -0.013,0.0617 -0.024,0.12241 -0.032,0.17921 z m 3.0088,-5.79156 c 1.7854,1.70992 6.7659,5.22147 7.9615,1.16981 0.7581,-2.57069 -1.6528,-5.62821 -3.253,-7.29932 -0.3379,-0.35313 -0.8043,-0.76482 -1.3426,-1.16946 -0.6372,0.44344 -1.045,1.07456 -0.5959,1.83374 0.094,0.16016 0.071,0.53411 -0.2903,0.67486 -0.3175,0.12312 -0.6855,-0.24235 -0.761,-0.37077 -0.6431,-1.08761 0.169,-1.96779 1.1198,-2.51495 -2.2024,-1.49648 -5.218,-2.58515 -6.0915,0.37677 -0.4529,1.53635 0.2276,3.2445 1.1886,4.72863 0.5429,-0.9846 1.4414,-1.86267 2.5594,-1.20121 0.1287,0.0751 0.4942,0.44309 0.3707,0.76059 -0.14,0.3616 -0.5143,0.38488 -0.6745,0.29069 -0.7941,-0.46919 -1.4471,-0.002 -1.8926,0.68439 0.5609,0.78423 1.1744,1.48625 1.7014,2.03623 z m 7.8257,-7.18537 c 0.078,-0.16969 0.187,-0.3295 0.32,-0.47767 -0.9649,-0.35701 -2.0571,-0.45437 -3.0682,-0.31291 -0.057,0.008 -0.1181,0.019 -0.1799,0.0314 1.0118,0.0515 1.9939,0.33866 2.9281,0.75918 z m 0.9648,0.48895 c 0.271,0.15098 0.538,0.30903 0.7977,0.47554 1.2304,0.78987 2.4655,1.48343 3.9317,1.72297 0.8128,0.13264 1.5564,-0.0713 2.1579,-0.4953 -0.9416,0.16545 -1.9921,0.0282 -2.8102,-0.20673 -1.4312,-0.41169 -2.6162,-1.43122 -3.9409,-2.11561 -0.1037,0.1905 -0.1552,0.39723 -0.1362,0.61913 z m 1.0471,-1.40441 c -0.039,0.008 -0.079,0.0127 -0.1193,0.0152 -0.094,0.0586 -0.1845,0.121 -0.2702,0.18697 1.3265,0.57115 2.467,1.50777 3.7853,2.1082 0.9105,0.41451 2.2013,0.60783 3.047,-0.0155 -2.0723,-1.15676 -4.0556,-2.80176 -6.4428,-2.29482 z m 7.1441,1.20332 c -0.8121,-0.5013 -1.6069,-1.0474 -2.4811,-1.40053 -1.0012,-0.40463 -2.1558,-0.51576 -3.2184,-0.36759 -0.057,0.008 -0.1182,0.0198 -0.1799,0.0321 1.6718,0.0847 3.2656,0.80857 4.6905,1.72332 0.3168,0.2032 0.6343,0.40005 0.9553,0.58455 0.108,-0.17709 0.1831,-0.37041 0.2336,-0.57185 z m 2.7425,1.71027 c 0.8131,0.133 1.5564,-0.0713 2.1586,-0.4953 -0.9419,0.1658 -1.9928,0.0282 -2.8106,-0.20673 -0.4441,-0.12806 -0.8636,-0.31644 -1.2714,-0.53305 -0.01,0.0169 -0.017,0.0353 -0.026,0.0522 -0.074,0.16228 -0.1595,0.31186 -0.2491,0.45579 0.69,0.3355 1.4104,0.59831 2.1989,0.72708 z m -23.6785,22.42428 c 0.7917,0.71022 2.2007,0.73421 2.9683,-0.067 0.798,-0.83259 0.6071,-2.24649 0.1626,-3.22333 -0.2109,-0.46355 -0.4656,-0.90382 -0.7302,-1.33879 -0.6908,0.14464 -1.4235,0.007 -2.0147,-0.52282 -0.12,-0.10724 -0.4068,-0.52705 -0.3186,-0.83149 0.1171,-0.40535 0.4999,-0.3295 0.6216,-0.22049 0.2882,0.25823 0.6586,0.42263 1.0488,0.49283 -0.4276,-0.71049 -0.8181,-1.43828 -1.034,-2.25672 -0.4127,-1.56245 -0.4212,-3.21134 0.1034,-4.74874 0.139,-0.40675 0.3573,-0.87595 0.6406,-1.28658 -0.017,-0.0571 -0.04,-0.11077 -0.055,-0.16898 -0.3986,-1.50813 -0.4152,-3.09563 0.056,-4.58753 -1.869,-2.49272 -3.9226,-6.54755 -0.6064,-8.0204 2.0778,-0.92251 4.6164,0.13935 6.6653,1.52294 0.087,-0.0342 0.1715,-0.0663 0.253,-0.0942 1.5381,-0.52458 3.1866,-0.51647 4.7494,-0.10372 0.058,0.0155 0.1119,0.0377 0.169,0.0547 0.4106,-0.28293 0.8798,-0.50165 1.2862,-0.6403 1.5378,-0.52458 3.1863,-0.51611 4.7491,-0.10336 0.8178,0.21555 1.5459,0.60678 2.2564,1.03399 -0.07,-0.39052 -0.2342,-0.76059 -0.4921,-1.04845 -0.1094,-0.12242 -0.1852,-0.50448 0.2201,-0.62195 0.3038,-0.0882 0.7243,0.19861 0.8312,0.3182 0.5298,0.59091 0.6678,1.32398 0.5231,2.01472 0.4346,0.26493 0.8749,0.51929 1.3388,0.7306 0.9762,0.44485 2.3904,0.63535 3.2233,-0.16263 0.8009,-0.76764 0.7776,-2.17593 0.067,-2.96792 -0.1093,-0.12241 -0.1848,-0.50482 0.2205,-0.6223 0.3038,-0.0882 0.7243,0.19897 0.8312,0.31785 0.7542,0.84208 0.727,1.97274 0.1975,2.8568 -0.9655,2.10679 -3.2942,2.64019 -5.419,2.1851 -0.4911,-0.10442 -0.9684,-0.28187 -1.4386,-0.50024 -1.1533,1.27106 -3.0272,1.56175 -4.7654,1.18992 -1.1754,-0.25153 -2.2747,-0.91228 -3.3743,-1.57868 -0.047,0.1136 -0.1376,0.22049 -0.2967,0.28258 -0.3171,0.12312 -0.6847,-0.24271 -0.7606,-0.37112 -0.1365,-0.23037 -0.201,-0.45085 -0.2194,-0.66217 -1.0858,-0.59796 -2.2003,-1.04775 -3.412,-0.98107 0.6639,0.49918 1.2558,1.01176 1.7328,1.46932 1.9353,1.85349 5.8018,7.65774 1.7956,9.43786 -3.0557,1.35714 -7.112,-1.58009 -9.1358,-3.51825 -0.1588,-0.16581 -0.3352,-0.3616 -0.5204,-0.57926 0.065,1.01494 0.4678,1.96638 0.98,2.89666 0.211,0.0183 0.4311,0.0829 0.6618,0.21942 0.1291,0.0755 0.4946,0.44345 0.3712,0.76095 -0.062,0.15875 -0.1687,0.24941 -0.2823,0.29668 0.6664,1.09855 1.3272,2.19851 1.5787,3.37362 0.3722,1.73848 0.081,3.61244 -1.1903,4.76602 0.2188,0.4699 0.3955,0.94721 0.5006,1.43828 0.4548,2.12443 -0.078,4.45343 -2.1847,5.41902 -0.8841,0.52945 -2.0147,0.55675 -2.8568,-0.19717 -0.12,-0.10721 -0.4061,-0.5274 -0.3179,-0.83153 0.1175,-0.40499 0.4992,-0.3295 0.6216,-0.22088"
       style="fill:#000000;fill-opacity:1;fill-rule:nonzero;stroke:none;stroke-width:0.0352778"
       id="path725" />
  </g>
</svg>
