<?xml version="1.0" encoding="UTF-8" standalone="no"?>
<svg
   width="1000"
   height="1000.3425"
   viewBox="0 0 1000 1000.3426"
   version="1.1"
   id="svg1173"
   sodipodi:docname="style06.svg"
   inkscape:version="1.4 (e7c3feb1, 2024-10-09)"
   inkscape:export-filename="style06.png"
   inkscape:export-xdpi="1707.8906"
   inkscape:export-ydpi="1707.8906"
   xmlns:inkscape="http://www.inkscape.org/namespaces/inkscape"
   xmlns:sodipodi="http://sodipodi.sourceforge.net/DTD/sodipodi-0.dtd"
   xmlns="http://www.w3.org/2000/svg"
   xmlns:svg="http://www.w3.org/2000/svg">
  <defs
     id="defs1783" />
  <sodipodi:namedview
     id="namedview1781"
     pagecolor="#ffffff"
     bordercolor="#666666"
     borderopacity="1.0"
     inkscape:showpageshadow="2"
     inkscape:pageopacity="0.0"
     inkscape:pagecheckerboard="0"
     inkscape:deskcolor="#d1d1d1"
     showgrid="false"
     inkscape:zoom="2.9270351"
     inkscape:cx="84.556555"
     inkscape:cy="153.56837"
     inkscape:current-layer="svg1173"
     inkscape:window-width="2008"
     inkscape:window-height="1278"
     inkscape:window-x="0"
     inkscape:window-y="25"
     inkscape:window-maximized="0" />
  <g
     id="g2526"
     transform="matrix(17.790527,0,0,17.790527,-3046.3933,-3512.0169)"
     style="fill:#000000">
    <path
       d="m 215.72733,199.37133 c 0,0 11.16859,0.33514 11.59404,0.33514 0.15628,0.0342 0.1771,0.25153 0,0.30762 -0.42545,0 -11.73586,0.33514 -11.73586,0.33514 -0.0921,0.005 -0.0536,-0.31574 -0.0141,-0.60043 0.0392,-0.28469 0.10266,-0.38523 0.15593,-0.37747 z m -42.17071,42.3919 c 0.28505,-0.0395 0.60572,-0.078 0.60079,0.0141 0,0 -0.3355,11.31041 -0.3355,11.73586 -0.0557,0.17709 -0.27305,0.15628 -0.30727,0 0,-0.42545 -0.33513,-11.59404 -0.33513,-11.59404 -0.008,-0.0533 0.0928,-0.11677 0.37711,-0.15593 z m 2.88255,-40.43081 c -0.33196,-1.03364 -1.21638,-1.88207 -2.12831,-2.41794 -0.52211,-0.30727 -1.15887,-0.45614 -1.75436,-0.53269 -0.22895,-0.0289 -0.46108,0.11148 -0.43674,-0.0526 -0.055,0.36759 0.0607,0.75988 0.15028,1.11266 0.59161,2.33116 2.37067,3.2004 4.45382,3.39302 -0.0416,-0.51612 -0.13017,-1.02059 -0.28469,-1.50248 z m 1.54587,7.19526 c 1.25519,-0.23248 2.51319,-0.45473 3.77014,-0.68263 0.23848,-1.26964 0.44027,-2.54564 0.67522,-3.81529 0.0529,-0.28398 0.13053,-0.58561 0.23177,-0.89217 -0.52775,0.0949 -1.05128,0.16721 -1.53952,0.24624 -1.16029,0.18873 -2.35585,0.37147 -3.54789,0.43709 -0.0751,1.22273 -0.28257,2.4518 -0.47448,3.63185 -0.0741,0.4572 -0.14958,0.91898 -0.23954,1.37795 0.37924,-0.13335 0.75988,-0.23566 1.1243,-0.30304 z m -3.54718,3.02577 c 0.0614,0.65829 0.73272,0.34961 0.93804,-0.0109 0.17956,-0.31397 0.26458,-0.69532 0.36054,-1.04069 0.0473,-0.1711 0.0875,-0.34466 0.12876,-0.51753 -0.78775,0.3489 -1.49225,0.87666 -1.42734,1.56916 z m 0.10443,12.90709 c 0.73272,1.41816 1.82386,2.68569 2.26483,4.21675 0.25153,0.87559 0.39864,1.99954 0.22119,3.00708 0.45367,-0.64347 0.67204,-1.43898 0.52987,-2.30893 -0.25611,-1.56916 -0.99801,-2.88996 -1.84361,-4.20723 -0.17851,-0.27799 -0.34678,-0.56409 -0.50871,-0.85337 -0.23777,-0.0212 -0.45932,0.0346 -0.66357,0.1457 z m -0.11713,-1.79988 c -0.18203,-0.009 -0.36195,-0.0328 -0.53939,-0.0734 0.066,0.3556 0.16157,0.70273 0.28539,1.03752 0.15911,-0.14288 0.32985,-0.2593 0.51118,-0.34255 -0.0921,-0.20532 -0.17815,-0.41205 -0.25718,-0.6216 z m -0.55456,-2.51142 c -0.0134,0.066 -0.0258,0.13088 -0.0342,0.19191 -0.0441,0.31468 -0.0646,0.63641 -0.0653,0.96061 0.0907,0.048 0.1838,0.0889 0.27905,0.12453 -0.0945,-0.42015 -0.15804,-0.84596 -0.17956,-1.27705 z m -0.16757,5.28602 c -0.54257,2.55482 1.21743,4.67642 2.45533,6.89434 0.6671,-0.90417 0.46073,-2.286 0.0166,-3.26073 -0.64241,-1.41111 -1.64394,-2.63101 -2.25566,-4.05024 -0.0706,0.0914 -0.13758,0.18803 -0.20002,0.28893 -0.003,0.0427 -0.007,0.0857 -0.0162,0.1277 z m -0.60431,1.54552 c -0.15875,1.13771 -0.0399,2.37314 0.39264,3.44382 0.37959,0.93839 0.96767,1.78964 1.50495,2.661 0.21449,-0.054 0.41945,-0.13794 0.60784,-0.25259 -0.19791,-0.34466 -0.40887,-0.68509 -0.62724,-1.02517 -0.97896,-1.52471 -1.75366,-3.22968 -1.84397,-5.01932 -0.0134,0.0663 -0.0254,0.13158 -0.0342,0.19226 z m 2.97074,8.33614 c 0.25153,0.87595 0.39864,1.99954 0.22119,3.00743 0.45367,-0.64382 0.67204,-1.43898 0.53023,-2.30893 -0.13794,-0.8442 -0.4191,-1.61502 -0.77823,-2.35338 -0.15311,0.0953 -0.31256,0.18556 -0.48507,0.26494 -0.0183,0.0109 -0.0385,0.0187 -0.0571,0.0293 0.23178,0.43638 0.43215,0.88582 0.56903,1.36066 z m 20.27732,-34.74297 c 0.25047,0.0914 0.49882,0.19015 0.7433,0.30021 0.084,-0.18132 0.20038,-0.35207 0.3429,-0.51117 -0.37112,-0.13723 -0.75883,-0.24024 -1.15464,-0.30621 0.0363,0.17145 0.0572,0.34431 0.0684,0.51717 z m 1.77623,0.82374 c 0.28928,0.16192 0.57538,0.3302 0.85337,0.5087 1.31727,0.84561 2.63807,1.5875 4.20723,1.84362 0.86995,0.14217 1.66546,-0.0762 2.30893,-0.52987 -1.00753,0.17744 -2.13148,0.0303 -3.00708,-0.2212 -1.53105,-0.44097 -2.79858,-1.53211 -4.21675,-2.26448 -0.11113,0.20391 -0.16686,0.42545 -0.1457,0.66323 z m 1.12007,-1.50284 c -0.0416,0.009 -0.0847,0.0134 -0.12735,0.0162 -0.1009,0.0624 -0.19756,0.12947 -0.28893,0.20003 1.41923,0.61172 2.63913,1.61325 4.05025,2.25566 0.97437,0.44415 2.3562,0.65052 3.26072,-0.0162 -2.21756,-1.23825 -4.33987,-2.99826 -6.89469,-2.45569 z m 7.65034,1.29329 c -0.87065,-0.53728 -1.72226,-1.12536 -2.66065,-1.5046 -1.07068,-0.43286 -2.30611,-0.55175 -3.44382,-0.393 -0.061,0.009 -0.12594,0.0208 -0.19191,0.0342 1.78929,0.0903 3.49427,0.86502 5.01897,1.84397 0.34008,0.21837 0.68051,0.42933 1.02553,0.62724 0.11465,-0.18803 0.19826,-0.39334 0.25188,-0.60783 z m 2.93017,1.82456 c 0.8696,0.14182 1.66511,-0.0765 2.30893,-0.52987 -1.00788,0.1771 -2.13148,0.03 -3.00743,-0.22154 -0.47484,-0.13688 -0.92427,-0.33691 -1.36066,-0.56903 -0.0109,0.0187 -0.0183,0.0388 -0.0293,0.0572 -0.079,0.1725 -0.16969,0.33196 -0.26494,0.48507 0.73837,0.35948 1.50954,0.64029 2.35338,0.77822 z m -14.75175,-3.05011 c -0.31115,0.002 -0.62054,0.0233 -0.92252,0.0656 -0.061,0.008 -0.12594,0.0208 -0.19191,0.0342 0.42334,0.0212 0.84173,0.0836 1.25448,0.17533 -0.0416,-0.0935 -0.0886,-0.18486 -0.14005,-0.27517 z m -9.24419,1.08267 c -0.13935,-0.6029 -0.94721,-0.28504 -1.24707,-0.0847 -0.3489,0.23389 -0.59902,0.62583 -0.79234,1.03505 0.70238,-0.1464 2.14559,-0.48965 2.03941,-0.95038 z m -14.54044,-1.30775 c -0.31821,-1.63477 0.91581,-2.56928 2.42922,-2.274 2.08457,0.40569 3.59551,2.15265 3.82411,4.22628 0.043,0.39229 0.0582,0.78916 0.0593,1.18815 1.88031,0.0173 3.89961,-0.3997 5.47123,-0.73307 0.50377,-1.01283 1.25765,-1.93428 2.21897,-2.30787 0.55422,-0.2159 1.12572,-0.22613 1.39912,0.37606 0.25788,0.56727 -0.43815,1.28552 -0.79869,1.61219 -0.67521,0.61172 -1.56175,0.94263 -2.48355,1.15923 -0.41769,1.28835 -0.50624,2.80529 -0.76059,4.12009 -0.0385,0.19932 -0.0776,0.39864 -0.11642,0.59761 0.3175,-0.0589 0.63571,-0.11395 0.9525,-0.17533 2.43558,-0.47131 4.93783,-0.74824 7.33778,-1.37231 1.49331,-0.38876 2.78236,-0.96731 3.77543,-2.18158 0.70873,-0.86677 1.04069,-2.02494 0.82162,-3.09421 -0.89324,-0.31926 -1.82069,-0.4572 -2.81376,-0.24624 -0.0416,0.009 -0.0847,0.0134 -0.1277,0.0162 -0.76941,0.4766 -1.31199,1.19274 -0.79552,2.06622 0.10125,0.17145 0.0762,0.57185 -0.31115,0.72249 -0.33937,0.13194 -0.73272,-0.25929 -0.8135,-0.39723 -0.92358,-1.56069 0.95391,-2.72309 2.23414,-3.15983 0.62971,-0.21484 1.27705,-0.34466 1.93004,-0.4004 -0.93168,-1.00048 -2.60385,-1.11407 -3.86009,-0.86678 -1.46156,0.28787 -2.60421,1.31269 -3.17218,2.66242 -0.14816,0.35207 -1.03646,0.94509 -0.72637,0.20708 0.69568,-1.65277 2.01189,-2.94817 3.66501,-3.63079 1.65982,-0.6851 4.31835,-0.51082 5.28567,1.22484 0.0727,0.13088 0.13265,0.26423 0.18662,0.39829 0.59655,0.043 1.19063,0.14041 1.77341,0.29457 0.0617,0.0162 0.1196,0.0406 0.18027,0.0586 0.43992,-0.30304 0.94192,-0.53693 1.3769,-0.68545 1.6457,-0.56162 3.40995,-0.55245 5.08247,-0.11077 0.87594,0.23142 1.65558,0.64982 2.41652,1.10772 -0.0748,-0.41839 -0.25259,-0.81456 -0.52881,-1.12289 -0.11712,-0.13088 -0.19861,-0.53975 0.23566,-0.66569 0.3249,-0.0942 0.77505,0.21272 0.889,0.34008 0.56726,0.63288 0.71472,1.41746 0.56021,2.15653 0.46496,0.28328 0.93662,0.55562 1.43298,0.78175 1.04422,0.4759 2.55799,0.6798 3.44911,-0.17427 0.8569,-0.82127 0.8315,-2.32869 0.0723,-3.17606 -0.11712,-0.13088 -0.19826,-0.53975 0.23565,-0.66569 0.32526,-0.0942 0.77506,0.21272 0.88936,0.34008 0.80715,0.90064 0.77787,2.10996 0.21272,3.05576 -1.03329,2.25566 -3.52637,2.82645 -5.80002,2.33997 -0.52564,-0.11253 -1.03681,-0.30233 -1.53987,-0.53587 -1.23437,1.36031 -3.23956,1.67147 -5.09941,1.27353 -1.258,-0.26917 -2.43487,-0.97613 -3.61103,-1.68945 -0.0501,0.12171 -0.14711,0.23636 -0.31715,0.30233 -0.33902,0.13194 -0.73307,-0.25929 -0.81386,-0.39688 -0.14605,-0.24694 -0.21554,-0.4826 -0.23495,-0.70873 -0.20849,-0.11465 -0.41839,-0.22436 -0.629,-0.32702 -0.11077,1.004 -0.57679,1.98967 -1.19309,2.80635 -1.31375,1.74201 -3.01696,2.59503 -5.09482,3.13549 -1.87008,0.48683 -3.81811,0.68544 -5.71747,1.0421 -0.65969,0.12418 -1.31798,0.2533 -1.97661,0.38171 -0.24518,1.2573 -0.4879,2.51495 -0.70168,3.77825 -0.35242,2.07927 -0.63006,4.14831 -1.47038,6.10235 -0.75847,1.76459 -2.94216,3.80541 -5.05001,4.11409 0.0878,0.17569 0.17992,0.35031 0.27552,0.52423 0.22613,0.0198 0.46178,0.0889 0.70873,0.23495 0.13758,0.0808 0.52881,0.47484 0.39687,0.81421 -0.066,0.16969 -0.18062,0.2667 -0.30233,0.31715 0.71332,1.17616 1.42029,2.35267 1.68946,3.61068 0.39793,1.85984 0.0868,3.86503 -1.27388,5.09905 0.23389,0.50341 0.42368,1.01424 0.53622,1.54023 0.48648,2.27365 -0.0843,4.76673 -2.33998,5.80002 -0.94579,0.5655 -2.15512,0.59443 -3.05576,-0.21238 -0.12735,-0.11465 -0.43427,-0.56444 -0.34008,-0.8897 0.12595,-0.43356 0.53481,-0.35278 0.6657,-0.23566 0.84737,0.75918 2.35479,0.78458 3.17605,-0.0723 0.85408,-0.89111 0.65017,-2.40453 0.17428,-3.4491 -0.22613,-0.49636 -0.49848,-0.96803 -0.78176,-1.43334 -0.73942,0.15487 -1.52365,0.008 -2.15653,-0.55986 -0.12735,-0.11395 -0.43462,-0.56409 -0.34008,-0.889 0.12559,-0.43427 0.53481,-0.35278 0.66569,-0.23565 0.30833,0.27622 0.7045,0.45402 1.1229,0.52881 -0.45791,-0.76059 -0.8763,-1.54023 -1.10773,-2.41653 -0.44167,-1.67252 -0.45085,-3.43676 0.11078,-5.08247 0.14851,-0.43462 0.38241,-0.93698 0.68544,-1.37654 -0.018,-0.061 -0.0423,-0.11853 -0.0586,-0.18062 -0.1464,-0.55315 -0.23989,-1.11725 -0.28645,-1.68346 -0.42298,-0.20002 -0.82162,-0.5087 -1.17793,-0.95496 -1.14053,-1.4277 -0.85196,-3.66078 -0.13017,-5.19572 0.68227,-1.45344 1.98437,-2.5855 3.44628,-3.20075 0.26882,-0.11289 0.17039,0.28187 0.11818,0.38665 -0.12911,0.25788 -0.34113,0.48083 -0.60819,0.59301 -2.38372,1.0033 -3.35139,3.80365 -2.2486,6.12776 0.16122,0.33937 0.36512,0.60571 0.59478,0.8195 0.0536,-0.66781 0.18309,-1.33033 0.40287,-1.97379 0.43674,-1.28059 1.59915,-3.15807 3.15983,-2.2345 0.13794,0.0808 0.52917,0.47413 0.39723,0.81351 -0.15063,0.38735 -0.55139,0.41239 -0.72249,0.31115 -0.87347,-0.51647 -1.58961,0.0261 -2.06622,0.79551 -0.003,0.043 -0.007,0.0861 -0.0162,0.12771 -0.20885,0.98284 -0.0762,1.90182 0.236,2.78694 1.32292,0.15805 2.87444,-0.5461 3.79025,-1.41922 1.70497,-1.62455 1.90747,-4.56883 2.25249,-6.75887 0.24412,-1.54764 0.5535,-3.08505 0.85548,-4.6221 -0.83502,0.16228 -1.67005,0.3242 -2.50684,0.47802 -0.52281,0.0963 -1.04528,0.17744 -1.57233,0.24729 -0.21802,0.0286 -0.51188,0.0917 -0.83079,0.18556 -0.22966,0.88477 -0.5588,1.7332 -1.12289,2.47121 -0.31644,0.41557 -0.87207,0.91899 -1.43722,0.78811 -0.69532,-0.15981 -0.57608,-0.99977 -0.38594,-1.48802 0.39794,-1.02341 1.30211,-1.78435 2.32199,-2.28953 0.11006,-0.56726 0.20178,-1.13841 0.28822,-1.70744 0.17427,-1.1423 0.39158,-2.39395 0.4191,-3.62056 -0.47625,0.002 -0.95074,-0.0183 -1.42099,-0.0702 -2.12972,-0.2346 -3.64667,-2.02071 -4.04001,-4.03895"
       style="fill:#000000;fill-opacity:1;fill-rule:nonzero;stroke:none;stroke-width:0.0352778"
       id="path701" />
  </g>
</svg>
