<?xml version="1.0" encoding="UTF-8" standalone="no"?>
<svg
   width="1000"
   height="1000.5944"
   viewBox="0 0 1000 1000.5945"
   version="1.1"
   id="svg1173"
   sodipodi:docname="style18.svg"
   inkscape:version="1.4 (e7c3feb1, 2024-10-09)"
   xmlns:inkscape="http://www.inkscape.org/namespaces/inkscape"
   xmlns:sodipodi="http://sodipodi.sourceforge.net/DTD/sodipodi-0.dtd"
   xmlns="http://www.w3.org/2000/svg"
   xmlns:svg="http://www.w3.org/2000/svg">
  <defs
     id="defs3925" />
  <sodipodi:namedview
     id="namedview3923"
     pagecolor="#ffffff"
     bordercolor="#666666"
     borderopacity="1.0"
     inkscape:showpageshadow="2"
     inkscape:pageopacity="0.0"
     inkscape:pagecheckerboard="0"
     inkscape:deskcolor="#d1d1d1"
     showgrid="false"
     inkscape:zoom="9.5173299"
     inkscape:cx="1.9438225"
     inkscape:cy="981.47275"
     inkscape:current-layer="svg1173"
     inkscape:window-width="1944"
     inkscape:window-height="1111"
     inkscape:window-x="42"
     inkscape:window-y="25"
     inkscape:window-maximized="0" />
  <path
     d="m 279.03668,360.13148 c -32.59657,15.10858 -51.02905,68.52845 -8.60688,85.78305 30.51468,12.4146 66.4583,-12.96868 52.32347,-46.46908 -13.04438,-30.93453 -65.71795,-5.00892 -46.28824,25.2084 0.1157,0.18678 0.35538,0.19836 0.54216,0.29753 2.9039,3.87203 8.26274,5.65638 12.09973,4.65337 5.60381,-1.51575 8.39117,-9.0383 6.32102,-16.79392 -1.39343,-5.20148 -5.09057,-8.78176 -9.68559,-10.15801 3.74359,-5.77869 14.82294,-6.28598 22.37442,0.41985 17.54618,15.61603 -1.36533,39.69895 -21.86714,35.54129 -31.08627,-6.29772 -43.57675,-66.40012 0.95045,-72.08558 19.34226,-2.47827 39.06933,12.26319 54.34701,21.84383 17.66287,11.09688 38.17129,24.8993 54.91843,37.37821 11.57508,8.63019 18.31595,1.09094 7.39412,-8.31547 -28.80042,-24.74773 -85.10666,-75.71248 -124.82313,-57.30331"
     style="fill:#000000;fill-opacity:1;fill-rule:nonzero;stroke:none;stroke-width:0.583123"
     id="path411" />
  <path
     d="m 358.5511,280.59359 c 15.10296,-32.57326 68.54613,-51.02327 85.79478,-8.57779 12.42634,30.52642 -12.98603,66.4702 -46.49222,52.32942 -30.91717,-13.03859 -4.97999,-65.712 25.21998,-46.30576 0.19174,0.13223 0.20992,0.37852 0.30249,0.53059 3.87202,2.90406 5.65637,8.28622 4.64758,12.13477 -1.49922,5.57472 -9.05004,8.38539 -16.78813,6.31524 -5.20149,-1.40005 -8.78772,-5.09653 -10.16958,-9.70312 -5.76713,3.7669 -6.28037,14.82295 0.43803,22.37443 15.59867,17.55774 39.68737,-1.3769 35.5355,-21.86714 -6.3035,-31.08049 -66.41169,-43.57675 -72.09137,0.96863 -2.47248,19.33631 12.26898,39.0576 21.84962,54.32948 11.07936,17.66866 24.91103,38.1713 37.39556,54.91265 8.60689,11.58087 1.06119,18.33348 -8.35018,7.39396 -24.71863,-28.80621 -75.71265,-85.08914 -57.2919,-124.83487"
     style="fill:#000000;fill-opacity:1;fill-rule:nonzero;stroke:none;stroke-width:0.583123"
     id="path413" />
  <path
     d="m 0,721.53317 33.068816,20.32759 c -14.869562,24.5902 -20.939837,59.50766 -22.765019,105.9417 -1.3587209,34.60241 -1.8193959,137.87775 -1.8193959,147.59244 0,6.7276 -8.4844011,7.1348 -8.4844011,0"
     style="fill:#000000;fill-opacity:1;fill-rule:nonzero;stroke:none;stroke-width:0.583123"
     id="path415"
     sodipodi:nodetypes="cccsc" />
  <path
     d="m 152.71483,706.23781 c 7.07328,61.68261 -49.29131,82.23781 -82.20277,123.04456 -37.996244,47.09884 -44.043213,106.90239 -44.288179,166.11253 0.09918,6.4402 7.569,6.3066 7.586521,0 0.244636,-61.60096 19.225567,-126.70302 61.968408,-173.35293 18.37992,-20.0651 42.2063,-33.2437 59.34436,-54.74338 14.42062,-18.07678 19.48789,-40.66113 16.91045,-63.25721 -0.64795,-5.52216 -19.94278,-3.32375 -19.31879,2.19841 v 0"
     style="fill:#000000;fill-opacity:1;fill-rule:nonzero;stroke:none;stroke-width:0.583123"
     id="path417"
     sodipodi:nodetypes="cccccccsc" />
  <path
     d="m 251.15745,259.15803 c -4.11683,-0.42646 -8.05282,-1.44632 -9.6856,-2.99728 -33.1622,-31.41868 -85.43328,-73.3334 -133.2143,-75.00122 -26.077187,-0.89755 -62.93637,6.91592 -71.828883,36.03701 -2.256766,7.35891 -4.11104,14.98626 -3.44044,22.75923 -0.115706,-1.36368 3.160431,27.00433 9.335668,14.56641 3.551352,-7.15493 26.304634,-0.81655 23.960593,3.90112 -8.280427,16.68301 -46.189231,14.08226 -53.186643,-3.46375 -13.77911365,-34.55002 7.446517,-65.29231 39.518276,-77.76527 54.463539,-21.17902 114.997529,4.58924 163.530799,38.94669 C 181.78352,167.6077 156.02105,107.06809 177.20007,52.616121 189.67319,20.544362 220.40953,-0.68705396 254.9536,13.09206 c 17.55196,7.003197 20.15271,44.906215 3.48127,53.192428 -4.72329,2.349992 -11.06762,-20.420977 -3.91269,-23.960593 12.43792,-6.175237 -15.92513,-9.44658 -14.56062,-9.335668 -7.77876,-0.676054 -15.40611,1.183509 -22.75345,3.428704 -29.12109,8.904249 -36.94067,45.757647 -36.04279,71.840619 1.65608,47.77523 43.58253,100.05805 74.99543,133.20852 1.55707,1.63807 2.57744,5.56298 3.00307,9.69154 1.00334,5.08479 -1.8427,9.09087 -8.00637,8.00042"
     style="fill:#000000;fill-opacity:1;fill-rule:nonzero;stroke:none;stroke-width:0.583123"
     id="path419" />
  <path
     d="m 162.73283,172.33115 c -4.07021,0.31406 -7.9538,-0.1157 -9.84312,-1.86022 C 123.73953,143.52479 57.61347,105.09117 22.416157,139.18647 10.193952,152.86062 -1.3811255,142.9651 2.7008219,134.64384 9.779889,120.24074 18.322639,116.29301 31.635292,111.17318 56.353926,101.6742 104.06486,119.15608 140.65593,140.65593 119.15608,104.06486 101.66825,56.34219 111.17318,31.629506 116.2988,18.322639 120.24074,9.7741037 134.64963,2.7008219 c 8.30952,-4.0759968 18.21099,7.4931301 4.53684,19.7095501 -34.0953,35.191362 4.33832,101.323208 31.29024,130.473548 1.74353,1.88932 2.17511,5.77291 1.85428,9.84891 -1.1488,6.35607 -4.89818,9.60411 -9.59816,9.59816"
     style="fill:#000000;fill-opacity:1;fill-rule:nonzero;stroke:none;stroke-width:0.583123"
     id="path421" />
  <path
     d="M 95.755504,103.48186 C 91.696863,103.27194 87.825005,102.50167 86.11057,101.10857 69.818154,87.848311 40.965339,84.442914 20.900076,83.85397 17.383766,83.738264 7.9138795,83.219239 6.4268903,78.821579 0.58984597,61.59029 -1.194508,37.390681 11.237621,22.573683 12.794695,20.713458 16.415802,20.136085 20.36353,20.357745 20.142035,16.415802 20.718913,12.800481 22.573517,11.237786 37.390681,-1.2002934 61.59029,0.59579658 78.815794,6.4268903 c 4.402453,1.4876504 4.921478,10.9568757 5.038176,14.4672347 0.600019,20.065264 3.994341,48.918243 17.26038,65.216445 1.38847,1.72022 2.16916,5.586293 2.3733,9.638983 0.35538,4.577497 -2.47826,8.461097 -7.732146,7.732307"
     style="fill:#000000;fill-opacity:1;fill-rule:nonzero;stroke:none;stroke-width:0.583123"
     id="path423" />
  <path
     d="m 58.762101,631.81396 c -2.495616,27.07425 36.241148,9.17831 44.445709,-2.30337 0.6463,-0.91574 1.2364,-1.83692 1.85427,-2.75811 -17.277903,-9.61567 -44.282229,-16.73573 -46.299979,5.06148 z M 654.38658,84.227205 c 1.01491,-0.687625 2.04089,-1.33558 3.05563,-2.058578 12.74702,-9.108222 32.60236,-52.096029 2.55975,-49.32619 -24.18787,2.23908 -16.29241,32.211599 -5.61538,51.384768 z M 78.60587,544.29301 C 33.699655,526.33294 6.4386262,479.14087 1.009694,432.10037 -5.0663662,379.36283 16.550021,333.5994 58.581434,301.33524 129.31409,247.05815 221.739,249.86303 293.90624,293.8945 249.86303,221.73321 247.05815,129.31409 301.34102,58.581434 333.5994,16.550021 379.35688,-5.0663662 432.10037,1.009694 c 47.0405,5.4231469 94.23257,32.689795 112.19859,77.601961 3.23052,8.076289 5.42877,16.566475 6.80501,25.255015 31.32529,6.34433 63.65937,3.30639 93.7719,-13.697624 -4.44345,-8.286047 -7.67975,-17.295258 -9.70907,-26.625306 -3.20126,-14.747078 0.88598,-52.271076 23.74488,-49.611984 17.30121,2.017585 26.25786,23.144039 26.25207,38.76007 0,21.598866 -6.99741,34.39266 -19.74442,46.090055 13.45249,11.540039 30.63716,17.003839 48.0959,14.286399 27.55823,-4.32079 50.30589,-32.147461 34.30505,-59.122695 -3.03232,-5.108096 -2.7057,-22.11194 3.7145,-11.289283 12.98603,21.867139 17.12038,45.576815 2.22751,67.572218 -17.73279,26.18811 -52.60348,26.64283 -77.46196,12.65958 -7.79644,-4.37915 -14.44393,-10.01222 -20.11187,-16.44399 -2.6824,2.04667 -5.5339,4.10509 -8.55449,6.22185 -30.35732,21.3248 -63.61854,28.07741 -95.17723,23.03924 -1.405,21.663 -7.18981,43.21509 -15.93092,61.93915 -19.21383,41.11601 -60.73217,55.39663 -103.34674,45.48359 -36.19437,-8.42027 -55.51316,-38.46866 -51.3089,-75.17032 1.90106,-16.67143 6.5893,-30.61386 19.61038,-41.58247 14.74145,-12.41461 38.53857,-9.85469 48.78402,6.10532 3.4697,5.41141 -0.34381,28.31643 -5.08479,20.92826 -9.7089,-15.13783 -28.15312,-11.37672 -41.30841,-3.5978 -18.12917,10.70613 -13.84904,36.62001 -3.80773,50.90658 15.2952,21.77374 54.77265,23.68636 78.12677,19.96013 37.20895,-5.93027 56.95933,-41.35503 63.0063,-75.44421 0.69423,-3.90111 1.08433,-7.72636 1.31739,-11.50499 -35.27897,-8.50192 -67.75305,-31.78613 -90.71047,-65.962913 -2.85745,-4.262615 -6.04119,-21.849618 -0.88598,-17.207818 25.29584,22.788325 55.65912,41.156675 87.55004,50.224231 C 531.91345,80.588412 518.08177,63.333816 498.77455,50.231087 469.01195,30.055076 432.03045,21.728036 396.49494,24.614574 359.4784,27.611693 328.93446,52.06784 306.05853,79.591356 246.64408,151.12288 267.56078,248.341 328.03641,311.18993 c 1.84271,1.91857 2.46653,5.95953 2.36156,10.17553 0.35043,5.66216 -3.83698,8.95681 -9.02673,9.02673 -4.216,0.11571 -8.26274,-0.51903 -10.18131,-2.36751 C 248.34695,267.55499 151.12288,246.6383 79.591356,306.05853 52.068005,328.92851 27.623429,359.4784 24.614574,396.48916 c -2.886538,35.54129 5.446288,72.52279 25.616513,102.28539 17.930981,26.43885 43.62915,42.68449 74.050773,43.88585 -4.92743,-36.04875 -24.21713,-71.11763 -49.559584,-99.24744 -4.180959,-4.64164 11.662353,-1.77857 15.505119,0.79837 35.220615,23.65728 57.589265,58.52218 61.892705,95.56782 31.82679,-7.37643 63.02381,-26.88763 68.55771,-61.60096 3.7378,-23.34239 1.81344,-62.81967 -19.9603,-78.12082 -14.28657,-10.03552 -40.19467,-14.31566 -50.90658,3.80194 -7.77892,13.17265 -11.52846,31.59935 3.59202,41.3142 7.40569,4.74081 -15.50529,8.55432 -20.9167,5.079 -15.96001,-10.23387 -18.51992,-34.03099 -6.1111,-48.77245 10.9744,-13.02686 24.91682,-17.70932 41.58826,-19.62194 36.69587,-4.19848 66.75583,15.1261 75.16453,51.31468 9.91304,42.61457 -4.36179,84.12713 -45.48359,103.34096 -13.75581,6.43177 -29.05117,11.26002 -44.78952,13.93664 0.49589,23.64554 -6.42599,47.81011 -22.1645,70.21958 -1.91262,2.72322 -3.76706,5.28892 -5.60381,7.70883 5.79621,5.10232 10.86348,11.09689 14.81716,18.12339 12.59544,22.39773 12.18716,53.8222 -11.40598,69.79973 -19.8203,13.41778 -41.185935,9.69733 -60.889534,-2.00585 -9.75568,-5.79043 5.568772,-6.07622 10.169579,-3.353 24.310355,14.42062 49.378755,-6.08201 53.268295,-30.90544 2.44901,-15.73851 -2.46074,-31.22628 -12.8695,-43.34352 -10.53702,11.48169 -22.065322,17.79114 -41.530071,17.79114 -14.070693,0.006 -33.103858,-8.06455 -34.92904,-23.65728 -2.390654,-20.59586 31.424466,-24.28126 44.713813,-21.39472 8.40291,1.83096 16.519858,4.74659 23.989688,8.74672 11.87822,-21.0448 16.17588,-43.29674 14.84625,-65.39133 -16.09985,-0.0331 -32.036715,-2.64157 -46.66131,-8.49613"
     style="fill:#000000;fill-opacity:1;fill-rule:nonzero;stroke:none;stroke-width:0.583123"
     id="path425" />
  <path
     d="m 721.52722,0 20.33354,33.068816 C 766.45691,18.193469 801.36842,12.123029 847.80824,10.303798 882.41066,8.9450766 985.68005,8.4797726 995.3949,8.4797726 c 5.9678,0 6.3101,-8.2480297 0,-8.4789461"
     style="fill:#000000;fill-opacity:1;fill-rule:nonzero;stroke:none;stroke-width:0.583123"
     id="path427"
     sodipodi:nodetypes="cccsc" />
  <path
     d="m 706.23781,152.71483 c 61.68856,7.07328 82.24938,-49.29131 123.05051,-82.208555 47.08711,-37.996245 106.8847,-44.049164 166.10658,-44.282394 6.2047,-0.01653 5.9575,7.557264 0,7.580736 -61.60691,0.244636 -126.70319,19.231352 -173.35293,61.974193 -20.04774,18.36835 -33.23791,42.20051 -54.73181,59.34436 -18.08273,14.41467 -40.66691,19.48789 -63.26878,16.90467 -5.52216,-0.64796 -3.31218,-19.94278 2.2042,-19.31301 v 0"
     style="fill:#000000;fill-opacity:1;fill-rule:nonzero;stroke:none;stroke-width:0.583123"
     id="path429"
     sodipodi:nodetypes="cccccccsc" />
</svg>
