<?xml version="1.0" encoding="UTF-8" standalone="no"?>
<svg
   width="35"
   height="35"
   viewBox="0 0 35 35.000001"
   version="1.1"
   id="svg1173"
   sodipodi:docname="style10.svg"
   inkscape:version="1.4 (e7c3feb1, 2024-10-09)"
   inkscape:export-filename="style10.png"
   inkscape:export-xdpi="2464.9004"
   inkscape:export-ydpi="2464.9004"
   xmlns:inkscape="http://www.inkscape.org/namespaces/inkscape"
   xmlns:sodipodi="http://sodipodi.sourceforge.net/DTD/sodipodi-0.dtd"
   xmlns="http://www.w3.org/2000/svg"
   xmlns:svg="http://www.w3.org/2000/svg">
  <defs
     id="defs2419">
    <inkscape:path-effect
       effect="mirror_symmetry"
       start_point="0,0"
       end_point="50,50"
       center_point="25,25"
       id="path-effect2619"
       is_visible="true"
       lpeversion="1.2"
       lpesatellites=""
       mode="free"
       discard_orig_path="false"
       fuse_paths="false"
       oposite_fuse="false"
       split_items="false"
       split_open="false"
       link_styles="false" />
    <inkscape:path-effect
       effect="mirror_symmetry"
       start_point="0,0"
       end_point="50,50"
       center_point="25,25"
       id="path-effect2617"
       is_visible="true"
       lpeversion="1.2"
       lpesatellites=""
       mode="free"
       discard_orig_path="false"
       fuse_paths="false"
       oposite_fuse="false"
       split_items="false"
       split_open="false"
       link_styles="false" />
  </defs>
  <sodipodi:namedview
     id="namedview2417"
     pagecolor="#ffffff"
     bordercolor="#666666"
     borderopacity="1.0"
     inkscape:showpageshadow="2"
     inkscape:pageopacity="0.0"
     inkscape:pagecheckerboard="0"
     inkscape:deskcolor="#d1d1d1"
     showgrid="false"
     inkscape:zoom="18.899059"
     inkscape:cx="10.794188"
     inkscape:cy="16.693953"
     inkscape:current-layer="svg1173"
     inkscape:window-width="2104"
     inkscape:window-height="1298"
     inkscape:window-x="0"
     inkscape:window-y="25"
     inkscape:window-maximized="0" />
  <path
     d="m 6.920257,5.84368 c 0.76341,0.34255 1.62137,0.65969 2.57281,0.94615 1.37724,0.32738 2.4391,0.5528 3.18523,0.68086 0.72002,0.16616 1.33138,0.50095 1.8348,1.00436 0.41486,0.41416 0.63076,0.89076 0.64699,1.42699 0.0113,0.5087 -0.15769,0.93803 -0.50588,1.28658 -0.32068,0.32067 -0.68827,0.48859 -1.10384,0.50553 -0.41452,0.0166 -0.74648,-0.0995 -0.9959,-0.34855 -0.23212,-0.23248 -0.35207,-0.49248 -0.36053,-0.78352 -0.009,-0.29139 0.0875,-0.53516 0.28645,-0.73448 0.1718,-0.17145 0.32703,-0.21625 0.4639,-0.133 -0.0826,0.42545 -0.066,0.69674 0.0501,0.81316 0.37571,0.37606 0.72249,0.40675 1.03787,0.091 0.15487,-0.15451 0.2226,-0.35242 0.20179,-0.59337 -0.0184,-0.24024 -0.11712,-0.44979 -0.29422,-0.62653 -0.20426,-0.20426 -0.46708,-0.28505 -0.7874,-0.24095 -0.32103,0.0455 -0.61665,0.20214 -0.88829,0.47343 -0.24307,0.24341 -0.36301,0.55562 -0.35666,0.93697 0.005,0.38242 0.13547,0.70062 0.38982,0.95497 0.35983,0.35984 0.79057,0.53058 1.29469,0.51471 0.47061,-0.0169 0.87701,-0.19615 1.22026,-0.5394 0.45332,-0.45332 0.6664,-0.99307 0.63853,-1.61784 -0.0166,-0.64805 -0.28222,-1.24001 -0.79657,-1.77624 0.30374,0.006 0.48683,-0.0226 0.54716,-0.0829 0.0607,-0.061 0.0977,-0.13829 0.10759,-0.23283 0.012,-0.0935 -0.0102,-0.16863 -0.0653,-0.22366 -0.43215,-0.43216 -1.17616,-0.65617 -2.23238,-0.67275 -0.28187,0.006 -0.56162,0.0134 -0.83749,0.0257 -0.55457,0 -1.15076,-0.061 -1.79317,-0.18344 C 9.838037,6.61513 9.263367,6.46063 8.654477,6.24967 8.079087,6.05105 7.534047,5.82104 7.019347,5.5621 6.726537,5.40159 6.433027,5.24072 6.139517,5.08021 6.085217,5.04771 5.0551059,4.2787097 4.966657,4.3952475 4.6901289,4.5750095 5.8456243,5.2296801 5.9488249,5.309079 6.0520256,5.388478 6.355037,5.58959 6.920187,5.84359 M 5.84368,6.920257 c 0.34255,0.76341 0.65969,1.62137 0.94615,2.57281 0.32738,1.37724 0.5528,2.4391 0.68086,3.18523 0.16616,0.72002 0.50095,1.33138 1.00436,1.8348 0.41416,0.41486 0.89076,0.63076 1.42699,0.64699 0.5087,0.0113 0.93803,-0.15769 1.28658,-0.50588 0.32067,-0.32068 0.48859,-0.68827 0.50553,-1.10384 0.0166,-0.41452 -0.0995,-0.74648 -0.34855,-0.9959 -0.23248,-0.23212 -0.49248,-0.35207 -0.78352,-0.36053 -0.29139,-0.009 -0.53516,0.0875 -0.73448,0.28645 -0.17145,0.1718 -0.21625,0.32703 -0.133,0.4639 0.42545,-0.0826 0.69674,-0.066 0.81316,0.0501 0.37606,0.37571 0.40675,0.72249 0.091,1.03787 -0.15451,0.15487 -0.35242,0.2226 -0.59337,0.20179 -0.24024,-0.0184 -0.44979,-0.11712 -0.62653,-0.29422 -0.20426,-0.20426 -0.28505,-0.46708 -0.24095,-0.7874 0.0455,-0.32103 0.20214,-0.61665 0.47343,-0.88829 0.24341,-0.24307 0.55562,-0.36301 0.93697,-0.35666 0.38242,0.005 0.70062,0.13547 0.95497,0.38982 0.35984,0.35983 0.53058,0.79057 0.51471,1.29469 -0.0169,0.47061 -0.19615,0.87701 -0.5394,1.22026 -0.45332,0.45332 -0.99307,0.6664 -1.61784,0.63853 -0.64805,-0.0166 -1.24001,-0.28222 -1.77624,-0.79657 0.006,0.30374 -0.0226,0.48683 -0.0829,0.54716 -0.061,0.0607 -0.13829,0.0977 -0.23283,0.10759 -0.0935,0.012 -0.16863,-0.0102 -0.22366,-0.0653 -0.43216,-0.43215 -0.65617,-1.17616 -0.67275,-2.23238 0.006,-0.28187 0.0134,-0.56162 0.0257,-0.83749 0,-0.55457 -0.061,-1.15076 -0.18344,-1.79317 C 6.61513,9.838037 6.46063,9.263367 6.24967,8.654477 6.05105,8.079087 5.82104,7.534047 5.5621,7.019347 5.40159,6.726537 5.24072,6.433027 5.08021,6.139517 5.04771,6.085217 4.2787097,5.0551059 4.3952475,4.966657 4.5750095,4.6901289 5.2296801,5.8456243 5.309079,5.9488249 5.388478,6.0520256 5.58959,6.355037 5.84359,6.920187"
     style="fill:#000000;fill-opacity:1;fill-rule:nonzero;stroke:none;stroke-width:0.0352778"
     id="path713"
     sodipodi:nodetypes="ccccccccccccccccccccscccccccccccczc"
     inkscape:path-effect="#path-effect2619"
     inkscape:original-d="m 6.920257,5.84368 c 0.76341,0.34255 1.62137,0.65969 2.57281,0.94615 1.37724,0.32738 2.4391,0.5528 3.18523,0.68086 0.72002,0.16616 1.33138,0.50095 1.8348,1.00436 0.41486,0.41416 0.63076,0.89076 0.64699,1.42699 0.0113,0.5087 -0.15769,0.93803 -0.50588,1.28658 -0.32068,0.32067 -0.68827,0.48859 -1.10384,0.50553 -0.41452,0.0166 -0.74648,-0.0995 -0.9959,-0.34855 -0.23212,-0.23248 -0.35207,-0.49248 -0.36053,-0.78352 -0.009,-0.29139 0.0875,-0.53516 0.28645,-0.73448 0.1718,-0.17145 0.32703,-0.21625 0.4639,-0.133 -0.0826,0.42545 -0.066,0.69674 0.0501,0.81316 0.37571,0.37606 0.72249,0.40675 1.03787,0.091 0.15487,-0.15451 0.2226,-0.35242 0.20179,-0.59337 -0.0184,-0.24024 -0.11712,-0.44979 -0.29422,-0.62653 -0.20426,-0.20426 -0.46708,-0.28505 -0.7874,-0.24095 -0.32103,0.0455 -0.61665,0.20214 -0.88829,0.47343 -0.24307,0.24341 -0.36301,0.55562 -0.35666,0.93697 0.005,0.38242 0.13547,0.70062 0.38982,0.95497 0.35983,0.35984 0.79057,0.53058 1.29469,0.51471 0.47061,-0.0169 0.87701,-0.19615 1.22026,-0.5394 0.45332,-0.45332 0.6664,-0.99307 0.63853,-1.61784 -0.0166,-0.64805 -0.28222,-1.24001 -0.79657,-1.77624 0.30374,0.006 0.48683,-0.0226 0.54716,-0.0829 0.0607,-0.061 0.0977,-0.13829 0.10759,-0.23283 0.012,-0.0935 -0.0102,-0.16863 -0.0653,-0.22366 -0.43215,-0.43216 -1.17616,-0.65617 -2.23238,-0.67275 -0.28187,0.006 -0.56162,0.0134 -0.83749,0.0257 -0.55457,0 -1.15076,-0.061 -1.79317,-0.18344 C 9.838037,6.61513 9.263367,6.46063 8.654477,6.24967 8.079087,6.05105 7.534047,5.82104 7.019347,5.5621 6.726537,5.40159 6.433027,5.24072 6.139517,5.08021 6.085217,5.04771 5.0551059,4.2787097 4.966657,4.3952475 4.6901289,4.5750095 5.8456243,5.2296801 5.9488249,5.309079 6.0520256,5.388478 6.355037,5.58959 6.920187,5.84359"
     class="UnoptimicedTransforms" />
  <path
     d="m 7.225407,4.46502 c 2.24508,0.60008 5.11175,0.21238 8.59614,-1.16452 0.91264,-0.35524 1.6002,-0.61453 2.05458,-0.78387 2.21968,-0.8703 3.94088,-1.44286 5.16502,-1.71097 1.22519,-0.2667 2.33574,-0.31362 3.33339,-0.1457 0.1009,-0.37253 0.0639,-0.69991 -0.10583,-0.97931 -0.16969,-0.27763 -0.45085,-0.46849 -0.84243,-0.57326 -0.50871,-0.13582 -1.10984,-0.0473 -1.81399,0.26987 -0.6992,0.31927 -1.37512,0.81033 -2.02847,1.46721 -0.0533,-1.12325 -0.47519,-1.79141 -1.264,-2.00202 -0.42228,-0.11112 -0.82762,-0.0699 -1.21285,0.12594 -0.38735,0.19685 -0.91017,0.64418 -1.5748,1.34268 -1.64853,1.78047 -3.27519,2.99155 -4.88068,3.63996 0.18344,-0.35066 0.30268,-0.6283 0.35771,-0.83644 0.11924,-0.4452 0.10901,-0.83644 -0.0303,-1.16664 -0.13935,-0.33196 -0.381,-0.5408 -0.72285,-0.63217 -0.20496,-0.0529 -0.4064,-0.0582 -0.60501,-0.006 -0.19579,0.0533 -0.4445,0.18062 -0.74048,0.3803 -0.29669,0.19826 -0.71155,0.50235 -1.24319,0.91581 -0.85196,0.65934 -1.47038,1.08232 -1.84503,1.2707 -0.37571,0.18768 -0.84984,0.29881 -1.41323,0.33796 0.254,0.0896 0.52635,0.17322 0.81633,0.25012 z m 20.17536,0.49495 c -0.0691,-0.27446 -0.22507,-0.44309 -0.47413,-0.51012 -0.43427,-0.11676 -0.74083,0.096 -0.91863,0.63677 0.42439,0.36759 0.87806,0.61701 1.36384,0.74577 0.0847,-0.30974 0.0935,-0.60113 0.0289,-0.87242 z m -21.81436,-6.9529 1.58538,0.42228 c 0.0501,-0.30727 0.0219,-0.56656 -0.0773,-0.76976 -0.10266,-0.20532 -0.25541,-0.33338 -0.46143,-0.38912 -0.2279,-0.0607 -0.44027,-0.0229 -0.63747,0.11219 -0.1972,0.13793 -0.33302,0.34501 -0.40922,0.62441 z m -2.82854,0.87383 c 0.2268,-0.84843 0.6826,-1.49225 1.3645,-1.93181 0.68263,-0.43885 1.41712,-0.5528 2.20452,-0.3436 0.46813,0.12735 0.82021,0.35207 1.06398,0.68968 0.24306,0.33655 0.31361,0.6992 0.21096,1.08197 -0.0808,0.30092 -0.25788,0.51435 -0.52917,0.64135 -0.27305,0.12523 -0.57961,0.14534 -0.91934,0.0543 -0.32244,-0.0861 -0.56233,-0.25612 -0.7239,-0.50307 -0.16157,-0.25011 -0.19826,-0.53692 -0.11077,-0.86959 0.0494,-0.18451 0.15875,-0.38206 0.32491,-0.59373 -1.21673,-0.013 -2.00479,0.65793 -2.36819,2.01472 -0.1683,0.63041 -0.175,1.25412 -0.033,1.87148 0.1482,0.61525 0.4269,1.14441 0.8393,1.59068 0.41415,0.44979 0.91439,0.75529 1.50353,0.91228 0.6223,0.16757 1.18322,0.16228 1.68169,-0.0116 0.50483,-0.17039 1.23614,-0.63853 2.20839,-1.41111 0.53058,-0.40252 0.9585,-0.71579 1.28164,-0.93486 0.32315,-0.21873 0.61278,-0.36336 0.86219,-0.43533 0.2533,-0.072 0.5207,-0.0663 0.79834,0.007 0.50024,0.13405 0.84737,0.39334 1.05092,0.78175 0.20038,0.38524 0.23002,0.84279 0.09,1.37125 1.15076,-0.70273 2.30258,-1.67146 3.45476,-2.90689 0.51752,-0.52634 0.96484,-0.9271 1.34302,-1.20473 0.38135,-0.27411 0.74895,-0.45368 1.09996,-0.53305 0.35172,-0.0766 0.71685,-0.0628 1.08903,0.0367 0.76694,0.2039 1.23825,0.72496 1.41393,1.55786 1.30775,-1.12747 2.52413,-1.53917 3.64278,-1.24283 0.51612,0.1404 0.89535,0.41204 1.13454,0.8255 0.23953,0.4131 0.28681,0.883 0.14957,1.39982 0.31645,0.0878 0.60749,0.20002 0.87913,0.33196 1.30139,-0.58349 2.88078,-0.8499 4.18411,-1.00146 1.30332,-0.15156 2.05339,-0.12934 2.4578,-0.12554 h 0.593 c 0.59792,0.003 0.60417,0.82075 0,0.82075 h -0.59281 c -2.01754,0 -3.85727,0.33867 -5.56401,1.05481 0.15487,0.15169 0.2988,0.31468 0.42827,0.49248 0.55633,0.76376 0.72284,1.56457 0.50306,2.39183 -0.10619,0.39299 -0.30445,0.74119 -0.59655,1.03822 -0.29033,0.29916 -0.63535,0.50342 -1.03505,0.60678 -0.39934,0.10442 -0.80504,0.10196 -1.21955,-0.0102 -0.4565,-0.12241 -0.79587,-0.32808 -1.02341,-0.61807 -0.2293,-0.28645 -0.29598,-0.60995 -0.19897,-0.97296 0.0734,-0.27799 0.23354,-0.48577 0.48296,-0.61877 0.24694,-0.13547 0.51188,-0.16333 0.80362,-0.0854 0.34185,0.0914 0.58209,0.29915 0.72214,0.62442 0.14182,0.32632 0.15064,0.7186 0.0296,1.17404 0.33832,0.024 0.64453,-0.066 0.91829,-0.27093 0.27763,-0.20426 0.46496,-0.49142 0.56479,-0.86325 0.1644,-0.61172 0.008,-1.20756 -0.46355,-1.784 -0.22613,-0.2734 -0.49389,-0.50306 -0.79728,-0.69532 -0.92427,0.47201 -1.80975,1.06292 -2.66382,1.78258 -0.35137,0.29634 -0.44485,0.0667 -0.31115,-0.363 0.20567,-0.66146 0.66146,-1.26401 1.11689,-1.60197 0.17004,-0.12594 0.34114,-0.24165 0.51259,-0.35172 -1.26824,-0.27446 -2.81411,-0.0476 -4.64361,0.69533 1.36807,0.39722 2.14453,1.10419 2.32798,2.11772 -0.2981,-0.57926 -0.91652,-0.99377 -1.84856,-1.24072 -0.6096,-0.16474 -1.23296,-0.20849 -1.86972,-0.13476 -0.63253,0.0773 -1.39206,0.28328 -2.27013,0.62653 1.33633,0.35631 2.00766,1.05058 2.02213,2.08633 -0.36795,-0.57467 -0.98849,-0.9779 -1.85703,-1.21144 -0.54821,-0.14464 -1.13524,-0.18944 -1.76106,-0.13194 -0.62689,0.0614 -1.38183,0.24801 -2.2599,0.55634 1.44216,0.4512 2.16182,1.28869 2.15794,2.50578 -0.31326,-0.82586 -1.0989,-1.40759 -2.36184,-1.7459 -0.71508,-0.19121 -1.60056,-0.24165 -2.65395,-0.15628 -0.44238,0.0339 -1.08091,0.078 -1.91347,0.12065 -0.91863,0.0751 -1.82668,-0.005 -2.72909,-0.24624 C 5.962677,5.32608 5.096607,4.8403 4.356127,4.13792 3.618467,3.43589 3.106267,2.61851 2.818367,1.68118 c -0.2907,-0.93769 -0.3094,-1.86902 -0.061,-2.80071 M 4.46502,7.225407 c 0.60008,2.24508 0.21238,5.11175 -1.16452,8.59614 -0.35524,0.91264 -0.61453,1.6002 -0.78387,2.05458 -0.8703,2.21968 -1.44286,3.94088 -1.71097,5.16502 -0.2667,1.22519 -0.31362,2.33574 -0.1457,3.33339 -0.37253,0.1009 -0.69991,0.0639 -0.97931,-0.10583 -0.27763,-0.16969 -0.46849,-0.45085 -0.57326,-0.84243 -0.13582,-0.50871 -0.0473,-1.10984 0.26987,-1.81399 0.31927,-0.6992 0.81033,-1.37512 1.46721,-2.02847 -1.12325,-0.0533 -1.79141,-0.47519 -2.00202,-1.264 -0.11112,-0.42228 -0.0699,-0.82762 0.12594,-1.21285 0.19685,-0.38735 0.64418,-0.91017 1.34268,-1.5748 1.78047,-1.64853 2.99155,-3.27519 3.63996,-4.88068 -0.35066,0.18344 -0.6283,0.30268 -0.83644,0.35771 -0.4452,0.11924 -0.83644,0.10901 -1.16664,-0.0303 -0.33196,-0.13935 -0.5408,-0.381 -0.63217,-0.72285 -0.0529,-0.20496 -0.0582,-0.4064 -0.006,-0.60501 0.0533,-0.19579 0.18062,-0.4445 0.3803,-0.74048 0.19826,-0.29669 0.50235,-0.71155 0.91581,-1.24319 0.65934,-0.85196 1.08232,-1.47038 1.2707,-1.84503 0.18768,-0.37571 0.29881,-0.84984 0.33796,-1.41323 0.0896,0.254 0.17322,0.52635 0.25012,0.81633 z m 0.49495,20.17536 c -0.27446,-0.0691 -0.44309,-0.22507 -0.51012,-0.47413 -0.11676,-0.43427 0.096,-0.74083 0.63677,-0.91863 0.36759,0.42439 0.61701,0.87806 0.74577,1.36384 -0.30974,0.0847 -0.60113,0.0935 -0.87242,0.0289 z m -6.9529,-21.81436 0.42228,1.58538 c -0.30727,0.0501 -0.56656,0.0219 -0.76976,-0.0773 -0.20532,-0.10266 -0.33338,-0.25541 -0.38912,-0.46143 -0.0607,-0.2279 -0.0229,-0.44027 0.11219,-0.63747 0.13793,-0.1972 0.34501,-0.33302 0.62441,-0.40922 z m 0.87383,-2.82854 c -0.84843,0.2268 -1.49225,0.6826 -1.93181,1.3645 -0.43885,0.68263 -0.5528,1.41712 -0.3436,2.20452 0.12735,0.46813 0.35207,0.82021 0.68968,1.06398 0.33655,0.24306 0.6992,0.31361 1.08197,0.21096 0.30092,-0.0808 0.51435,-0.25788 0.64135,-0.52917 0.12523,-0.27305 0.14534,-0.57961 0.0543,-0.91934 -0.0861,-0.32244 -0.25612,-0.56233 -0.50307,-0.7239 -0.25011,-0.16157 -0.53692,-0.19826 -0.86959,-0.11077 -0.18451,0.0494 -0.38206,0.15875 -0.59373,0.32491 -0.013,-1.21673 0.65793,-2.00479 2.01472,-2.36819 0.63041,-0.1683 1.25412,-0.175 1.87148,-0.033 0.61525,0.1482 1.14441,0.4269 1.59068,0.8393 0.44979,0.41415 0.75529,0.91439 0.91228,1.50353 0.16757,0.6223 0.16228,1.18322 -0.0116,1.68169 -0.17039,0.50483 -0.63853,1.23614 -1.41111,2.20839 -0.40252,0.53058 -0.71579,0.9585 -0.93486,1.28164 -0.21873,0.32315 -0.36336,0.61278 -0.43533,0.86219 -0.072,0.2533 -0.0663,0.5207 0.007,0.79834 0.13405,0.50024 0.39334,0.84737 0.78175,1.05092 0.38524,0.20038 0.84279,0.23002 1.37125,0.09 -0.70273,1.15076 -1.67146,2.30258 -2.90689,3.45476 -0.52634,0.51752 -0.9271,0.96484 -1.20473,1.34302 -0.27411,0.38135 -0.45368,0.74895 -0.53305,1.09996 -0.0766,0.35172 -0.0628,0.71685 0.0367,1.08903 0.2039,0.76694 0.72496,1.23825 1.55786,1.41393 -1.12747,1.30775 -1.53917,2.52413 -1.24283,3.64278 0.1404,0.51612 0.41204,0.89535 0.8255,1.13454 0.4131,0.23953 0.883,0.28681 1.39982,0.14957 0.0878,0.31645 0.20002,0.60749 0.33196,0.87913 -0.58349,1.30139 -0.8499,2.88078 -1.00146,4.18411 -0.15156,1.30332 -0.12934,2.05339 -0.12554,2.4578 v 0.593 c 0.003,0.59792 0.82075,0.60417 0.82075,0 v -0.59281 c 0,-2.01754 0.33867,-3.85727 1.05481,-5.56401 0.15169,0.15487 0.31468,0.2988 0.49248,0.42827 0.76376,0.55633 1.56457,0.72284 2.39183,0.50306 0.39299,-0.10619 0.74119,-0.30445 1.03822,-0.59655 0.29916,-0.29033 0.50342,-0.63535 0.60678,-1.03505 0.10442,-0.39934 0.10196,-0.80504 -0.0102,-1.21955 -0.12241,-0.4565 -0.32808,-0.79587 -0.61807,-1.02341 -0.28645,-0.2293 -0.60995,-0.29598 -0.97296,-0.19897 -0.27799,0.0734 -0.48577,0.23354 -0.61877,0.48296 -0.13547,0.24694 -0.16333,0.51188 -0.0854,0.80362 0.0914,0.34185 0.29915,0.58209 0.62442,0.72214 0.32632,0.14182 0.7186,0.15064 1.17404,0.0296 0.024,0.33832 -0.066,0.64453 -0.27093,0.91829 -0.20426,0.27763 -0.49142,0.46496 -0.86325,0.56479 -0.61172,0.1644 -1.20756,0.008 -1.784,-0.46355 -0.2734,-0.22613 -0.50306,-0.49389 -0.69532,-0.79728 0.47201,-0.92427 1.06292,-1.80975 1.78258,-2.66382 0.29634,-0.35137 0.0667,-0.44485 -0.363,-0.31115 -0.66146,0.20567 -1.26401,0.66146 -1.60197,1.11689 -0.12594,0.17004 -0.24165,0.34114 -0.35172,0.51259 -0.27446,-1.26824 -0.0476,-2.81411 0.69533,-4.64361 0.39722,1.36807 1.10419,2.14453 2.11772,2.32798 -0.57926,-0.2981 -0.99377,-0.91652 -1.24072,-1.84856 -0.16474,-0.6096 -0.20849,-1.23296 -0.13476,-1.86972 0.0773,-0.63253 0.28328,-1.39206 0.62653,-2.27013 0.35631,1.33633 1.05058,2.00766 2.08633,2.02213 -0.57467,-0.36795 -0.9779,-0.98849 -1.21144,-1.85703 -0.14464,-0.54821 -0.18944,-1.13524 -0.13194,-1.76106 0.0614,-0.62689 0.24801,-1.38183 0.55634,-2.2599 0.4512,1.44216 1.28869,2.16182 2.50578,2.15794 -0.82586,-0.31326 -1.40759,-1.0989 -1.7459,-2.36184 -0.19121,-0.71508 -0.24165,-1.60056 -0.15628,-2.65395 0.0339,-0.44238 0.078,-1.08091 0.12065,-1.91347 0.0751,-0.91863 -0.005,-1.82668 -0.24624,-2.72909 C 5.32608,5.962677 4.8403,5.096607 4.13792,4.356127 3.43589,3.618467 2.61851,3.106267 1.68118,2.818367 c -0.93769,-0.2907 -1.86902,-0.3094 -2.80071,-0.061"
     style="fill:#000000;fill-opacity:1;fill-rule:nonzero;stroke:none;stroke-width:0.0352778"
     id="path717"
     sodipodi:nodetypes="cccccccccccccccccccccccccccccccccccccccccccccccccccccccccccccccccczccssccccccccccccccccccccccccccccccccccccc"
     inkscape:path-effect="#path-effect2617"
     inkscape:original-d="m 7.225407,4.46502 c 2.24508,0.60008 5.11175,0.21238 8.59614,-1.16452 0.91264,-0.35524 1.6002,-0.61453 2.05458,-0.78387 2.21968,-0.8703 3.94088,-1.44286 5.16502,-1.71097 1.22519,-0.2667 2.33574,-0.31362 3.33339,-0.1457 0.1009,-0.37253 0.0639,-0.69991 -0.10583,-0.97931 -0.16969,-0.27763 -0.45085,-0.46849 -0.84243,-0.57326 -0.50871,-0.13582 -1.10984,-0.0473 -1.81399,0.26987 -0.6992,0.31927 -1.37512,0.81033 -2.02847,1.46721 -0.0533,-1.12325 -0.47519,-1.79141 -1.264,-2.00202 -0.42228,-0.11112 -0.82762,-0.0699 -1.21285,0.12594 -0.38735,0.19685 -0.91017,0.64418 -1.5748,1.34268 -1.64853,1.78047 -3.27519,2.99155 -4.88068,3.63996 0.18344,-0.35066 0.30268,-0.6283 0.35771,-0.83644 0.11924,-0.4452 0.10901,-0.83644 -0.0303,-1.16664 -0.13935,-0.33196 -0.381,-0.5408 -0.72285,-0.63217 -0.20496,-0.0529 -0.4064,-0.0582 -0.60501,-0.006 -0.19579,0.0533 -0.4445,0.18062 -0.74048,0.3803 -0.29669,0.19826 -0.71155,0.50235 -1.24319,0.91581 -0.85196,0.65934 -1.47038,1.08232 -1.84503,1.2707 -0.37571,0.18768 -0.84984,0.29881 -1.41323,0.33796 0.254,0.0896 0.52635,0.17322 0.81633,0.25012 z m 20.17536,0.49495 c -0.0691,-0.27446 -0.22507,-0.44309 -0.47413,-0.51012 -0.43427,-0.11676 -0.74083,0.096 -0.91863,0.63677 0.42439,0.36759 0.87806,0.61701 1.36384,0.74577 0.0847,-0.30974 0.0935,-0.60113 0.0289,-0.87242 z m -21.81436,-6.9529 1.58538,0.42228 c 0.0501,-0.30727 0.0219,-0.56656 -0.0773,-0.76976 -0.10266,-0.20532 -0.25541,-0.33338 -0.46143,-0.38912 -0.2279,-0.0607 -0.44027,-0.0229 -0.63747,0.11219 -0.1972,0.13793 -0.33302,0.34501 -0.40922,0.62441 z m -2.82854,0.87383 c 0.2268,-0.84843 0.6826,-1.49225 1.3645,-1.93181 0.68263,-0.43885 1.41712,-0.5528 2.20452,-0.3436 0.46813,0.12735 0.82021,0.35207 1.06398,0.68968 0.24306,0.33655 0.31361,0.6992 0.21096,1.08197 -0.0808,0.30092 -0.25788,0.51435 -0.52917,0.64135 -0.27305,0.12523 -0.57961,0.14534 -0.91934,0.0543 -0.32244,-0.0861 -0.56233,-0.25612 -0.7239,-0.50307 -0.16157,-0.25011 -0.19826,-0.53692 -0.11077,-0.86959 0.0494,-0.18451 0.15875,-0.38206 0.32491,-0.59373 -1.21673,-0.013 -2.00479,0.65793 -2.36819,2.01472 -0.1683,0.63041 -0.175,1.25412 -0.033,1.87148 0.1482,0.61525 0.4269,1.14441 0.8393,1.59068 0.41415,0.44979 0.91439,0.75529 1.50353,0.91228 0.6223,0.16757 1.18322,0.16228 1.68169,-0.0116 0.50483,-0.17039 1.23614,-0.63853 2.20839,-1.41111 0.53058,-0.40252 0.9585,-0.71579 1.28164,-0.93486 0.32315,-0.21873 0.61278,-0.36336 0.86219,-0.43533 0.2533,-0.072 0.5207,-0.0663 0.79834,0.007 0.50024,0.13405 0.84737,0.39334 1.05092,0.78175 0.20038,0.38524 0.23002,0.84279 0.09,1.37125 1.15076,-0.70273 2.30258,-1.67146 3.45476,-2.90689 0.51752,-0.52634 0.96484,-0.9271 1.34302,-1.20473 0.38135,-0.27411 0.74895,-0.45368 1.09996,-0.53305 0.35172,-0.0766 0.71685,-0.0628 1.08903,0.0367 0.76694,0.2039 1.23825,0.72496 1.41393,1.55786 1.30775,-1.12747 2.52413,-1.53917 3.64278,-1.24283 0.51612,0.1404 0.89535,0.41204 1.13454,0.8255 0.23953,0.4131 0.28681,0.883 0.14957,1.39982 0.31645,0.0878 0.60749,0.20002 0.87913,0.33196 1.30139,-0.58349 2.88078,-0.8499 4.18411,-1.00146 1.30332,-0.15156 2.05339,-0.12934 2.4578,-0.12554 h 0.593 c 0.59792,0.003 0.60417,0.82075 0,0.82075 h -0.59281 c -2.01754,0 -3.85727,0.33867 -5.56401,1.05481 0.15487,0.15169 0.2988,0.31468 0.42827,0.49248 0.55633,0.76376 0.72284,1.56457 0.50306,2.39183 -0.10619,0.39299 -0.30445,0.74119 -0.59655,1.03822 -0.29033,0.29916 -0.63535,0.50342 -1.03505,0.60678 -0.39934,0.10442 -0.80504,0.10196 -1.21955,-0.0102 -0.4565,-0.12241 -0.79587,-0.32808 -1.02341,-0.61807 -0.2293,-0.28645 -0.29598,-0.60995 -0.19897,-0.97296 0.0734,-0.27799 0.23354,-0.48577 0.48296,-0.61877 0.24694,-0.13547 0.51188,-0.16333 0.80362,-0.0854 0.34185,0.0914 0.58209,0.29915 0.72214,0.62442 0.14182,0.32632 0.15064,0.7186 0.0296,1.17404 0.33832,0.024 0.64453,-0.066 0.91829,-0.27093 0.27763,-0.20426 0.46496,-0.49142 0.56479,-0.86325 0.1644,-0.61172 0.008,-1.20756 -0.46355,-1.784 -0.22613,-0.2734 -0.49389,-0.50306 -0.79728,-0.69532 -0.92427,0.47201 -1.80975,1.06292 -2.66382,1.78258 -0.35137,0.29634 -0.44485,0.0667 -0.31115,-0.363 0.20567,-0.66146 0.66146,-1.26401 1.11689,-1.60197 0.17004,-0.12594 0.34114,-0.24165 0.51259,-0.35172 -1.26824,-0.27446 -2.81411,-0.0476 -4.64361,0.69533 1.36807,0.39722 2.14453,1.10419 2.32798,2.11772 -0.2981,-0.57926 -0.91652,-0.99377 -1.84856,-1.24072 -0.6096,-0.16474 -1.23296,-0.20849 -1.86972,-0.13476 -0.63253,0.0773 -1.39206,0.28328 -2.27013,0.62653 1.33633,0.35631 2.00766,1.05058 2.02213,2.08633 -0.36795,-0.57467 -0.98849,-0.9779 -1.85703,-1.21144 -0.54821,-0.14464 -1.13524,-0.18944 -1.76106,-0.13194 -0.62689,0.0614 -1.38183,0.24801 -2.2599,0.55634 1.44216,0.4512 2.16182,1.28869 2.15794,2.50578 -0.31326,-0.82586 -1.0989,-1.40759 -2.36184,-1.7459 -0.71508,-0.19121 -1.60056,-0.24165 -2.65395,-0.15628 -0.44238,0.0339 -1.08091,0.078 -1.91347,0.12065 -0.91863,0.0751 -1.82668,-0.005 -2.72909,-0.24624 C 5.962677,5.32608 5.096607,4.8403 4.356127,4.13792 3.618467,3.43589 3.106267,2.61851 2.818367,1.68118 c -0.2907,-0.93769 -0.3094,-1.86902 -0.061,-2.80071"
     class="UnoptimicedTransforms" />
</svg>
