<?xml version="1.0" encoding="UTF-8" standalone="no"?>
<svg
   width="1000"
   height="1008.1722"
   viewBox="0 0 1000 1008.1722"
   version="1.1"
   id="svg1173"
   sodipodi:docname="style22.svg"
   inkscape:version="1.4 (e7c3feb1, 2024-10-09)"
   inkscape:export-filename="style22.png"
   inkscape:export-xdpi="1745.9977"
   inkscape:export-ydpi="1745.9977"
   xmlns:inkscape="http://www.inkscape.org/namespaces/inkscape"
   xmlns:sodipodi="http://sodipodi.sourceforge.net/DTD/sodipodi-0.dtd"
   xmlns="http://www.w3.org/2000/svg"
   xmlns:svg="http://www.w3.org/2000/svg">
  <defs
     id="defs5621" />
  <sodipodi:namedview
     id="namedview5619"
     pagecolor="#ffffff"
     bordercolor="#666666"
     borderopacity="1.0"
     inkscape:showpageshadow="2"
     inkscape:pageopacity="0.0"
     inkscape:pagecheckerboard="0"
     inkscape:deskcolor="#d1d1d1"
     showgrid="false"
     inkscape:zoom="12.152538"
     inkscape:cx="30.652033"
     inkscape:cy="23.65761"
     inkscape:current-layer="svg1173"
     inkscape:window-width="2144"
     inkscape:window-height="1306"
     inkscape:window-x="0"
     inkscape:window-y="25"
     inkscape:window-maximized="0" />
  <g
     id="g2647"
     transform="matrix(18.187476,0,0,18.187476,-3199.4064,-8851.7542)"
     style="fill:#000000">
    <path
       d="m 181.07737,505.30695 c 2.19675,-0.0303 3.11715,-2.10574 1.97132,-3.92748 -0.96237,-1.52929 -3.14713,-1.74237 -4.70852,-1.20721 -2.01295,0.68933 -2.89807,3.02366 -2.18158,4.94313 0.71579,1.91946 2.98415,3.03036 4.9209,3.11467 2.18228,0.0942 4.43124,-0.53128 6.1087,-1.96109 2.08139,-1.77341 2.37843,-5.10152 2.05175,-7.61929 -0.65158,-5.02356 -4.74662,-8.1146 -9.58144,-8.6801 -0.9077,-0.10548 -0.33126,0.5147 0.23601,0.58138 3.42653,0.4004 6.47347,2.53964 7.57802,5.87833 1.1497,3.47804 0.80856,8.26523 -2.68958,10.2489 -1.55575,0.88195 -3.79166,1.36208 -5.46065,0.58597 -1.61149,-0.7486 -2.33892,-2.49273 -2.01648,-4.1656 0.28187,-1.46685 2.12972,-3.1556 3.71616,-2.48427 1.77342,0.75036 1.66406,4.06577 -0.50447,4.09576 -0.86607,0.012 0.15487,0.60254 0.55986,0.5969 v 0"
       style="fill:#000000;fill-opacity:1;fill-rule:nonzero;stroke:none;stroke-width:0.0352778"
       id="path477" />
    <path
       d="m 194.5436,491.86011 c -0.0296,2.19675 -2.10573,3.11715 -3.92747,1.97097 -1.52929,-0.96202 -1.74202,-3.14713 -1.20721,-4.70852 0.68933,-2.0126 3.02366,-2.89772 4.94313,-2.18193 1.91946,0.71649 3.03071,2.98485 3.11467,4.9216 0.0949,2.18158 -0.53058,4.43124 -1.96038,6.10835 -1.77307,2.08174 -5.10223,2.37913 -7.61965,2.05211 -5.02356,-0.65194 -8.1146,-4.74698 -8.67975,-9.5811 -0.10583,-0.90805 0.51435,-0.33231 0.58103,0.23566 0.40005,3.42653 2.53929,6.47312 5.87833,7.57767 3.47769,1.15005 8.26524,0.80856 10.24855,-2.68923 0.88195,-1.55575 1.36278,-3.79165 0.58702,-5.461 -0.7493,-1.61149 -2.49343,-2.33856 -4.1663,-2.01612 -1.4672,0.28187 -3.15525,2.12972 -2.48426,3.7158 0.75,1.77377 4.06576,1.66406 4.09575,-0.50447 0.0116,-0.86571 0.60254,0.15487 0.59654,0.56021 v 0"
       style="fill:#000000;fill-opacity:1;fill-rule:nonzero;stroke:none;stroke-width:0.0352778"
       id="path479" />
    <path
       d="m 230.53012,489.82706 c 0,0 -9.02512,-0.41064 -12.22164,-0.40887 -3.45017,0.002 -7.10424,0.18062 -10.38049,0.89782 -3.52001,0.77117 -6.59341,0.2032 -9.29498,-1.4277 -0.85373,-0.5147 -0.71438,-0.92286 0.19473,-0.63323 2.15759,0.87312 5.61622,1.10349 9.11401,0.86219 3.34645,-0.23107 7.38399,-0.42051 10.57734,-0.2847 3.1937,0.13582 12.03113,0.51189 12.03113,0.51189 0.42757,0.018 0.49918,0.50447 -0.0201,0.4826"
       style="fill:#000000;fill-opacity:1;fill-rule:nonzero;stroke:none;stroke-width:0.0352778"
       id="path481" />
    <path
       d="m 213.19179,492.09189 c 1.15323,-0.49072 2.54177,-0.87489 5.99087,-0.95356 3.19547,-0.0723 11.35098,0.13794 11.35098,0.13794 0.52,0.0106 0.43745,-0.47449 0.01,-0.4826 0,0 -7.96714,-0.18063 -11.1633,-0.24518 -3.19511,-0.0649 -6.75076,0.33549 -8.56086,0.93627 -0.32738,0.1083 -0.17145,0.28293 0.34078,0.49988 0.51224,0.21732 1.15253,0.48155 2.032,0.10725"
       style="fill:#000000;fill-opacity:1;fill-rule:nonzero;stroke:none;stroke-width:0.0352778"
       id="path483" />
    <path
       d="m 181.85877,524.42468 c -0.49106,1.15327 -0.87524,2.54176 -0.95355,5.99087 -0.0723,3.19582 0.13758,11.35105 0.13758,11.35105 0.0109,0.51993 -0.47414,0.43738 -0.4826,0.009 0,0 -0.18062,-7.96713 -0.24483,-11.16334 -0.0653,-3.19514 0.33514,-6.75075 0.93592,-8.56078 0.10866,-0.32745 0.28293,-0.17117 0.49989,0.34064 0.21731,0.51234 0.48154,1.15302 0.10759,2.03207"
       style="fill:#000000;fill-opacity:1;fill-rule:nonzero;stroke:none;stroke-width:0.0352778"
       id="path485" />
    <path
       d="m 202.01756,501.81797 c -1.07421,-1.52012 -0.1577,-3.22686 1.6196,-3.38631 1.4919,-0.13335 2.72027,1.25236 3.14325,2.59927 0.5461,1.73637 -0.5581,3.55353 -2.18581,4.058 -1.62843,0.50482 -3.49286,-0.47378 -4.51379,-1.75578 -1.14865,-1.44639 -1.85456,-3.31117 -1.74379,-5.20135 0.13794,-2.34597 2.19428,-4.27496 4.02379,-5.35658 3.6509,-2.15865 7.73747,-0.95603 10.51913,2.06269 0.52211,0.56621 -0.17569,0.49389 -0.50271,0.13935 -1.97132,-2.13995 -4.90538,-3.11785 -7.66586,-2.14313 -2.87585,1.016 -5.87587,3.73239 -5.44654,7.15716 0.1905,1.52259 0.98566,3.30376 2.33116,4.0446 1.29787,0.71508 2.81552,0.30903 3.76237,-0.77894 0.83115,-0.95356 1.02835,-3.09527 -0.20496,-3.83399 -1.38078,-0.8255 -3.52178,0.96873 -2.46133,2.47015 0.42333,0.59867 -0.47625,0.20673 -0.67451,-0.0751 v 0"
       style="fill:#000000;fill-opacity:1;fill-rule:nonzero;stroke:none;stroke-width:0.0352778"
       id="path487" />
    <path
       d="m 179.51562,541.73337 c 0,0 -0.41028,-9.02476 -0.40851,-12.22167 0.002,-3.4502 0.18027,-7.1042 0.89746,-10.3801 0.77118,-3.52033 0.20356,-6.59412 -1.42734,-9.29569 -0.5147,-0.85302 -0.92322,-0.71367 -0.63358,0.19508 0.87312,2.15794 1.10384,5.61626 0.86218,9.11469 -0.23142,3.34546 -0.42051,7.38339 -0.28469,10.57698 0.13617,3.19335 0.51188,12.03152 0.51188,12.03152 0.0184,0.42694 0.50412,0.49887 0.4826,-0.0208"
       style="fill:#000000;fill-opacity:1;fill-rule:nonzero;stroke:none;stroke-width:0.0352778"
       id="path489" />
    <path
       d="m 191.50654,513.22081 c -1.51977,-1.07421 -3.22686,-0.15769 -3.38631,1.6196 -0.13335,1.49158 1.25271,2.72024 2.59962,3.14399 1.73566,0.54572 3.55282,-0.5588 4.05765,-2.18694 0.50447,-1.62842 -0.47308,-3.49281 -1.75613,-4.51305 -1.44568,-1.149 -3.30976,-1.8549 -5.20136,-1.74413 -2.34526,0.13793 -4.27425,2.19463 -5.35658,4.02421 -2.15864,3.65015 -0.95567,7.73669 2.0627,10.51912 0.56691,0.52197 0.49389,-0.17571 0.13934,-0.50246 -2.13924,-1.97195 -3.11749,-4.90565 -2.14277,-7.66656 1.016,-2.87617 3.73239,-5.87584 7.15716,-5.44615 1.52294,0.19014 3.30376,0.98531 4.04565,2.3308 0.71403,1.29787 0.30833,2.81481 -0.77928,3.76234 -0.95462,0.83083 -3.09528,1.0287 -3.83505,-0.20493 -0.8248,-1.38077 0.96908,-3.52143 2.4705,-2.46172 0.59867,0.42334 0.20638,-0.47554 -0.0751,-0.67412 v 0"
       style="fill:#000000;fill-opacity:1;fill-rule:nonzero;stroke:none;stroke-width:0.0352778"
       id="path491" />
  </g>
</svg>
