<?xml version="1.0" encoding="UTF-8" standalone="no"?>
<svg
   width="1000"
   height="1006.5649"
   viewBox="0 0 1000 1006.5649"
   version="1.1"
   id="svg1173"
   sodipodi:docname="style33.svg"
   inkscape:version="1.4 (e7c3feb1, 2024-10-09)"
   inkscape:export-filename="style33.png"
   inkscape:export-xdpi="1803.0656"
   inkscape:export-ydpi="1803.0656"
   xmlns:inkscape="http://www.inkscape.org/namespaces/inkscape"
   xmlns:sodipodi="http://sodipodi.sourceforge.net/DTD/sodipodi-0.dtd"
   xmlns="http://www.w3.org/2000/svg"
   xmlns:svg="http://www.w3.org/2000/svg">
  <defs
     id="defs1175" />
  <sodipodi:namedview
     id="namedview1173"
     pagecolor="#ffffff"
     bordercolor="#666666"
     borderopacity="1.0"
     inkscape:showpageshadow="2"
     inkscape:pageopacity="0.0"
     inkscape:pagecheckerboard="0"
     inkscape:deskcolor="#d1d1d1"
     showgrid="false"
     inkscape:zoom="2.3034279"
     inkscape:cx="82.702827"
     inkscape:cy="134.7991"
     inkscape:current-layer="svg1173"
     inkscape:window-width="2256"
     inkscape:window-height="1124"
     inkscape:window-x="0"
     inkscape:window-y="25"
     inkscape:window-maximized="0" />
  <g
     id="g2730"
     transform="matrix(18.781933,0,0,18.781933,-591.09363,-13299.323)"
     style="fill:#000000">
    <path
       d="m 34.00174,722.98461 c -2.90477,-2.50578 -2.921,-7.7283 -0.75071,-10.65742 2.26201,-3.05364 6.07343,-4.60516 9.85309,-4.07776 4.29683,0.60008 7.09259,3.50979 10.52054,5.87375 2.3308,1.60726 4.86022,2.94041 7.63622,3.60716 2.77319,0.66569 6.5973,0.30938 8.02429,-2.61726 0.60537,-1.24249 0.87524,-2.90054 0.18415,-4.18324 -0.31574,-0.58526 -0.71297,-1.34303 -1.28552,-1.71309 -1.41711,-0.91475 -2.81552,-0.40922 -3.61915,0.76376 -0.70379,1.02694 -1.26118,2.63984 -0.26423,3.7465 1.46544,1.62737 3.19017,0.13406 3.21098,-1.15993 -0.23389,0.0995 -0.51541,0.13547 -0.80539,0.0759 -0.64982,-0.13441 -1.09185,-0.66957 -0.98319,-1.19592 0.10689,-0.52634 0.72213,-0.84667 1.37195,-0.71473 0.15593,0.0317 0.29633,0.0878 0.42369,0.15946 0.84702,0.3182 1.7085,1.00506 1.44956,2.03341 -0.37253,1.47391 -1.48413,2.27577 -3.01907,2.1911 -1.16276,-0.0639 -2.81834,-0.36442 -3.28154,-1.63865 -1.19415,-3.28366 2.07539,-6.16091 5.30931,-5.19783 3.64313,1.0862 4.20299,5.50722 1.89124,8.11707 2.8074,-0.82127 3.92289,-3.86927 6.12669,-5.56119 1.4224,-1.09114 2.90124,-1.77694 4.71346,-1.65912 3.42018,0.22049 5.76298,5.47935 2.30223,7.37518 -1.22872,0.67345 -2.53224,0.81632 -3.8862,0.47907 -1.3522,-0.33549 -2.65783,-1.92229 -2.10679,-3.36762 0.50836,-1.33315 1.74484,-2.29059 3.22439,-2.13783 1.14723,0.11783 2.24649,1.25694 1.40547,2.33962 -0.37818,0.50941 -1.02024,0.67698 -1.43369,0.37006 -0.41381,-0.30656 -0.44309,-0.96767 -0.066,-1.47849 0.0787,-0.10477 0.16863,-0.19085 0.26352,-0.26529 -0.30797,-0.48577 -0.89146,-0.70837 -1.50777,3.6e-4 -0.46919,0.54045 -0.89041,1.27141 -0.72354,2.02247 0.381,1.70533 2.58162,3.08716 4.1402,1.63442 1.88595,-1.75754 1.25624,-5.08741 -1.1176,-6.12352 -3.14572,-1.3716 -5.26804,2.20416 -7.00264,4.12927 -1.21991,1.35184 -2.53895,2.42005 -4.35117,2.78624 -0.17145,0.0342 -0.363,0.0159 -0.51364,-0.0293 -2.7305,2.3876 -7.05062,1.98649 -10.21574,0.8897 -1.51589,-0.52564 -2.90548,-1.1871 -4.22981,-1.93781 1.10314,2.2733 1.68064,5.56931 -0.0325,7.42492 -1.69016,1.83127 -4.37303,1.70921 -6.28509,0.29633 -2.24014,-1.65488 -1.55787,-5.59047 1.19345,-6.084 2.04752,-0.36689 3.77331,1.15922 3.27307,3.21521 -0.16933,0.80116 -0.83256,1.34091 -1.48131,1.20333 -0.64841,-0.13688 -1.03823,-0.89606 -0.86925,-1.69722 0.11748,-0.56091 0.47978,-0.98742 0.9084,-1.14864 -0.23248,-0.76976 -0.86218,-1.29893 -1.81645,-0.52952 -0.51258,0.4124 -0.9398,0.95638 -1.03752,1.63019 -0.14358,0.99095 -0.0501,2.32868 0.71332,3.09915 0.93063,0.94015 2.54776,0.82938 3.48086,0.0339 2.43734,-2.07997 1.66123,-6.18454 0.0684,-8.5926 -1.75825,-1.14442 -3.44312,-2.42182 -5.20524,-3.72216 -2.69134,-1.98579 -6.16832,-3.01449 -9.37895,-1.54693 -2.21721,1.01494 -4.28061,2.96227 -4.91067,5.39891 -0.58208,2.25002 -0.39652,4.93642 0.97543,6.89328 1.73073,2.46909 6.0706,3.63502 8.30228,1.0481 1.46473,-1.69827 1.90182,-4.65526 0.70167,-6.65868 -0.87595,-1.46191 -3.40607,-2.49626 -4.54096,-0.65793 -0.2995,0.48683 -0.45049,0.97966 -0.48859,1.47814 0.59337,-0.0236 1.21144,0.40428 1.49648,1.10313 0.34749,0.8502 0.0709,1.76707 -0.61842,2.04788 -0.68897,0.28222 -1.52859,-0.17886 -1.87607,-1.02905 -0.35102,-0.74013 -0.6544,-1.61961 -0.46038,-2.45252 0.61772,-2.65782 4.49545,-3.59833 6.63681,-2.02177 2.68711,1.97874 2.73403,7.27146 -0.25435,9.06322 -2.8321,1.69474 -6.84812,1.51447 -9.38213,-0.6731 z m 3.2184,31.97571 c 1.10701,0.54585 2.77354,2.58491 1.07808,3.57586 -0.89429,0.52172 -1.91558,0.57079 -2.76154,-0.0653 -0.009,-0.007 -0.006,-0.0131 -0.0141,-0.0197 -0.49989,-0.42125 -0.63782,-1.09086 -0.29986,-1.50248 0.34008,-0.4167 1.03258,-0.41381 1.54728,0.004 0.39017,0.31863 0.56339,0.78468 0.47837,1.1745 0.27305,-0.16189 0.4378,-0.42898 0.46602,-0.83439 0.0155,-0.63955 -0.21132,-1.17546 -0.67945,-1.60581 -1.14336,-0.84875 -2.4511,-0.25192 -2.96827,0.78285 -0.46779,0.93377 -0.61666,2.09201 -0.091,3.0529 1.72896,3.15627 6.16303,0.91931 5.91079,-2.22994 -0.37183,-4.6386 -6.344,-5.82743 -7.23971,-10.21637 -0.0568,-0.2738 1.161,-0.3077 1.24214,0.091 0.93309,4.57136 9.01065,6.47523 6.86752,11.99374 -1.05269,2.71004 -5.82648,3.50312 -7.58084,1.05159 -1.96885,-2.74948 0.73095,-6.88827 4.0446,-5.25254 z M 38.69122,732.94 c 1.00542,-1.44004 1.81046,-3.20428 0.9592,-4.93148 -1.04528,-2.12196 -4.16313,-3.78213 -5.90444,-1.34902 -0.79128,1.10384 -1.18921,2.80105 -0.40005,4.03895 0.92604,1.45203 2.90548,1.9491 3.85516,0.15063 0.32702,-0.47519 0.41133,-0.98707 0.25188,-1.53705 -0.0857,-0.31715 -0.24377,-0.5087 -0.45826,-0.59937 0.22543,0.53446 -0.03,1.23508 -0.63535,1.6503 -0.67522,0.46072 -1.52718,0.39229 -1.90183,-0.15523 -0.37429,-0.5468 -0.13052,-1.36489 0.54469,-1.82774 1.13559,-0.9017 4.07106,-0.4579 3.98851,1.43157 -0.10619,2.41653 -2.88114,3.43394 -4.91279,2.70934 -2.19815,-0.78423 -3.30693,-3.46322 -2.12795,-5.53791 1.10772,-1.95086 3.65972,-2.61443 5.74181,-1.91452 2.45886,0.8255 4.62703,3.52742 3.48756,6.21771 -1.33632,3.15143 -4.23051,4.58293 -6.34577,7.07072 -1.15817,1.36271 -1.96991,2.98274 -1.58362,4.81263 0.47167,2.2345 3.21275,5.40883 5.70054,2.89102 1.20897,-1.22316 1.72015,-3.22118 0.95497,-4.85278 -1.49437,-3.18562 -3.80894,-0.82808 -3.93594,0.97222 0.28469,-0.15946 0.65228,-0.22186 1.03328,-0.14679 0.7366,0.14746 1.23614,0.75064 1.11549,1.34761 -0.10901,0.55136 -0.71261,0.89997 -1.38642,0.83259 -0.0547,-0.004 -0.10865,-0.007 -0.16228,-0.0185 -2.13219,-0.43286 -2.89807,-3.4272 -0.762,-4.54589 1.53706,-0.80353 4.07847,-0.82046 5.12692,0.84254 1.19804,1.89935 1.04564,4.99663 -1.06115,6.24515 -1.77836,1.05445 -4.32859,0.96421 -6.00569,-0.31778 -1.95192,-1.49158 -2.85397,-4.40793 -1.61996,-6.65868 1.55081,-2.82925 4.62386,-4.21542 6.44349,-6.82029"
       style="fill:#000000;fill-opacity:1;fill-rule:nonzero;stroke:none;stroke-width:0.0352778"
       id="path254" />
  </g>
</svg>
