<?xml version="1.0" encoding="UTF-8" standalone="no"?>
<svg
   width="1000"
   height="1003.3643"
   viewBox="0 0 1000 1003.3643"
   version="1.1"
   id="svg1173"
   sodipodi:docname="style15.svg"
   inkscape:version="1.4 (e7c3feb1, 2024-10-09)"
   inkscape:export-filename="style15.png"
   inkscape:export-xdpi="1561.1694"
   inkscape:export-ydpi="1561.1694"
   xmlns:inkscape="http://www.inkscape.org/namespaces/inkscape"
   xmlns:sodipodi="http://sodipodi.sourceforge.net/DTD/sodipodi-0.dtd"
   xmlns="http://www.w3.org/2000/svg"
   xmlns:svg="http://www.w3.org/2000/svg">
  <defs
     id="defs3349" />
  <sodipodi:namedview
     id="namedview3347"
     pagecolor="#ffffff"
     bordercolor="#666666"
     borderopacity="1.0"
     inkscape:showpageshadow="2"
     inkscape:pageopacity="0.0"
     inkscape:pagecheckerboard="0"
     inkscape:deskcolor="#d1d1d1"
     showgrid="false"
     inkscape:zoom="6.0217523"
     inkscape:cx="9.8808448"
     inkscape:cy="975.96176"
     inkscape:current-layer="svg1173"
     inkscape:window-width="2040"
     inkscape:window-height="1095"
     inkscape:window-x="0"
     inkscape:window-y="25"
     inkscape:window-maximized="0" />
  <g
     id="g3526"
     style="fill:#000000"
     transform="matrix(16.262181,0,0,16.262181,30.193053,33.557301)">
    <path
       d="m 0.18176,10.97123 c 0.14111,0.14181 0.29351,0.26599 0.4565,0.37853 0.16404,0.10901 0.248,0.16686 0.25153,0.1718 0.01,0.009 0.0279,0.0314 0.0543,0.0653 0.0307,0.0314 0.0579,0.0586 0.079,0.0811 0.22084,0.21943 0.38453,0.27764 0.49036,0.1718 0.14217,-0.14217 0.0815,-0.3429 -0.17851,-0.60325 C 1.19348,11.09505 0.99204,10.95323 0.73169,10.81177 0.47205,10.67066 0.31153,10.57117 0.25403,10.51508 0.15733,10.41698 0.12809,10.25191 0.16553,10.02014 0.20293,9.78907 0.27701,9.61797 0.38743,9.5072 0.821,9.07363 1.56007,8.85985 2.60782,8.86338 c 1.08655,0.009 2.40947,0.254 3.96945,0.73624 0.56515,0.1771 1.13312,0.41346 1.70356,0.70838 0.48507,0.25682 0.88971,0.49812 1.21285,0.7232 0.10972,0.0751 0.18133,0.11782 0.21167,0.13229 0.0709,0.018 0.15381,0 0.25153,-0.0522 -0.0127,-0.0586 -0.0374,-0.10548 -0.0727,-0.14006 C 9.85768,10.94443 9.7533,10.87633 9.57268,10.76592 9.32079,10.60223 9.0996,10.45689 8.9091,10.32847 8.6491,10.11116 8.12558,9.74251 7.33924,9.22322 5.86886,8.35186 4.5142,7.88937 3.27665,7.83681 2.07544,7.79161 1.11165,8.13279 0.3874,8.85633 0.04274,9.20205 -0.146,9.57247 -0.17987,9.96758 c -0.0332,0.39476 0.0871,0.72919 0.3616,1.00365 z M 4.09195,6.94215 c 0.0579,0.0564 0.27799,0.15417 0.66252,0.29069 0.53904,0.18697 1.01635,0.37571 1.43157,0.5708 0.35278,0.16827 0.79093,0.45014 1.31198,0.84878 0.25647,0.19367 0.81774,0.6484 1.68381,1.3649 0.17639,0.14957 0.35489,0.29809 0.53622,0.44379 0.12841,0.10125 0.21237,0.133 0.25224,0.0931 0.0533,-0.0536 -0.0466,-0.20567 -0.29881,-0.45755 C 9.61888,10.04376 9.54202,9.97001 9.44006,9.87758 9.33846,9.78448 9.26332,9.71354 9.21499,9.66521 L 9.16209,9.61331 C 8.50346,8.95432 7.98382,8.38317 7.60493,7.8974 7.27791,7.47124 7.14068,7.23347 7.19324,7.1802 c 0.0487,-0.049 0.14605,0 0.29175,0.14676 -0.0131,-0.0141 0.0639,0.0769 0.23213,0.27093 0.19473,0.22119 0.41522,0.45932 0.66216,0.71508 0.14993,0.15946 0.36689,0.41063 0.64982,0.75671 0.26564,0.31785 0.47307,0.55104 0.623,0.70203 0.5521,0.55245 0.84843,0.80892 0.8883,0.76905 l 0.0123,-0.0138 C 10.6374,10.44336 10.571,10.27049 10.3548,10.00979 10.02742,9.62985 9.69581,9.24991 9.35996,8.87032 8.94968,8.38842 8.6096,7.88924 8.34043,7.37207 8.24733,7.19251 7.9485,6.50882 7.44508,5.32455 7.10042,4.5121 6.90428,4.08171 6.85489,4.03268 c -0.061,-0.061 -0.14711,-0.0928 -0.25788,-0.0928 -0.11042,0 -0.1905,0.0243 -0.23919,0.0734 -0.0349,0.0353 -0.0691,0.13299 -0.10301,0.29421 -0.0314,0.16087 -0.0653,0.25718 -0.0956,0.28787 -0.0268,0.0265 -0.0995,0.0296 -0.21872,0.007 C 5.7775,4.57126 5.61311,4.54066 5.45083,4.50856 5.00421,4.43376 4.73258,4.44506 4.63591,4.54206 4.55971,4.61616 4.52056,4.70575 4.51562,4.8077 c 7e-4,0.0533 0.012,0.17392 0.0335,0.36513 0.005,0.03 0.0356,0.23706 0.0924,0.6223 0.0272,0.15028 0.0293,0.2353 0.007,0.25823 -0.0265,0.0261 -0.12311,0.0554 -0.29174,0.0868 -0.16828,0.0303 -0.26776,0.061 -0.29845,0.0924 -0.0843,0.0836 -0.12242,0.19967 -0.11607,0.34749 0.007,0.14781 0.0565,0.26846 0.14958,0.36159 z m 6.59377,3.18629 c 0.0755,0.0755 0.15064,0.0765 0.22543,0.002 0.0582,-0.0579 0.0748,-0.12382 0.0536,-0.20002 -0.0148,-0.0476 -0.0603,-0.14288 -0.1397,-0.28434 C 10.18899,8.50625 9.70992,7.39959 9.38677,6.32609 8.95462,4.90263 8.72179,3.68096 8.69074,2.66037 8.66004,1.72022 8.8001,1.0951 9.10878,0.78571 9.29823,0.59627 9.51448,0.50349 9.75437,0.5109 c 0.2413,0.006 0.4632,0.11077 0.66675,0.31467 0.0519,0.0522 0.11112,0.145 0.17603,0.27376 0.0631,0.13194 0.11713,0.21837 0.16158,0.26176 0.0533,0.0533 0.14922,0.11113 0.28857,0.17039 0.13829,0.0589 0.22048,0.0776 0.242,0.0568 0.0709,-0.0716 0.0571,-0.22119 -0.0406,-0.4512 C 11.13899,0.86862 10.95343,0.60262 10.69273,0.34192 10.52904,0.17893 10.35018,0.08368 10.15615,0.05652 9.91662,0.02092 9.65627,0.05152 9.37334,0.14962 9.10417,0.23362 8.89215,0.35247 8.73763,0.50769 8.37074,0.87458 8.11427,1.37341 7.96893,2.00453 7.82747,2.65928 7.819,3.40117 7.94243,4.23161 c 0.1718,1.13595 0.6029,2.25143 1.29223,3.3461 0.36653,0.58879 0.70837,1.18675 1.02658,1.79635 0.248,0.46778 0.38911,0.71966 0.42439,0.75459"
       style="fill:#000000;fill-opacity:1;fill-rule:nonzero;stroke:none;stroke-width:0.0352778"
       id="path431" />
    <path
       d="m -1.66468,7.95357 c 0.1905,0.1905 0.44733,0.28187 0.77294,0.27481 0.32491,-0.006 0.68333,-0.127 1.07597,-0.36054 C 2.46035,6.52905 3.67073,5.78681 3.81608,5.64076 3.98894,5.46895 4.03092,5.33842 3.94237,5.24988 3.87177,5.17858 3.6725,5.18318 3.34618,5.26368 3.20824,5.29548 2.75563,5.42419 1.98763,5.65456 0.5296,6.08671 -0.21547,6.31072 -0.2458,6.32448 c -0.63183,0.21625 -1.08092,0.45579 -1.34585,0.72143 -0.32703,0.32703 -0.35137,0.62936 -0.073,0.9077 z m 0.53023,-2.5453 c 0.1464,0.14641 0.43039,0.20673 0.85513,0.17992 0.22966,-0.018 0.76941,-0.0974 1.61643,-0.23848 1.61325,-0.27022 2.48567,-0.47095 2.61832,-0.60254 0.0674,-0.0674 0.0755,-0.1644 0.0268,-0.29281 L 3.71694,4.34853 C 3.17789,4.33953 2.57888,4.31073 1.92095,4.26283 1.21398,4.20923 0.80052,4.18173 0.68199,4.17713 -0.29026,4.14923 -0.9489,4.30942 -1.29356,4.65444 -1.49183,4.8527 -1.43926,5.10423 -1.13446,5.40832 Z M 1.41719,2.24739 c 0.0617,0.0621 0.254,0.19261 0.57714,0.39158 0.37995,0.22048 0.75954,0.44062 1.13912,0.66216 0.43745,0.25259 0.77894,0.48154 1.0213,0.68898 0.13652,0.11924 0.22754,0.18944 0.27163,0.20602 0.0575,0.0303 0.11042,0.0219 0.15875,-0.0261 0.0483,-0.049 0.0596,-0.0995 0.0332,-0.1531 -0.004,-0.003 -0.0526,-0.0709 -0.1457,-0.19827 C 4.2472,3.50504 3.89866,2.97905 3.42594,2.24069 3.08057,1.69318 2.81351,1.32417 2.62337,1.13438 2.39759,0.9093 2.16088,0.7883 1.91076,0.77349 1.6617,0.75799 1.44121,0.84479 1.25071,1.0356 1.10113,1.18482 1.04116,1.37568 1.07256,1.60463 1.10326,1.83394 1.21861,2.04984 1.41722,2.24739 Z m 3.55283,1.48519 c 0.0882,0.0886 0.1778,0.0854 0.27093,-0.007 0.0395,-0.0399 0.0864,-0.28116 0.1397,-0.72214 0.066,-0.52528 0.115,-1.16698 0.14464,-1.92228 0.0275,-0.49389 0.0501,-0.9899 0.067,-1.48414 -0.005,-0.375 -0.0907,-0.64735 -0.25824,-0.81456 -0.12876,-0.12877 -0.28751,-0.19368 -0.48048,-0.19615 -0.19262,-0.002 -0.35913,0.0674 -0.50095,0.20955 -0.22083,0.21978 -0.32279,0.52106 -0.30444,0.901 0.005,0.17251 0.0804,0.58667 0.22472,1.24601 0.38452,1.77976 0.6163,2.70968 0.69709,2.78977 z m 0.80786,-0.0663 c 0.0931,0.0921 0.17744,0.10195 0.25223,0.0265 C 6.10561,3.61768 6.21532,3.43208 6.36102,3.13574 6.53847,2.77344 6.71732,2.40867 6.89865,2.04213 7.53859,0.76578 7.92947,-0.08935 8.07093,-0.52221 8.27837,-1.16321 8.24838,-1.61829 7.97783,-1.88675 7.69561,-2.17003 7.35553,-2.11288 6.9576,-1.71495 6.79885,-1.55691 6.64221,-1.15192 6.48734,-0.5021 6.3681,0.01437 6.20971,0.88008 6.01074,2.09576 5.99244,2.18396 5.92364,2.5526 5.80401,3.20277 5.75181,3.47617 5.74191,3.63069 5.77791,3.66632"
       style="fill:#000000;fill-opacity:1;fill-rule:nonzero;stroke:none;stroke-width:0.0352778"
       id="path433" />
    <path
       d="m 6.15464,14.41751 c -0.22613,0.14747 -0.43391,0.127 -0.62336,-0.0639 -0.12876,-0.1277 -0.19014,-0.28504 -0.1845,-0.46849 0.005,-0.1845 0.0748,-0.43003 0.20885,-0.73624 0.12876,-0.31362 0.20743,-0.52776 0.23495,-0.64629 0.0279,-0.11606 0.037,-0.24871 0.0296,-0.39688 -0.0286,-0.20637 -0.12453,-0.40075 -0.28893,-0.58243 0.18945,0.0561 0.33162,0.13158 0.42687,0.22578 0.18697,0.18767 0.29315,0.44802 0.31891,0.77999 0.0134,0.14816 -0.0134,0.45826 -0.0804,0.9338 -0.0275,0.14958 -0.0459,0.31432 -0.0515,0.49177 -0.008,0.1771 -0.004,0.33161 0.01,0.46285 z m 0.91723,-1.77905 c 0,-0.26388 -0.0293,-0.48013 -0.0857,-0.65229 C 6.92907,11.81472 6.82671,11.65491 6.6782,11.50569 6.54096,11.37022 6.37798,11.26474 6.18607,11.1903 5.99486,11.1166 5.79519,11.07918 5.58776,11.07777 c -0.20814,-10e-4 -0.40605,0.0325 -0.59267,0.0981 -0.18732,0.066 -0.34572,0.16686 -0.47625,0.29703 -0.13793,0.13688 -0.21484,0.29528 -0.23177,0.47379 -0.0162,0.17921 0.0303,0.32455 0.14252,0.43568 0.0667,0.0663 0.14781,0.10336 0.24165,0.11077 0.0924,0.006 0.1711,-0.0212 0.23601,-0.0864 0.0639,-0.0639 0.0924,-0.16193 0.0836,-0.2921 -0.048,0.0804 -0.0765,0.127 -0.0882,0.13864 -0.0388,0.0378 -0.0868,0.0554 -0.14181,0.0526 -0.0557,-0.002 -0.10619,-0.0254 -0.15134,-0.0716 -0.0752,-0.0741 -0.11007,-0.16898 -0.10196,-0.28116 0.007,-0.11289 0.0536,-0.21308 0.14076,-0.29916 0.10513,-0.10619 0.22543,-0.1584 0.35842,-0.1584 0.13441,0 0.25506,0.0519 0.3609,0.15805 0.13934,0.1397 0.20461,0.31079 0.19438,0.51153 -0.01,0.20461 -0.0998,0.50447 -0.26953,0.90381 -0.15628,0.35737 -0.22965,0.65441 -0.21978,0.89359 0.01,0.23848 0.0998,0.44379 0.26953,0.61419 0.11782,0.11676 0.24835,0.18238 0.39228,0.19931 0.14359,0.0155 0.29634,-0.0243 0.45862,-0.121 0.11112,0.50342 0.35348,0.93945 0.72354,1.31092 0.23319,0.23319 0.50342,0.42475 0.8121,0.5775 0.31009,0.15487 0.63429,0.25718 0.97014,0.30798 0.33655,0.0526 0.69003,0.0526 1.06115,-7.1e-4 0.31009,-0.0476 0.61631,-0.1524 0.91934,-0.31256 0.30304,-0.16087 0.57291,-0.35878 0.80998,-0.59549 0.12665,-0.12735 0.23177,-0.26141 0.31891,-0.40287 l -0.13829,-0.10442 c -0.10654,0.1397 -0.19579,0.24482 -0.26776,0.3175 -0.32138,0.32173 -0.70167,0.54468 -1.13982,0.67027 C 9.82496,16.54875 9.3914,16.56039 8.96277,16.45846 8.53415,16.35686 8.16761,16.15296 7.86281,15.84992 7.59012,15.57617 7.40314,15.27137 7.30437,14.93411 7.20527,14.59756 7.19712,14.26489 7.28107,13.9354 c 0.084,-0.32844 0.25294,-0.62089 0.50694,-0.87489 0.20073,-0.20144 0.42757,-0.34572 0.68016,-0.43286 0.25329,-0.0889 0.50236,-0.1076 0.74718,-0.0568 0.24624,0.0494 0.45614,0.16122 0.62865,0.33479 0.21555,0.21484 0.3235,0.46778 0.32668,0.75776 0.002,0.2914 -0.10266,0.54399 -0.31821,0.75883 -0.14711,0.14746 -0.30304,0.23283 -0.46496,0.2547 -0.16193,0.0215 -0.29528,-0.0201 -0.40182,-0.12664 -0.078,-0.0762 -0.11535,-0.16757 -0.11112,-0.26917 0.005,-0.1016 0.0515,-0.19826 0.14005,-0.28681 0.0392,-0.0395 0.10196,-0.0797 0.18839,-0.12065 -0.23919,-0.19544 -0.43815,-0.21449 -0.59443,-0.0593 -0.0984,0.0977 -0.13688,0.22683 -0.11713,0.38911 0.0194,0.16157 0.0938,0.30762 0.2219,0.43603 0.17886,0.17745 0.39229,0.2593 0.64135,0.24272 0.24765,-0.0166 0.47731,-0.13018 0.68651,-0.33973 0.18485,-0.1838 0.3048,-0.40428 0.36406,-0.66146 0.0589,-0.25611 0.0519,-0.5147 -0.0212,-0.77505 -0.0723,-0.25859 -0.20603,-0.48719 -0.40217,-0.68192 -0.23354,-0.23424 -0.52917,-0.37959 -0.88441,-0.4378 -0.35702,-0.0575 -0.71897,-0.0279 -1.08832,0.091 -0.36795,0.11642 -0.68051,0.30445 -0.93733,0.56127"
       style="fill:#000000;fill-opacity:1;fill-rule:nonzero;stroke:none;stroke-width:0.0352778"
       id="path435" />
    <path
       d="m 13.53087,6.56891 c -0.17744,0.006 -0.34148,0.0236 -0.49177,0.0515 -0.47519,0.0667 -0.78563,0.0935 -0.9338,0.0797 -0.33232,-0.0254 -0.59161,-0.13123 -0.77929,-0.3182 -0.0949,-0.0952 -0.17004,-0.23813 -0.22613,-0.42686 0.18168,0.16474 0.37536,0.25999 0.58244,0.28857 0.14781,0.008 0.28081,-0.001 0.39687,-0.0296 0.11818,-0.0272 0.33267,-0.10584 0.64629,-0.2346 0.30551,-0.13405 0.55175,-0.20355 0.7366,-0.2092 0.18309,-0.006 0.34008,0.0561 0.46779,0.18486 0.19085,0.18874 0.21131,0.39723 0.0639,0.62336 -0.13088,-0.0141 -0.28575,-0.0169 -0.46285,-0.01 z m -1.87713,1.86443 c -0.11853,0.36901 -0.14852,0.73131 -0.0914,1.08762 0.0582,0.35489 0.20356,0.65087 0.4378,0.88477 0.19509,0.19579 0.42369,0.32984 0.68192,0.40216 0.26035,0.072 0.51894,0.0797 0.77541,0.0208 0.25717,-0.0593 0.47766,-0.17921 0.66145,-0.36371 0.2092,-0.20955 0.3228,-0.43886 0.33973,-0.68686 0.0169,-0.24836 -0.0653,-0.46214 -0.24306,-0.64135 -0.12842,-0.12806 -0.27447,-0.20214 -0.43604,-0.22155 -0.16192,-0.0198 -0.29139,0.0183 -0.38876,0.11642 -0.15557,0.15663 -0.13652,0.35525 0.0593,0.59478 0.0409,-0.0861 0.0808,-0.14887 0.12065,-0.18767 0.0885,-0.0892 0.18485,-0.13618 0.28681,-0.14076 0.1016,-0.004 0.19261,0.0332 0.26917,0.11148 0.10653,0.10653 0.14781,0.23953 0.127,0.40146 -0.0222,0.16227 -0.1076,0.3175 -0.25542,0.46531 -0.21519,0.21555 -0.46743,0.32068 -0.75882,0.31785 -0.28998,-0.003 -0.54257,-0.11112 -0.75741,-0.32667 -0.17322,-0.17215 -0.2854,-0.38241 -0.33444,-0.62865 -0.0512,-0.24518 -0.0321,-0.49353 0.0557,-0.74718 0.0875,-0.25224 0.23213,-0.47872 0.43321,-0.6798 0.25436,-0.25436 0.54681,-0.42334 0.87489,-0.50695 0.3295,-0.0843 0.66287,-0.0759 0.99942,0.0233 0.33655,0.0988 0.6417,0.2854 0.91511,0.5581 0.30339,0.30515 0.50729,0.67169 0.60889,1.10031 0.10195,0.42863 0.09,0.86254 -0.0356,1.29928 -0.12559,0.43851 -0.34854,0.81845 -0.67028,1.13983 -0.072,0.0723 -0.17744,0.16122 -0.31714,0.26776 l 0.10442,0.13829 c 0.14181,-0.0864 0.27552,-0.19227 0.40287,-0.31856 0.23636,-0.23707 0.43427,-0.50765 0.59584,-0.81033 0.15981,-0.30304 0.26423,-0.60855 0.3115,-0.91899 0.0533,-0.37183 0.0533,-0.72496 0.001,-1.06116 C 16.37736,8.78612 16.27471,8.46263 16.12019,8.15218 15.96673,7.84385 15.77588,7.57327 15.5427,7.34009 15.17087,6.97002 14.73483,6.72731 14.23142,6.61654 14.32772,6.45426 14.36759,6.30151 14.35242,6.15758 14.33582,6.01435 14.26952,5.88347 14.1524,5.76599 13.98307,5.5956 13.7774,5.50635 13.53857,5.49612 13.29938,5.48612 13.00234,5.56002 12.64568,5.71625 12.24563,5.88559 11.94577,5.9759 11.74152,5.98578 11.54114,5.99598 11.36933,5.93108 11.22928,5.79139 11.12345,5.68521 11.07159,5.56491 11.07159,5.43086 c 0,-0.13335 0.0522,-0.25401 0.15804,-0.35949 0.0864,-0.0868 0.18662,-0.1337 0.30022,-0.14005 0.11183,-0.008 0.20637,0.0268 0.28081,0.10195 0.0466,0.0448 0.0698,0.0949 0.0716,0.15135 0.002,0.0547 -0.0145,0.10266 -0.0526,0.14146 -0.012,0.0116 -0.0582,0.0409 -0.13935,0.0882 0.13088,0.008 0.2286,-0.0198 0.29246,-0.0836 0.0656,-0.0646 0.0928,-0.14358 0.0868,-0.23601 -0.007,-0.0942 -0.0444,-0.17498 -0.11113,-0.2413 -0.11112,-0.11183 -0.25647,-0.15875 -0.43568,-0.14252 -0.17815,0.0166 -0.33655,0.0931 -0.47342,0.23142 -0.13018,0.13018 -0.23072,0.28928 -0.29704,0.47625 -0.0663,0.18733 -0.0998,0.38488 -0.0981,0.59267 0.001,0.20779 0.0385,0.40675 0.11289,0.59866 0.0737,0.19227 0.17957,0.3549 0.31539,0.49178 0.14852,0.14887 0.30868,0.25047 0.47977,0.30797 0.17251,0.0568 0.38877,0.0857 0.65194,0.0857 -0.25682,0.25682 -0.4438,0.56938 -0.56057,0.93804"
       style="fill:#000000;fill-opacity:1;fill-rule:nonzero;stroke:none;stroke-width:0.0352778"
       id="path437" />
    <path
       d="M 3.97765,30.67598 C 2.34217,30.22196 0.89825,29.17244 -0.02391,27.37046 -2.24041,23.0394 -0.2892,16.79347 5.17851,16.76278 7.92206,16.74798 9.68912,19.40403 9.0707,22.00647 8.56482,24.13584 6.33527,25.55824 4.55021,24.0741 4.4412,23.9898 4.33537,23.89595 4.24012,23.78588 3.59171,23.03376 3.58042,21.9779 4.21722,21.42862 c 0.63711,-0.55069 1.67922,-0.38664 2.32939,0.36513 0.36195,0.4198 0.51752,0.93274 0.48048,1.40158 0.5581,-0.0582 1.20121,-0.53975 1.282,-1.33456 C 8.44208,20.55973 7.61235,19.28126 6.4436,18.79866 4.86703,18.14885 2.60573,18.28678 1.28175,19.46894 c -3.07128,2.7432 -0.6671,8.12941 2.72874,9.35143 2.16994,0.78105 4.6168,0.5708 6.64916,-0.44203 C 9.98725,28.2711 9.31591,28.08518 8.66328,27.83542 8.48054,27.76632 7.99935,27.46571 8.12635,26.94853 c 0.1337,-0.5468 0.61665,-0.53657 0.72919,-0.48542 1.01882,0.45861 2.23908,0.81845 3.43359,0.84102 0.8322,-0.69991 1.52823,-1.56633 2.00166,-2.5908 1.5875,-3.43464 -0.31327,-7.98724 -2.39042,-10.84932 -0.12207,-0.16898 -0.21837,-0.53023 -0.10231,-0.9324 0.006,-0.14887 0.11994,-0.34219 0.28963,-0.48365 0.13229,-0.12312 0.28046,-0.19368 0.39829,-0.18839 0.41345,-0.0988 0.75282,-0.0127 0.9144,0.10478 2.86173,2.0768 7.41539,3.97757 10.84897,2.38971 1.02482,-0.47342 1.89124,-1.1691 2.59115,-2.0013 -0.0229,-1.19451 -0.38276,-2.41512 -0.84137,-3.43324 -0.0497,-0.11289 -0.0603,-0.59584 0.48683,-0.73025 0.51612,-0.12594 0.81668,0.3549 0.88618,0.53693 0.24977,0.65299 0.43533,1.32433 0.54257,1.99672 1.01283,-2.032 1.22344,-4.47886 0.44239,-6.6488 -1.22273,-3.39584 -6.60859,-5.80037 -9.35179,-2.72909 -1.18181,1.32398 -1.31974,3.58563 -0.66993,5.16184 0.48225,1.16876 1.76072,1.99884 3.06141,1.86585 0.79551,-0.0808 1.27635,-0.7239 1.33526,-1.28235 -0.46848,0.0374 -0.98142,-0.11818 -1.40123,-0.48048 -0.75177,-0.65017 -0.91616,-1.69228 -0.36548,-2.3294 0.54928,-0.63641 1.60479,-0.62582 2.35656,0.0233 0.11007,0.0952 0.2032,0.20109 0.28892,0.30974 1.48414,1.78506 0.0607,4.01532 -2.06833,4.5205 -2.60244,0.61806 -5.25851,-1.14865 -5.24263,-3.8922 0.031,-5.46735 6.27627,-7.41927 10.60767,-5.20241 1.80199,0.92216 2.8508,2.36572 3.30553,4.00085 0.77929,-1.83903 1.90253,-3.48439 3.7017,-4.31624 2.82963,-1.30669 5.95736,0.19615 6.33836,3.35316 0.34572,2.86667 -3.78037,4.79354 -5.70054,2.71109 -2.31916,-2.51636 1.92158,-4.70358 2.91994,-2.00871 10e-4,0.004 -0.003,0.009 -0.002,0.0123 0.14463,0.4893 -0.06,0.98883 -0.47343,1.12747 C 36.57164,5.46433 36.08939,5.17435 35.9197,4.6727 35.8199,4.37778 35.853,4.07721 35.9807,3.84932 35.60182,3.55016 35.10229,3.70256 35.02962,4.40882 c -0.0444,0.43145 0.22824,0.8883 0.42756,1.23684 0.90064,1.57269 2.64689,0.55422 3.30236,-0.59619 0.95038,-1.66476 -0.21661,-3.83364 -1.74308,-4.65491 -2.28706,-1.23013 -4.39949,1.28588 -5.16396,3.09528 -0.50906,1.20579 -0.99695,2.42817 -1.39841,3.67665 -0.16792,2.08033 -1.07245,4.18535 -2.45992,5.76933 -0.10372,1.3215 -0.58949,2.58304 -1.60267,3.64349 -1.50425,1.57409 -4.15361,2.04963 -6.23641,1.8609 -0.79022,-0.0713 -0.22013,-0.51294 0.28328,-0.46708 2.22462,0.20038 4.41184,-0.62936 5.67902,-2.51284 0.27234,-0.40463 0.45403,-0.84419 0.56938,-1.3021 -3.80964,2.88431 -8.74042,2.35691 -12.76985,0.2219 2.13501,4.02978 2.66277,8.95985 -0.22225,12.7702 0.45791,-0.11536 0.89747,-0.29774 1.30246,-0.56973 1.88348,-1.26612 2.71251,-3.4537 2.51283,-5.67902 -0.0459,-0.50271 0.39617,-1.0735 0.46708,-0.28258 0.18839,2.0828 -0.28716,4.73146 -1.8609,6.23535 -1.06045,1.01353 -2.32234,1.49931 -3.64419,1.60373 -1.58327,1.38642 -3.68759,2.29059 -5.76722,2.45886 -1.24883,0.40146 -2.47191,0.88935 -3.67806,1.39876 -1.80904,0.76447 -4.32576,2.87726 -3.09527,5.16467 0.82127,1.52541 2.99014,2.69346 4.6549,1.74272 C 5.73671,38.56653 6.75553,36.8217 5.18179,35.9207 4.83395,35.72138 4.37711,35.44763 3.94531,35.49278 c -0.70627,0.073 -0.85761,0.5715 -0.55951,0.95109 0.22825,-0.1277 0.52881,-0.16051 0.82338,-0.061 0.5013,0.17039 0.79164,0.65299 0.64665,1.07774 -0.13829,0.4131 -0.63818,0.61771 -1.12748,0.47342 -0.004,-10e-4 -0.008,0.003 -0.0124,0.002 -2.69487,-0.99836 -0.50729,-5.2391 2.00872,-2.92029 2.08244,1.91946 0.15592,6.04696 -2.71075,5.70124 -3.15771,-0.3817 -4.65984,-3.50908 -3.35315,-6.33906 0.8315,-1.79952 2.47756,-2.92241 4.31694,-3.70205"
       style="fill:#000000;fill-opacity:1;fill-rule:nonzero;stroke:none;stroke-width:0.0352778"
       id="path439" />
    <path
       d="M 40.78578,0.01607 59,-3e-5 c 0.80187,-7.0879275e-4 0.89219,0.56278471 0,0.56285112 L 57,0.56297 C 54.6554,0.56314453 47.20545,1.54886 45.63682,1.98736 43.06436,2.70667 42.60928,1.91296 40.64466,0.61011 40.31728,0.39386 40.2753,-3e-5 40.78577,-3e-5"
       style="fill:#000000;fill-opacity:1;fill-rule:nonzero;stroke:none;stroke-width:0.0352778"
       id="path443"
       sodipodi:nodetypes="csssccc" />
    <path
       d="M 0.0161007,41.371813 7e-7,59 c -7.323559e-4,0.80187 0.56278797,0.89219 0.56287,0 l 1.3e-4,-1.413967 c 2.1556e-4,-2.3446 0.9858892,-9.79455 1.4243892,-11.36318 0.71931,-2.57246 -0.0744,-3.02754 -1.3772493,-4.99216 C 0.3938907,40.903313 7e-7,40.861333 7e-7,41.371803"
       style="fill:#000000;fill-opacity:1;fill-rule:nonzero;stroke:none;stroke-width:0.0352778"
       id="path443-3"
       sodipodi:nodetypes="csssccc" />
  </g>
</svg>
