<?xml version="1.0" encoding="UTF-8" standalone="no"?>
<svg
   width="1000"
   height="1003.3222"
   viewBox="0 0 1000 1003.3223"
   version="1.1"
   id="svg1173"
   sodipodi:docname="style32.svg"
   inkscape:version="1.4 (e7c3feb1, 2024-10-09)"
   inkscape:export-filename="style32.png"
   inkscape:export-xdpi="1641.6404"
   inkscape:export-ydpi="1641.6404"
   xmlns:inkscape="http://www.inkscape.org/namespaces/inkscape"
   xmlns:sodipodi="http://sodipodi.sourceforge.net/DTD/sodipodi-0.dtd"
   xmlns="http://www.w3.org/2000/svg"
   xmlns:svg="http://www.w3.org/2000/svg">
  <defs
     id="defs969" />
  <sodipodi:namedview
     id="namedview967"
     pagecolor="#ffffff"
     bordercolor="#666666"
     borderopacity="1.0"
     inkscape:showpageshadow="2"
     inkscape:pageopacity="0.0"
     inkscape:pagecheckerboard="0"
     inkscape:deskcolor="#d1d1d1"
     showgrid="false"
     inkscape:zoom="4.89326"
     inkscape:cx="1051.3441"
     inkscape:cy="50.579777"
     inkscape:current-layer="svg1173"
     inkscape:window-width="1992"
     inkscape:window-height="920"
     inkscape:window-x="0"
     inkscape:window-y="25"
     inkscape:window-maximized="0" />
  <g
     id="g2727"
     transform="matrix(17.100421,0,0,17.100421,-495.57492,-10872.682)"
     style="fill:#000000">
    <path
       d="m 46.27841,662.76967 c -2.60844,-2.73156 -6.48441,-3.70381 -10.04323,-2.41123 -3.46004,1.25624 -5.1943,4.65137 -5.80849,8.08143 -0.12206,0.6791 0.37465,0.28081 0.45121,-0.14605 0.60219,-3.36585 2.43346,-6.1408 5.78802,-7.17268 3.31717,-1.022 6.86682,0.0783 9.23043,2.55305 0.20285,0.21238 0.5842,-0.69215 0.38206,-0.90452 v 0"
       style="fill:#000000;fill-opacity:1;fill-rule:nonzero;stroke:none;stroke-width:0.0352778"
       id="path258" />
    <path
       d="m 41.86728,658.5628 c 0.37888,-0.0324 0.73307,-0.21343 1.06433,-0.54399 0.69391,-0.69391 1.02023,-1.61713 0.9779,-2.76895 -0.0508,-1.18604 -0.49318,-2.48567 -1.32821,-3.89572 -0.49953,-0.75354 -0.85337,-1.2566 -1.06151,-1.50566 -0.12241,-0.18309 -0.26176,-0.39511 -0.41769,-0.63676 -0.10724,-0.17216 -0.17251,-0.272 -0.19791,-0.2974 -0.0335,-0.0339 -0.078,-0.0575 -0.13405,-0.0698 -0.0497,0.0935 -0.0667,0.17322 -0.0497,0.2413 0.0131,0.0296 0.055,0.0974 0.12664,0.20356 0.21555,0.30832 0.44627,0.69673 0.6918,1.16169 0.28505,0.54716 0.51188,1.09256 0.68122,1.63407 0.46072,1.49507 0.69567,2.76401 0.7052,3.80577 0.003,1.004 -0.20179,1.71379 -0.61736,2.12831 -0.10619,0.10548 -0.26952,0.17709 -0.49213,0.21378 -0.2226,0.0356 -0.38029,0.007 -0.47413,-0.0864 -0.0547,-0.0554 -0.14923,-0.20708 -0.2854,-0.45755 -0.13511,-0.24977 -0.27023,-0.44239 -0.40605,-0.5775 -0.25011,-0.24977 -0.44273,-0.30798 -0.57855,-0.1718 -0.1016,0.1016 -0.0462,0.25788 0.16545,0.46954 0.0208,0.0212 0.0466,0.0476 0.0755,0.0762 0.0346,0.0257 0.0554,0.0434 0.0639,0.0515 0.004,0.005 0.0596,0.0843 0.16545,0.24095 0.10548,0.15628 0.22649,0.30304 0.3623,0.43886 0.26282,0.26176 0.58385,0.37747 0.96309,0.34607 z m 3.24626,-3.95182 c 0.14217,0.007 0.25365,-0.0303 0.33373,-0.11113 0.0296,-0.03 0.0593,-0.12558 0.0889,-0.2861 0.0296,-0.16122 0.0572,-0.25435 0.0829,-0.27975 0.0215,-0.0219 0.10336,-0.0198 0.24765,0.006 0.36936,0.0547 0.56762,0.0847 0.59655,0.0896 0.18379,0.0208 0.29951,0.031 0.35031,0.0314 0.0981,-0.004 0.18203,-0.0416 0.25435,-0.11395 0.0935,-0.0938 0.10407,-0.35419 0.0317,-0.7814 -0.0307,-0.15663 -0.0596,-0.31433 -0.0892,-0.47025 -0.0219,-0.11501 -0.019,-0.18415 0.006,-0.21026 0.0293,-0.0289 0.1217,-0.0607 0.27657,-0.0928 0.15381,-0.0311 0.24942,-0.0646 0.28293,-0.0974 0.0459,-0.0462 0.0706,-0.12277 0.0695,-0.22966 0.001,-0.10583 -0.03,-0.18732 -0.0885,-0.24694 -0.0473,-0.0466 -0.46002,-0.23601 -1.23895,-0.56621 -1.13595,-0.4826 -1.79,-0.76835 -1.96392,-0.85725 -0.49565,-0.25823 -0.97367,-0.58455 -1.43545,-0.97931 -0.36442,-0.32138 -0.72884,-0.63924 -1.09291,-0.95356 -0.24976,-0.20743 -0.41486,-0.27023 -0.49671,-0.18979 l -0.0127,0.012 c -0.037,0.0385 0.20849,0.32209 0.73766,0.85126 0.14358,0.14499 0.36936,0.34325 0.67345,0.59831 0.33091,0.27093 0.57186,0.47907 0.72496,0.62265 0.24448,0.23777 0.47413,0.44874 0.68545,0.63535 0.18591,0.16052 0.27411,0.23495 0.2607,0.2219 0.14005,0.14041 0.18733,0.23284 0.14005,0.28046 -0.0504,0.0505 -0.27904,-0.0808 -0.68685,-0.39476 -0.46638,-0.36371 -1.01283,-0.86219 -1.64465,-1.4926 l -0.0512,-0.0515 c -0.0466,-0.0469 -0.11465,-0.11783 -0.2039,-0.21555 -0.0882,-0.0977 -0.1584,-0.17145 -0.20991,-0.2219 -0.24165,-0.24094 -0.38735,-0.33725 -0.43885,-0.2861 -0.0381,0.0381 -0.008,0.11783 0.0907,0.24201 0.139,0.17321 0.28081,0.34537 0.42404,0.51364 0.68651,0.82974 1.1236,1.36878 1.30987,1.61502 0.38064,0.49918 0.65158,0.91793 0.81315,1.25695 0.18697,0.39828 0.369,0.85619 0.54575,1.37195 0.13158,0.36865 0.22472,0.58102 0.2801,0.6357 0.0892,0.0892 0.20461,0.13688 0.34643,0.14394 z m -2.679,-6.05861 c 0.58526,0.3048 1.15923,0.63324 1.72262,0.98355 1.05057,0.66251 2.12019,1.07456 3.20992,1.24001 0.79517,0.11818 1.50707,0.10936 2.13502,-0.0254 0.60466,-0.14005 1.08373,-0.38558 1.43474,-0.73801 0.14887,-0.14817 0.26317,-0.35066 0.34361,-0.6096 0.0928,-0.27058 0.12241,-0.52035 0.0889,-0.74895 -0.0258,-0.18697 -0.11748,-0.35807 -0.27411,-0.51541 -0.24977,-0.2487 -0.50412,-0.42791 -0.76094,-0.5334 -0.22119,-0.0931 -0.36477,-0.10583 -0.43286,-0.0384 -0.0208,0.0205 -0.003,0.0991 0.054,0.23284 0.0572,0.133 0.11184,0.22542 0.16264,0.27587 0.042,0.0423 0.12488,0.0942 0.25011,0.15487 0.12524,0.0624 0.21344,0.11853 0.26353,0.16898 0.19614,0.19438 0.29633,0.40781 0.30198,0.63959 0.007,0.2286 -0.0815,0.43674 -0.26353,0.61877 -0.29598,0.29633 -0.89605,0.43004 -1.7974,0.40111 -0.97861,-0.0303 -2.14983,-0.25365 -3.51367,-0.66816 -1.03117,-0.31009 -2.09056,-0.76871 -3.18382,-1.37937 -0.13582,-0.0755 -0.22754,-0.11923 -0.27411,-0.13193 -0.0727,-0.0226 -0.13511,-0.006 -0.19014,0.0504 -0.0723,0.0713 -0.0713,0.14358 0,0.21519 0.0349,0.0349 0.27516,0.16898 0.72354,0.40746"
       style="fill:#000000;fill-opacity:1;fill-rule:nonzero;stroke:none;stroke-width:0.0352778"
       id="path260" />
    <path
       d="m 44.66798,659.91605 c 0.25435,-0.25435 0.48436,-0.68403 0.69215,-1.2894 0.0127,-0.0296 0.22825,-0.74366 0.64135,-2.14101 0.22084,-0.7373 0.34572,-1.17193 0.37536,-1.30351 0.0765,-0.31256 0.0808,-0.50377 0.013,-0.57186 -0.085,-0.084 -0.2099,-0.0438 -0.375,0.12136 -0.13935,0.14005 -0.85161,1.30034 -2.13501,3.48227 -0.22472,0.37606 -0.33938,0.72108 -0.34679,1.03258 -0.006,0.31115 0.0811,0.55774 0.26388,0.73942 0.26741,0.26705 0.55669,0.24377 0.87101,-0.0699 z m 2.29306,-0.28504 c 0.3309,-0.33161 0.48366,-0.96132 0.45755,-1.89442 -0.004,-0.11395 -0.0314,-0.51012 -0.0822,-1.1871 -0.0459,-0.63147 -0.0734,-1.20544 -0.0829,-1.72296 l -0.1009,-0.25365 c -0.12311,-0.0466 -0.2159,-0.0384 -0.28045,0.0254 -0.12665,0.12735 -0.31891,0.96379 -0.57821,2.51037 -0.13511,0.8128 -0.21131,1.32926 -0.2293,1.55116 -0.0236,0.40569 0.0332,0.67804 0.17321,0.81844 0.2914,0.2921 0.5334,0.3429 0.7232,0.15276 z m 2.92347,-2.26836 c 0.21978,0.0296 0.40252,-0.0268 0.5461,-0.17145 0.18309,-0.18239 0.2667,-0.39335 0.25117,-0.63253 -0.0152,-0.23954 -0.13017,-0.46638 -0.34537,-0.68298 -0.18309,-0.18204 -0.53692,-0.43886 -1.06256,-0.76906 -0.70697,-0.45438 -1.21144,-0.7874 -1.51201,-1.004 -0.12276,-0.0892 -0.18556,-0.13547 -0.19014,-0.14041 -0.0515,-0.0243 -0.0995,-0.0141 -0.14605,0.0325 -0.0459,0.0462 -0.0554,0.0967 -0.0265,0.1524 0.0169,0.0423 0.0829,0.12947 0.19755,0.26035 0.19967,0.23283 0.41946,0.55986 0.66076,0.97931 0.21201,0.36336 0.42403,0.72813 0.6357,1.09185 0.19121,0.30868 0.31538,0.49353 0.37536,0.55315 0.18979,0.1905 0.39581,0.29987 0.61595,0.33091 z m 0.63535,-3.06917 c 0.63147,0.13899 1.02905,0.21167 1.1945,0.2166 0.36442,0.0166 0.65264,-0.0815 0.86396,-0.2928 0.13617,-0.13617 0.20214,-0.29563 0.20073,-0.48048 -0.003,-0.1838 -0.0646,-0.33797 -0.18768,-0.46003 -0.16157,-0.16051 -0.42122,-0.24341 -0.78176,-0.248 -0.47519,0.0162 -0.94861,0.0381 -1.42345,0.0632 -0.72355,0.0293 -1.3388,0.0765 -1.84256,0.139 -0.42334,0.0522 -0.6544,0.0967 -0.6925,0.13405 -0.0885,0.0892 -0.0917,0.17533 -0.007,0.26 0.0773,0.0776 0.96873,0.29986 2.67547,0.66851 z m -2.16747,-1.46791 c 0.62371,-0.11536 0.97649,-0.17992 1.06116,-0.19791 1.16593,-0.1905 1.99601,-0.34149 2.49131,-0.45755 0.62266,-0.14781 1.01036,-0.29704 1.16347,-0.44944 0.38241,-0.38135 0.43568,-0.70838 0.16439,-0.97966 -0.25823,-0.25788 -0.69356,-0.28787 -1.30881,-0.0882 -0.41451,0.13511 -1.23401,0.50941 -2.45886,1.12359 -0.35101,0.17322 -0.70061,0.34502 -1.0488,0.51506 -0.28399,0.14041 -0.46144,0.24624 -0.53376,0.3175 -0.0723,0.0716 -0.0628,0.15311 0.0265,0.24165 0.0328,0.0339 0.18168,0.0254 0.44344,-0.025"
       style="fill:#000000;fill-opacity:1;fill-rule:nonzero;stroke:none;stroke-width:0.0352778"
       id="path262" />
    <path
       d="m 30.30181,644.25907 c 0.091,0.0917 0.1898,0.17392 0.29528,0.24553 0.10583,0.0709 0.16016,0.1083 0.16333,0.11113 0.006,0.006 0.0173,0.0208 0.0346,0.0434 0.0201,0.0198 0.0367,0.0367 0.0515,0.0515 0.14287,0.14252 0.24906,0.17991 0.31785,0.11183 0.0917,-0.0917 0.0526,-0.22261 -0.11677,-0.39123 -0.091,-0.091 -0.22119,-0.1831 -0.38982,-0.27376 -0.16933,-0.0931 -0.27234,-0.15628 -0.30974,-0.19403 -0.0624,-0.0631 -0.0818,-0.16968 -0.0582,-0.32032 0.0247,-0.15064 0.0727,-0.2607 0.14464,-0.33161 0.28045,-0.28081 0.75988,-0.42016 1.43827,-0.41769 0.7045,0.006 1.56139,0.16581 2.57175,0.4766 0.36654,0.11466 0.73554,0.26741 1.10419,0.45967 0.31468,0.16616 0.5768,0.32174 0.78564,0.46849 0.0716,0.0483 0.11677,0.0758 0.13758,0.0854 0.0459,0.0109 0.0995,0 0.16299,-0.0342 -0.008,-0.0374 -0.0251,-0.0677 -0.0473,-0.0907 -0.0169,-0.0173 -0.0843,-0.0614 -0.20109,-0.13264 -0.16369,-0.10619 -0.30727,-0.20038 -0.43003,-0.28328 -0.16934,-0.14006 -0.50871,-0.37959 -1.01777,-0.7172 -0.9532,-0.56374 -1.83056,-0.8636 -2.63278,-0.89747 -0.77823,-0.0286 -1.40194,0.19191 -1.87148,0.66146 -0.22331,0.22366 -0.34573,0.46249 -0.36725,0.71861 -0.0212,0.25612 0.0568,0.47343 0.2346,0.65052 z m 2.5333,-2.61056 c 0.037,0.0377 0.17991,0.10125 0.42898,0.18944 0.34854,0.1203 0.65793,0.24236 0.92745,0.36936 0.2286,0.10866 0.51258,0.29175 0.85019,0.54928 0.16616,0.12594 0.52988,0.42121 1.09079,0.88476 0.11465,0.097 0.23001,0.19403 0.34784,0.28787 0.0829,0.066 0.13723,0.0861 0.16298,0.0603 0.0346,-0.0346 -0.0303,-0.13335 -0.19332,-0.29669 -0.0335,-0.0346 -0.0843,-0.0825 -0.14993,-0.14146 -0.066,-0.0607 -0.1143,-0.10654 -0.1464,-0.13723 l -0.0339,-0.0349 c -0.42686,-0.42686 -0.7627,-0.79657 -1.00894,-1.1116 -0.21237,-0.27623 -0.30127,-0.42969 -0.2667,-0.46496 0.0314,-0.0318 0.0945,0 0.18909,0.0953 -0.009,-0.01 0.0416,0.0501 0.14957,0.17568 0.127,0.14323 0.27023,0.29915 0.42969,0.46355 0.0974,0.10407 0.23742,0.26599 0.42121,0.49036 0.17181,0.20567 0.30586,0.35772 0.40358,0.45473 0.35842,0.35736 0.54998,0.52352 0.57538,0.49848 l 0.008,-0.008 c 0.0547,-0.0554 0.0116,-0.16722 -0.12876,-0.33585 -0.21167,-0.24588 -0.42687,-0.49248 -0.64382,-0.73836 -0.26565,-0.31115 -0.48684,-0.63571 -0.66182,-0.97049 -0.0596,-0.11642 -0.25364,-0.55916 -0.57926,-1.3268 -0.22295,-0.5267 -0.35101,-0.80575 -0.38276,-0.83679 -0.0399,-0.0395 -0.0949,-0.0603 -0.16651,-0.0603 -0.072,0 -0.12383,0.0155 -0.15522,0.0476 -0.0229,0.0222 -0.0448,0.0864 -0.0663,0.19015 -0.0212,0.10512 -0.0427,0.16757 -0.0624,0.18697 -0.0176,0.0173 -0.0642,0.019 -0.14181,0.005 -0.10548,-0.0208 -0.21202,-0.0402 -0.31786,-0.061 -0.28857,-0.049 -0.46461,-0.0416 -0.52811,0.0219 -0.0483,0.049 -0.0741,0.10548 -0.0772,0.1718 0,0.0346 0.008,0.11254 0.0215,0.23636 0.003,0.0194 0.0233,0.15381 0.0603,0.40358 0.018,0.0974 0.0187,0.1524 0.004,0.16792 -0.0176,0.0166 -0.0804,0.0353 -0.18944,0.0561 -0.10795,0.0198 -0.17286,0.0392 -0.19297,0.0589 -0.0547,0.0547 -0.079,0.12982 -0.0751,0.22578 0.004,0.096 0.0367,0.17392 0.0974,0.23389 z m 4.27249,2.06587 c 0.0483,0.0483 0.097,0.0483 0.1457,0 0.037,-0.037 0.0483,-0.0797 0.0346,-0.12912 -0.01,-0.031 -0.0392,-0.0935 -0.09,-0.18379 -0.4131,-0.73943 -0.72319,-1.45592 -0.93239,-2.15195 -0.28011,-0.92251 -0.4311,-1.71379 -0.45156,-2.3749 -0.0197,-0.60889 0.0709,-1.01459 0.27094,-1.21497 0.12347,-0.12241 0.26317,-0.18274 0.41945,-0.17815 0.15557,0.004 0.29951,0.072 0.43109,0.20391 0.0342,0.0346 0.0716,0.0935 0.11395,0.1778 0.0413,0.085 0.0765,0.14146 0.10548,0.17004 0.0339,0.0335 0.0956,0.0709 0.18592,0.10936 0.0903,0.0392 0.14322,0.0504 0.15698,0.0367 0.0466,-0.0462 0.0367,-0.14323 -0.0258,-0.29246 -0.0713,-0.17392 -0.19156,-0.34572 -0.36019,-0.5147 -0.10618,-0.10583 -0.22225,-0.16757 -0.34784,-0.18521 -0.15487,-0.0226 -0.3242,-0.002 -0.50729,0.0603 -0.17427,0.0547 -0.3115,0.13124 -0.41204,0.23213 -0.23742,0.23742 -0.40358,0.56056 -0.49813,0.96979 -0.091,0.42404 -0.0967,0.90558 -0.0173,1.44286 0.11183,0.73625 0.39123,1.45944 0.83784,2.16888 0.23672,0.38135 0.45862,0.7687 0.66499,1.16452 0.16051,0.30303 0.25188,0.46531 0.27552,0.48895"
       style="fill:#000000;fill-opacity:1;fill-rule:nonzero;stroke:none;stroke-width:0.0352778"
       id="path264" />
    <path
       d="m 29.10484,642.30397 c 0.12347,0.12418 0.28998,0.18274 0.50059,0.17886 0.2099,-0.005 0.44309,-0.0825 0.69709,-0.23424 1.47461,-0.86748 2.25883,-1.34832 2.35338,-1.44322 0.11183,-0.11112 0.13864,-0.19544 0.0818,-0.25329 -0.0455,-0.0459 -0.17427,-0.043 -0.38664,0.01 -0.0889,0.0198 -0.38171,0.10372 -0.87983,0.25329 -0.94474,0.27905 -1.42769,0.4244 -1.4471,0.43357 -0.40992,0.14005 -0.69991,0.29527 -0.87171,0.46743 -0.21237,0.21272 -0.22825,0.40816 -0.0476,0.58808 z m 0.3436,-1.64853 c 0.0949,0.0952 0.2787,0.1337 0.55386,0.11642 0.14887,-0.012 0.49848,-0.0631 1.04775,-0.15487 1.04528,-0.17463 1.61043,-0.3048 1.69616,-0.39088 0.0434,-0.043 0.0483,-0.10548 0.0169,-0.18979 l -0.1711,-0.0677 c -0.34995,-0.006 -0.73765,-0.0247 -1.16381,-0.0554 -0.45826,-0.0349 -0.72566,-0.0533 -0.80327,-0.0564 -0.63007,-0.0176 -1.05622,0.0864 -1.27882,0.30938 -0.12983,0.12806 -0.0949,0.29175 0.1023,0.4893 z m 1.65347,-2.04787 c 0.0399,0.0395 0.16475,0.12453 0.37324,0.25259 0.24624,0.14393 0.49248,0.28681 0.73836,0.43003 0.28328,0.16334 0.50448,0.31115 0.66181,0.44627 0.0882,0.078 0.14747,0.12241 0.17604,0.13335 0.037,0.0194 0.0713,0.0134 0.10266,-0.0169 0.0314,-0.0321 0.0388,-0.0646 0.0219,-0.0988 -0.003,-0.003 -0.0339,-0.0462 -0.0949,-0.12912 -0.14569,-0.2032 -0.37147,-0.54434 -0.67839,-1.02165 -0.22295,-0.35559 -0.39652,-0.59478 -0.51929,-0.71755 -0.1464,-0.14605 -0.29986,-0.22401 -0.46214,-0.23424 -0.16121,-0.01 -0.30444,0.0466 -0.42756,0.17004 -0.0967,0.0974 -0.13547,0.22049 -0.11465,0.37006 0.0197,0.14746 0.0938,0.28681 0.22295,0.41593 z m 2.30188,0.96132 c 0.0571,0.0575 0.11571,0.0557 0.17568,-0.004 0.0257,-0.0258 0.0561,-0.18204 0.0903,-0.46885 0.0427,-0.33972 0.0744,-0.75565 0.0938,-1.2453 0.0176,-0.31997 0.0321,-0.64029 0.043,-0.96167 -0.003,-0.24342 -0.0586,-0.4191 -0.16722,-0.52811 -0.0832,-0.0829 -0.18662,-0.12524 -0.3115,-0.127 -0.12453,-10e-4 -0.23283,0.0441 -0.3242,0.13617 -0.14323,0.14217 -0.2092,0.33726 -0.19721,0.5835 0.003,0.11147 0.0522,0.38064 0.14535,0.80715 0.24976,1.15358 0.40005,1.75613 0.45191,1.80763 z m 0.52317,-0.042 c 0.0607,0.0589 0.11465,0.0653 0.16368,0.0162 0.0487,-0.048 0.11995,-0.16863 0.21414,-0.36019 0.11501,-0.2353 0.23072,-0.47166 0.34819,-0.70873 0.41487,-0.82691 0.66852,-1.38077 0.75989,-1.66194 0.13511,-0.41521 0.11465,-0.70943 -0.0603,-0.88406 -0.18309,-0.18344 -0.40322,-0.1464 -0.66146,0.11113 -0.1023,0.10301 -0.2039,0.36512 -0.30409,0.78563 -0.0776,0.33514 -0.18062,0.89571 -0.30939,1.68346 -0.0123,0.0575 -0.0561,0.29669 -0.13335,0.7179 -0.0339,0.1771 -0.0399,0.27693 -0.0173,0.30057"
       style="fill:#000000;fill-opacity:1;fill-rule:nonzero;stroke:none;stroke-width:0.0352778"
       id="path266" />
    <path
       d="m 40.77084,684.1727 c 0.63148,-2.88431 -0.72531,-5.08564 -2.80176,-6.94937 -1.11336,-0.99836 -2.31351,-1.9304 -3.27801,-3.0801 -1.42381,-1.69545 -1.8669,-4.48381 -0.54045,-6.36623 0.14852,-0.20955 0.18132,-1.19345 -0.12277,-0.76129 -1.60055,2.27118 -1.38148,5.46452 0.0843,7.7089 2.04541,3.12913 7.2704,4.76391 6.26322,9.35954 -0.1277,0.5835 0.26741,0.6724 0.39546,0.0885 v 0"
       style="fill:#000000;fill-opacity:1;fill-rule:nonzero;stroke:none;stroke-width:0.0352778"
       id="path268" />
    <path
       d="m 55.74238,653.30605 c -2.73191,-2.60844 -3.70381,-6.48405 -2.41123,-10.04358 1.25483,-3.45969 4.65172,-5.19395 8.08108,-5.80849 0.67945,-0.1217 0.28081,0.37465 -0.1457,0.45191 -3.36585,0.60149 -6.1408,2.43311 -7.17338,5.78697 -1.0213,3.31788 0.0787,6.86753 2.5527,9.23078 0.21307,0.2025 -0.69145,0.58456 -0.90347,0.38241 v 0"
       style="fill:#000000;fill-opacity:1;fill-rule:nonzero;stroke:none;stroke-width:0.0352778"
       id="path270" />
    <path
       d="m 77.14435,647.79813 c -2.8836,0.63183 -5.08494,-0.72495 -6.94831,-2.80176 -0.99871,-1.11266 -1.93146,-2.31316 -3.07975,-3.27766 -1.69651,-1.42451 -4.48416,-1.8669 -6.36623,-0.54045 -0.21025,0.14817 -1.19344,0.18097 -0.76164,-0.12347 2.27118,-1.60056 5.46452,-1.38078 7.70854,0.0847 3.12879,2.0454 4.76462,7.27004 9.36026,6.26357 0.58243,-0.12736 0.67239,0.2674 0.0871,0.39511 v 0"
       style="fill:#000000;fill-opacity:1;fill-rule:nonzero;stroke:none;stroke-width:0.0352778"
       id="path272" />
    <path
       d="m 30.44821,651.37671 c 1.35326,1.58962 4.39209,2.15124 5.53121,-0.0497 0.7112,-1.3716 -0.36901,-3.03459 -1.94663,-2.90653 -0.54928,0.0444 -1.1751,0.22719 -1.48908,0.73377 -0.50341,0.81351 -0.004,1.30775 0.62336,1.51166 0.15064,-0.0836 0.33338,-0.12947 0.52952,-0.12171 0.49283,0.0208 0.87877,0.36936 0.86148,0.77964 -0.0173,0.41028 -0.43074,0.72637 -0.92321,0.70626 -0.10231,-0.005 -0.19791,-0.0261 -0.28787,-0.0564 -0.97261,-0.21978 -1.46121,-1.00013 -1.56281,-2.01154 -0.23001,-2.27436 2.50437,-3.84845 4.14479,-1.9879 1.37901,1.56527 1.09502,4.61151 -0.87313,5.63209 -1.81468,0.94192 -3.9564,0.2092 -5.03872,-1.39065 v 12.74552 c 0.54857,-2.90407 2.25249,-5.41938 4.7946,-7.04815 1.93005,-1.23649 4.05307,-2.40242 4.92584,-4.66725 0.88618,-2.29976 0.5468,-4.94136 -1.45133,-6.55709 -1.5561,-1.258 -3.90737,-1.96885 -5.81484,-1.04492 -2.01471,0.97719 -3.78142,3.66889 -2.02318,5.73299 z m 1.0287,-6.46289 c 2.20592,-1.46508 5.29943,-1.10948 7.1808,0.77118 1.72825,1.72931 2.39289,4.12185 1.97732,6.5225 -0.53975,3.1108 -2.45005,4.87292 -5.01051,6.4957 -1.90923,1.21003 -3.56623,2.67794 -4.45417,4.60516 -0.62442,1.35608 -1.10808,3.16054 -1.13877,4.38433 -0.002,0.09 -0.008,0.15381 -0.0145,0.1972 v 18.82951 c 0.15275,-0.6731 0.4639,-1.31057 0.95356,-1.84926 1.51341,-1.66334 5.02285,-2.00378 5.55519,0.82092 0.30445,1.61748 -0.97896,4.8454 -3.20393,3.78812 -1.79846,-0.85583 -1.50601,-3.77613 0.44309,-4.16595 0.0554,-0.0162 0.11254,-0.0282 0.17251,-0.0356 0.46919,-0.055 0.88794,0.21731 0.93451,0.60784 0.0462,0.39158 -0.29704,0.75282 -0.76729,0.80892 -0.26,0.031 -0.5013,-0.0413 -0.67557,-0.17498 -0.91299,0.28398 -0.51012,1.53987 0.31855,1.76777 0.67522,0.18591 1.54658,0.0889 2.00731,-0.5207 1.18533,-1.5688 -1.34867,-3.22827 -2.64372,-3.03036 -1.7907,0.2734 -3.07834,1.76882 -2.37596,3.63149 0.43957,1.16523 1.35467,2.1964 2.58481,2.55235 2.64618,0.76623 6.20324,-1.028 6.08824,-4.11163 -0.0952,-2.58198 -1.47991,-4.89479 -3.05929,-6.85941 -1.90924,-2.37525 -4.26826,-4.39067 -4.50991,-7.63164 -0.1838,-2.46168 0.61912,-5.15796 2.45568,-6.88622 1.96004,-1.84679 4.96782,-2.5908 7.42104,-1.19521 2.37772,1.35149 3.43852,3.75602 2.77671,6.41244 -0.55598,2.23449 -2.70651,4.40337 -5.17631,3.86962 -2.47227,-0.53446 -3.95076,-3.14361 -2.6797,-5.4797 0.59584,-1.09608 1.40229,-1.88383 2.7044,-1.96568 1.0107,-0.0646 2.27506,0.71332 2.45533,1.76848 0.32067,1.8803 -1.33703,4.6034 -3.36409,2.94605 -0.0265,-0.0205 -0.0437,-0.054 -0.0561,-0.0914 -0.32773,-0.36266 -0.37253,-0.87242 -0.0857,-1.17299 0.30304,-0.31856 0.85972,-0.28081 1.24284,0.084 0.12347,0.11783 0.21026,0.25576 0.26564,0.39829 0.81915,0.13723 1.7907,-0.0921 1.38924,-1.22097 -0.24835,-0.69744 -0.81527,-1.29152 -1.56669,-1.43757 -1.90993,-0.37077 -3.61173,1.60796 -2.3756,3.36727 1.49225,2.12548 4.90432,2.27894 6.29426,-0.097 1.55893,-2.66664 -0.52987,-5.81554 -3.22721,-6.60329 -2.34703,-0.6858 -4.92866,-0.0476 -6.477,1.92405 -2.4324,3.09845 -1.33809,6.91233 1.07773,9.60155 1.98438,2.20769 4.17478,4.68066 4.87469,7.65881 0.5528,2.35232 0.0977,4.98828 -1.78823,6.65586 -1.84891,1.63618 -4.97099,2.18087 -6.81496,0.19085 -0.58703,-0.63394 -0.98602,-1.43616 -1.16805,-2.28141 v 5.1569 c 0,0.43639 -0.75495,0.90558 -0.75495,0.21661 v -44.26803 c -0.1337,-1.88348 0.61595,-3.89432 2.21474,-4.95477 z m 8.1848,0.3997 c 1.61537,1.99884 4.25732,2.33786 6.55638,1.45098 2.26554,-0.87278 3.43076,-2.99474 4.66795,-4.92584 1.59703,-2.49308 3.96311,-4.13844 6.76663,-4.70323 H 45.32133 c 1.50777,1.10842 2.17346,3.18346 1.258,4.94806 -1.02059,1.96814 -4.06682,2.25178 -5.63245,0.87277 -1.8602,-1.63971 -0.28716,-4.3748 1.9879,-4.14408 1.01142,0.1016 1.79211,0.5902 2.0119,1.5621 0.03,0.0903 0.0515,0.18626 0.0557,0.28822 0.0205,0.49177 -0.29598,0.90593 -0.70626,0.92286 -0.41028,0.0169 -0.75882,-0.369 -0.77964,-0.86183 -0.008,-0.19579 0.0385,-0.37783 0.12242,-0.52882 -0.20391,-0.62653 -0.6985,-1.12677 -1.51165,-0.62371 -0.5073,0.31433 -0.68969,0.94016 -0.73378,1.48978 -0.12806,1.57727 1.53423,2.65748 2.90689,1.94557 2.20027,-1.13912 1.639,-4.17724 0.0494,-5.53085 -2.06481,-1.75824 -4.75651,0.008 -5.73264,2.02354 -0.92428,1.90747 -0.21449,4.25838 1.04457,5.81448 z m -1.77588,-6.80861 c 0.94156,-1.41923 2.63172,-2.1657 4.31623,-2.22321 0.008,-0.009 0.0233,-0.0145 0.0554,-0.0145 h 44.85146 c 0.68933,0 0.21908,0.86819 -0.21625,0.86819 h -4.80448 c 0.71438,0.20884 1.38395,0.57291 1.92899,1.07774 1.99037,1.84361 1.44568,4.96464 -0.19085,6.81496 -1.66723,1.88489 -4.30354,2.34068 -6.65621,1.78752 -2.97745,-0.69991 -5.45077,-2.89031 -7.65881,-4.87433 -2.68958,-2.41617 -6.50381,-3.50943 -9.6012,-1.07879 -1.97203,1.54904 -2.6095,4.13067 -1.9237,6.47841 0.7874,2.69628 3.93594,4.78543 6.60259,3.22615 2.37666,-1.38924 2.22215,-4.80166 0.0967,-6.29426 -1.7586,-1.23543 -3.73697,0.46673 -3.36691,2.37631 0.14605,0.75212 0.74013,1.31833 1.43828,1.56634 1.12888,0.40146 1.35784,-0.57009 1.22025,-1.38924 -0.14217,-0.0557 -0.28045,-0.14217 -0.39828,-0.26494 -0.36513,-0.38382 -0.40217,-0.94015 -0.0833,-1.24389 0.30022,-0.28646 0.80963,-0.2406 1.17264,0.0857 0.0374,0.0131 0.0709,0.03 0.0921,0.0572 1.65665,2.02707 -1.0668,3.68442 -2.94675,3.36339 -1.05516,-0.17992 -1.83304,-1.44392 -1.76918,-2.45534 0.0825,-1.30175 0.86995,-2.10855 1.96567,-2.70404 2.33645,-1.27141 4.94489,0.20744 5.48041,2.679 0.5341,2.47015 -1.63477,4.62068 -3.86962,5.17772 -2.65642,0.6611 -5.0613,-0.40041 -6.4135,-2.77778 -1.39418,-2.45286 -0.65052,-5.46029 1.19556,-7.42103 1.72932,-1.83585 4.42525,-2.63913 6.88658,-2.45604 3.24132,0.24201 5.25709,2.60139 7.63164,4.51027 1.96497,1.57938 4.27778,2.96474 6.85906,3.05999 3.08433,0.1143 4.87821,-3.44276 4.11233,-6.08859 -0.35631,-1.22978 -1.38677,-2.14524 -2.55235,-2.58445 -1.86267,-0.70379 -3.35844,0.58491 -3.63185,2.3756 -0.19755,1.29505 1.46121,3.8287 3.03037,2.64372 0.61065,-0.46108 0.70696,-1.33244 0.52105,-2.00836 -0.2279,-0.82762 -1.48414,-1.2312 -1.76777,-0.3175 0.13405,0.17392 0.20567,0.41627 0.17498,0.67486 -0.0557,0.47061 -0.41769,0.81457 -0.80963,0.76835 -0.38982,-0.0469 -0.66216,-0.46602 -0.60678,-0.93521 0.007,-0.0596 0.019,-0.11677 0.0356,-0.17251 0.38947,-1.94945 3.30977,-2.24084 4.16525,-0.44344 1.05798,2.22497 -2.17064,3.50908 -3.78883,3.20428 -2.82364,-0.5327 -2.48391,-4.04142 -0.8195,-5.55484 0.44873,-0.40816 0.96625,-0.69074 1.51588,-0.86289 H 60.65271 c -0.0106,3.5e-4 -0.0173,10e-4 -0.0286,10e-4 -1.22379,0.0307 -3.36832,0.59725 -4.3434,1.0615 -1.91629,0.91123 -3.39513,2.54388 -4.60516,4.45382 -1.62243,2.56046 -3.3842,4.47111 -6.49605,5.0098 -2.40065,0.41557 -4.79355,-0.24765 -6.5218,-1.97697 -1.88102,-1.88171 -2.23556,-4.97452 -0.77188,-7.18008"
       style="fill:#000000;fill-opacity:1;fill-rule:nonzero;stroke:none;stroke-width:0.0352778"
       id="path274" />
  </g>
</svg>
