<?xml version="1.0" encoding="UTF-8" standalone="no"?>
<svg
   width="52.789925"
   height="52.789803"
   viewBox="0 0 52.789925 52.789805"
   version="1.1"
   id="svg1173"
   sodipodi:docname="style16.svg"
   inkscape:version="1.4 (e7c3feb1, 2024-10-09)"
   inkscape:export-filename="style16.png"
   inkscape:export-xdpi="1818.5288"
   inkscape:export-ydpi="1818.5288"
   xmlns:inkscape="http://www.inkscape.org/namespaces/inkscape"
   xmlns:sodipodi="http://sodipodi.sourceforge.net/DTD/sodipodi-0.dtd"
   xmlns="http://www.w3.org/2000/svg"
   xmlns:svg="http://www.w3.org/2000/svg">
  <defs
     id="defs3583" />
  <sodipodi:namedview
     id="namedview3581"
     pagecolor="#ffffff"
     bordercolor="#666666"
     borderopacity="1.0"
     inkscape:showpageshadow="2"
     inkscape:pageopacity="0.0"
     inkscape:pagecheckerboard="0"
     inkscape:deskcolor="#d1d1d1"
     showgrid="false"
     inkscape:zoom="10.446453"
     inkscape:cx="18.187992"
     inkscape:cy="21.682001"
     inkscape:current-layer="svg1173"
     inkscape:window-width="1904"
     inkscape:window-height="1088"
     inkscape:window-x="0"
     inkscape:window-y="25"
     inkscape:window-maximized="0" />
  <g
     id="g2590"
     transform="translate(-38.597753,-347.0093)"
     style="fill:#000000">
    <path
       d="m 68.37827,364.53238 c -0.0677,-0.0681 -0.31926,-0.24025 -0.75671,-0.51682 -0.6036,-0.38277 -1.21073,-0.71791 -1.82033,-1.00789 -1.23049,-0.57785 -2.55764,-0.9144 -3.98039,-1.00506 -1.15112,-0.0804 -2.28989,-0.0258 -3.41701,0.16545 -0.86889,0.14252 -1.34514,0.25506 -1.43228,0.3429 -0.0977,0.0977 -0.0945,0.19967 0.0102,0.30374 0.0427,0.042 0.28011,0.0829 0.7112,0.121 0.6096,0.0543 1.19169,0.14993 1.7459,0.28575 1.74131,0.42475 3.13055,1.15323 4.1656,2.18934 0.23354,0.23354 0.46849,0.50306 0.70556,0.80751 0.23706,0.30515 0.37853,0.47837 0.42156,0.52035 0.10972,0.11112 0.22084,0.11112 0.33162,0 0.0677,-0.0667 0.0339,-0.26705 -0.10266,-0.59937 -0.0921,-0.21414 -0.18451,-0.43145 -0.27693,-0.64594 -0.0543,-0.14217 -0.0547,-0.24024 0.001,-0.29563 0.0981,-0.0991 0.63711,-0.096 1.61642,0.009 1.13842,0.11572 1.86196,0.0222 2.16923,-0.2861 0.0995,-0.0998 0.0684,-0.2293 -0.0921,-0.38876 z m -10.37132,1.22872 c 0.78211,0.78246 1.69616,1.86796 2.7425,3.25896 0.10477,0.12947 0.2092,0.25929 0.31468,0.38947 0.073,0.0984 0.0917,0.16545 0.0543,0.20355 -0.061,0.0624 -0.31891,-0.0804 -0.77505,-0.42474 -0.54186,-0.40676 -1.16699,-0.96556 -1.87501,-1.67323 -0.78811,-0.78775 -1.37866,-1.48414 -1.77342,-2.08703 -0.31362,-0.47308 -0.42756,-0.75354 -0.34184,-0.83961 0.16087,-0.16052 0.71155,0.23107 1.65382,1.17263 z m 6.2611,2.60421 c -0.0861,-0.0868 -0.28328,-0.23601 -0.59055,-0.45297 -0.30726,-0.21449 -0.54433,-0.40569 -0.71084,-0.5715 -0.43145,-0.43109 -0.86007,-0.89359 -1.28447,-1.38606 -0.42368,-0.49283 -0.64981,-0.75177 -0.6731,-0.77612 -0.33302,-0.33266 -0.77187,-0.62335 -1.31692,-0.87242 -0.54504,-0.24941 -1.125,-0.43462 -1.74095,-0.55809 -0.35702,-0.0624 -0.71367,-0.12382 -1.07104,-0.18486 -0.20426,-0.0688 -0.40957,-0.13828 -0.61912,-0.21272 -0.22754,-0.0441 -0.43427,0.0272 -0.61807,0.21272 -0.11112,0.11007 -0.16686,0.25154 -0.16686,0.42475 0.018,1.17581 0.0734,2.05634 0.16686,2.6416 0.066,0.42404 0.23707,0.92322 0.50694,1.49542 0.27235,0.57221 0.59337,1.08374 0.97014,1.53282 0.50483,0.60361 1.55187,1.70074 3.14008,3.28895 0.13511,0.13511 0.25505,0.15099 0.35983,0.0455 0.19085,-0.19015 0.20391,-0.50518 0.0374,-0.94297 -0.10512,-0.27588 -0.1598,-0.43568 -0.16686,-0.47978 -0.0303,-0.14076 -0.002,-0.25471 0.0836,-0.34079 0.16616,-0.16651 0.44203,-0.20813 0.82691,-0.12523 0.38417,0.0829 0.79269,0.29739 1.22379,0.64205 0.30162,0.26494 0.6036,0.52882 0.90452,0.79481 0.1972,0.15981 0.35454,0.18098 0.47166,0.0638 0.13547,-0.13582 0.18168,-0.2674 0.13829,-0.39617 -0.14182,-0.15451 -0.43356,-0.58914 -0.877,-1.30245 -0.22261,-0.4191 -0.36054,-0.84773 -0.41487,-1.28447 -0.0448,-0.36336 -0.0229,-0.58878 0.0635,-0.6731 0.0921,-0.0935 0.33972,-0.066 0.74365,0.079 0.40323,0.14288 0.66111,0.16122 0.77082,0.0501 0.18521,-0.1845 0.1323,-0.42298 -0.15734,-0.7119 z m -9.05016,-3.87844 c -0.0991,-0.0988 -0.27763,-0.0183 -0.53657,0.23989 -0.45544,0.45614 -0.7874,1.17016 -0.99625,2.14206 -0.22789,1.0534 -0.27128,2.27224 -0.12947,3.65866 0.12277,1.18216 0.57538,2.49132 1.35679,3.9243 0.55421,1.01 1.03187,1.7145 1.43122,2.11455 0.36442,0.36442 0.6223,0.46884 0.77646,0.31468 0.10442,-0.10407 0.0896,-0.47131 -0.0451,-1.09961 -0.17322,-0.81174 -0.22896,-1.50777 -0.16757,-2.08668 l 0.22189,-0.24024 c 0.25294,0.0663 0.60361,0.25259 1.05269,0.55421 0.31433,0.2025 0.52599,0.24977 0.63747,0.13864 0.18521,-0.1845 0.19685,-0.35665 0.037,-0.51717 -0.0314,-0.0307 -0.0896,-0.0797 -0.17497,-0.14746 -0.0868,-0.0681 -0.14782,-0.11994 -0.18521,-0.15734 -2.28494,-2.28529 -3.53131,-4.32011 -3.74156,-6.10446 -0.0801,-0.73308 0.078,-1.5494 0.47201,-2.44864 0.0554,-0.12911 0.0519,-0.22542 -0.009,-0.28539"
       style="fill:#000000;fill-opacity:1;fill-rule:nonzero;stroke:none;stroke-width:0.0352778"
       id="path509" />
    <path
       d="m 61.69913,352.51359 c 0.30303,2.87902 -1.18463,6.15315 -4.12362,7.02592 -0.81563,0.24377 0.70802,0.69074 1.10349,0.57397 3.17676,-0.94403 6.52215,-4.75051 5.74145,-7.87224 -0.0684,-0.27163 -0.33478,-0.7239 -1.25871,-0.81668 -0.68015,-0.0677 -1.56033,0.15911 -1.46261,1.08903"
       style="fill:#000000;fill-opacity:1;fill-rule:nonzero;stroke:none;stroke-width:0.0352778"
       id="path511" />
    <path
       d="m 54.66156,360.55163 c 0.75107,0.16298 1.49437,0.26211 2.23062,0.31256 0.11147,-0.0483 0.23248,-0.0857 0.35419,-0.10125 7.53498,-0.96096 10.535,-9.32815 15.84536,-13.6144 0.32597,-0.26246 1.02271,-0.21343 1.22696,0.67099 0.20144,0.8262 0.14358,1.67887 -0.27234,2.07468 -2.33398,2.21545 -4.28519,4.31624 -6.63293,6.42832 -1.9999,1.80023 -4.36915,3.43747 -7.20019,4.39879 2.61726,-0.40817 5.09728,-1.49437 7.36847,-3.11856 2.57527,-1.84079 4.55048,-4.45488 6.99629,-6.46783 4.29048,-3.53271 10.53853,-5.02391 15.79562,-3.38349 0.85055,0.2727 1.32645,1.63301 0.78211,2.31281 -0.54398,0.68086 -1.59844,1.29258 -2.92488,0.85055 -3.68759,-1.15041 -7.10918,-2.31316 -9.76207,-1.13559 -0.87312,0.38841 -1.68557,0.94086 -2.47932,1.55928 1.09961,-0.19897 2.23661,-0.1457 3.37503,0.17885 1.33208,0.37924 3.54365,1.65206 3.45016,3.29812 -0.0603,0.65758 -0.63888,1.1677 -1.14864,1.20192 -0.51047,0.0339 -1.25907,-0.0684 -1.25907,-0.647 0.0469,-0.81703 -0.14464,-1.70638 -0.71402,-2.21086 -1.55328,-1.37442 -3.34574,-1.58256 -5.11069,-0.53128 -0.0473,0.0282 -0.11748,0.0508 -0.19967,0.0688 -1.98438,1.81857 -3.71616,3.89643 -5.92173,5.47229 -4.33105,3.09704 -9.73385,4.09222 -14.89463,2.97356 -0.81809,-0.17885 0.6985,-0.67662 1.09537,-0.59125"
       style="fill:#000000;fill-opacity:1;fill-rule:nonzero;stroke:none;stroke-width:0.0352778"
       id="path513" />
    <path
       d="m 51.29712,360.56433 c -5.19606,2.82822 -10.80805,7.87647 -10.62355,14.22824 0.0332,1.1123 -0.67486,0.38911 -0.69497,-0.31609 -0.20073,-6.8954 4.99321,-12.18848 10.73362,-15.35254 3.16441,-5.74005 8.45643,-10.93364 15.35218,-10.73397 0.70556,0.0205 1.4284,0.72849 0.3175,0.69532 -6.35247,-0.1845 -11.40037,5.42714 -14.22929,10.62355 -0.14782,0.3228 -0.40711,0.61736 -0.85549,0.85549"
       style="fill:#000000;fill-opacity:1;fill-rule:nonzero;stroke:none;stroke-width:0.0352778"
       id="path515" />
    <path
       d="m 44.10186,370.11085 c 2.87973,0.30304 6.15351,-1.18498 7.02628,-4.12327 0.24342,-0.81632 0.69109,0.70768 0.57362,1.10314 -0.94368,3.17641 -4.75016,6.52286 -7.87153,5.74111 -0.27305,-0.0677 -0.72426,-0.33479 -0.81668,-1.25836 -0.0681,-0.68016 0.15769,-1.56034 1.08831,-1.46262"
       style="fill:#000000;fill-opacity:1;fill-rule:nonzero;stroke:none;stroke-width:0.0352778"
       id="path517" />
    <path
       d="m 49.19139,375.99342 c 1.62348,-2.27154 2.71039,-4.75121 3.1182,-7.36812 -0.96132,2.83105 -2.59785,5.19995 -4.39843,7.19985 -2.11314,2.34844 -4.21323,4.29859 -6.42832,6.63292 -0.39581,0.41593 -1.24918,0.47273 -2.07504,0.27235 -0.88406,-0.20461 -0.93345,-0.9017 -0.67063,-1.22802 4.2859,-5.30966 12.65344,-8.30898 13.6144,-15.84396 0.0155,-0.12171 0.0526,-0.24271 0.1009,-0.35419 -0.0504,-0.7366 -0.14958,-1.4799 -0.31256,-2.23096 -0.085,-0.39688 0.41239,-1.91382 0.59125,-1.09503 1.11937,5.16044 0.12312,10.56393 -2.97321,14.89358 -1.57586,2.20521 -3.65266,3.937 -5.47194,5.92208 -0.0183,0.0825 -0.0413,0.1524 -0.0695,0.20002 -1.05128,1.7653 -0.84279,3.55741 0.53163,5.1107 0.50412,0.56973 1.39348,0.76094 2.21086,0.71366 0.57856,0 0.68016,0.7486 0.64629,1.25872 -0.0339,0.51082 -0.54434,1.08902 -1.20085,1.14935 -1.64677,0.0935 -2.91889,-2.11808 -3.29848,-3.45052 -0.32455,-1.13842 -0.37747,-2.27542 -0.17921,-3.37538 -0.61806,0.7934 -1.17051,1.60655 -1.55857,2.48038 -1.17828,2.65218 -0.0152,6.07377 1.13524,9.76101 0.44203,1.3268 -0.17039,2.3816 -0.85055,2.92558 -0.68015,0.54399 -2.04082,0.0677 -2.31316,-0.78246 -1.63971,-5.25744 -0.14888,-11.50443 3.38349,-15.79527 2.01365,-2.44616 4.62703,-4.42101 6.46818,-6.99629"
       style="fill:#000000;fill-opacity:1;fill-rule:nonzero;stroke:none;stroke-width:0.0352778"
       id="path519" />
    <path
       d="m 49.61367,359.02234 c -1.42487,-1.11125 -3.83223,-1.94522 -5.66773,-1.90641 -1.3335,0.03 -2.8187,0.36759 -3.6315,1.54869 -0.85972,1.24778 -0.0797,2.27295 0.66322,2.31105 0.0342,-0.14252 0.0758,-0.28575 0.15099,-0.42404 0.3616,-0.66993 1.07774,-0.9839 1.59773,-0.70132 0.46885,0.25329 0.59726,0.9017 0.35807,1.51871 -0.018,0.0825 -0.0406,0.15487 -0.0698,0.20284 -0.0967,0.15805 -0.20637,0.29775 -0.32349,0.42122 -0.008,0.008 -0.018,0.0152 -0.0261,0.0236 -0.7807,0.79693 -1.94874,0.84349 -2.85115,0.004 -0.95426,-0.88865 -0.95567,-2.41723 -0.63324,-3.49885 1.0541,-3.54189 5.62046,-3.41842 8.77535,-2.15477 -1.26365,-3.1556 -1.38641,-7.72089 2.15477,-8.7757 1.08162,-0.32208 2.60985,-0.32032 3.49779,0.63359 0.84067,0.90276 0.79305,2.07081 -0.004,2.8508 -0.008,0.009 -0.0145,0.0183 -0.0236,0.0265 -0.12347,0.11783 -0.26246,0.22719 -0.42051,0.32385 -0.048,0.03 -0.12029,0.0515 -0.2032,0.0699 -0.6163,0.23918 -1.26471,0.11077 -1.51835,-0.35772 -0.28258,-0.52035 0.0307,-1.23648 0.70061,-1.59843 0.13865,-0.0751 0.28187,-0.11642 0.4244,-0.15064 -0.0385,-0.74295 -1.06292,-1.52294 -2.3107,-0.66322 -1.1811,0.81315 -1.51941,2.29799 -1.54834,3.63114 -0.0399,1.8355 0.79446,4.24286 1.90535,5.66773 0.14711,0.17004 0.14711,0.55562 -0.12488,0.85054 -0.28328,0.28329 -0.70132,0.33867 -0.87171,0.14676"
       style="fill:#000000;fill-opacity:1;fill-rule:nonzero;stroke:none;stroke-width:0.0352778"
       id="path521" />
  </g>
</svg>
