<?xml version="1.0" encoding="UTF-8" standalone="no"?>
<svg
   width="55.918522"
   height="53.607948"
   viewBox="0 0 55.918522 53.607951"
   version="1.1"
   id="svg1173"
   sodipodi:docname="style34.svg"
   inkscape:version="1.4 (e7c3feb1, 2024-10-09)"
   inkscape:export-filename="style34.png"
   inkscape:export-xdpi="1716.7836"
   inkscape:export-ydpi="1716.7836"
   xmlns:inkscape="http://www.inkscape.org/namespaces/inkscape"
   xmlns:sodipodi="http://sodipodi.sourceforge.net/DTD/sodipodi-0.dtd"
   xmlns="http://www.w3.org/2000/svg"
   xmlns:svg="http://www.w3.org/2000/svg">
  <defs
     id="defs1342" />
  <sodipodi:namedview
     id="namedview1340"
     pagecolor="#ffffff"
     bordercolor="#666666"
     borderopacity="1.0"
     inkscape:showpageshadow="2"
     inkscape:pageopacity="0.0"
     inkscape:pagecheckerboard="0"
     inkscape:deskcolor="#d1d1d1"
     showgrid="false"
     inkscape:zoom="10.343191"
     inkscape:cx="34.853847"
     inkscape:cy="18.417914"
     inkscape:current-layer="svg1173"
     inkscape:window-width="2256"
     inkscape:window-height="1030"
     inkscape:window-x="0"
     inkscape:window-y="25"
     inkscape:window-maximized="0" />
  <g
     id="g2733"
     transform="translate(-100.91422,-708.1923)"
     style="fill:#000000">
    <path
       d="m 106.54768,722.61525 c -0.54187,-0.375 -0.73907,-1.0287 -0.44027,-1.45909 0.27693,-0.40075 0.87877,-0.45155 1.39665,-0.16369 0.0508,0.019 0.0956,0.0385 0.12664,0.0617 0.0734,0.0512 0.13935,0.10795 0.19968,0.16722 1.98508,1.67781 1.42839,4.99886 -1.56034,5.07259 -2.26554,0.0557 -4.86622,-0.90699 -5.28038,-3.45088 -0.63288,-3.88972 2.82011,-6.29143 6.46995,-5.66173 1.04069,0.17922 1.91629,0.58138 2.67864,1.12819 -0.40816,-1.48167 -0.46778,-2.95981 -0.18803,-4.40196 0.32455,-1.67464 1.03258,-3.38949 2.20698,-4.91561 0.31679,-0.35348 1.08232,-0.86995 1.90006,-0.5842 1.04775,0.36583 0.69321,1.19133 0.50376,1.40088 -1.20226,1.33138 -1.92934,1.96109 -2.28847,2.82258 -1.03258,2.47262 -0.8456,5.22781 0.61313,7.77557 2.25954,3.94617 6.91798,5.58941 10.83169,2.74779 1.2185,-0.88442 2.31175,-1.87784 3.33693,-2.9397 1.39453,-2.41053 1.22308,-5.68925 -0.32491,-8.02076 -1.89371,-2.85326 -6.46042,-5.03131 -8.87483,-1.4224 -1.47461,2.20416 -1.76495,5.81131 0.95109,7.29122 3.46392,1.88771 5.21476,-2.69558 3.09104,-4.64291 -0.18557,0.43638 -0.75565,0.66745 -1.34444,0.51999 -0.64029,-0.15945 -1.05516,-0.70167 -0.9271,-1.21144 0.12735,-0.50941 0.74895,-0.79198 1.38853,-0.63218 4.19806,0.68969 4.55472,6.01804 0.34714,7.01781 -3.88515,0.92393 -7.23054,-3.0173 -5.89845,-6.71301 1.39277,-3.86397 5.90409,-5.25497 9.49078,-3.38525 3.03918,1.58468 4.90855,5.07682 4.56671,8.40034 0.018,-0.0219 0.0356,-0.0441 0.054,-0.066 -0.0251,-0.0441 -0.0106,-0.097 0.0645,-0.1591 0.0575,-0.0473 0.11783,-0.0917 0.17604,-0.13793 1.54905,-1.91841 3.04341,-3.93736 4.71876,-5.90304 1.05233,-1.23507 2.23802,-2.42358 3.98744,-2.63736 1.89971,-0.23178 2.88396,1.39629 1.89936,1.64571 -1.32927,0.33725 -3.23709,0.96273 -4.26226,1.75154 -0.003,0.002 -0.006,0.005 -0.008,0.007 0.71649,-0.21837 1.4545,-0.40005 2.23062,-0.59443 2.18334,-0.54716 4.42453,-1.05586 6.67843,-1.18357 3.53378,-0.19861 8.90729,-0.29527 11.66672,2.3308 0.18873,0.17851 0.1658,0.53623 -0.37501,0.72743 -0.71684,0.2533 -1.54657,0.0702 -1.83197,-0.20108 -2.33751,-2.22356 -7.38047,-2.20839 -10.38684,-1.8415 -3.07058,0.3743 -7.02451,0.94438 -9.67317,2.64724 -0.10936,0.0702 -0.28045,0.1136 -0.4699,0.13371 -0.40569,0.44943 -0.78845,0.91298 -1.15993,1.38782 1.78647,-0.65899 3.72498,-0.73801 5.53191,0.25859 2.26448,1.24883 3.51331,4.86727 0.83009,6.53027 -1.58574,0.98143 -5.32907,1.28305 -6.11682,-0.95638 -0.91122,-2.59115 1.44533,-4.32753 3.84493,-3.61174 0.63994,0.16087 1.0548,0.70309 0.92745,1.21179 -0.12735,0.50871 -0.7493,0.79128 -1.38924,0.63147 -0.63923,-0.15945 -1.0548,-0.70167 -0.92639,-1.21144 0.0102,-0.0423 0.0296,-0.0825 0.0469,-0.12135 -1.50883,-0.14217 -1.69722,2.43487 -0.68157,3.35562 1.98931,1.80481 4.51838,-0.15734 4.22416,-2.46803 -0.16263,-1.29187 -0.83714,-2.34174 -2.05952,-2.89031 -2.06128,-0.92287 -3.77119,-0.36548 -5.35834,0.76553 -0.64523,0.877 -1.29893,1.77659 -2.03341,2.6797 -2.2419,2.75554 -5.11281,5.55836 -8.85261,5.84764 -0.69567,0.0536 -1.38535,0.0515 -2.06198,-10e-4 3.76308,1.61608 7.86095,2.64443 11.93976,2.42323 0.38876,-0.0205 1.73144,0.69815 0.92816,0.7419 -5.39926,0.29315 -10.80488,-1.3395 -15.61536,-3.72393 -0.60113,-0.20672 -1.1758,-0.46954 -1.71802,-0.79022 0.15063,0.28575 0.30056,0.5708 0.4512,0.85125 2.36079,4.39632 4.35575,9.56487 3.63996,14.6636 -0.4378,3.12032 -1.9685,5.6461 -4.4323,7.08685 0.0741,0.0685 0.0956,0.13092 0.0275,0.17156 -2.37455,1.42158 -4.98052,2.83382 -6.53274,5.21797 -1.91629,2.94167 -2.13043,6.22928 -1.16099,9.5637 0.12664,0.43712 -1.37619,0.25371 -1.50178,-0.17957 -0.92181,-3.17112 -0.9024,-6.60439 0.95638,-9.458 1.12889,-1.73317 2.63666,-2.97946 4.28661,-4.07942 -3.49815,0.28497 -7.44785,-1.71884 -8.50759,-5.19257 -1.06292,-3.48728 0.4385,-7.50496 4.42348,-8.05851 3.27589,-0.45614 8.07967,1.68162 6.86364,5.85929 -0.93662,3.21635 -4.41995,3.68543 -6.79309,1.80481 -0.13723,-0.0815 -0.26599,-0.18838 -0.37853,-0.32314 -0.0459,-0.0445 -0.0649,-0.0815 -0.0677,-0.11575 -0.33655,-0.4928 -0.33655,-1.09816 0.0395,-1.40935 0.40428,-0.33443 1.07244,-0.19402 1.4926,0.31475 0.35313,0.42679 0.4004,0.9645 0.17251,1.32775 1.86866,1.45383 4.02131,-0.23908 4.07282,-2.33923 0.0533,-2.16669 -1.28658,-4.93847 -4.0386,-4.55539 -3.44311,0.47876 -5.41726,3.82627 -4.41678,7.10809 1.27953,4.19488 5.79685,6.1867 9.72926,3.89749 2.70545,-1.5748 4.08517,-4.35431 4.28096,-7.43025 0.34149,-5.34775 -1.56351,-10.31726 -4.16384,-14.87268 -0.11324,2.8067 -1.83797,5.12762 -4.99004,6.11152 -0.39194,0.12277 -1.766,-0.43533 -1.24672,-0.5969 4.0573,-1.26718 5.58412,-4.83059 4.25627,-8.73937 -1.17299,-1.79175 -2.4571,-3.44663 -5.03943,-2.72838 -1.44639,0.40252 -2.7746,1.3402 -3.12702,2.8896 -0.31962,1.40688 -0.19756,3.25015 1.05551,4.20758 2.34738,1.79317 4.17865,-0.27693 3.82093,-2.14065 -0.29104,0.037 -0.61983,-0.0332 -0.91263,-0.23601"
       style="fill:#000000;fill-opacity:1;fill-rule:nonzero;stroke:none;stroke-width:0.0352778"
       id="path256" />
  </g>
</svg>
