<?xml version="1.0" encoding="UTF-8" standalone="no"?>
<svg
   width="1000"
   height="1041.2626"
   viewBox="0 0 1000 1041.2626"
   version="1.1"
   id="svg1173"
   sodipodi:docname="style23.svg"
   inkscape:version="1.4 (e7c3feb1, 2024-10-09)"
   inkscape:export-filename="style23.png"
   inkscape:export-xdpi="1783.9122"
   inkscape:export-ydpi="1783.9122"
   xmlns:inkscape="http://www.inkscape.org/namespaces/inkscape"
   xmlns:sodipodi="http://sodipodi.sourceforge.net/DTD/sodipodi-0.dtd"
   xmlns="http://www.w3.org/2000/svg"
   xmlns:svg="http://www.w3.org/2000/svg">
  <defs
     id="defs5819">
    <inkscape:path-effect
       effect="mirror_symmetry"
       start_point="0,-5.3019477e-07"
       end_point="9,9"
       center_point="4.5,4.4999997"
       id="path-effect5983"
       is_visible="true"
       lpeversion="1.2"
       lpesatellites=""
       mode="free"
       discard_orig_path="false"
       fuse_paths="false"
       oposite_fuse="false"
       split_items="false"
       split_open="false"
       link_styles="false" />
  </defs>
  <sodipodi:namedview
     id="namedview5817"
     pagecolor="#ffffff"
     bordercolor="#666666"
     borderopacity="1.0"
     inkscape:showpageshadow="2"
     inkscape:pageopacity="0.0"
     inkscape:pagecheckerboard="0"
     inkscape:deskcolor="#d1d1d1"
     showgrid="false"
     inkscape:zoom="0.54924406"
     inkscape:cx="802.01141"
     inkscape:cy="347.75069"
     inkscape:current-layer="svg1173"
     inkscape:window-width="2168"
     inkscape:window-height="1189"
     inkscape:window-x="0"
     inkscape:window-y="25"
     inkscape:window-maximized="0" />
  <g
     id="g6014"
     style="fill:#000000"
     transform="matrix(18.582418,0,0,18.582418,23.549096,9.0628726)">
    <path
       d="m 24.033269,11.84893 c 1.05939,0.83044 2.15265,2.46521 2.41582,3.62655 0.28858,1.27036 -0.18062,2.63596 -1.15005,3.41736 -1.143,0.9204 -2.51495,0.2032 -1.86902,-0.70697 0.64594,-0.91087 1.23896,-1.55927 1.25413,-2.52553 0.0173,-1.08162 -0.17392,-1.90006 -1.08409,-3.15031 -0.50588,-0.69426 -0.27905,-1.22061 0.43321,-0.6611"
       style="fill:#000000;fill-opacity:1;fill-rule:nonzero;stroke:none;stroke-width:0.0352778"
       id="path543" />
    <path
       d="m 10.959329,28.8222 c -1.0541004,0.73861 -2.1808812,2.24578 -2.4930812,3.34172 -0.33938,1.19849 0.0395,2.52663 0.92533,3.32175 1.0452812,0.93846 2.3932512,0.32318 1.8228012,-0.57919 -0.5722,-0.90342 -1.10595,-1.55261 -1.07032,-2.47646 0.0395,-1.03435 0.26317,-1.80661 1.19697,-2.95452 0.51753,-0.63679 0.32773,-1.15146 -0.3817,-0.6533"
       style="fill:#000000;fill-opacity:1;fill-rule:nonzero;stroke:none;stroke-width:0.0352778"
       id="path545" />
    <path
       d="m 6.8208877,28.78014 c -1.17263,0.64344 -3.09351,1.00475 -4.2580299,0.79308 -1.27317,-0.2329 -2.3399702,-1.1938 -2.6744102,-2.38442 -0.39546,-1.40515 0.79622,-2.37952 1.3747802,-1.43337 0.58102,0.94608 0.94192,1.74134 1.8196299,2.13176 0.98213,0.43752 1.80516,0.58223 3.302,0.23855 0.83185,-0.19156 1.2259,0.22049 0.43603,0.6544"
       style="fill:#000000;fill-opacity:1;fill-rule:nonzero;stroke:none;stroke-width:0.0352778"
       id="path547" />
    <path
       d="m 17.770409,2.2480796 c 1.06186,0.7366 2.87231,1.2767 4.01249,1.1895699 1.24672,-0.0949 2.36679,-0.9129899 2.80776,-2.02248 0.52176,-1.31056995 -0.52493,-2.36678995 -1.17687,-1.51588995 -0.65228,0.85126 -1.07879,1.57868995 -1.9625,1.86584995 -0.98707,0.32244 -1.79246,0.37888 -3.19652,-0.10196 -0.77999,-0.26811 -1.19909,0.0896 -0.48436,0.5849101"
       style="fill:#000000;fill-opacity:1;fill-rule:nonzero;stroke:none;stroke-width:0.0352778"
       id="path549" />
    <path
       d="m -1.1056724,8.0420996 c 1.33985,-3.61456 5.1173901,-6.5330901 8.7993302,-7.40092005 3.7860112,-0.89324 8.2017312,0.49564995 10.8976612,3.27377005 1.79529,1.5536399 3.87385,2.8751399 6.02298,3.8661 2.1089,0.9719 5.01685,1.31233 6.82131,-0.4554401 2.419,-2.36961 -0.45403,-6.22864 -3.41912,-5.4295999 -0.72002,0.19367 -1.35608,0.75388 -1.62384,1.41322 -0.32808,0.80822 -0.11183,1.56881 0.57926,2.10221 0.31291,0.24059 0.91793,0.44168 1.51059,0.47695 -0.0787,-0.22401 -0.11959,-0.47625 -0.0998,-0.74542 0.0571,-0.82232 0.60678,-1.45379 1.22908,-1.41005 0.55915,0.0402 0.98178,0.61278 1.01988,1.32503 0.008,0.0801 0.0102,0.16193 0.001,0.24236 -0.01,0.139 -0.0381,0.26952 -0.0744,0.3958199 -0.32385,1.30069 -1.44533,1.8711301 -2.84198,1.4848401 -1.639,-0.45367 -2.35479,-2.25495 -2.10043,-3.82693 0.26281,-1.61925 1.55328,-2.95557005 3.2265,-3.00391005 1.75754,-0.0504 3.22898,1.35926005 3.71793,2.95840005 0.496,1.6196 0.40075,3.5567 -0.5835,4.97946 -0.99554,1.44074 -2.92135,1.7758804 -4.5473,1.67781 -1.67288,-0.0998 -3.22686,-0.90276 -4.65949,-1.71027 -0.36724,-0.20708 -0.73131,-0.42439 -1.0922,-0.64735 1.55081,1.55964 3.22192,2.6479604 5.19253,3.3679704 2.66383,0.97297 6.12035,0.63289 8.7369,-0.33655 2.77072,-1.0258704 4.97275,-3.9225304 4.59281,-6.9588904 -0.18485,-1.48237 -1.47637,-2.41759 -2.91288,-2.44757 -0.83644,-0.0166 -2.17982,0.68791 -2.2098,1.59173 0.56726,-0.24659 1.3409,0.0568 1.81151,0.75036 0.51506,0.7591799 0.46708,1.6901599 -0.10724,2.07892 -0.57362,0.3884099 -1.45627,0.0889 -1.97097,-0.6713401 -0.79305,-1.1221799 -0.60008,-2.98062 0.11641,-4.07281995 0.9398,-1.43192 2.679,-1.73813 4.11092,-1.0354 1.60056,0.78599 1.94628,2.73472995 1.9304,4.33704995 -0.019,1.98049 -0.68121,3.8802001 -1.82562,5.4857 -2.23908,3.1439505 -6.62799,3.8410405 -10.22527,3.4413405 -2.84974,-0.3175 -5.36504,-1.86584 -7.366,-3.9415805 0.73413,2.4895505 0.85584,5.2013505 0.35066,7.5854205 -0.88829,4.19383 -4.50391,7.68315 -8.65293,8.63036 -0.0949,0.0219 -0.19226,0.0356 -0.28787,0.054 -1.41252,2.91465 -4.5349613,4.517 -7.1892613,6.13261 -2.99261,1.8215 -7.45595,4.83528 -5.7499201,8.91689 0.73729998,1.76318 2.2888201,2.6942 4.1518401,2.74493 1.80869,0.0497 3.29071,-0.87479 4.10951,-2.48988 1.24848,-2.462 -1.30175,-4.72969 -3.35986,-4.4651 0.22261,0.39758 0.26847,0.95567 0.0829,1.5077 -0.30057,0.88939 -1.08832,1.42713 -1.76107,1.19944 -0.60219,-0.20242 -0.90417,-0.95274 -0.74295,-1.74872 0.0166,-0.0945 0.0381,-0.18588 0.0688,-0.27118 0.56445,-1.55928 2.15265,-2.52211 3.78425,-2.00176 1.74307,0.55675 2.57563,2.15099 2.78236,3.8676 0.23706,1.97157 -0.65864,3.87629 -2.22427,5.06127 -1.47355,1.114 -3.78636,0.96132 -5.32094,0.0708 -1.80446009,-1.04771 -2.5654001,-3.46632 -2.5643501,-5.42699 0.002,-2.22857 1.27141,-4.11484 2.8254001,-5.59802 1.64642,-1.57328 3.69605,-2.67187 5.62504,-3.85008 1.55963,-0.95155 3.2318013,-2.02847 4.3709213,-3.50209 -3.2123912,0.21131 -6.7027813,-1.21568 -8.4031712,-3.94335 -2.0591601,-3.30236 -1.97908,-8.50971 1.0505799,-11.22222 2.62572,-2.3516205 7.1271713,-2.1685204 9.3027513,0.61595 1.15393,1.47779 1.33632,3.57399 1.02058,5.3594 -0.25929,1.46615 -1.10701,2.5901 -2.33256,3.28048 -0.25012,0.16546 -0.53905,0.30022 -0.85584,0.39053 -1.26436,0.35701 -2.5064913,-0.12735 -2.7767213,-1.08232 -0.26952,-0.95497 0.53517,-2.01895 1.7991713,-2.37561 0.98107,-0.27693 1.94698,-0.0452 2.45745,0.51929 0.85443,-0.93275 1.25906,-2.21157 1.00824,-3.6001 -0.37183,-2.05599 -2.84833,-2.97921 -4.6690213,-2.97921 -1.98084,0 -4.0072,0.77576 -5.22957,2.36996 -1.50848,1.96745 -1.76918,4.66337 -0.7807,6.91092 1.7145,3.89784 7.3173213,4.70253 10.8934213,3.38878 4.57588,-1.68204 7.44467,-6.27979 7.04074,-11.0871 -0.22472,-2.6871004 -1.37865,-5.3618704 -3.36338,-7.2037204 -1.83797,-1.70568 -4.35539,-2.54988 -6.81708,-2.7520201 -2.6920512,-0.2197799 -5.1569013,0.57115 -7.3547113,2.11208 -1.8065699,1.26577 -3.5196601,3.0624701 -4.2968301,5.1586701 -0.14288,0.38382 -0.5461,0.28928 -0.6910999,0.0159 -0.2162499,-0.41028 -0.0991,-1.06962 0.042,-1.44851"
       style="fill:#000000;fill-opacity:1;fill-rule:nonzero;stroke:none;stroke-width:0.0352778"
       id="path551" />
    <path
       d="M 0.0059276,44.52218 0,55 c -3.9057314e-4,0.69039 0.807,0.76757 0.807,0 0,-3.84817 0.2819578,-4.76921 0.8950778,-6.30531 C 2.5543977,46.56123 1.6374778,46.0913 0.5170976,44.40114 0.3311876,44.11987 0,44.08322 0,44.52214"
       style="fill:#000000;fill-opacity:1;fill-rule:nonzero;stroke:none;stroke-width:0.0352778"
       id="path553"
       sodipodi:nodetypes="cssccc" />
    <path
       d="M 41.377589,0.01075955 52,-5e-8 c 0.689679,-6.9858626e-4 0.76802,0.8066296 0,0.8066296 -3.8481,0 -6.078651,0.28680995 -7.613591,0.89993995 -2.1336,0.8523101 -2.3622,0.19014 -3.25931,-1.18462995 C 40.942239,0.2393595 40.938359,-5e-8 41.377569,-5e-8"
       style="fill:#000000;fill-opacity:1;fill-rule:nonzero;stroke:none;stroke-width:0.0352778"
       id="path555"
       sodipodi:nodetypes="cssccc" />
  </g>
</svg>
