<?xml version="1.0" encoding="UTF-8" standalone="no"?>
<svg
   width="55.060562"
   height="55.060642"
   viewBox="0 0 55.060562 55.060645"
   version="1.1"
   id="svg1173"
   sodipodi:docname="style03.svg"
   inkscape:version="1.4 (e7c3feb1, 2024-10-09)"
   inkscape:export-filename="style03.png"
   inkscape:export-xdpi="1743.5347"
   inkscape:export-ydpi="1743.5347"
   xmlns:inkscape="http://www.inkscape.org/namespaces/inkscape"
   xmlns:sodipodi="http://sodipodi.sourceforge.net/DTD/sodipodi-0.dtd"
   xmlns="http://www.w3.org/2000/svg"
   xmlns:svg="http://www.w3.org/2000/svg">
  <defs
     id="defs1290" />
  <sodipodi:namedview
     id="namedview1288"
     pagecolor="#ffffff"
     bordercolor="#666666"
     borderopacity="1.0"
     inkscape:showpageshadow="2"
     inkscape:pageopacity="0.0"
     inkscape:pagecheckerboard="0"
     inkscape:deskcolor="#d1d1d1"
     showgrid="false"
     inkscape:zoom="10.954045"
     inkscape:cx="29.486826"
     inkscape:cy="26.063433"
     inkscape:current-layer="svg1173"
     inkscape:window-width="2024"
     inkscape:window-height="1184"
     inkscape:window-x="0"
     inkscape:window-y="25"
     inkscape:window-maximized="0" />
  <g
     id="g2512"
     transform="translate(-172.60437,-128.17363)"
     style="fill:#000000">
    <path
       d="m 181.81268,141.03988 c 3.4096,2.86349 8.47478,1.6577 11.95035,-0.30657 3.29248,-1.86055 6.1849,-4.40302 9.20927,-6.67738 -0.29034,-0.28822 -0.59055,-0.55915 -0.89359,-0.82056 -2.3368,1.84256 -4.40796,3.98533 -6.72959,5.85717 -2.04364,1.64712 -4.97981,3.13796 -7.62106,3.39619 -2.46627,0.24095 -5.33647,-0.70908 -6.24522,-3.21274 -0.99131,-2.73403 0.18238,-5.91538 2.34703,-7.6888 2.20944,-1.8108 5.39185,-2.56116 8.22219,-2.53435 0.6738,0.006 0.68862,0.37077 0.005,0.38241 -3.80048,0.0649 -8.11354,1.64677 -9.41846,5.52415 -0.50553,1.50142 -0.44733,3.35879 0.2233,4.79707 1.0093,2.16394 3.90208,2.58904 5.9362,2.01154 3.71898,-1.05692 6.40221,-3.57188 9.17398,-6.10376 1.10737,-1.01106 2.26836,-2.01683 3.49074,-2.94041 -7.1e-4,-7e-4 -0.001,-0.002 -0.002,-0.002 -3.27096,-2.56187 -7.56814,-3.96557 -11.70728,-3.89819 -3.62515,0.0596 -7.68209,1.53988 -9.49819,4.87327 -1.34444,2.46698 -0.5267,5.59224 1.55786,7.34342 z m 5.16538,-12.3564 c 5.21582,-1.09679 10.89977,0.36724 15.1959,3.51684 1.51836,-1.08232 3.13267,-2.01895 4.86198,-2.66665 5.76968,-2.16111 14.71507,-2.13501 19.05,2.95275 1.62384,1.90465 2.5527,5.47794 -0.0363,7.02169 -1.87819,1.11937 -5.01685,-0.0967 -4.5145,-2.54987 0.0875,-0.42792 0.31785,-0.79516 0.58526,-1.12995 0.0691,-0.10054 0.14675,-0.19861 0.2413,-0.28857 0.54222,-0.51541 1.28411,-0.61419 1.65806,-0.2212 0.37429,0.3937 0.23812,1.12995 -0.30445,1.64536 -0.33267,0.31609 -0.74119,0.47413 -1.09361,0.45861 -0.008,0.14429 -0.01,0.29175 0.009,0.44732 0.18838,1.64077 2.46415,1.8154 3.3401,0.63077 0.97507,-1.31974 0.55315,-3.1429 -0.096,-4.47675 -1.64888,-3.38772 -5.47229,-4.62492 -8.9281,-5.12621 -4.69194,-0.68157 -9.22655,0.46249 -13.14238,3.07128 -0.3422,0.22754 -0.67381,0.46637 -1.00225,0.70943 0.32385,0.25859 0.641,0.52459 0.94615,0.80293 0.0677,-0.0494 0.13406,-0.1009 0.20215,-0.14993 3.05258,-2.20098 7.18044,-3.96134 10.95939,-2.54741 4.04425,1.51342 5.64303,6.80861 2.25743,9.89154 -1.27635,1.16204 -3.20146,1.54975 -4.81507,0.99765 -1.96956,-0.67451 -3.08433,-2.98873 -2.17628,-4.87892 0.52387,-1.08867 2.13677,-1.66617 3.25367,-1.25835 1.3917,0.508 1.78752,2.23167 0.7186,3.08433 -0.13229,0.1143 -0.29104,0.21237 -0.47554,0.28011 -0.0254,0.0106 -0.0557,0.0187 -0.0882,0.0254 -0.5916,0.18097 -1.17757,0.002 -1.33561,-0.42686 -0.16616,-0.45085 0.20179,-1.00119 0.82268,-1.22979 0.17674,-0.0656 0.35418,-0.0938 0.52246,-0.0956 0.007,-0.30268 -0.10089,-0.60713 -0.2988,-0.79692 -1.09608,-1.05163 -2.21051,0.37747 -2.31493,1.32397 -0.0984,0.88865 0.23989,1.75684 0.7373,2.44652 1.09538,1.51871 3.0226,1.53458 4.43442,0.43286 2.933,-2.28988 1.88913,-6.97125 -0.89958,-8.8198 -3.48298,-2.30893 -7.69726,-0.19967 -10.63872,1.92052 -0.12242,0.0882 -0.24271,0.17921 -0.36442,0.26846 4.06153,4.04601 5.34211,11.45576 -0.95497,13.93614 -2.22673,0.87771 -4.63409,0.52035 -6.19654,-1.32997 -1.64536,-1.94769 -0.68863,-4.52438 1.30351,-5.71395 1.7459,-1.0421 4.5332,-0.65475 4.77308,1.66723 0.19403,1.88207 -2.39888,2.96051 -3.60397,1.74061 -0.0607,-0.0593 -0.11889,-0.12312 -0.17251,-0.19544 -0.39441,-0.53093 -0.40146,-1.19274 -0.0173,-1.4792 0.38559,-0.28681 1.01741,-0.09 1.41252,0.44133 0.29528,0.39793 0.37324,0.86853 0.23354,1.19979 0.64841,0.12524 1.06257,-1.23931 0.94756,-1.89618 -0.30762,-1.7593 -2.43945,-1.63301 -3.5186,-0.68156 -1.403,1.23684 -1.26859,3.22862 -0.27587,4.64643 1.53035,2.1844 4.24674,1.74661 6.17008,0.3676 1.45062,-1.04105 2.14771,-2.72168 2.28,-4.45347 0.21908,-2.86667 -1.24107,-5.55801 -3.18699,-7.65528 -2.78271,2.09056 -5.45536,4.33846 -8.42504,6.16338 -4.44747,2.73333 -12.70882,4.35505 -15.8235,-1.24671 -3.07481,-5.5298 3.10692,-9.79241 7.78405,-10.77631"
       style="fill:#000000;fill-opacity:1;fill-rule:nonzero;stroke:none;stroke-width:0.0352778"
       id="path683" />
    <path
       d="m 178.48634,158.54189 c 2.27436,-3.02437 4.81683,-5.91679 6.67773,-9.20962 1.96392,-3.47521 3.16971,-8.5404 0.30621,-11.95035 -1.75119,-2.08456 -4.87609,-2.90195 -7.34307,-1.55787 -3.33375,1.81646 -4.814,5.8734 -4.87362,9.49819 -0.067,4.1395 1.33632,8.43633 3.89855,11.70764 7e-4,7.1e-4 0.001,0.002 0.002,0.002 0.92357,-1.22273 1.92934,-2.38337 2.94076,-3.49074 2.53153,-2.77177 5.04648,-5.45535 6.10341,-9.17434 0.57749,-2.03411 0.1524,-4.92689 -2.01154,-5.93583 -1.43828,-0.67064 -3.29565,-0.72884 -4.79672,-0.22367 -3.87774,1.30528 -5.45959,5.61834 -5.5245,9.41847 -0.0116,0.68403 -0.37606,0.66922 -0.38241,-0.005 -0.0268,-2.83069 0.72354,-6.01275 2.53435,-8.22255 1.77342,-2.16464 4.95512,-3.33834 7.68915,-2.34668 2.50366,0.90876 3.45334,3.77896 3.21239,6.24523 -0.25788,2.64089 -1.74907,5.57706 -3.39619,7.62071 -1.87184,2.32198 -4.01426,4.39278 -5.85682,6.72994 0.26141,0.30303 0.53199,0.60289 0.82021,0.89358 z m -4.5219,4.06329 c 0.64734,-1.72896 1.58432,-3.34327 2.66664,-4.86198 -3.1496,-4.29613 -4.61398,-9.97973 -3.51684,-15.19555 0.9839,-4.67748 5.24651,-10.85886 10.77595,-7.78405 5.60176,3.11468 3.98039,11.37603 1.24707,15.8235 -1.82492,2.96968 -4.07282,5.64198 -6.16338,8.42504 2.09691,1.94592 4.78825,3.40572 7.65493,3.18699 1.73178,-0.13229 3.41242,-0.82938 4.45346,-2.28035 1.37901,-1.92299 1.81716,-4.63938 -0.36759,-6.16973 -1.41746,-0.99307 -3.4096,-1.12713 -4.64644,0.27552 -0.95144,1.0795 -1.07738,3.21133 0.68192,3.51896 0.65652,0.115 2.02107,-0.29951 1.89618,-0.94792 -0.33161,0.14005 -0.80221,0.0621 -1.1998,-0.23354 -0.53128,-0.39475 -0.72848,-1.02658 -0.44132,-1.41252 0.2861,-0.38417 0.94791,-0.37677 1.4792,0.0176 0.072,0.0533 0.13617,0.11183 0.19544,0.17216 1.2199,1.20509 0.14111,3.79836 -1.74096,3.60397 -2.32199,-0.23953 -2.70934,-3.02683 -1.66723,-4.77273 1.18992,-1.99249 3.76626,-2.94887 5.71429,-1.30351 1.84997,1.5621 2.20769,3.96981 1.32962,6.19654 -2.48038,6.29708 -9.89012,5.0165 -13.93613,0.95497 -0.0892,0.12171 -0.17992,0.24201 -0.26811,0.36407 -2.1202,2.94146 -4.22981,7.15574 -1.92088,10.63907 1.84891,2.78871 6.52992,3.83258 8.8198,0.89923 1.10173,-1.41182 1.08585,-3.33904 -0.4325,-4.43406 -0.68968,-0.49742 -1.55787,-0.83573 -2.44687,-0.73731 -0.94615,0.10442 -2.37525,1.2185 -1.32398,2.31493 0.1898,0.19755 0.4946,0.3055 0.79693,0.29845 0.002,-0.16792 0.0303,-0.34537 0.0956,-0.52211 0.2286,-0.62089 0.77894,-0.98919 1.23014,-0.82268 0.42862,0.15804 0.60748,0.74366 0.42686,1.33562 -0.007,0.0325 -0.0152,0.0628 -0.0254,0.0882 -0.0681,0.18415 -0.16616,0.34325 -0.28011,0.47554 -0.85266,1.06892 -2.57633,0.6731 -3.08469,-0.71861 -0.40781,-1.11689 0.16969,-2.73015 1.25872,-3.25367 1.88983,-0.90805 4.2044,0.20673 4.87891,2.17629 0.55175,1.6136 0.1644,3.53871 -0.99765,4.81471 -3.08328,3.38596 -8.37812,1.78717 -9.89154,-2.25707 -1.41429,-3.77896 0.34608,-7.90681 2.54706,-10.95975 0.049,-0.0677 0.10089,-0.13406 0.14993,-0.20214 -0.27799,-0.30515 -0.54434,-0.62195 -0.80293,-0.9458 -0.24271,0.32809 -0.48154,0.66005 -0.70943,1.00189 -2.60844,3.91619 -3.75285,8.45044 -3.07129,13.14238 0.5013,3.45617 1.73885,7.27957 5.12622,8.92846 1.3342,0.64911 3.15701,1.07103 4.4771,0.0956 1.18428,-0.8756 1.00965,-3.15137 -0.63076,-3.33975 -0.15593,-0.0183 -0.30339,-0.0173 -0.44768,-0.009 0.0155,0.35207 -0.14217,0.76059 -0.45861,1.09361 -0.51541,0.54257 -1.25166,0.67875 -1.64536,0.30445 -0.39299,-0.3743 -0.29421,-1.11584 0.2212,-1.65806 0.0899,-0.0949 0.18803,-0.17215 0.28857,-0.24165 0.33514,-0.26741 0.70238,-0.49742 1.1303,-0.58491 2.45321,-0.5027 3.66889,2.63631 2.54952,4.5145 -1.54375,2.58904 -5.11704,1.66017 -7.02169,0.036 -5.08741,-4.33493 -5.11351,-13.27997 -2.95239,-19.05"
       style="fill:#000000;fill-opacity:1;fill-rule:nonzero;stroke:none;stroke-width:0.0352778"
       id="path685" />
  </g>
</svg>
