<?xml version="1.0" encoding="UTF-8" standalone="no"?>
<svg
   width="49.288811"
   height="49.288479"
   viewBox="0 0 49.288811 49.288481"
   version="1.1"
   id="svg1173"
   sodipodi:docname="style36.svg"
   inkscape:version="1.4 (e7c3feb1, 2024-10-09)"
   inkscape:export-filename="style36.png"
   inkscape:export-xdpi="1947.7037"
   inkscape:export-ydpi="1947.7037"
   xmlns:inkscape="http://www.inkscape.org/namespaces/inkscape"
   xmlns:sodipodi="http://sodipodi.sourceforge.net/DTD/sodipodi-0.dtd"
   xmlns="http://www.w3.org/2000/svg"
   xmlns:svg="http://www.w3.org/2000/svg">
  <defs
     id="defs1789" />
  <sodipodi:namedview
     id="namedview1787"
     pagecolor="#ffffff"
     bordercolor="#666666"
     borderopacity="1.0"
     inkscape:showpageshadow="2"
     inkscape:pageopacity="0.0"
     inkscape:pagecheckerboard="0"
     inkscape:deskcolor="#d1d1d1"
     showgrid="false"
     inkscape:zoom="7.8561038"
     inkscape:cx="27.940058"
     inkscape:cy="22.530252"
     inkscape:current-layer="svg1173"
     inkscape:window-width="2192"
     inkscape:window-height="1203"
     inkscape:window-x="0"
     inkscape:window-y="25"
     inkscape:window-maximized="0" />
  <g
     id="g2752"
     transform="translate(-235.48442,-708.09636)"
     style="fill:#000000">
    <path
       d="m 244.9978,734.70452 c 0.054,0.0538 0.1513,0.066 0.2896,0.0343 0.1376,-0.0307 0.2459,-0.0847 0.3221,-0.16097 0.023,-0.0224 0.088,-0.12623 0.1958,-0.31115 0.1073,-0.18521 0.2159,-0.33045 0.3235,-0.43766 0.03,-0.0298 0.1129,-0.0985 0.248,-0.2019 0.1344,-0.10403 0.2417,-0.19829 0.3277,-0.28359 0.6375,-0.63712 1.0993,-1.52118 1.3836,-2.65007 0.3006,-1.19133 0.3415,-2.46239 0.1253,-3.81494 -0.044,-0.32209 -0.1838,-0.84596 -0.4142,-1.5681 -0.2074,-0.65158 -0.3291,-1.16028 -0.3686,-1.52082 0.1008,0.0684 0.1887,0.14252 0.2659,0.21978 0.1151,0.115 0.4414,0.88018 0.9794,2.2927 0.4222,1.0989 0.7792,2.24049 1.0721,3.42336 0.2307,0.92145 0.3566,1.39453 0.3795,1.41781 0.054,0.055 0.1041,0.0565 0.1489,0.0113 0.1087,-0.10901 0.1401,-0.56198 0.095,-1.35961 -0.071,-1.00682 -0.284,-2.09056 -0.6459,-3.25014 -0.423,-1.34514 -0.9261,-2.64795 -1.5099,-3.90878 -0.4378,-0.92992 -0.6498,-1.40088 -0.6332,-1.41605 0.061,-0.0621 0.1312,-0.0543 0.206,0.0205 0.4466,0.44767 1.288,1.87325 2.5248,4.27743 0.5309,1.03716 0.9751,2.06727 1.3367,3.08962 0.2776,0.79763 0.4339,1.21779 0.472,1.25554 0.3468,0.34713 0.6579,0.38029 0.9338,0.10478 0.1771,-0.17675 0.2445,-0.50871 0.2025,-0.99837 -0.042,-0.48718 -0.053,-0.7433 -0.03,-0.76517 0.1235,-0.12418 0.3228,-0.0466 0.6001,0.23036 l 0.3224,0.32315 c 0.2533,0.25329 0.653,0.10618 1.1991,-0.43886 0.6219,-0.62124 0.8336,-1.03364 0.6343,-1.23331 -0.092,-0.0921 -0.2272,-0.19897 -0.4036,-0.32244 -0.1764,-0.12382 -0.2924,-0.21166 -0.3461,-0.26599 -0.054,-0.0533 -0.042,-0.11783 0.035,-0.19509 0.03,-0.0289 0.2639,-0.0328 0.6961,-0.004 0.4363,0.025 0.7256,-0.0346 0.872,-0.18098 0.084,-0.0836 0.1133,-0.23177 0.086,-0.44238 -0.027,-0.21096 -0.1016,-0.37818 -0.2254,-0.50236 -0.031,-0.0307 -0.3186,-0.14887 -0.8632,-0.35595 -0.7994,-0.30868 -1.5487,-0.61136 -2.2501,-0.91122 -2.5114,-1.08303 -4.1021,-1.96004 -4.7699,-2.62855 -0.038,-0.0388 -0.1019,-0.0903 -0.1912,-0.15593 -0.088,-0.0635 -0.1513,-0.11642 -0.1891,-0.15557 -0.07,-0.0684 -0.081,-0.12665 -0.035,-0.17216 0.031,-0.031 0.2114,0.002 0.5433,0.10407 0.5207,0.15416 1.3169,0.48013 2.3855,0.98002 1.1748,0.54469 2.0726,0.92957 2.6959,1.15287 0.8763,0.30657 1.6567,0.51682 2.3393,0.63359 0.5694,0.0921 0.8911,0.0991 0.9673,0.0229 0.085,-0.0857 0.079,-0.17674 -0.021,-0.27693 -0.077,-0.0773 -0.3485,-0.19579 -0.8181,-0.35807 -1.107,-0.32173 -2.4218,-0.72884 -3.9419,-1.22202 -0.5454,-0.22225 -1.0912,-0.44556 -1.6365,-0.66851 -0.4774,-0.19862 -0.815,-0.37465 -1.0157,-0.52987 l -0.1845,-0.27694 c 0.069,-0.0512 0.6724,0.10407 1.8108,0.47237 0.883,0.28646 2.0638,0.47449 3.537,0.56621 0.7782,0.0547 1.8094,-0.127 3.1012,-0.54222 0.3849,-0.12206 0.647,-0.25435 0.7835,-0.39123 0.015,-0.0159 0.025,-0.0409 0.03,-0.0758 0,-0.0339 0.018,-0.0632 0.041,-0.0871 0.01,-0.006 0.2166,-0.0737 0.6266,-0.20144 0.412,-0.12594 0.7676,-0.33866 1.0682,-0.63888 0.1905,-0.19156 0.3055,-0.40005 0.3439,-0.62336 l -0.2522,-0.27657 c -2.5298,0.93133 -5.3492,1.27811 -8.4614,1.03822 -3.073,-0.23036 -4.7949,-0.52987 -5.1636,-0.89958 -0.046,-0.0452 -0.1012,-0.21061 -0.1612,-0.49565 -0.061,-0.28187 -0.1693,-0.50236 -0.3228,-0.65511 -0.5704,-0.57009 -1.2337,-0.47308 -1.9935,0.2861 -0.7391,0.73872 -0.8107,1.4037 -0.2205,1.99319 0.069,0.0699 0.236,0.12771 0.496,0.17463 0.2628,0.0462 0.4191,0.096 0.4738,0.15028 0.1453,0.14535 0.3333,0.81704 0.5637,2.01613 0.2918,1.52329 0.466,3.20816 0.5182,5.06024 0.047,1.35326 0.02,2.40101 -0.08,3.14643 -0.1531,1.10701 -0.503,2.13995 -1.0488,3.09979 -0.1379,0.21593 -0.2776,0.43822 -0.4134,0.66999 -0.1383,0.23001 -0.1366,0.41811 0.01,0.56402"
       style="fill:#000000;fill-opacity:1;fill-rule:nonzero;stroke:none;stroke-width:0.0352778"
       id="path228" />
    <path
       d="m 283.196,709.87574 c -0.7526,1.89406 -3.0809,3.55071 -7.2173,2.69416 -4.1373,-0.85478 -10.1032,-0.52916 -12.7014,1.25166 -2.0598,1.40935 -0.6928,1.37336 1.3342,0.96414 1.5431,-0.31256 4.2117,0.0134 5.3523,1.29716 1.1422,1.28412 1.7244,1.84115 1.6006,3.44558 -0.084,1.08339 -0.8206,2.03271 -1.8872,2.37526 -1.1179,0.35913 -1.8769,0.91475 0.2829,1.79705 1.7363,0.70873 3.9923,0.42756 5.1343,-1.28411 1.1407,-1.71168 0.9427,-2.70405 0.5693,-3.67313 -0.355,-0.92639 -1.1471,-1.71626 -2.0675,-2.53082 -0.9271,-0.82162 -0.7161,-1.10949 0.3562,-0.53587 0.9998,0.53587 2.0814,1.47037 4.383,2.13783 2.2097,0.641 4.6755,-0.39052 5.5339,-2.06834 0.6691,-1.30739 1.1384,-3.8481 0.7805,-5.48992 -0.3387,-1.55752 -0.784,-2.06869 -1.4538,-0.38065"
       style="fill:#000000;fill-opacity:1;fill-rule:nonzero;stroke:none;stroke-width:0.0352778"
       id="path230" />
    <path
       d="m 267.3216,709.65031 c -1.312,0.56304 -3.58,1.25378 -4.9209,2.46028 -1.783,1.60549 -3.423,3.20992 -4.2782,5.13609 -0.8561,1.92475 -1.1765,1.60443 -0.5348,-0.53622 0.641,-2.13854 1.6041,-5.24158 2.8879,-6.73806 1.2844,-1.49825 3.707,-2.06939 5.5622,-1.81928 2.5553,0.34467 2.782,0.8569 1.2838,1.49719"
       style="fill:#000000;fill-opacity:1;fill-rule:nonzero;stroke:none;stroke-width:0.0352778"
       id="path232" />
    <path
       d="m 258.9248,731.42023 c -0.169,1.06857 -1.535,2.64612 -2.5506,3.33379 -1.3198,0.89143 -2.4966,0.99726 -4.0291,0.7838 -0.8057,-0.11257 -1.3197,0.21346 -0.4276,1.10423 1.0199,1.02196 3.423,2.10428 5.1344,1.24947 1.7127,-0.85616 2.5678,-4.99174 2.4235,-5.91954 0.9282,0.14287 5.0631,-0.71262 5.9197,-2.42359 0.8551,-1.71168 -0.2276,-4.11339 -1.2489,-5.13574 -0.8914,-0.89076 -1.2171,-0.37641 -1.1045,0.42863 0.2131,1.53317 0.1072,2.70968 -0.7839,4.02943 -0.6872,1.01529 -2.2659,2.37948 -3.333,2.54952"
       style="fill:#000000;fill-opacity:1;fill-rule:nonzero;stroke:none;stroke-width:0.0352778"
       id="path234" />
    <path
       d="m 256.2673,715.64119 c 0,-1.42805 0.07,-3.5306 -0.7842,-4.63515 -0.6809,-0.8823 -1.3205,-1.10525 -3.3535,-1.42593 -1.2683,-0.20038 -3.1567,-0.29951 -5.9549,0.49883 -1.4983,0.42792 -1.7473,0.99801 -0.1778,1.06997 1.5702,0.0716 4.9628,0.3235 6.1327,0.9264 1.1758,0.60607 2.4257,1.14265 3.1026,3.74438 0.2509,0.96555 1.0351,1.88983 1.0351,-0.1785"
       style="fill:#000000;fill-opacity:1;fill-rule:nonzero;stroke:none;stroke-width:0.0352778"
       id="path236" />
    <path
       d="m 237.2628,755.8078 c 1.8948,-0.75184 3.55,-3.08046 2.6938,-7.21787 -0.8558,-4.1359 -0.5281,-10.10215 1.2513,-12.7011 1.4097,-2.05909 1.3748,-0.69137 0.9649,1.33393 -0.3119,1.54477 0.014,4.211 1.2978,5.3541 1.2827,1.14018 1.8415,1.72255 3.4456,1.59837 1.0837,-0.0836 2.0331,-0.82021 2.3742,-1.88694 0.3605,-1.11799 0.9155,-1.87716 1.7978,0.2829 0.709,1.73605 0.4289,3.99302 -1.2842,5.13542 -1.7113,1.14113 -2.704,0.94117 -3.6727,0.56938 -0.9268,-0.35634 -1.7188,-1.14829 -2.5309,-2.06802 -0.823,-0.92742 -1.1091,-0.71642 -0.5341,0.35624 0.5341,0.99949 1.4669,2.0811 2.1354,4.38255 0.6417,2.21026 -0.3912,4.67502 -2.069,5.53477 -1.3078,0.66781 -3.8485,1.13743 -5.4893,0.78038 -1.5578,-0.33969 -2.0676,-0.78355 -0.3806,-1.45411"
       style="fill:#000000;fill-opacity:1;fill-rule:nonzero;stroke:none;stroke-width:0.0352778"
       id="path238" />
    <path
       d="m 237.0384,739.93417 c 0.562,-1.31159 1.2534,-3.58108 2.4607,-4.92125 1.6037,-1.78294 3.2081,-3.423 5.1339,-4.27919 1.9255,-0.85584 1.6045,-1.17687 -0.5344,-0.53446 -2.1396,0.6417 -5.2416,1.60408 -6.7388,2.88784 -1.4982,1.28407 -2.0694,3.70762 -1.8182,5.5633 0.3436,2.55337 0.8548,2.7806 1.4968,1.28376"
       style="fill:#000000;fill-opacity:1;fill-rule:nonzero;stroke:none;stroke-width:0.0352778"
       id="path240" />
    <path
       d="m 243.0286,728.87811 c -1.4277,0 -3.5295,0.0706 -4.6362,-0.78387 -0.8809,-0.67945 -1.1028,-1.32009 -1.4242,-3.35209 -0.2007,-1.26894 -0.3012,-3.15772 0.4978,-5.9563 0.429,-1.49719 1.0005,-1.7459 1.071,-0.17639 0.069,1.56951 0.3232,4.96182 0.9247,6.13269 0.606,1.1744 1.1437,2.42429 3.7447,3.10233 0.9659,0.24976 1.8919,1.03363 -0.1778,1.03363"
       style="fill:#000000;fill-opacity:1;fill-rule:nonzero;stroke:none;stroke-width:0.0352778"
       id="path242" />
  </g>
</svg>
