<?xml version="1.0" encoding="UTF-8" standalone="no"?>
<svg
   width="1000"
   height="1003.1808"
   viewBox="0 0 1000 1003.1809"
   version="1.1"
   id="svg1173"
   sodipodi:docname="style02.svg"
   inkscape:version="1.4 (e7c3feb1, 2024-10-09)"
   inkscape:export-filename="style02.png"
   inkscape:export-xdpi="1676.0674"
   inkscape:export-ydpi="1676.0674"
   xmlns:inkscape="http://www.inkscape.org/namespaces/inkscape"
   xmlns:sodipodi="http://sodipodi.sourceforge.net/DTD/sodipodi-0.dtd"
   xmlns="http://www.w3.org/2000/svg"
   xmlns:svg="http://www.w3.org/2000/svg">
  <defs
     id="defs1137" />
  <sodipodi:namedview
     id="namedview1135"
     pagecolor="#ffffff"
     bordercolor="#666666"
     borderopacity="1.0"
     inkscape:showpageshadow="2"
     inkscape:pageopacity="0.0"
     inkscape:pagecheckerboard="0"
     inkscape:deskcolor="#d1d1d1"
     showgrid="false"
     inkscape:zoom="0.60033207"
     inkscape:cx="315.65863"
     inkscape:cy="522.21098"
     inkscape:current-layer="svg1173"
     inkscape:window-width="2008"
     inkscape:window-height="1118"
     inkscape:window-x="0"
     inkscape:window-y="25"
     inkscape:window-maximized="0" />
  <g
     id="g2508"
     transform="matrix(17.459036,0,0,17.459036,-1729.7246,-2242.0911)"
     style="fill:#000000">
    <path
       d="m 101.0354,158.93629 c 1.4432,-3.89219 4.12043,-7.28874 6.4537,-10.67682 1.49931,-2.1784 2.58833,-4.70041 2.56576,-7.3787 -0.003,-0.36865 -0.0402,-0.72002 -0.10301,-1.05516 -1.5487,-0.35489 -2.93476,-1.2072 -3.94829,-2.77459 -0.23284,-0.36019 -0.40711,-0.72073 -0.5387,-1.07915 -0.24553,-0.01 -0.49459,-0.01 -0.75141,0.0127 -2.27435,0.19826 -3.89815,2.03094 -4.28235,4.18782 -0.357,2.0066 1.4037,3.21028 3.16228,3.36021 1.02976,0.0868 2.76719,-0.71437 2.28,-1.91241 -0.31962,0.30304 -0.91158,0.26635 -1.38007,-0.11712 -0.49741,-0.4064 -0.65651,-1.03575 -0.35489,-1.40441 0.29986,-0.36759 0.94791,-0.33549 1.44533,0.0716 0.12735,0.10301 0.23178,0.22155 0.31256,0.34608 0.87277,1.11583 0.82056,2.95204 -0.39193,3.7906 -0.34008,0.2353 -0.71015,0.3817 -1.0915,0.45437 0.83503,1.24919 0.85231,3.13197 0.51894,4.53567 -0.38629,1.62807 -1.50989,3.03318 -2.29692,4.47816 -0.8809,1.61643 -1.6355,3.59869 -1.7202,5.51886 0.042,-0.11889 0.077,-0.23883 0.1207,-0.35772 z m 5.8307,-22.72277 c 0.44697,1.37407 1.47249,2.42076 2.89983,2.89948 -0.47907,-1.42698 -1.52541,-2.45251 -2.89983,-2.89948 z m 4.6676,3.18876 c 2.67829,0.0226 5.19959,-1.0668 7.3787,-2.5661 3.38773,-2.33328 6.78427,-5.01051 10.67682,-6.45372 0.11854,-0.0441 0.23848,-0.079 0.35737,-0.1203 -1.92088,0.0847 -3.90314,0.83891 -5.51886,1.71979 -1.44498,0.78705 -2.84974,1.91065 -4.47816,2.29729 -1.40335,0.33338 -3.28613,0.31574 -4.53567,-0.51893 -0.073,0.38064 -0.21942,0.75071 -0.45437,1.09078 -0.83891,1.21356 -2.67512,1.26507 -3.7906,0.39229 -0.12418,-0.0808 -0.24236,-0.18556 -0.34678,-0.31256 -0.40605,-0.49741 -0.4385,-1.14547 -0.0698,-1.44533 0.3683,-0.30127 0.9973,-0.14252 1.4037,0.35525 0.38312,0.46813 0.41945,1.06045 0.11677,1.38042 1.19874,0.48683 1.99884,-1.2513 1.9117,-2.28071 -0.14922,-1.75895 -1.35396,-3.51966 -3.35879,-3.16159 -2.15759,0.38417 -3.99027,2.00765 -4.18818,4.28236 -0.0226,0.25647 -0.0226,0.50518 -0.0131,0.75036 0.35842,0.13159 0.71966,0.30586 1.07985,0.53905 1.56704,1.01318 2.41935,2.39995 2.77389,3.94864 0.33549,0.0628 0.68721,0.0995 1.05551,0.10301 z m -11.853,29.5088 c -0.072,-0.15275 -0.1231,-0.31608 -0.122,-0.43215 0.018,-2.7439 0.248,-5.43242 0.9944,-8.04686 -0.4067,-3.00143 0.4135,-5.98276 2.0521,-8.59825 1.33249,-2.12937 3.6012,-6.44137 -0.4049,-7.12047 -1.0591,-0.17956 -1.9724,0.53023 -2.3993,1.41288 -0.7091,1.46861 0.5024,2.20203 1.5198,2.05175 -0.044,-0.12206 -0.072,-0.25682 -0.077,-0.39899 -0.024,-0.56797 0.2988,-1.04246 0.719,-1.06045 0.4187,-0.0176 0.7786,0.42686 0.8033,0.99307 3e-4,0.002 3e-4,0.002 3e-4,0.004 0,0.0928 0,0.18027 -0.017,0.26705 -0.1926,1.97803 -2.8568,1.99355 -3.4738,0.0614 -0.5669,-1.77553 0.071,-3.93241 1.7473,-4.47287 -0.2896,-0.2988 -0.5309,-0.63747 -0.6988,-1.00577 -1.6373,-3.59586 1.2248,-8.128 4.85703,-8.03769 -0.0903,-3.6322 4.44182,-6.49393 8.03733,-4.85669 0.3683,0.16757 0.70697,0.40922 1.00577,0.69886 0.54046,-1.67676 2.69699,-2.31458 4.47322,-1.74731 1.93111,0.617 1.91559,3.28189 -0.0621,3.47345 -0.0861,0.0138 -0.17392,0.0219 -0.26635,0.0176 h -3.5e-4 c -0.001,0 -0.003,0 -0.004,-7.1e-4 -0.56621,-0.0247 -1.01106,-0.38488 -0.99342,-0.80327 0.0173,-0.42052 0.49318,-0.74225 1.06045,-0.71932 0.14252,0.006 0.27693,0.0339 0.39934,0.0773 0.15028,-1.01776 -0.58385,-2.22814 -2.0514,-1.51941 -0.88301,0.42651 -1.59385,1.3402 -1.41394,2.39924 0.67945,4.00615 4.99216,1.73814 7.12118,0.40464 2.61549,-1.6383 5.59717,-2.45816 8.5986,-2.05176 2.61409,-0.74577 5.3019,-0.97649 8.04616,-0.99413 0.0882,-7e-4 0.20355,0.0289 0.32067,0.0741 0.9271,-0.58596 2.22391,-0.72249 3.3648,-0.35771 1.93216,0.617 1.91629,3.28189 -0.0617,3.47345 -0.0857,0.0138 -0.17392,0.0219 -0.26599,0.0176 h -7.1e-4 c -7e-4,0 -0.002,0 -0.004,-7.1e-4 -0.5655,-0.0247 -1.01035,-0.38488 -0.99307,-0.80327 0.018,-0.42052 0.49248,-0.74225 1.0601,-0.71932 0.14252,0.006 0.27764,0.0339 0.3997,0.0773 0.14993,-1.01776 -0.58385,-2.22814 -2.0514,-1.51941 -0.88336,0.42651 -1.5935,1.3402 -1.41394,2.39924 0.6791,4.00614 4.99181,1.73814 7.12047,0.40464 2.79859,-1.7526 6.01451,-2.56929 9.2269,-1.94945 0.7493,0.14428 0.65758,0.51646 -0.10548,0.369 -2.38901,-0.46108 -5.09093,0.47166 -7.17973,1.61043 -1.44498,0.78705 -2.84974,1.91065 -4.47887,2.29729 -2.11984,0.50341 -5.34423,0.21837 -5.80637,-2.5019 -0.16016,-0.94544 0.0836,-1.69686 0.55563,-2.25037 -2.97039,0.0684 -5.94008,0.42192 -8.69562,1.59914 -3.44241,1.47073 -6.47736,3.7271 -9.54441,5.83883 -2.57457,1.772 -6.58354,3.45299 -9.98079,2.98026 0.47237,3.39726 -1.20861,7.40657 -2.98062,9.98115 -2.11137,3.0674 -4.36774,6.10164 -5.83879,9.54405 -1.2012,2.81411 -1.5452,5.84941 -1.6037,8.88188 0.5542,-0.47484 1.307,-0.72037 2.2549,-0.5595 2.72062,0.46108 3.00566,3.68582 2.5019,5.80637 -0.38629,1.62877 -1.50989,3.03318 -2.2969,4.47851 -1.1391,2.08915 -2.0715,4.79072 -1.6108,7.17903 0.1471,0.76306 -0.2244,0.85513 -0.3683,0.10513 -0.6205,-3.21169 0.1965,-6.42761 1.9494,-9.2262 1.33247,-2.12866 3.60118,-6.44102 -0.4049,-7.12047 -1.0591,-0.17885 -1.9724,0.53058 -2.3993,1.41323 -0.7091,1.46791 0.5024,2.20204 1.5198,2.05176 -0.044,-0.12171 -0.072,-0.25612 -0.077,-0.39864 -0.024,-0.56868 0.2988,-1.04281 0.719,-1.06045 0.4187,-0.018 0.7786,0.42721 0.8033,0.99307 3e-4,10e-4 3e-4,0.002 3e-4,0.003 0,0.0928 0,0.18133 -0.017,0.2674 -0.1926,1.97768 -2.8568,1.99355 -3.4738,0.0617 -0.3739,-1.17122 -0.2201,-2.50472 0.4057,-3.43535"
       style="fill:#000000;fill-opacity:1;fill-rule:nonzero;stroke:none;stroke-width:0.0352778"
       id="path681" />
  </g>
</svg>
