<?xml version="1.0" encoding="UTF-8" standalone="no"?>
<svg
   width="1000"
   height="969.49689"
   viewBox="0 0 1000 969.49692"
   version="1.1"
   id="svg1173"
   sodipodi:docname="style14.svg"
   inkscape:version="1.4 (e7c3feb1, 2024-10-09)"
   inkscape:export-filename="style14.png"
   inkscape:export-xdpi="1640.6538"
   inkscape:export-ydpi="1640.6538"
   xmlns:inkscape="http://www.inkscape.org/namespaces/inkscape"
   xmlns:sodipodi="http://sodipodi.sourceforge.net/DTD/sodipodi-0.dtd"
   xmlns="http://www.w3.org/2000/svg"
   xmlns:svg="http://www.w3.org/2000/svg">
  <defs
     id="defs3096" />
  <sodipodi:namedview
     id="namedview3094"
     pagecolor="#ffffff"
     bordercolor="#666666"
     borderopacity="1.0"
     inkscape:showpageshadow="2"
     inkscape:pageopacity="0.0"
     inkscape:pagecheckerboard="0"
     inkscape:deskcolor="#d1d1d1"
     showgrid="false"
     inkscape:zoom="1.0720689"
     inkscape:cx="424.8794"
     inkscape:cy="166.0341"
     inkscape:current-layer="svg1173"
     inkscape:window-width="2344"
     inkscape:window-height="1241"
     inkscape:window-x="0"
     inkscape:window-y="25"
     inkscape:window-maximized="0" />
  <path
     d="M 373.95399,130.61741 C 388.17658,107.66483 395.45356,69.603715 391.69749,46.102546 387.39283,19.231202 365.42293,1.8132697 345.78038,0.19141525 315.78598,-2.2864847 303.63147,19.864221 320.74793,33.580257 c 13.82456,11.087401 22.56668,21.650135 29.86776,34.172424 7.30724,12.516308 10.85224,34.003749 6.65012,52.434439 -5.08859,22.29529 5.14277,29.07802 16.68818,10.43029"
     style="fill:#000000;fill-opacity:1;fill-rule:nonzero;stroke:none;stroke-width:0.602903"
     id="path455" />
  <path
     d="m 388.30322,226.09303 c 22.95838,-14.22259 61.02565,-21.51171 84.51469,-17.7435 26.87151,4.30483 44.29525,26.2684 45.91113,45.91711 2.48388,29.98226 -19.66666,42.14276 -33.38884,25.03843 -11.08125,-13.82456 -21.63818,-22.56651 -34.17841,-29.87973 -12.51033,-7.28911 -33.99161,-10.84625 -52.42846,-6.64413 -22.2893,5.08261 -29.07802,-5.1426 -10.43011,-16.68818"
     style="fill:#000000;fill-opacity:1;fill-rule:nonzero;stroke:none;stroke-width:0.602903"
     id="path457" />
  <path
     d="M 98.494042,434.30532 C 82.860834,446.58646 55.585478,455.02711 38.083292,454.18303 18.060822,453.23624 3.5188195,438.57375 0.73346801,424.32724 -3.5291555,402.56841 11.688079,391.87305 23.131297,403.26175 c 9.248502,9.22441 17.683,14.7652 27.444035,19.08799 9.761035,4.31679 25.774157,5.17284 38.917332,0.58448 15.916736,-5.52866 21.716616,1.39284 9.001378,11.37075"
     style="fill:#000000;fill-opacity:1;fill-rule:nonzero;stroke:none;stroke-width:0.602903"
     id="path459" />
  <path
     d="m 194.18073,386.18768 c 1.07839,19.85362 12.72122,45.91694 24.88171,58.52365 13.91496,14.41537 34.52824,15.68756 47.08061,8.39844 19.1724,-11.14756 17.18277,-29.64473 1.06129,-30.7238 -13.02268,-0.86818 -22.74749,-3.56928 -32.43008,-8.05493 -9.69472,-4.49146 -20.8845,-15.97074 -26.11169,-28.87294 -6.32455,-15.62723 -15.356,-15.4042 -14.48167,0.72975"
     style="fill:#000000;fill-opacity:1;fill-rule:nonzero;stroke:none;stroke-width:0.602903"
     id="path461" />
  <path
     d="m 661.14052,10.088653 c 12.39565,5.480296 32.17082,25.635385 38.49537,40.514918 4.26245,10.014312 7.50001,9.555954 15.52469,-1.428736 11.66624,-15.989025 31.30265,-25.05056 56.33526,-30.259636 12.52827,-2.610605 91.29821,-6.630495 170.31028,-6.490665 0,0 33.80636,0.172183 46.84409,-0.165433 C 1003.7107,11.860901 1003.8556,0 988.65021,0 H 662.01468 c -7.72321,0 -8.60951,6.6702828 -0.87502,10.088653"
     style="fill:#000000;fill-opacity:1;fill-rule:nonzero;stroke:none;stroke-width:0.602903"
     id="path463"
     sodipodi:nodetypes="ccccscssc" />
  <path
     d="m 41.676494,618.12416 c 5.492431,12.40778 25.629404,32.18296 40.51509,38.50136 10.01414,4.27458 9.555953,7.51812 -1.435572,15.53682 -15.983044,11.67205 -25.038598,31.29666 -30.259637,56.35321 -2.604537,12.51323 -6.54046,130.77661 -6.640545,182.78863 0,0 0.337615,33.815 0,46.84974 -0.398201,15.0665 -12.253633,15.18134 -12.253633,0 V 619.01626 c 0,-7.72918 6.655243,-8.60352 10.073614,-0.8921"
     style="fill:#000000;fill-opacity:1;fill-rule:nonzero;stroke:none;stroke-width:0.602903"
     id="path465"
     sodipodi:nodetypes="ccccscssc" />
  <path
     d="M 691.15886,70.79096 C 661.27915,4.1522197 564.99552,-9.7025883 503.24031,12.562621 431.3262,38.469398 399.0648,118.57107 360.99771,178.28847 321.12164,240.87582 242.96741,292.47814 166.29044,266.75235 129.79667,254.50744 98.958198,225.5499 83.505807,190.50331 68.819226,157.19291 73.576094,117.10593 87.931127,84.549209 115.89982,21.184256 208.54171,-15.333619 255.5319,48.845336 c 36.51188,49.859982 4.42532,127.206384 -56.86572,136.810524 -31.13978,4.87753 -52.17517,-23.12125 -51.90976,-51.82534 0.13672,-14.65053 9.23037,-27.26938 19.71483,-36.596322 2.19455,-1.947253 5.05236,-4.111719 8.23557,-6.197742 2.06808,8.338112 10.67143,15.874354 22.27734,18.400614 14.77716,3.20731 28.66187,-2.89404 31.01331,-13.667841 2.14635,-9.905617 -6.25824,-20.203283 -19.1061,-24.315001 -1.39797,-0.481942 -2.62864,-0.837417 -3.41837,-1.013445 -29.20465,-6.445035 -58.72274,3.05059 -77.62973,26.696515 -19.28673,24.110092 -12.26902,60.887052 10.55077,80.240272 52.18115,44.27099 130.18464,20.93269 157.18877,-38.94758 13.2035,-29.2949 4.9317,-63.232337 -12.30524,-88.807394 C 264.79253,22.172408 232.42877,7.6907339 200.87285,2.0836288 133.29348,-9.9382614 70.380751,31.215828 50.521155,95.750601 28.032925,168.84036 70.169688,235.52148 135.16861,267.87911 c 66.98839,33.34064 149.24836,21.93366 207.11488,-24.35107 57.43245,-45.93522 79.99913,-122.335 127.51996,-176.927754 27.42592,-31.507729 66.46988,-50.39661 108.46206,-49.649087 39.74328,0.71095 73.46367,22.343653 87.10724,59.819944 10.27357,28.209847 7.74132,60.501327 -7.1806,86.468267 -17.39963,30.26579 -58.57183,46.94799 -91.96665,36.08378 -34.14832,-11.09338 -40.67778,-52.22952 -30.81437,-82.16958 5.32375,-16.15172 17.74948,-30.181361 33.29227,-37.04237 13.05892,-5.76365 25.86456,-2.4779 31.62839,7.638782 -5.00417,4.817198 -8.28992,12.347458 -8.28992,20.902618 0,14.55413 9.3389,26.35283 20.87235,26.35283 11.52149,0 20.8604,-11.7987 20.8604,-26.35283 -0.0684,-33.044994 -34.55831,-43.40897 -62.18931,-45.549168 -32.59294,-2.50815 -58.05948,20.63122 -67.81435,50.257838 -24.70705,74.93481 62.15307,112.85134 122.67849,100.97404 66.43979,-13.03466 90.51365,-86.02204 64.70941,-143.544903"
     style="fill:#000000;fill-opacity:1;fill-rule:nonzero;stroke:none;stroke-width:0.602903"
     id="path467" />
  <path
     d="m 260.43955,561.16801 c -1.9534,-36.96991 -22.5002,-67.36832 -58.59594,-77.47304 -43.33069,-12.10016 -96.99494,14.2889 -93.05805,64.26954 1.75447,22.26504 17.53243,38.02488 38.37472,43.41494 18.89503,4.88949 46.25464,4.08762 59.18094,-12.74531 7.63878,-9.76702 7.92213,-22.27735 0.6631,-27.95657 -7.26485,-5.68538 -19.34109,-2.37553 -26.97372,7.39747 -4.44344,5.67939 -6.3184,12.26918 -5.73972,17.93029 -16.07943,16.89942 -31.90559,-11.62984 -34.23874,-26.35283 -3.316,-20.79409 8.92294,-39.92411 25.68956,-51.01151 19.35322,-12.81163 39.79167,1.66458 50.66202,18.3584 11.67206,17.91816 14.21029,41.13597 12.51016,61.96031 -3.55714,43.37872 -52.02445,72.72198 -92.84101,62.37612 -40.949004,-10.3638 -66.873897,-52.15091 -64.263206,-92.96149 2.68281,-42.2212 36.312796,-72.60149 63.853216,-100.81732 28.44501,-29.12622 59.73569,-57.86039 55.04513,-102.17974 -3.75009,-35.45077 -30.24169,-55.95535 -63.32889,-62.38244 -31.351015,-6.07726 -69.30976,3.09895 -82.061058,35.48683 -10.828144,27.51649 1.868978,55.56347 27.829931,68.65862 22.940441,11.55157 59.428067,4.69056 70.587757,-19.80542 6.07726,-12.26304 2.8397,-26.25029 -7.22879,-31.23634 -10.06233,-4.98605 -23.16346,0.89894 -29.24072,13.16744 -4.0936,8.28376 -3.87057,17.28514 -0.25977,23.82674 -3.46673,4.28655 -7.63878,7.75926 -11.268213,6.39667 -8.549174,-3.18321 -14.421347,-11.89526 -18.732164,-19.4315 -10.442249,-18.27397 -3.255673,-40.16542 9.941848,-54.6471 14.113899,-15.50059 35.619449,-13.34227 51.361179,-1.98946 16.59196,11.96156 22.01808,34.52209 21.77694,53.809 -0.56055,43.37273 -45.25384,75.56167 -72.499118,104.09709 -26.750688,28.02287 -49.570473,59.71142 -47.074457,100.44953 4.871374,79.25759 102.366705,112.17594 167.130485,84.47265 36.14993,-15.4524 54.85202,-46.27276 52.79607,-85.08157"
     style="fill:#000000;fill-opacity:1;fill-rule:nonzero;stroke:none;stroke-width:0.602903"
     id="path469" />
</svg>
