<?xml version="1.0" encoding="UTF-8" standalone="no"?>
<svg
   width="1000"
   height="999.99158"
   viewBox="0 0 1000 999.99162"
   version="1.1"
   id="svg1173"
   sodipodi:docname="style31.svg"
   inkscape:version="1.4 (e7c3feb1, 2024-10-09)"
   inkscape:export-filename="style31.png"
   inkscape:export-xdpi="1792.6885"
   inkscape:export-ydpi="1792.6885"
   xmlns:inkscape="http://www.inkscape.org/namespaces/inkscape"
   xmlns:sodipodi="http://sodipodi.sourceforge.net/DTD/sodipodi-0.dtd"
   xmlns="http://www.w3.org/2000/svg"
   xmlns:svg="http://www.w3.org/2000/svg">
  <defs
     id="defs793" />
  <sodipodi:namedview
     id="namedview791"
     pagecolor="#ffffff"
     bordercolor="#666666"
     borderopacity="1.0"
     inkscape:showpageshadow="2"
     inkscape:pageopacity="0.0"
     inkscape:pagecheckerboard="0"
     inkscape:deskcolor="#d1d1d1"
     showgrid="false"
     inkscape:zoom="0.53799458"
     inkscape:cx="-277.88384"
     inkscape:cy="205.3924"
     inkscape:current-layer="svg1173"
     inkscape:window-width="2104"
     inkscape:window-height="1132"
     inkscape:window-x="0"
     inkscape:window-y="25"
     inkscape:window-maximized="0" />
  <g
     id="g2716"
     transform="matrix(18.673839,0,0,18.673839,-1880.1857,-11823.844)"
     style="fill:#000000">
    <path
       d="m 145.14051,638.78008 c 4.08905,-2.23908 4.21746,5.6709 -0.40605,4.22592 -3.71722,-1.16099 -3.43605,-6.93349 0.39053,-7.99747 3.0988,-0.86184 6.88446,0.0483 7.91774,3.40325 3.04412,9.86966 -9.86472,12.5162 -15.09113,7.16562 -6.42831,-6.58319 -16.93615,-9.76701 -23.02122,-1.19133 -0.19085,0.26705 -0.16122,1.49613 0.22966,0.94403 4.82283,-6.79697 13.43872,-6.04061 19.54142,-1.20262 3.76097,2.98133 7.07355,7.29651 12.56842,5.58589 6.84247,-2.12937 9.97973,-11.26879 3.15983,-15.64782 -2.94217,-1.89018 -6.23888,-0.52528 -8.04087,1.84785 -2.03941,2.68429 -2.22179,6.63082 1.1176,8.05886 3.72851,1.59561 5.8413,-0.50941 6.11646,-2.84656 0.27623,-2.3361 -1.28234,-4.90362 -3.79165,-3.90561 -0.20885,0.0822 -0.38277,0.20885 -0.6223,0.50095 -0.26529,0.32244 -0.34643,0.58596 -0.40005,0.8516 -0.0526,0.26529 0.0505,0.36125 0.33161,0.20744"
       style="fill:#000000;fill-opacity:1;fill-rule:nonzero;stroke:none;stroke-width:0.0352778"
       id="path244" />
    <path
       d="m 118.7358,639.18577 c -0.0649,-0.0649 -0.31009,-0.23072 -0.72919,-0.49777 -0.58385,-0.36971 -1.16982,-0.69286 -1.75684,-0.97296 -1.18886,-0.55704 -2.4698,-0.88195 -3.8414,-0.96908 -1.11089,-0.079 -2.20944,-0.0251 -3.296,0.1591 -0.83785,0.13723 -1.30069,0.24659 -1.38395,0.32985 -0.0942,0.0956 -0.0896,0.19297 0.01,0.29457 0.0423,0.0409 0.2734,0.0801 0.68933,0.11536 0.58631,0.0522 1.14829,0.14393 1.68416,0.27622 1.67922,0.41028 3.01942,1.11443 4.01814,2.11243 0.22613,0.22472 0.45049,0.48543 0.68086,0.77929 0.2293,0.29457 0.36477,0.46214 0.40569,0.50341 0.10548,0.1069 0.21343,0.1069 0.31962,0 0.0656,-0.0649 0.0314,-0.25893 -0.0984,-0.57926 -0.0899,-0.20743 -0.17744,-0.41698 -0.26705,-0.62335 -0.0533,-0.13653 -0.0533,-0.23178 0,-0.28575 0.0949,-0.0956 0.61701,-0.091 1.56245,0.01 1.09714,0.11288 1.79529,0.0208 2.09057,-0.27588 0.0977,-0.0952 0.0674,-0.22048 -0.0875,-0.37571 z m -10.00584,1.18639 c 0.75248,0.75353 1.63548,1.80199 2.64442,3.14502 0.10196,0.12417 0.2025,0.25011 0.30304,0.37429 0.0727,0.0952 0.0885,0.16016 0.0536,0.19615 -0.061,0.0596 -0.31009,-0.0773 -0.74824,-0.40817 -0.52282,-0.39475 -1.12854,-0.93098 -1.8094,-1.61501 -0.75953,-0.75883 -1.3275,-1.43157 -1.70991,-2.01472 -0.30304,-0.45579 -0.41275,-0.72778 -0.32985,-0.81103 0.15416,-0.15346 0.68474,0.22225 1.59632,1.13347 z m 6.04061,2.51284 c -0.0822,-0.0832 -0.2741,-0.2286 -0.56973,-0.43745 -0.29669,-0.20743 -0.52917,-0.39087 -0.68827,-0.55139 -0.41593,-0.41698 -0.82832,-0.86113 -1.2386,-1.33808 -0.40923,-0.47484 -0.62654,-0.72496 -0.65053,-0.74895 -0.32032,-0.31997 -0.74259,-0.60149 -1.27,-0.84208 -0.52458,-0.23918 -1.08549,-0.4191 -1.67887,-0.53658 -0.34395,-0.0607 -0.68685,-0.12029 -1.03364,-0.17991 -0.19614,-0.0653 -0.3937,-0.13229 -0.59619,-0.20461 -0.21978,-0.042 -0.41839,0.0258 -0.59549,0.20461 -0.10865,0.10795 -0.16122,0.24236 -0.16122,0.41098 0.0145,1.13348 0.0691,1.98367 0.16122,2.54741 0.0649,0.41099 0.22684,0.89112 0.48825,1.44392 0.26035,0.55245 0.57255,1.04669 0.93733,1.48026 0.48365,0.58067 1.49472,1.63865 3.02718,3.17288 0.13124,0.12841 0.24624,0.14464 0.34819,0.043 0.18415,-0.18309 0.1958,-0.48719 0.0346,-0.90911 -0.0998,-0.26635 -0.1524,-0.42016 -0.15911,-0.46284 -0.0303,-0.13688 -0.004,-0.24659 0.079,-0.3295 0.16122,-0.16016 0.42756,-0.20108 0.79869,-0.12029 0.37041,0.0797 0.76446,0.28575 1.18004,0.61912 0.29104,0.25294 0.58349,0.51047 0.87453,0.768 0.19086,0.1531 0.34255,0.17251 0.45403,0.061 0.13088,-0.13124 0.17639,-0.25965 0.1337,-0.38312 -0.13582,-0.14817 -0.41839,-0.56938 -0.84737,-1.25659 -0.21414,-0.40358 -0.34537,-0.81739 -0.40076,-1.24002 -0.0406,-0.3489 -0.0212,-0.56726 0.0617,-0.64911 0.09,-0.0896 0.32949,-0.0649 0.72002,0.0769 0.38735,0.13758 0.63465,0.15487 0.74295,0.0476 0.1785,-0.17745 0.12629,-0.40711 -0.1517,-0.68615 z m -8.73372,-3.74262 c -0.0953,-0.0949 -0.26634,-0.018 -0.51787,0.23283 -0.43851,0.43956 -0.75742,1.12783 -0.96203,2.06516 -0.21943,1.01565 -0.25894,2.19287 -0.12418,3.5306 0.1196,1.13948 0.55598,2.40277 1.30951,3.78637 0.53376,0.97472 0.99554,1.65417 1.38148,2.04046 0.35031,0.35172 0.60043,0.45262 0.74789,0.30339 0.1016,-0.1023 0.0864,-0.45402 -0.0413,-1.06221 -0.17004,-0.78246 -0.22331,-1.4538 -0.16369,-2.01224 l 0.21343,-0.23002 c 0.24553,0.0624 0.58385,0.2406 1.01811,0.53305 0.30128,0.19685 0.50624,0.24024 0.61419,0.13335 0.1778,-0.18027 0.1898,-0.34325 0.0346,-0.49812 -0.0289,-0.0293 -0.0861,-0.078 -0.16862,-0.14288 -0.0833,-0.0649 -0.14217,-0.11677 -0.17886,-0.15134 -2.20169,-2.20556 -3.40748,-4.16771 -3.60857,-5.89139 -0.0758,-0.70555 0.0744,-1.49331 0.45438,-2.36079 0.0543,-0.12594 0.0494,-0.21766 -0.008,-0.27622"
       style="fill:#000000;fill-opacity:1;fill-rule:nonzero;stroke:none;stroke-width:0.0352778"
       id="path246" />
    <path
       d="m 127.59969,648.334 c -1.98508,0.036 -2.87232,1.59632 -2.55235,3.19229 0.31715,1.59561 3.29707,3.79448 5.31884,3.19123 2.57951,-0.76835 4.61115,-3.51049 3.61808,-6.91445 -1.00259,-3.43288 -5.00133,-5.31989 -6.91656,-5.74639 -1.91452,-0.42581 -6.68196,-0.93416 -8.12976,0.5969 -1.44639,1.53105 -1.33562,2.4832 -0.80786,3.34045 0.52846,0.8569 1.70321,1.7025 2.97991,0.42474 1.276,-1.27599 2.18087,-1.64888 3.13761,-1.96779 0.95779,-0.31927 3.41877,-0.16687 4.77202,0.30127 1.94981,0.67416 3.4791,2.14842 3.79342,3.20957 0.6036,2.03941 -0.27093,4.45876 -2.1276,5.26662 -1.22379,0.5327 -2.27295,0.38594 -3.2452,-0.0797 -0.61207,-0.29316 -1.03682,-0.93027 -1.1169,-1.67534 1.06398,0.10619 2.02107,-0.76306 2.18087,-1.70286 0.0879,-0.51646 0.0769,-1.45379 -0.90452,-1.43651"
       style="fill:#000000;fill-opacity:1;fill-rule:nonzero;stroke:none;stroke-width:0.0352778"
       id="path248" />
    <path
       d="m 106.28803,677.63185 c -2.23767,4.0894 5.67196,4.21746 4.22699,-0.4064 -1.16135,-3.71793 -6.9335,-3.43571 -7.99748,0.39123 -0.86219,3.0988 0.0497,6.8834 3.40466,7.9181 9.8679,3.04306 12.51479,-9.86473 7.1628,-15.09149 -6.58213,-6.42867 -9.76665,-16.93686 -1.18921,-23.02157 0.2667,-0.19085 1.49542,-0.16157 0.94333,0.22966 -6.79697,4.82212 -6.04132,13.43907 -1.20157,19.54142 2.97992,3.76061 7.29404,7.07461 5.58589,12.56841 -2.13113,6.84178 -11.27019,9.97938 -15.64993,3.15948 -1.88913,-2.94252 -0.52423,-6.23887 1.8475,-8.04086 2.68464,-2.03941 6.63187,-2.22039 8.05956,1.11725 1.59667,3.72921 -0.50871,5.84235 -2.84586,6.11822 -2.33715,0.27623 -4.90396,-1.28411 -3.90701,-3.79236 0.0836,-0.2099 0.21025,-0.38418 0.50235,-0.62301 0.32244,-0.26458 0.58561,-0.34642 0.8509,-0.40005 0.26635,-0.0529 0.36195,0.0497 0.20708,0.33197"
       style="fill:#000000;fill-opacity:1;fill-rule:nonzero;stroke:none;stroke-width:0.0352778"
       id="path250" />
    <path
       d="m 115.84337,660.09138 c 0.0346,-1.98543 1.59526,-2.87302 3.19229,-2.55376 1.59526,0.31927 3.79306,3.29848 3.19123,5.31989 -0.76765,2.58022 -3.5105,4.61151 -6.91551,3.61739 -3.43323,-1.0026 -5.32024,-5.00133 -5.74604,-6.91621 -0.4251,-1.91488 -0.93381,-6.68232 0.5976,-8.12871 1.53106,-1.44639 2.48215,-1.33703 3.33975,-0.80821 0.8576,0.52916 1.70215,1.70286 0.4258,2.97885 -1.2774,1.27741 -1.64959,2.18123 -1.9685,3.13937 -0.31926,0.95674 -0.16615,3.41736 0.30128,4.77097 0.6731,1.95051 2.14912,3.47874 3.20957,3.79377 2.03835,0.6029 4.45911,-0.27128 5.26627,-2.12831 0.53269,-1.22308 0.38593,-2.27224 -0.0797,-3.2452 -0.2921,-0.61136 -0.93098,-1.03717 -1.67605,-1.11689 0.10724,1.06362 -0.76235,2.02177 -1.7018,2.18087 -0.5147,0.0889 -1.45274,0.0773 -1.43616,-0.90382"
       style="fill:#000000;fill-opacity:1;fill-rule:nonzero;stroke:none;stroke-width:0.0352778"
       id="path252" />
  </g>
</svg>
