<?xml version="1.0" encoding="UTF-8" standalone="no"?>
<svg
   width="1000"
   height="917.83643"
   viewBox="0 0 1000 917.83646"
   version="1.1"
   id="svg1173"
   sodipodi:docname="style35.svg"
   inkscape:version="1.4 (e7c3feb1, 2024-10-09)"
   inkscape:export-filename="style35.png"
   inkscape:export-xdpi="1635.1945"
   inkscape:export-ydpi="1635.1945"
   xmlns:inkscape="http://www.inkscape.org/namespaces/inkscape"
   xmlns:sodipodi="http://sodipodi.sourceforge.net/DTD/sodipodi-0.dtd"
   xmlns="http://www.w3.org/2000/svg"
   xmlns:svg="http://www.w3.org/2000/svg">
  <defs
     id="defs1510" />
  <sodipodi:namedview
     id="namedview1508"
     pagecolor="#ffffff"
     bordercolor="#666666"
     borderopacity="1.0"
     inkscape:showpageshadow="2"
     inkscape:pageopacity="0.0"
     inkscape:pagecheckerboard="0"
     inkscape:deskcolor="#d1d1d1"
     showgrid="false"
     inkscape:zoom="4.5066363"
     inkscape:cx="917.8686"
     inkscape:cy="56.361326"
     inkscape:current-layer="svg1173"
     inkscape:window-width="2552"
     inkscape:window-height="1387"
     inkscape:window-x="0"
     inkscape:window-y="25"
     inkscape:window-maximized="0" />
  <g
     id="g1703"
     style="fill:#000000"
     transform="matrix(17.033275,0,0,17.033275,-1.69957e-4,7.5524101)">
    <path
       d="m 16.79365,2.97722 c 1.41358,1.536 2.59891,3.26814 4.22098,4.61469 2.62855,2.18193 6.9275,3.82129 10.00866,1.42981 1.3081,-1.01494 2.47439,-2.6543 2.41053,-4.39844 C 33.40352,3.82812 33.37772,2.80401 32.95828,2.10304 31.919,0.36984 30.1477,0.17405 28.66356,1.00908 27.36428,1.7418 25.91366,3.18042 26.39908,4.89492 27.11275,7.4194 29.75576,6.72725 30.46379,5.34718 30.15934,5.33168 29.83937,5.22054 29.5575,5.00217 28.93061,4.51498 28.73835,3.70606 29.13346,3.19806 c 0.39335,-0.50941 1.22344,-0.52811 1.85209,-0.0427 0.15028,0.11571 0.27375,0.25153 0.37288,0.39511 0.74084,0.78916 1.30387,1.98472 0.4819,2.95275 -1.18005,1.38677 -2.7993,1.66017 -4.40408,0.75812 -1.21673,-0.68298 -2.83634,-1.88172 -2.66065,-3.49709 0.45261,-4.15996 5.48957,-5.5245 8.45608,-2.77812 3.45652,3.2004 1.47814,8.49383 -2.66912,9.87813 C 26.23857,12.30324 21.59531,9.48631 18.67501,6.53461 17.88056,5.73204 16.9972,4.68818 16.17876,3.97521 14.50341,2.51436 12.7868,1.52693 10.61757,1.27046 7.60696,0.91239 4.11234,2.04199 1.73004,3.76108 0.64066,4.54459 -0.65968,4.54071 1.3,3.02941 c 2.34033,-1.8034 6.95149,-3.31152 9.18916,-3.04835 3.09103,0.36477 4.79389,1.35537 6.30449,2.99614"
       style="fill:#000000;fill-opacity:1;fill-rule:nonzero;stroke:none;stroke-width:0.0352778"
       id="path286" />
    <path
       d="m 14.41134,5.24417 c 1.14864,1.58997 1.80199,3.51685 1.92652,5.53085 0.23989,3.86433 -2.79259,8.50653 -6.83084,9.0611 C 5.98595,20.31943 2.30295,18.1576 0.76095,15.01224 -0.86676,11.6866 2.25285,7.19821 5.77252,6.79005 c 3.90031,-0.45297 5.72981,2.91429 4.7445,5.63703 -0.30973,0.85549 -1.08726,1.46332 -1.82633,1.91841 -0.80151,0.5588 -1.81821,0.4826 -2.268,-0.1644 C 5.97042,13.53092 6.25512,12.55373 7.05381,11.99881 7.71385,11.53914 8.51184,11.5155 9.02619,11.87992 9.28124,11.4132 9.43153,10.88791 9.4467,10.27902 9.4979,7.98737 6.64494,7.44621 5.02145,8.24173 c -2.2285,1.09149 -3.55,3.97757 -3.22615,6.3373 0.49424,3.5948 5.03449,5.06412 8.00417,3.86644 2.35127,-0.95109 4.07071,-3.23638 4.85352,-5.57706 C 15.42416,10.55842 14.62869,7.94716 13.40874,5.88482 12.84994,4.94008 10.94389,3.78579 9.41636,3.65244 6.94656,3.4383 3.447,4.0606 1.68664,5.09142 0.81105,5.6033 0.69181,5.04772 1.55788,4.44654 3.9416,2.79413 7.82956,1.81306 9.41636,2.08611 c 2.48955,0.42827 3.67841,1.33561 4.99498,3.15806"
       style="fill:#000000;fill-opacity:1;fill-rule:nonzero;stroke:none;stroke-width:0.0352778"
       id="path288" />
    <path
       d="M 37.12141,1.49908 H 58 C 58.92248,1.49908 58.96693,0 58,0 H 35.2979 c -1.5755,0 1.06257,1.49908 1.82351,1.49908"
       style="fill:#000000;fill-opacity:1;fill-rule:nonzero;stroke:none;stroke-width:0.0352778"
       id="path290"
       sodipodi:nodetypes="csssc" />
    <path
       d="M 0.01201,19.33659 1e-5,53 C -2e-4,53.57644 1.499,53.60081 1.499,53 V 19.27203 C 1.499,18.69524 1e-5,18.73475 1e-5,19.33663"
       style="fill:#000000;fill-opacity:1;fill-rule:nonzero;stroke:none;stroke-width:0.0352778"
       id="path292"
       sodipodi:nodetypes="csssc" />
    <path
       d="m 24.04288,0.01001 c 1.5748,0 -0.32985,1.48907 -1.09079,1.48907 -7.72901,0 1.70921,0 -4.95935,0 v 0 c -0.7613,0 -3.39901,-1.48907 -1.82351,-1.48907 7.72936,0 0.14499,0 7.87365,0"
       style="fill:#000000;fill-opacity:1;fill-rule:nonzero;stroke:none;stroke-width:0.0352778"
       id="path294" />
    <path
       d="M 40.27454,3.9664 C 38.61648,4.0497 37.77793,5.37857 37.16127,6.71525 37.0438,6.96995 35.73605,6.48418 35.79814,6.34977 36.83037,4.11351 38.21608,3.48098 40.61391,3.48098 H 58 c 0.48774,0 0.6188,0.45861 0,0.45861"
       style="fill:#000000;fill-opacity:1;fill-rule:nonzero;stroke:none;stroke-width:0.0352778"
       id="path296"
       sodipodi:nodetypes="cccccc" />
    <path
       d="m 3.481,27.66991 c 0,-2.44659 -0.18361,-5.10646 2.16028,-6.66539 0.14958,-0.0995 0.70203,0.18274 0.64559,0.22013 C 3.87598,22.82768 3.94,25.58287 3.94,28.07352 V 53 c -0.002,0.32664 -0.459,0.35181 -0.459,0"
       style="fill:#000000;fill-opacity:1;fill-rule:nonzero;stroke:none;stroke-width:0.0352778"
       id="path298"
       sodipodi:nodetypes="cccccc" />
  </g>
</svg>
