<?xml version="1.0" encoding="UTF-8" standalone="no"?>
<svg
   width="1000"
   height="991.85577"
   viewBox="0 0 1000 991.85582"
   version="1.1"
   id="svg1173"
   sodipodi:docname="style24.svg"
   inkscape:version="1.4 (e7c3feb1, 2024-10-09)"
   inkscape:export-filename="style24.png"
   inkscape:export-xdpi="1728.1693"
   inkscape:export-ydpi="1728.1693"
   xmlns:inkscape="http://www.inkscape.org/namespaces/inkscape"
   xmlns:sodipodi="http://sodipodi.sourceforge.net/DTD/sodipodi-0.dtd"
   xmlns="http://www.w3.org/2000/svg"
   xmlns:svg="http://www.w3.org/2000/svg">
  <defs
     id="defs6080" />
  <sodipodi:namedview
     id="namedview6078"
     pagecolor="#ffffff"
     bordercolor="#666666"
     borderopacity="1.0"
     inkscape:showpageshadow="2"
     inkscape:pageopacity="0.0"
     inkscape:pagecheckerboard="0"
     inkscape:deskcolor="#d1d1d1"
     showgrid="false"
     inkscape:zoom="1.0747628"
     inkscape:cx="141.89178"
     inkscape:cy="374.03603"
     inkscape:current-layer="svg1173"
     inkscape:window-width="2352"
     inkscape:window-height="1387"
     inkscape:window-x="0"
     inkscape:window-y="25"
     inkscape:window-maximized="0" />
  <g
     id="g2663"
     transform="matrix(18.001764,0,0,18.001764,-730.04497,-8787.4632)"
     style="fill:#000000">
    <path
       d="m 54.78221,501.33079 c -0.26705,-0.0462 -0.48859,0.018 -0.66393,0.19297 -0.29492,0.29598 -0.2674,0.61912 0.0829,0.96908 0.41628,0.41557 0.81139,0.43215 1.19027,0.054 0.31115,-0.31115 0.35877,-0.57961 0.13829,-0.80116 -0.23178,-0.23212 -0.48154,-0.36865 -0.74754,-0.41486 z m -2.01894,-2.26907 c -0.3228,-0.0639 -0.57221,-0.01 -0.74648,0.16475 -0.14852,0.14852 -0.22543,0.38558 -0.22825,0.71331 -0.006,0.32738 0.0847,0.5842 0.26776,0.76835 0.23142,0.23143 0.50659,0.37571 0.82373,0.4371 0.3175,0.0575 0.55986,0.004 0.72673,-0.16228 0.21061,-0.21096 0.32702,-0.44627 0.34607,-0.70344 0.0187,-0.25894 -0.0653,-0.48084 -0.25012,-0.66499 -0.30303,-0.30374 -0.61559,-0.48859 -0.93944,-0.5528 z m 1.03857,-1.3141 c -1.85702,-0.82126 -3.15136,-0.86254 -3.89008,-0.12453 -0.39581,0.39652 -0.58773,0.97473 -0.57397,1.73673 0.0138,0.75988 0.22261,1.34408 0.62901,1.75083 0.0543,0.0547 0.18097,0.0995 0.37465,0.13688 0.19261,0.0381 0.32349,0.0871 0.3884,0.1517 l 0.23566,0.23495 -0.19473,0.19438 c -0.21202,0.21272 -0.66181,-0.0226 -1.34409,-0.70556 -0.54292,-0.54328 -0.7881,-1.18463 -0.7306,-1.92158 0.055,-0.73942 0.37677,-1.40406 0.96732,-1.99355 0.51505,-0.51611 1.16416,-0.76376 1.94451,-0.74013 0.77858,0.0236 1.39806,0.26424 1.86055,0.72567 0.0734,0.0744 0.18344,0.25823 0.33337,0.55421 z m -2.90724,-6.19901 c -0.48895,0.48895 -0.82726,1.06292 -1.01741,1.72261 -0.18803,0.66005 -0.19861,1.28517 -0.0339,1.87325 0.0275,0.0861 0.0917,0.25083 0.19403,0.49989 0.0741,0.1464 0.0963,0.26247 0.0692,0.34572 -0.17428,0.0466 -0.36054,-0.0279 -0.55457,-0.2226 -0.4512,-0.44979 -0.63571,-1.20332 -0.5521,-2.25425 0.0847,-1.05163 0.46532,-1.91664 1.14794,-2.59962 0.11148,-0.11112 0.27411,-0.18662 0.49107,-0.23001 0.21554,-0.0409 0.33478,-0.0713 0.35207,-0.0885 0.26776,-0.26811 0.20391,-0.60078 -0.19191,-0.9973 -0.0374,-0.0356 -0.27799,-0.15628 -0.72249,-0.35948 0.0106,-0.0289 0.0205,-0.0459 0.03,-0.0557 0.055,-0.055 0.1464,-0.0822 0.27587,-0.0836 0.35136,-0.0353 0.65934,0.0801 0.92604,0.34608 0.0836,0.0847 0.18133,0.20002 0.2921,0.34501 0.11077,0.14958 0.1838,0.24307 0.21978,0.2794 0.10089,0.1009 0.20391,0.0995 0.3048,-0.002 0.27658,-0.27729 0.1651,-0.66181 -0.33126,-1.15958 -0.34995,-0.34996 -0.83573,-0.47837 -1.45838,-0.38206 -0.62301,0.0967 -1.16135,0.37041 -1.61396,0.82303 -0.69144,0.69109 -1.0093,1.7399 -0.95179,3.13972 0.0621,1.5427 0.59301,2.91183 1.58997,4.11092 -0.21344,0.0469 -0.35278,0.036 -0.41593,-0.0282 -0.35066,-0.34996 -0.70203,-0.84773 -1.05163,-1.49472 -0.43321,-0.80151 -0.70979,-1.57551 -0.83009,-2.32375 -0.11077,-0.66322 -0.097,-1.24883 0.042,-1.75648 0.0268,-0.1016 0.12348,-0.34784 0.28928,-0.73307 0.139,-0.3048 0.21273,-0.55316 0.22155,-0.74789 0.009,-0.13829 -0.0455,-0.36936 -0.1644,-0.69215 -0.11148,-0.27623 -0.18027,-0.42933 -0.20814,-0.45649 -0.19297,-0.19368 -0.44273,-0.139 -0.74648,0.16651 -0.36971,0.36865 -0.61489,0.95355 -0.73413,1.75612 -0.0836,-0.32279 -0.073,-0.75494 0.0268,-1.29928 0.0737,-0.46178 0.0808,-0.72531 0.0162,-0.79057 -0.0649,-0.0635 -0.12135,-0.0716 -0.16651,-0.0265 -0.01,0.01 -0.0335,0.0515 -0.0695,0.12559 -0.59125,1.143 -0.32808,2.74355 0.78811,4.80095 -0.16545,-0.11253 -0.28152,-0.20002 -0.34396,-0.26458 -0.14887,-0.14676 -0.44203,-0.6604 -0.88194,-1.54199 -0.43604,-0.88018 -0.80681,-1.47391 -1.11125,-1.77906 -0.21308,-0.21202 -0.39758,-0.30233 -0.55457,-0.27446 -0.0836,0.0265 -0.16651,0.0543 -0.24835,0.0825 -0.12101,-0.10019 -0.24977,-0.20356 -0.38841,-0.30445 -0.21167,-0.1397 -0.43463,-0.0924 -0.66393,0.13758 -0.121,0.1203 -0.17992,0.28928 -0.17392,0.50589 0.005,0.21696 0.0642,0.37888 0.17604,0.49001 0.008,0.009 0.049,0.0416 0.12276,0.0984 0.0268,0.0261 0.036,0.0727 0.0268,0.13899 l -0.18097,0.0663 c -0.0815,0.13829 0.061,0.3937 0.43074,0.76306 0.25682,0.25717 1.2319,0.96378 2.91924,2.11631 0.037,0.11007 0.0557,0.18344 0.055,0.22225 -2.66559,-1.264 -4.25168,-1.64289 -4.75827,-1.13559 -0.10336,0.10195 -0.16968,0.22436 -0.20002,0.36653 -0.0328,0.14217 -0.037,0.22931 -0.01,0.25753 0.0462,0.0452 0.14499,0.0667 0.2921,0.0681 0.58949,-0.27623 1.05057,-0.39688 1.38324,-0.35984 l 0.0977,0.12418 c -0.23001,0.10125 -0.48048,0.19368 -0.74753,0.27693 -0.2032,0.054 -0.31327,0.0917 -0.33162,0.11007 -0.12911,0.12982 -0.19755,0.2981 -0.20178,0.50553 -0.004,0.20779 0.0533,0.37042 0.17286,0.49107 0.3048,0.30515 0.62371,0.42933 0.95567,0.37394 0.28505,-0.0825 0.57221,-0.16545 0.8576,-0.24941 0.46038,-0.0737 1.0975,-0.0194 1.90677,0.16686 0.96943,0.21202 1.82456,0.54716 2.56258,1.00859 l 0.45649,0.4565 c 0.066,0.0649 0.12418,0.19014 0.17745,0.37465 l -0.13829,0.0557 c -1.27071,-0.77506 -2.42852,-1.18604 -3.46992,-1.23367 -1.04317,-0.0437 -1.88384,0.25047 -2.51919,0.88653 -0.42474,0.42404 -0.63888,0.89818 -0.64347,1.41817 -0.005,0.52176 0.19438,0.9839 0.60184,1.39136 0.37818,0.37817 0.7112,0.42439 0.9966,0.13934 l 0.0413,-0.0427 c -0.10089,-0.10196 -0.21695,-0.19438 -0.34501,-0.27764 -0.13088,-0.0822 -0.19967,-0.12806 -0.20814,-0.13652 -0.28681,-0.2854 -0.44097,-0.60255 -0.4639,-0.94898 -0.0236,-0.34572 0.0811,-0.63429 0.31256,-0.86607 0.0547,-0.054 0.0949,-0.0864 0.12241,-0.0952 -0.0914,0.68298 0.0512,1.21285 0.42898,1.58997 l 0.0977,0.097 c 0.25964,0.14711 0.44697,0.16227 0.56762,0.0423 0.0272,-0.0268 0.0917,-0.1524 0.19367,-0.375 0.10196,-0.22049 0.21696,-0.39617 0.34431,-0.52352 0.0374,-0.0381 0.0977,-0.0797 0.18168,-0.12524 l 0.0138,-0.0134 c 0.0554,-0.0557 0.10513,-0.13511 0.1517,-0.2353 0.0459,-0.1023 0.0776,-0.16157 0.0963,-0.18133 0.29527,-0.29457 0.8075,-0.42827 1.53634,-0.4004 0.83926,0.0275 1.59033,0.30974 2.25496,0.84349 l -0.11113,0.19509 c -0.81915,-0.26847 -1.5441,-0.30127 -2.17205,-0.0981 -0.52317,0.17568 -1.10631,0.58173 -1.74378,1.21778 -0.55316,0.55457 -0.82479,1.21815 -0.81527,1.99249 0.01,0.77541 0.24836,1.39665 0.71896,1.86655 0.39617,0.39688 0.92146,0.57291 1.57762,0.52776 0.53446,-0.0378 0.89888,-0.15311 1.09326,-0.34714 0.055,-0.0554 0.0931,-0.13934 0.10936,-0.24835 l -0.0829,-0.0829 c -0.0917,-0.0928 -0.22825,-0.10265 -0.41451,-0.0282 -0.83997,0.30551 -1.43863,0.27799 -1.79846,-0.0832 -0.31327,-0.31362 -0.44274,-0.58949 -0.387,-0.82903 0.60889,0.27552 1.05586,0.42686 1.34161,0.45649 0.36971,0.055 0.66922,-0.0332 0.89853,-0.26246 0.35136,-0.35208 0.25012,-0.80398 -0.30198,-1.35608 -0.66499,-0.66569 -0.65193,-1.34232 0.0413,-2.03623 0.19368,-0.19227 0.52388,-0.31645 0.99554,-0.37218 0.47026,-0.054 0.77506,-0.0141 0.91335,0.12417 0.0741,0.0737 0.0963,0.23672 0.0688,0.48366 -0.0462,0.39864 -0.066,0.66499 -0.0561,0.80433 0.0487,0.91194 0.37041,1.66864 0.96837,2.26801 0.35243,0.35066 0.74013,0.59302 1.16875,0.72602 0.42969,0.13511 0.7359,0.13547 0.92075,0.007 0.11078,-0.073 0.30904,-0.13264 0.59443,-0.17921 0.28611,-0.0462 0.44768,-0.0864 0.48543,-0.12559 0.13723,-0.13617 0.13299,-0.28081 -0.0141,-0.42792 -0.0557,-0.0554 -0.17251,-0.14499 -0.35278,-0.26917 -0.18062,-0.12417 -0.32103,-0.23706 -0.42298,-0.33972 -0.2854,-0.2854 -0.42334,-0.63535 -0.41381,-1.05057 0.008,-0.35948 0.10583,-0.63183 0.28928,-0.81668 0.37853,-0.37783 0.77752,-0.58808 1.19803,-0.62901 0.41981,-0.0423 0.77929,0.0893 1.08444,0.39406 0.0744,0.0734 0.15205,0.16368 0.2293,0.27022 0.0783,0.10478 0.13265,0.17181 0.15946,0.19826 0.18591,0.18486 0.36407,0.1905 0.5394,0.0152 0.14781,-0.14781 0.17639,-0.48895 0.0829,-1.02305 -0.12136,-0.63782 -0.4064,-1.18075 -0.85901,-1.6323 -0.7747,-0.7747 -1.88948,-1.07986 -3.34504,-0.91511 -0.0406,-0.31291 -0.0702,-0.63077 -0.0988,-0.95391 -0.0272,-0.32173 0.0138,-0.61101 0.12312,-0.87136 0.10336,-0.17533 0.22648,-0.33549 0.375,-0.48507 0.2219,-0.22084 0.51118,-0.33479 0.87277,-0.34431 0.35878,-0.01 0.6858,0.13335 0.97967,0.42756 0.11289,0.11148 0.22789,0.22649 0.34748,0.34678 0.11042,0.12771 0.16969,0.19721 0.18063,0.20708 0.10124,0.1009 0.27622,0.11325 0.51611,0.036 0.24553,-0.0804 0.47061,-0.22049 0.67275,-0.42298 0.47096,-0.47096 0.38805,-1.1617 -0.24836,-2.07434 l 0.16616,0.0536 c 0.0914,0.0561 0.1524,0.0974 0.17921,0.12347 0.41628,0.41592 0.61595,0.87595 0.60219,1.37971 -0.0131,0.49989 -0.20708,0.93733 -0.57432,1.30493 -0.0737,0.073 -0.14781,0.12947 -0.22084,0.16757 -0.0744,0.2032 -0.0886,0.32702 -0.0427,0.37253 0.12946,0.12982 0.37641,0.0106 0.74683,-0.35913 0.37747,-0.37818 0.56162,-0.91546 0.54786,-1.61254 -0.0141,-0.69533 -0.21484,-1.23861 -0.60219,-1.62596 -1.34691,-1.34514 -2.72204,-1.31868 -4.12327,0.0836"
       style="fill:#000000;fill-opacity:1;fill-rule:nonzero;stroke:none;stroke-width:0.0352778"
       id="path471" />
    <path
       d="m 95.90799,491.46289 c -2.6797,2.23731 -7.98689,4.67889 -12.39485,4.67889 -3.71263,0 -9.05333,-1.47532 -11.85051,-2.84868 -2.79788,-1.37337 -5.74746,-3.45828 -8.74924,-3.45828 -3.00108,0 -4.66796,0.89499 -5.27791,1.30175 1.30563,2.97391 0.13017,6.42655 -1.52259,7.68808 -0.61277,0.46779 -0.82938,0.16581 -0.47307,-0.39405 1.01776,-1.52541 2.33962,-5.18795 1.11936,-7.83343 4.47569,-2.03412 9.05334,-1.83021 14.44519,0.40746 5.39115,2.23802 9.56275,2.95028 12.81783,2.95028 3.25508,0 8.13823,-0.98355 11.59687,-2.95028 0.33866,-0.2032 0.72883,0.11924 0.28892,0.45826"
       style="fill:#000000;fill-opacity:1;fill-rule:nonzero;stroke:none;stroke-width:0.0352778"
       id="path473" />
    <path
       d="m 44.32517,543.045 c 2.23732,-2.67864 4.6789,-7.98548 4.6789,-12.39379 0,-3.71299 -1.47567,-9.05373 -2.84904,-11.85129 -1.37266,-2.79714 -3.45793,-5.74774 -3.45793,-8.74882 0,-3.00037 0.89571,-4.66725 1.30211,-5.27791 2.97391,1.30599 6.42549,0.13053 7.68808,-1.52294 0.46673,-0.61242 0.16475,-0.82762 -0.39511,-0.47272 -1.52541,1.01741 -5.1883,2.33962 -7.83272,1.11901 -2.03377,4.47604 -1.83127,9.05439 0.40675,14.44586 2.23767,5.39119 2.95028,9.56208 2.95028,12.81783 0,3.25547 -0.98354,8.13788 -2.95028,11.59662 -0.20285,0.33969 0.11889,0.72954 0.45896,0.28815"
       style="fill:#000000;fill-opacity:1;fill-rule:nonzero;stroke:none;stroke-width:0.0352778"
       id="path475" />
    <path
       d="m 89.98379,491.29355 c -9.47173,-2.29376 -18.97768,4.19524 -28.4353,1.51201 -1.25201,-0.35525 -0.98778,-0.91511 0.27093,-0.5581 4.39667,1.24743 8.58591,-0.45049 12.91732,-1.30669 5.02673,-0.99377 10.33709,-1.64606 15.35606,-0.27093 1.2573,0.34502 1.15076,0.96873 -0.10901,0.62371 v 0"
       style="fill:#000000;fill-opacity:1;fill-rule:nonzero;stroke:none;stroke-width:0.0352778"
       id="path539" />
    <path
       d="m 44.15549,537.12151 c -2.29376,-9.47142 4.19523,-18.9774 1.512,-28.43495 -0.35524,-1.25166 -0.9151,-0.98743 -0.55774,0.27093 1.24742,4.39667 -0.45085,8.58594 -1.30704,12.91724 -0.99378,5.02641 -1.64641,10.33681 -0.27058,15.35645 0.34431,1.25663 0.96837,1.15013 0.62336,-0.10967 v 0"
       style="fill:#000000;fill-opacity:1;fill-rule:nonzero;stroke:none;stroke-width:0.0352778"
       id="path541" />
  </g>
</svg>
