<?xml version="1.0" encoding="UTF-8" standalone="no"?>
<svg
   width="1000"
   height="999.99188"
   viewBox="0 0 1000 999.99192"
   version="1.1"
   id="svg1173"
   sodipodi:docname="style08.svg"
   inkscape:version="1.4 (e7c3feb1, 2024-10-09)"
   inkscape:export-filename="style08.png"
   inkscape:export-xdpi="1794.7461"
   inkscape:export-ydpi="1794.7461"
   xmlns:inkscape="http://www.inkscape.org/namespaces/inkscape"
   xmlns:sodipodi="http://sodipodi.sourceforge.net/DTD/sodipodi-0.dtd"
   xmlns="http://www.w3.org/2000/svg"
   xmlns:svg="http://www.w3.org/2000/svg">
  <defs
     id="defs2095" />
  <sodipodi:namedview
     id="namedview2093"
     pagecolor="#ffffff"
     bordercolor="#666666"
     borderopacity="1.0"
     inkscape:showpageshadow="2"
     inkscape:pageopacity="0.0"
     inkscape:pagecheckerboard="0"
     inkscape:deskcolor="#d1d1d1"
     showgrid="false"
     inkscape:zoom="0.56928219"
     inkscape:cx="417.19204"
     inkscape:cy="478.67298"
     inkscape:current-layer="svg1173"
     inkscape:window-width="2048"
     inkscape:window-height="1052"
     inkscape:window-x="0"
     inkscape:window-y="25"
     inkscape:window-maximized="0" />
  <g
     id="g2532"
     transform="matrix(18.695272,0,0,18.695272,-583.66276,-3674.0327)"
     style="fill:#000000">
    <path
       d="m 31.9156,245.68541 c 0.026,0.5327 0.098,1.06892 0.2791,1.57339 0.049,0.13758 0.3305,0.59972 0.1012,0.30903 0.1171,0.15452 0.2367,0.30833 0.3729,0.44697 0.1665,0.17075 0.3348,0.34149 0.5235,0.48825 0.2678,0.20849 0.4431,0.54504 0.3158,-0.0505 -0.1447,-0.67627 -0.283,-1.35431 -0.4025,-2.03588 -0.2011,-1.14864 -0.3683,-2.30329 -0.5031,-3.46146 -0.4734,0.78423 -0.7359,1.72227 -0.6869,2.73015 z m 4.1289,-36.5827 c 0,-0.94827 -0.062,-1.87572 -0.189,-2.78518 -0.882,0.37958 -1.6891,0.93486 -2.3682,1.61431 -0.284,0.28434 -0.5274,0.60466 -0.7582,0.93098 -0.1425,0.20108 -0.2628,0.41557 -0.3831,0.62865 -0.061,0.10936 -0.1439,0.30374 -0.2081,0.45931 -0.2205,0.78352 -0.3182,1.5995 -0.3239,2.41124 -0.015,2.40595 1.0196,4.65208 2.6864,6.29038 0.7656,-3.14819 1.5311,-6.30273 1.5441,-9.54969 z m 1.7996,-4.55613 c 0.2829,-0.0564 0.5655,-0.0917 0.8466,-0.11042 0.3323,-1.09008 0.9363,-2.08562 1.7262,-2.93052 -2.1435,-0.50836 -4.2083,-1.35044 -6.2216,-2.45251 -0.2822,-0.15417 -0.5595,-0.31786 -0.8372,-0.48049 -0.018,-0.0102 -0.1485,-0.0871 -0.2261,-0.1337 0.047,0.0769 0.1238,0.20779 0.1341,0.22578 0.1626,0.27763 0.3263,0.55492 0.4804,0.83714 1.0048,1.8355 1.7929,3.7144 2.31,5.65644 0.55,-0.2734 1.1437,-0.48401 1.7876,-0.61172 z m 2.0715,3.88162 c 0.3411,1.65276 1.3532,3.17006 2.722,4.14513 0.1309,0.0889 0.2653,0.17287 0.4036,0.25083 0.054,0.0321 0.09,0.0564 0.1182,0.0769 0.027,0.007 0.049,0.0116 0.08,0.0194 0.3739,0.0945 0.7599,0.12665 1.1437,0.14429 0.098,0.005 0.1961,0.005 0.2946,0.003 0.037,-0.0586 0.065,-0.0995 0.087,-0.12877 0.01,-0.0349 0.014,-0.0769 0.029,-0.13652 0.1101,-0.45932 0.1327,-0.93451 0.1263,-1.40547 -0.044,-2.98803 -2.3865,-4.99816 -5.0793,-5.50369 -0.1199,0.81986 -0.1026,1.67323 0.075,2.53506 z m 3.8805,-7.07708 c 2.673,-0.0106 5.2832,-0.53164 7.879,-1.14229 -0.1073,-0.0716 -0.2131,-0.14464 -0.3235,-0.21273 -0.1849,-0.11324 -1.1099,-0.48436 -0.9811,-0.47131 -0.4036,-0.10548 -0.8156,-0.17568 -1.2287,-0.2286 -1.6295,-0.21026 -3.2914,0.0977 -4.7826,0.76447 -0.7257,0.32455 -1.3822,0.74789 -1.9597,1.24566 0.4604,0.031 0.926,0.0466 1.3966,0.0448 z m 37.314,-2.93899 c 0.6816,0.11959 1.3596,0.25753 2.0359,0.40252 0.5955,0.12735 0.259,-0.048 0.051,-0.31574 -0.1468,-0.18873 -0.3175,-0.35701 -0.4879,-0.52352 -0.139,-0.13652 -0.2928,-0.25576 -0.4473,-0.37289 0.2906,0.22896 -0.1715,-0.0519 -0.3091,-0.10124 -0.5044,-0.18098 -1.0407,-0.25295 -1.5734,-0.27905 -1.0075,-0.049 -1.9459,0.21343 -2.7301,0.68721 1.1582,0.13441 2.3128,0.30163 3.4614,0.50271 z m -48.7045,42.54641 c -0.076,-0.93521 -0.1298,-1.87219 -0.158,-2.81058 -0.1499,-5.08212 0.314,-10.16564 1.2718,-15.15639 0.1848,-0.96379 0.4028,-1.92405 0.6304,-2.88396 -2.1403,-2.03412 -3.198,-5.02814 -2.684,-8.07473 0.4625,-2.74108 1.8825,-5.3333 4.2281,-6.67738 -0.459,-2.40524 -1.3497,-4.69018 -2.5626,-6.90527 0,-0.009 -0.01,-0.0106 -0.01,-0.0176 -0.047,-0.0289 -0.062,-0.0399 0,-0.009 -0.031,-0.0579 -0.02,-0.0427 0.01,0.005 0.01,0.004 0.01,0.005 0.018,0.01 2.4419,1.33667 4.9685,2.28353 7.6482,2.69028 0.9945,-0.93768 2.2288,-1.65276 3.5701,-2.04964 2.4458,-0.72354 5.3287,-0.19791 7.6662,1.04599 1.886,-0.44944 3.7659,-0.93557 5.6568,-1.29858 4.9907,-0.95779 10.0746,-1.42169 15.1564,-1.27176 0.9384,0.0279 1.8754,0.0822 2.8109,0.15804 1.0121,-0.85336 2.4218,-1.24812 3.7335,-1.18427 1.4552,0.0706 2.8261,0.9017 4.0008,1.70603 0.3923,0.26847 0.7257,0.61101 1.0322,0.97049 0.2198,0.25788 0.5363,0.44486 -0.051,0.31574 -0.339,-0.0748 -0.6794,-0.14323 -1.0198,-0.21167 -1.4454,-0.28998 -2.9037,-0.50906 -4.3671,-0.68438 -0.6752,-0.0811 -1.3518,-0.14782 -2.0291,-0.20356 -1.4073,1.2446 -2.0275,3.27343 -1.0778,5.21794 0.1775,0.36371 0.4315,0.67768 0.7109,0.96661 0.038,0.0303 0.067,0.055 0.093,0.0765 0.168,0.054 0.3408,0.0942 0.5137,0.1277 0.8565,0.16616 1.7268,-0.09 2.4497,-0.54186 1.5275,-0.95462 1.5596,-3.22122 0.2247,-4.32929 0.3556,0.29492 0.864,0.40852 1.2224,0.70555 1.7889,1.4852 0.9098,4.02414 -1.0834,4.74839 -1.5328,0.55704 -3.0311,-0.34572 -4.2626,-1.17757 -1.609,-1.08726 -1.8997,-3.36232 -1.1857,-5.03837 0.1376,-0.32279 0.3171,-0.61383 0.527,-0.87771 -3.9578,-0.19332 -7.9339,0.0198 -11.861,0.53375 -2.7365,0.35807 -5.4494,0.88477 -8.1351,1.51412 -0.6474,0.15205 -1.2922,0.30798 -1.9364,0.46179 0.3108,0.21484 0.6092,0.44132 0.8865,0.68192 0.1877,0.16263 0.3613,0.34008 0.5352,0.51752 -0.2949,-0.30092 -1.022,-0.18556 -1.3222,-0.49247 -0.2015,-0.20567 -0.4114,-0.39723 -0.6262,-0.58244 -2.008,0.47272 -4.0167,0.90135 -6.0932,1.06115 -1.5974,0.12312 -3.1436,0.0473 -4.6496,-0.19579 -0.7539,0.78 -1.3356,1.70004 -1.6951,2.70863 3.1507,0.51365 5.672,3.27907 5.1442,6.73947 -0.089,0.58032 -0.2628,1.2065 -0.5023,1.81434 0.7027,-0.0356 1.3927,-0.22084 2.0383,-0.4953 3.3754,-1.43511 4.2037,-6.37646 0.7606,-8.26982 0.4057,0.22366 0.9137,0.26776 1.3222,0.49283 1.8398,1.01106 2.5887,3.17253 2.0726,5.15585 -0.5168,1.98613 -2.4645,3.25719 -4.396,3.56164 -0.6561,0.10372 -1.3074,0.054 -1.9466,-0.0797 -0.3253,0.72884 -0.7483,1.409 -1.2474,1.91876 -1.4355,1.46756 -3.7871,1.65241 -5.5171,0.63888 -0.2127,-0.12382 -0.3969,-0.29034 -0.5789,-0.45473 -0.1362,-0.12242 0.6138,-1.21285 0.4928,-1.32256 1.3049,1.17722 3.1344,1.37371 4.7346,0.72672 0.737,-0.2981 1.3494,-0.83397 1.8362,-1.45062 0.024,-0.0328 0.044,-0.0684 0.068,-0.1016 -0.4399,-0.10513 -0.8735,-0.24801 -1.2983,-0.40993 -0.1382,-0.009 -0.5485,-0.16263 -0.3601,-0.14252 -0.2184,-0.0889 -0.4357,-0.17957 -0.6484,-0.272 -1.7971,-0.78105 -3.0057,-2.5527 -3.5134,-4.39243 -0.2257,-0.8188 -0.2885,-1.62313 -0.2176,-2.39607 -0.2053,0.002 -0.411,0.0123 -0.616,0.0325 -0.5217,0.0511 -1.0283,0.17392 -1.5176,0.34608 0.3944,1.83268 0.5422,3.72392 0.3905,5.69207 -0.1972,2.56257 -0.8022,5.02143 -1.3973,7.50429 0.5408,0.42333 1.1278,0.79163 1.7557,1.08761 0.046,0.0215 -0.5186,1.31022 -0.4925,1.32221 -0.5757,-0.27128 -1.1066,-0.60148 -1.5998,-0.9719 -0.5898,2.55976 -1.0869,5.14315 -1.4277,7.74912 -0.514,3.92712 -0.7267,7.90328 -0.5337,11.86109 0.2638,-0.2099 0.5549,-0.38946 0.8777,-0.52705 1.676,-0.71402 3.9511,-0.42333 5.0383,1.18569 0.8319,1.23155 1.7346,2.72979 1.1776,4.26261 -0.7242,1.9932 -3.2632,2.87232 -4.7484,1.08338 -0.297,-0.35842 -0.4106,-0.86677 -0.7055,-1.22237 1.108,1.33491 3.3746,1.30281 4.3293,-0.22472 0.4519,-0.72284 0.7083,-1.5935 0.5418,-2.44969 -0.034,-0.17321 -0.073,-0.34572 -0.1273,-0.51364 -0.022,-0.0261 -0.047,-0.0557 -0.077,-0.0935 -0.289,-0.2794 -0.6029,-0.5334 -0.9666,-0.71085 -1.9446,-0.94968 -3.9734,-0.32949 -5.218,1.07774 0.056,0.67733 0.1224,1.35396 0.2036,2.02918 0.1753,1.46297 0.3944,2.9217 0.6844,4.36703 0.068,0.34043 0.1368,0.68086 0.2116,1.01988 0.1291,0.58703 -0.058,0.27058 -0.3157,0.0508 -0.3595,-0.30656 -0.702,-0.63994 -0.9705,-1.03222 -0.8043,-1.17475 -1.6355,-2.546 -1.706,-4.00121 -0.064,-1.31128 0.3309,-2.72098 1.1842,-3.73345"
       style="fill:#000000;fill-opacity:1;fill-rule:nonzero;stroke:none;stroke-width:0.0352778"
       id="path697" />
  </g>
</svg>
