<?xml version="1.0" encoding="UTF-8" standalone="no"?>
<svg
   width="45"
   height="45"
   viewBox="0 0 45 45.000002"
   version="1.1"
   id="svg1173"
   sodipodi:docname="style25.svg"
   inkscape:version="1.4 (e7c3feb1, 2024-10-09)"
   inkscape:export-filename="style25.png"
   inkscape:export-xdpi="2007.8995"
   inkscape:export-ydpi="2007.8995"
   xmlns:inkscape="http://www.inkscape.org/namespaces/inkscape"
   xmlns:sodipodi="http://sodipodi.sourceforge.net/DTD/sodipodi-0.dtd"
   xmlns="http://www.w3.org/2000/svg"
   xmlns:svg="http://www.w3.org/2000/svg">
  <defs
     id="defs6248">
    <inkscape:path-effect
       effect="mirror_symmetry"
       start_point="0,0"
       end_point="9,9"
       center_point="4.5,4.5"
       id="path-effect6395"
       is_visible="true"
       lpeversion="1.2"
       lpesatellites=""
       mode="free"
       discard_orig_path="false"
       fuse_paths="false"
       oposite_fuse="false"
       split_items="false"
       split_open="false"
       link_styles="false" />
    <inkscape:path-effect
       effect="mirror_symmetry"
       start_point="0,0"
       end_point="9,9"
       center_point="4.5,4.5"
       id="path-effect6393"
       is_visible="true"
       lpeversion="1.2"
       lpesatellites=""
       mode="free"
       discard_orig_path="false"
       fuse_paths="false"
       oposite_fuse="false"
       split_items="false"
       split_open="false"
       link_styles="false" />
  </defs>
  <sodipodi:namedview
     id="namedview6246"
     pagecolor="#ffffff"
     bordercolor="#666666"
     borderopacity="1.0"
     inkscape:showpageshadow="2"
     inkscape:pageopacity="0.0"
     inkscape:pagecheckerboard="0"
     inkscape:deskcolor="#d1d1d1"
     showgrid="false"
     inkscape:zoom="7.5716823"
     inkscape:cx="51.17753"
     inkscape:cy="26.150067"
     inkscape:current-layer="svg1173"
     inkscape:window-width="2008"
     inkscape:window-height="1169"
     inkscape:window-x="0"
     inkscape:window-y="25"
     inkscape:window-maximized="0" />
  <g
     id="g6492"
     style="fill:#000000">
    <path
       d="m 8.9627218,14.84711 c 1.3596002,-0.75389 2.7862402,-1.43405 4.2389802,-2.07928 0.64523,-1.45309 1.32538,-2.87972 2.07962,-4.23933 -1.71979,0.34361 -3.46357,0.70238 -5.18372,1.13489 -0.4325002,1.71979 -0.7916302,3.46357 -1.1348802,5.18372 z m -7.55403,9.38918 c -0.48013,1.24283 -0.81069,2.54317 -0.79128,3.88549 0.0233,1.60691 0.62618,1.67005 1.72861,0.68051 1.79528,-1.61114 2.88607,-3.7151 3.58528,-6.00075 0.53269,-1.73814 0.95991,-3.50696 1.35078,-5.28602 -2.5347,1.78752 -4.79813,3.94053 -5.87339,6.72077 z M 23.235762,5.49779 c 2.286,-0.70132 4.38961,-1.79105 6.00075,-3.58599 0.98918,-1.10313 0.92674,-1.70568 -0.67945,-1.72896 -1.34373,-0.0205 -2.64372,0.3108 -3.8862,0.79093 -2.78025,1.07562 -4.9336,3.33939 -6.72148,5.8741 1.77941,-0.39088 3.54824,-0.81774 5.28638,-1.35008 z M 9.4442618,7.72205 c 0.14182,-0.53446 0.2981,-1.09114 0.47272,-1.65629 -1.16381,-0.0296 -2.3248,-0.19262 -3.43852,-0.47731 -0.15946,-0.0409 -0.37254,-0.0953 -0.61772,-0.16192 0.0667,0.24518 0.12136,0.45755 0.16193,0.61736 0.28469,1.11372 0.44803,2.27471 0.47766,3.43817 0.56515,-0.17427 1.12183,-0.3309 1.65664,-0.47272 0.34185,-0.0907 0.68651,-0.17216 1.03012,-0.25718 0.0854,-0.3436 0.16651,-0.68791 0.25717,-1.03011 z M 16.803912,3.22414 c 1.00189,-0.85161 2.159,-1.96427 2.49485,-3.28154 0.5909,-2.3241 -2.45146,-1.77342 -3.66678,-0.907 -1.66864,1.19028 -2.84797,2.99121 -3.65019,4.85846 -0.20814,0.48578 -0.40287,0.97931 -0.58667,1.47884 1.96533,-0.23777 3.93453,-0.89499 5.40879,-2.14876 z M 2.6324718,2.19791 c -0.6798,1.20473 0.82797,2.04399 2.56928,2.56928 -0.52599,-1.74026 -1.36489,-3.24838 -2.56928,-2.56928 z m 1.69581,9.34861 c -1.86726,0.80116 -3.66748,1.98226 -4.85916,3.65125 -0.86572,1.21532 -1.41641,4.25697 0.9084,3.66606 1.31621,-0.33478 2.42993,-1.49154 3.28083,-2.49413 1.25342,-1.47426 1.91135,-3.44382 2.14877,-5.4095 -0.49953,0.18345 -0.99307,0.37783 -1.47884,0.58632 z m 2.147,-0.82197 c -0.17674,3.0099 -1.28728,5.93231 -3.59198,7.98759 -1.01671,0.90734 -2.81975,2.09868 -4.05518,0.98072 -0.76553,-0.69215 -0.92957,-2.18828 -0.75601,-3.13161 0.69709,-3.80823 4.336,-5.73228 7.83202,-6.88834 0.0127,-0.40463 0.0106,-0.80503 -0.008,-1.19521 -0.0265,-0.5401 -0.20285,-1.87889 -0.54998,-3.19757 -2.03624,-0.60325 -5.29414,-1.89019 -3.53554,-3.90384 2.01401,-1.75966 3.30094,1.49895 3.90454,3.53518 1.31869,0.34713 2.65783,0.52352 3.19829,0.55033 0.39017,0.019 0.78987,0.0208 1.1941502,0.008 1.15535,-3.49602 3.0801,-7.13493 6.88834,-7.83272 0.94439,-0.17251 2.43946,-0.009 3.13125,0.75671 1.11725,1.23613 -0.0727,3.03742 -0.98001,4.05553 -2.05529,2.30399 -4.97734,3.41418 -7.9876,3.59128 -0.27234,0.79269 -0.51823,1.59914 -0.74365,2.41406 1.85984,-0.42969 3.73521,-0.80575 5.60669,-1.19486 1.24355,-2.02953 2.69099,-3.87068 4.49087,-5.36998 2.10114,-1.75084 6.64316,-3.93806 9.36025,-2.55024 2.14066,1.09397 -0.32879,3.88903 -1.23508,4.71312 -3.01942,2.74708 -7.68808,3.33586 -11.51854,4.10845 -0.0201,0.004 -0.0402,0.008 -0.0603,0.0116 -0.79692,1.24248 -1.52223,2.51072 -2.19851,3.70699 -0.0416,0.073 -0.0815,0.14675 -0.12241,0.22048 3.92924,-1.67569 7.94526,-3.19863 11.27019,-5.31812 0.30762,-0.19615 0.51858,0.12523 0.26705,0.28539 -3.92924,2.50473 -8.2109,4.2926 -12.31335,6.45901 -2.16712,4.10316 -3.95535,8.38553 -6.4604202,12.31548 -0.15981,0.24906 -0.4819,0.0402 -0.28505,-0.26882 2.11914,-3.32493 3.6424302,-7.34095 5.3177702,-11.27019 -0.0734,0.0413 -0.14746,0.0811 -0.22048,0.12241 -1.19592,0.67698 -2.4641602,1.40229 -3.7066402,2.19922 -0.004,0.0201 -0.008,0.0406 -0.012,0.0607 -0.77259,3.83011 -1.36173,8.49877 -4.10881,11.51819 -0.82338,0.90594 -3.61844,3.37538 -4.7117,1.23614 -1.38888,-2.71816 0.79834,-7.26017 2.55059,-9.36132 1.49895,-1.79952 3.33939,-3.24696 5.36857,-4.4905 0.38947,-1.87114 0.76553,-3.74686 1.19556,-5.60705 -0.81527,0.22507 -1.62172,0.47131 -2.41441,0.74365"
       style="fill:#000000;fill-opacity:1;fill-rule:nonzero;stroke:none;stroke-width:0.0352778"
       id="path276" />
    <path
       d="m 29.449582,5.69676 c 2.159,-1.20474 4.01638,-2.98627 4.959,-5.29555 -0.2039,0.0875 -0.40816,0.17462 -0.61277,0.26282 H 45 C 46.09785,0.66403 46.089519,0 45,0 H 33.420492 c -0.21696,0 -0.5207,0.04919 -0.61348,0.27315 -0.88477,2.16994 -2.60279,3.68229 -4.42913,5.06836 -0.49812,0.37782 0.20532,0.90699 1.07174,0.35525 v 0 M 5.69676,29.449582 c -1.20474,2.159 -2.98627,4.01638 -5.29555,4.959 0.0875,-0.2039 0.17462,-0.40816 0.26282,-0.61277 V 45 C 0.66403,46.09785 0,46.089519 0,45 V 33.420492 c 0,-0.21696 0.04919,-0.5207 0.27315,-0.61348 2.16994,-0.88477 3.68229,-2.60279 5.06836,-4.42913 0.37782,-0.49812 0.90699,0.20532 0.35525,1.07174 v 0"
       style="fill:#000000;fill-opacity:1;fill-rule:nonzero;stroke:none;stroke-width:0.0352778"
       id="path280"
       inkscape:path-effect="#path-effect6393"
       inkscape:original-d="m 29.449582,5.69676 c 2.159,-1.20474 4.01638,-2.98627 4.959,-5.29555 -0.2039,0.0875 -0.40816,0.17462 -0.61277,0.26282 H 45 C 46.09785,0.66403 46.089519,0 45,0 H 33.420492 c -0.21696,0 -0.5207,0.04919 -0.61348,0.27315 -0.88477,2.16994 -2.60279,3.68229 -4.42913,5.06836 -0.49812,0.37782 0.20532,0.90699 1.07174,0.35525 v 0"
       class="UnoptimicedTransforms"
       sodipodi:nodetypes="cccsssccsc" />
    <path
       d="M 34.647062,1.97178 H 45 c 1.09785,0 1.089519,-0.45756 0,-0.45756 H 34.831602 c -0.03,0.12524 -0.11253,0.32667 -0.1845,0.45756 M 1.97178,34.647062 V 45 c 0,1.09785 -0.45756,1.089519 -0.45756,0 V 34.831602 c 0.12524,-0.03 0.32667,-0.11253 0.45756,-0.1845"
       style="fill:#000000;fill-opacity:1;fill-rule:nonzero;stroke:none;stroke-width:0.0352778"
       id="path282"
       inkscape:path-effect="#path-effect6395"
       inkscape:original-d="M 34.647062,1.97178 H 45 c 1.09785,0 1.089519,-0.45756 0,-0.45756 H 34.831602 c -0.03,0.12524 -0.11253,0.32667 -0.1845,0.45756"
       class="UnoptimicedTransforms"
       sodipodi:nodetypes="csscc" />
  </g>
</svg>
