<?xml version="1.0" encoding="UTF-8" standalone="no"?>
<svg
   width="55"
   height="55"
   viewBox="0 0 55 55.000002"
   version="1.1"
   id="svg1173"
   sodipodi:docname="style30.svg"
   inkscape:version="1.4 (e7c3feb1, 2024-10-09)"
   inkscape:export-filename="style30.png"
   inkscape:export-xdpi="1694.1089"
   inkscape:export-ydpi="1694.1089"
   xmlns:inkscape="http://www.inkscape.org/namespaces/inkscape"
   xmlns:sodipodi="http://sodipodi.sourceforge.net/DTD/sodipodi-0.dtd"
   xmlns="http://www.w3.org/2000/svg"
   xmlns:svg="http://www.w3.org/2000/svg">
  <defs
     id="defs334" />
  <sodipodi:namedview
     id="namedview332"
     pagecolor="#ffffff"
     bordercolor="#666666"
     borderopacity="1.0"
     inkscape:showpageshadow="2"
     inkscape:pageopacity="0.0"
     inkscape:pagecheckerboard="0"
     inkscape:deskcolor="#d1d1d1"
     showgrid="false"
     inkscape:zoom="11.625726"
     inkscape:cx="29.202477"
     inkscape:cy="16.300057"
     inkscape:current-layer="svg1173"
     inkscape:window-width="2224"
     inkscape:window-height="1144"
     inkscape:window-x="0"
     inkscape:window-y="25"
     inkscape:window-maximized="0" />
  <g
     id="g728"
     style="fill:#000000">
    <path
       d="M 3.82506,14.84067 C 4.09705,14.52317 4.13445,13.81938 3.93724,12.736 3.76262,11.80361 3.72064,11.28432 3.80742,11.18237 c 0.0505,-0.0547 0.1457,-0.0614 0.28434,-0.0201 0.21555,0.0723 0.42686,0.14428 0.64382,0.21766 0.32491,0.10583 0.51929,0.12347 0.58244,0.0529 0.0967,-0.1143 0.0868,-0.2219 -0.0261,-0.31856 C 5.24712,11.07547 5.07073,10.95446 4.75887,10.74809 4.44949,10.54383 4.17644,10.33816 3.93161,10.13037 2.86022,9.21562 2.05695,7.93468 1.52037,6.29286 1.34681,5.77251 1.21416,5.219 1.11397,4.63833 1.04627,4.2277 0.9898,4.00368 0.94781,3.96523 0.8374,3.87313 0.74038,3.87673 0.6536,3.97863 0.5756,4.06823 0.50473,4.5339 0.4317,5.3781 0.33116,6.47594 0.3626,7.57202 0.5277,8.67269 c 0.19367,1.35925 0.61242,2.60879 1.26224,3.74615 0.32349,0.5648 0.69038,1.1236 1.10137,1.67358 0.29845,0.39969 0.4833,0.62759 0.5528,0.68721 0.1651,0.14323 0.29351,0.16369 0.381,0.061 z M 2.60198,3.2297 c 0.0769,-0.0885 0.35348,0 0.8322,0.26564 C 4.04237,3.82907 4.7571,4.34518 5.57131,5.04333 6.30544,5.66986 6.88576,6.22866 7.31756,6.71902 7.67775,7.13036 7.83509,7.36707 7.7797,7.43128 7.7469,7.47008 7.6816,7.45738 7.5832,7.39348 7.45197,7.30278 7.31756,7.2118 7.18668,7.12149 5.77345,6.21908 4.65938,5.42357 3.85152,4.72965 2.87679,3.89428 2.46052,3.39615 2.60198,3.22964 Z m 4.91384,7.41821 C 7.61322,10.53325 7.57512,10.28702 7.40787,9.9106 7.23854,9.53383 7.19444,9.29853 7.27523,9.20258 c 0.0783,-0.091 0.29351,-0.127 0.64346,-0.11254 0.42404,0.0201 0.84561,0.12277 1.26295,0.30551 0.71931,0.37077 1.15923,0.61912 1.31727,0.7433 0.1263,0.0328 0.25083,-0.0226 0.36865,-0.16193 0.10725,-0.1217 0.073,-0.26987 -0.0949,-0.44838 C 10.49573,9.25973 10.21915,8.9902 9.94292,8.71821 9.57745,8.33192 9.34355,7.9548 9.23631,7.59215 9.1266,7.22808 9.14601,6.96103 9.29311,6.78852 9.36891,6.69892 9.47726,6.66434 9.61484,6.68268 c 0.0423,0.003 0.20108,0.0441 0.47413,0.12524 0.43286,0.12665 0.73378,0.0907 0.90311,-0.10619 0.091,-0.10795 0.0684,-0.22189 -0.0723,-0.3429 C 9.27725,4.95231 8.14378,4.02803 7.52783,3.58812 7.07063,3.25968 6.55451,2.98981 5.98336,2.77073 5.41469,2.55448 4.92009,2.42713 4.50981,2.39538 3.94184,2.34988 3.0927,2.36188 1.96135,2.43278 1.79589,2.44438 1.66184,2.50868 1.56376,2.62363 1.40396,2.81378 1.34681,3.01803 1.40713,3.23217 1.49463,3.42831 1.5747,3.62023 1.6576,3.81214 1.7419,4.1501 1.8287,4.48912 1.91372,4.82637 2.07741,5.4081 2.29895,5.95173 2.57871,6.45762 c 0.28151,0.50447 0.59372,0.90311 0.93662,1.19803 0.0254,0.0212 0.29069,0.21943 0.79657,0.58879 0.50306,0.37253 0.98002,0.7493 1.42487,1.13065 0.17251,0.14781 0.37536,0.36089 0.60431,0.64135 0.22966,0.2794 0.38841,0.45579 0.47872,0.5334 0.29775,0.25576 0.53164,0.28928 0.69603,0.0981 z M 2.69899,2.13326 c 0.83009,-0.4452 1.60338,-0.65758 2.31458,-0.63359 1.72896,0.0684 3.77366,1.11337 6.13727,3.13584 0.0388,0.0346 0.0935,0.0893 0.16687,0.16757 0.0706,0.0773 0.12276,0.12912 0.15451,0.15699 0.1651,0.14111 0.33056,0.11818 0.49319,-0.0744 0.0974,-0.11465 0.0374,-0.31538 -0.18098,-0.60184 C 11.46129,3.87602 11.25774,3.55182 11.17519,3.31405 l 0.21307,-0.23072 c 0.55175,-0.10195 1.22379,-0.10089 2.01683,0.006 0.61207,0.0833 0.96591,0.0695 1.05975,-0.0388 0.13582,-0.16016 0.0162,-0.39864 -0.3616,-0.72249 C 13.69226,1.9742 12.97753,1.56851 11.96858,1.11131 10.53348,0.46749 9.24161,0.12953 8.09896,0.0999 6.75664,0.0674 5.5893,0.1994 4.59659,0.49642 3.67478,0.76982 3.01402,1.14306 2.6115,1.61402 2.38361,1.88072 2.31835,2.05922 2.42242,2.14565 c 0.0614,0.0547 0.1531,0.0504 0.27657,-0.0127"
       style="fill:#000000;fill-opacity:1;fill-rule:nonzero;stroke:none;stroke-width:0.0352778"
       id="path312" />
    <path
       d="m 14.56009,13.63629 c 0.0423,-0.10583 0.10089,-0.19544 0.17357,-0.26705 0.0723,-0.0737 0.15698,-0.12665 0.25223,-0.15805 1.68416,0.68051 3.10198,1.59209 4.24357,2.73368 1.49895,1.49789 1.69157,2.80458 0.58032,3.91548 -0.34573,0.34501 -0.76342,0.52775 -1.24954,0.54116 -0.48684,0.0148 -0.91299,-0.16052 -1.28023,-0.52458 -2.03412,-2.03588 -2.93935,-4.1148 -2.71992,-6.24064 z M 2.09574,21.9502 c 0.10513,-0.10477 0.19544,-0.32244 0.27482,-0.65405 0.0773,-0.32879 0.15945,-0.53551 0.24236,-0.61806 0.10512,-0.10584 0.25893,-0.16052 0.4639,-0.16687 0.20496,-0.007 0.35066,0.0342 0.43356,0.11854 0.10407,0.10371 0.30551,0.55139 0.60502,1.34443 0.29492,0.79128 0.49565,1.23437 0.58949,1.32962 0.14605,0.14711 0.34925,0.23777 0.61313,0.28116 0.2614,0.0409 0.45014,0.004 0.56515,-0.11112 0.0617,-0.061 0.0811,-0.13688 0.0536,-0.22613 -0.0247,-0.0878 -0.0127,-0.16193 0.0406,-0.21378 0.073,-0.0737 0.25682,-0.13124 0.54927,-0.17181 0.33549,-0.0646 0.59655,-0.14746 0.78599,-0.25153 0.18133,-0.34678 0.2861,-0.64699 0.32138,-0.90276 0.036,-0.25788 0,-0.44485 -0.1143,-0.56056 -0.0956,-0.0928 -0.30868,-0.0575 -0.64735,0.11254 -0.40463,0.17462 -0.75882,0.22401 -1.05127,0.1404 0.0621,-0.10583 0.1143,-0.17921 0.15628,-0.22048 C 6.41516,20.63575 6.48501,20.21066 6.18092,19.90656 6.09732,19.82436 5.97066,19.72135 5.79604,19.60211 5.62318,19.47758 5.5057,19.38727 5.44185,19.32413 5.17021,19.05108 5.0866,18.66619 5.19173,18.16208 c 0.12488,-0.56551 0.4766,-1.13807 1.05057,-1.71345 1.35361,-1.35255 2.98768,-2.23167 4.90679,-2.64054 1.20791,-0.26105 1.88207,-0.32067 2.02777,-0.1718 0.0741,0.072 0.13264,0.31715 0.17215,0.73554 0.085,0.84067 0.14076,1.35855 0.17216,1.55857 0.14852,1.0287 0.4198,2.00061 0.82126,2.92277 0.35525,0.79586 0.72884,1.38782 1.11514,1.77553 0.98283,0.98495 2.17134,1.50071 3.56058,1.54869 1.38677,0.0483 2.51637,-0.36371 3.38632,-1.23225 0.35595,-0.35701 0.61947,-0.87736 0.78598,-1.55787 0.16969,-0.68121 0.18098,-1.35784 0.031,-2.02671 -0.2092,-0.94297 -0.8957,-1.99637 -2.06199,-3.16018 -0.68015,-0.67945 -1.75683,-1.2259 -3.23426,-1.63442 -0.69215,-0.18838 -1.44745,-0.34678 -2.26166,-0.47166 -0.61172,-0.0829 -0.93627,-0.14535 -0.97896,-0.18803 -0.11289,-0.11536 -0.18239,-0.41487 -0.20355,-0.89571 -0.0293,-0.55774 0.0159,-1.17016 0.14075,-1.84079 0.2981,-1.53106 0.85055,-2.70369 1.66688,-3.52002 1.20579,-1.2065 2.19534,-1.79634 2.97145,-1.77835 0.24306,0.0113 0.69744,0.11112 1.36807,0.2988 0.44767,0.13723 0.75953,0.121 0.92639,-0.0444 0.0953,-0.0942 0.18768,-0.30833 0.27517,-0.63853 0.0903,-0.32914 0.19297,-0.5528 0.30656,-0.66816 0.0519,-0.0512 0.0938,-0.0737 0.12595,-0.0624 0.0113,0.009 0.0176,0.0254 0.0162,0.0483 0.13265,0.42863 0.17957,0.85867 0.12595,1.28835 -0.0434,0.35666 -0.12595,0.59584 -0.25295,0.72037 -0.0734,0.0762 -0.30903,0.13053 -0.7119,0.16581 -0.40464,0.0356 -0.66781,0.11324 -0.78105,0.22895 -0.26212,0.26141 -0.26564,0.52035 -0.0166,0.77047 0.24306,0.24271 0.84949,0.39828 1.82633,0.4699 0.51223,0.0335 0.85337,-0.0353 1.02023,-0.20215 C 24.18167,5.55315 24.53727,4.90616 24.55667,4.29797 24.56797,3.86793 24.47417,3.4005 24.27375,2.89674 24.0769,2.39332 23.84371,2.01338 23.58336,1.75268 23.26939,1.43729 22.61534,1.14661 21.61909,0.88767 c 0.14676,-0.6096 0.20849,-1.0594 0.18592,-1.35291 -0.0194,-0.35807 -0.15523,-0.66145 -0.4064,-0.91334 -0.43886,-0.43956 -0.77047,-0.54963 -0.98884,-0.32879 -0.11818,0.11642 -0.16334,0.34819 -0.13617,0.6985 0.0261,0.35208 0.0505,0.71473 0.0709,1.09573 0.0106,0.44944 -0.25012,0.93945 -0.78388,1.47567 -0.1143,0.11465 -0.63676,0.45649 -1.56845,1.02976 -0.92463,0.5722 -1.68945,1.15605 -2.28564,1.7526 -1.27671,1.2767 -2.04329,2.94287 -2.29376,4.9978 -0.0519,0.514 -0.11466,1.16417 -0.1898,1.9491 -0.0303,0.47096 -0.066,0.72919 -0.10971,0.77047 -0.0822,0.0836 -0.43463,0.17321 -1.05375,0.26775 -0.94156,0.14711 -1.69192,0.28964 -2.24578,0.4251 -1.21709,0.29281 -2.41724,0.7486 -3.60187,1.36843 -1.01741,0.53269 -1.772,1.04739 -2.26201,1.53846 -0.56585,0.56586 -1.12254,1.33597 -1.66546,2.3114 -0.54786,0.97473 -0.85055,1.49296 -0.91334,1.55681 -0.12594,0.12559 -0.48507,0.17533 -1.07774,0.14852 -0.59055,-0.0258 -0.9913,0.0656 -1.20191,0.27446 -0.29422,0.29422 -0.008,0.8703 0.85196,1.72896 0.80504,0.80504 1.52188,0.89712 2.15229,0.26811"
       style="fill:#000000;fill-opacity:1;fill-rule:nonzero;stroke:none;stroke-width:0.0352778"
       id="path314" />
    <path
       d="m 50.25944,4.05343 c -1.42769,0.33867 -5.92737,1.25942 -7.25594,2.18123 -1.33067,0.92075 -2.72097,1.53211 -3.79553,3.95852 -1.36172,3.06775 -2.55517,4.42101 -4.70888,5.83388 -3.06705,2.01013 -7.06085,1.99602 -8.59578,1.94346 -1.04775,-0.0349 -1.11055,-0.51964 -0.10196,-0.71579 1.87749,-0.36618 4.11692,-1.05974 5.32095,-1.94451 1.12219,-0.82374 1.6376,-2.35373 1.6376,-4.19594 0,-1.8415 0.28398,-2.84445 -0.94263,-3.97686 C 30.76529,6.16445 29.60747,6.17998 28.78797,6.58955 27.96953,6.99842 27.7561,6.29922 28.15544,5.2818 c 0.45438,-1.16346 1.56774,-2.43169 3.17218,-2.45639 1.46473,-0.0222 2.13395,0.67945 3.23144,2.28142 0.77153,1.12783 0.8375,3.15806 0.90064,4.38326 0.0596,1.12818 0.66675,1.29858 0.87031,-0.0321 0.20461,-1.33103 0.48507,-3.80435 2.16076,-5.40455 2.98803,-2.85292 8.91681,-2.31952 11.442,-1.49331 1.67498,0.54786 1.3215,1.2573 0.32667,1.49331"
       style="fill:#000000;fill-opacity:1;fill-rule:nonzero;stroke:none;stroke-width:0.0352778"
       id="path316" />
    <path
       d="m 4.77086,49.5406 c 0.33972,-1.42593 1.26118,-5.92631 2.18158,-7.25593 0.9211,-1.33068 1.53211,-2.72027 3.95922,-3.7966 3.06705,-1.36031 4.42136,-2.55305 5.83248,-4.70711 2.01189,-3.06635 1.99742,-7.06191 1.94521,-8.59614 -0.036,-1.04704 -0.5207,-1.11125 -0.71578,-0.10195 -0.36689,1.87607 -1.06081,4.11621 -1.94487,5.32059 -0.82303,1.1229 -2.35408,1.6383 -4.19594,1.6383 -1.84114,0 -2.84727,0.2847 -3.97827,-0.94156 C 6.88259,30.0461 6.89846,28.88828 7.30768,28.06949 7.71726,27.25034 7.01629,27.03832 6.00029,27.43696 4.83612,27.89239 3.57035,29.00505 3.5439,30.60843 c -0.0222,1.46473 0.67768,2.13501 2.27965,3.2318 1.12889,0.77258 3.15877,0.83714 4.38467,0.90134 1.12819,0.0603 1.29822,0.66605 -0.0321,0.87066 -1.33068,0.20461 -3.804,0.48472 -5.40526,2.16076 -2.85151,2.98732 -2.31811,8.91611 -1.49225,11.44094 0.54645,1.67534 1.25624,1.32009 1.49225,0.32667"
       style="fill:#000000;fill-opacity:1;fill-rule:nonzero;stroke:none;stroke-width:0.0352778"
       id="path318" />
    <path
       d="m 23.76124,23.01206 c -1.19768,1.19733 -2.83739,1.66476 -4.4136,1.45521 2.03376,1.60444 4.61715,1.81187 6.06601,0.36583 1.38218,-1.38218 1.26118,-3.8107 -0.1524,-5.79931 0.0734,1.43898 -0.41346,2.89101 -1.50001,3.97827"
       style="fill:#000000;fill-opacity:1;fill-rule:nonzero;stroke:none;stroke-width:0.0352778"
       id="path320" />
    <path
       d="m 33.30388,1.06011 c -2.26342,0 -4.8387,-0.30691 -5.99334,2.24261 C 27.02479,3.93349 25.67224,3.54508 25.94776,2.93724 27.02338,0.5627 29.27233,0 31.63101,0 39.58862,10e-4 47.04239,0.003 55,0 c 0.79903,-3.1e-4 0.92249,1.06011 0,1.06011"
       style="fill:#000000;fill-opacity:1;fill-rule:nonzero;stroke:none;stroke-width:0.0352778"
       id="path322"
       sodipodi:nodetypes="cccccc" />
    <path
       d="m 0.01577,55.27853 c 0,-7.90281 -0.0158,-15.80562 -0.0158,-23.70843 0,-2.35197 0.51212,-4.57059 2.90749,-5.65503 0.6043,-0.27375 1.57621,0.59761 0.77575,0.95991 C 1.23882,27.982 0.97347,30.42139 1.06,32.61785 V 55 C 1.06001,55.74612 -3e-5,55.65194 -3e-5,55"
       style="fill:#000000;fill-opacity:1;fill-rule:nonzero;stroke:none;stroke-width:0.0352778"
       id="path324"
       sodipodi:nodetypes="ccccccc" />
  </g>
</svg>
