<?xml version="1.0" encoding="UTF-8" standalone="no"?>
<svg
   width="60"
   height="60"
   viewBox="0 0 60 60.000002"
   version="1.1"
   id="svg1173"
   sodipodi:docname="style18.svg"
   inkscape:version="1.4 (e7c3feb1, 2024-10-09)"
   xmlns:inkscape="http://www.inkscape.org/namespaces/inkscape"
   xmlns:sodipodi="http://sodipodi.sourceforge.net/DTD/sodipodi-0.dtd"
   xmlns="http://www.w3.org/2000/svg"
   xmlns:svg="http://www.w3.org/2000/svg">
  <defs
     id="defs3925" />
  <sodipodi:namedview
     id="namedview3923"
     pagecolor="#ffffff"
     bordercolor="#666666"
     borderopacity="1.0"
     inkscape:showpageshadow="2"
     inkscape:pageopacity="0.0"
     inkscape:pagecheckerboard="0"
     inkscape:deskcolor="#d1d1d1"
     showgrid="false"
     inkscape:zoom="13.04925"
     inkscape:cx="27.741058"
     inkscape:cy="27.894324"
     inkscape:current-layer="svg1173"
     inkscape:window-width="1944"
     inkscape:window-height="1111"
     inkscape:window-x="42"
     inkscape:window-y="52"
     inkscape:window-maximized="0" />
  <g
     id="g4126"
     style="fill:#000000">
    <path
       d="m 16.6617,21.56778 c -1.97203,0.91404 -3.08716,4.14584 -0.5207,5.18971 1.84608,0.75106 4.0206,-0.78458 3.16547,-2.81129 -0.78916,-1.87148 -3.97581,-0.30303 -2.80035,1.52506 0.007,0.0113 0.0215,0.012 0.0328,0.018 0.17568,0.23425 0.49988,0.3422 0.73201,0.28152 0.33902,-0.0917 0.50765,-0.5468 0.38241,-1.016 -0.0843,-0.31468 -0.30797,-0.53128 -0.58596,-0.61454 0.22648,-0.3496 0.89676,-0.38029 1.35361,0.0254 1.06151,0.94474 -0.0826,2.40171 -1.32292,2.15018 -1.88066,-0.381 -2.63631,-4.01708 0.0575,-4.36104 1.17017,-0.14993 2.36362,0.7419 3.28789,1.32151 1.06857,0.67134 2.30929,1.50636 3.32246,2.26131 0.70027,0.52211 1.10808,0.066 0.44733,-0.50307 -1.74237,-1.49719 -5.14879,-4.58046 -7.55156,-3.46674"
       style="fill:#000000;fill-opacity:1;fill-rule:nonzero;stroke:none;stroke-width:0.0352778"
       id="path411" />
    <path
       d="m 21.47217,16.75589 c 0.9137,-1.97062 4.14691,-3.08681 5.19042,-0.51894 0.75177,1.84679 -0.78563,4.02132 -2.81269,3.16583 -1.87043,-0.78881 -0.30128,-3.97545 1.52576,-2.80141 0.0116,0.008 0.0127,0.0229 0.0183,0.0321 0.23425,0.17569 0.3422,0.5013 0.28117,0.73413 -0.0907,0.33726 -0.54751,0.5073 -1.01565,0.38206 -0.31468,-0.0847 -0.53164,-0.30833 -0.61524,-0.58702 -0.3489,0.22789 -0.37995,0.89676 0.0265,1.35361 0.94369,1.06221 2.40101,-0.0833 2.14983,-1.32292 -0.38135,-1.88031 -4.01778,-2.63631 -4.36139,0.0586 -0.14958,1.16981 0.74225,2.36291 1.32186,3.28683 0.67028,1.06892 1.50707,2.30929 2.26236,3.32211 0.5207,0.70062 0.0642,1.10914 -0.50517,0.44732 -1.49543,-1.74272 -4.58047,-5.14773 -3.46605,-7.55227"
       style="fill:#000000;fill-opacity:1;fill-rule:nonzero;stroke:none;stroke-width:0.0352778"
       id="path413" />
    <path
       d="M 0.01764,59.62933 4e-5,43.43189 2.00064,44.66167 C 1.10106,46.14933 0.73382,48.26177 0.6234,51.07094 0.5412,53.16432 0.51333,59.41228 0.51333,60 0.51333,60.40701 4e-5,60.43164 4e-5,60"
       style="fill:#000000;fill-opacity:1;fill-rule:nonzero;stroke:none;stroke-width:0.0352778"
       id="path415"
       sodipodi:nodetypes="ccccsc" />
    <path
       d="M 9.01947,42.50655 C 9.44739,46.23823 6.03744,47.48178 4.04636,49.95051 1.74766,52.7999 1.38183,56.4179 1.36701,60 c 0.006,0.38962 0.45791,0.38154 0.45897,0 0.0148,-3.72674 1.16311,-7.66529 3.74897,-10.48752 1.11195,-1.2139 2.5534,-2.01118 3.59022,-3.31187 0.87242,-1.09361 1.17898,-2.45992 1.02305,-3.82694 -0.0392,-0.33408 -1.2065,-0.20108 -1.16875,0.133 v 0"
       style="fill:#000000;fill-opacity:1;fill-rule:nonzero;stroke:none;stroke-width:0.0352778"
       id="path417"
       sodipodi:nodetypes="cccccccsc" />
    <path
       d="M 14.97506,15.45908 C 14.726,15.43328 14.48788,15.37158 14.3891,15.27775 12.38285,13.37698 9.22055,10.84122 6.32989,10.74032 c -1.57762,-0.0543 -3.80753,0.4184 -4.34551,2.18017 -0.13653,0.4452 -0.24871,0.90664 -0.20814,1.37689 -0.007,-0.0825 0.1912,1.63371 0.56479,0.88124 0.21485,-0.43286 1.59138,-0.0494 1.44957,0.23601 -0.50095,1.00929 -2.79436,0.85195 -3.21769,-0.20955 -0.83361,-2.09021 0.4505,-3.95006 2.39078,-4.70465 3.29494,-1.28129 6.95713,0.27764 9.8933,2.3562 -2.07892,-2.93617 -3.6375,-6.5987 -2.35621,-9.89294 0.7546,-1.94028 2.61409,-3.22474 4.70394,-2.39113 1.06186,0.42368 1.2192,2.71674 0.21061,3.21804 -0.28575,0.14217 -0.66957,-1.23543 -0.23671,-1.44957 0.75247,-0.37359 -0.96344,-0.5715 -0.88089,-0.56479 -0.4706,-0.0409 -0.93204,0.0716 -1.37654,0.20743 -1.76177,0.53869 -2.23484,2.76825 -2.18052,4.34622 0.10019,2.89031 2.63666,6.05332 4.53708,8.05886 0.0942,0.0991 0.15593,0.33655 0.18168,0.58632 0.0607,0.30762 -0.11148,0.54998 -0.48437,0.48401"
       style="fill:#000000;fill-opacity:1;fill-rule:nonzero;stroke:none;stroke-width:0.0352778"
       id="path419" />
    <path
       d="M 9.62554,10.20622 C 9.3793,10.22522 9.14435,10.19922 9.03005,10.09368 7.26652,8.46349 3.26602,6.13833 1.13665,8.20103 0.39723,9.02829 -0.30304,8.42963 -0.05609,7.92621 0.37218,7.05485 0.889,6.81602 1.69439,6.50628 3.18982,5.93161 6.07624,6.98923 8.28993,8.28993 6.98923,6.07624 5.93125,3.18911 6.50628,1.69404 6.81637,0.889 7.05485,0.37183 7.92656,-0.05609 8.42927,-0.30268 9.02829,0.39723 8.20103,1.1363 c -2.0627,2.12901 0.26246,6.12986 1.893,7.8934 0.10548,0.1143 0.13159,0.34925 0.11218,0.59584 -0.0695,0.38453 -0.29633,0.58103 -0.58067,0.58067"
       style="fill:#000000;fill-opacity:1;fill-rule:nonzero;stroke:none;stroke-width:0.0352778"
       id="path421" />
    <path
       d="M 5.57354,6.04097 C 5.328,6.02827 5.09376,5.98167 4.99004,5.89739 4.00438,5.09517 2.25884,4.88915 1.04493,4.85352 0.8322,4.84652 0.25929,4.81512 0.16933,4.54907 -0.1838,3.50661 -0.29175,2.04258 0.46037,1.14618 0.55457,1.03364 0.77364,0.99871 1.01247,1.01212 0.99907,0.77364 1.03397,0.55492 1.14617,0.46038 2.04258,-0.2921 3.50661,-0.18344 4.54872,0.16933 c 0.26634,0.09 0.29774,0.66287 0.3048,0.87524 0.0363,1.21391 0.24165,2.95946 1.04422,3.94547 0.084,0.10407 0.13123,0.33796 0.14358,0.58314 0.0215,0.27693 -0.14993,0.51188 -0.46778,0.46779"
       style="fill:#000000;fill-opacity:1;fill-rule:nonzero;stroke:none;stroke-width:0.0352778"
       id="path423" />
    <path
       d="M 3.33551,38.00405 C 3.18453,39.64199 5.52803,38.55932 6.02439,37.8647 6.06349,37.8093 6.09919,37.75357 6.13657,37.69784 5.09129,37.11611 3.45758,36.68536 3.33551,38.00405 Z M 39.36965,4.8761 C 39.43105,4.8345 39.49312,4.7953 39.55451,4.75156 40.32568,4.20053 41.52689,1.59985 39.70937,1.76742 38.24605,1.90288 38.72371,3.71616 39.36965,4.8761 Z M 4.53602,32.7092 C 1.81928,31.62265 0.17004,28.76762 -0.1584,25.92176 c -0.36759,-3.19052 0.94016,-5.95912 3.48298,-7.91104 4.27919,-3.28366 9.87072,-3.11397 14.2367,-0.45015 -2.66453,-4.36562 -2.83422,-9.9568 0.44979,-14.23599 1.95157,-2.54282 4.71981,-3.85057 7.91069,-3.48298 2.84586,0.32809 5.70089,1.97767 6.7878,4.69477 0.19544,0.4886 0.32843,1.00224 0.41169,1.52788 1.89512,0.38382 3.85127,0.20003 5.67302,-0.82868 -0.26882,-0.50129 -0.46461,-1.04633 -0.58738,-1.61078 -0.19367,-0.89217 0.0536,-3.1623 1.43652,-3.00143 1.04669,0.12206 1.58855,1.40017 1.5882,2.34491 0,1.30669 -0.42333,2.08069 -1.1945,2.78836 0.81385,0.69815 1.85349,1.0287 2.90971,0.8643 1.66722,-0.2614 3.04341,-1.94486 2.07539,-3.57681 -0.18345,-0.30903 -0.16369,-1.33773 0.22472,-0.68298 0.78563,1.32292 1.03575,2.75731 0.13476,4.08799 -1.0728,1.58433 -3.18241,1.61184 -4.6863,0.76588 C 40.22372,6.95008 39.82156,6.60929 39.47866,6.22018 39.31638,6.344 39.14387,6.46853 38.96113,6.59659 c -1.83656,1.29011 -3.8488,1.69863 -5.75804,1.39383 -0.085,1.31057 -0.43497,2.61443 -0.96379,3.7472 -1.1624,2.48744 -3.67418,3.35139 -6.25228,2.75167 -2.18969,-0.50941 -3.35844,-2.32728 -3.10409,-4.54766 0.11501,-1.00859 0.39864,-1.85208 1.18639,-2.51566 0.89183,-0.75106 2.33151,-0.59619 2.95134,0.36936 0.20991,0.32738 -0.0208,1.71309 -0.30762,1.26612 -0.58737,-0.91581 -1.70321,-0.68827 -2.49908,-0.21766 -1.09678,0.6477 -0.83784,2.21544 -0.23036,3.07975 0.92533,1.31727 3.31364,1.43298 4.72652,1.20755 2.25107,-0.35877 3.44593,-2.5019 3.81176,-4.56423 0.042,-0.23601 0.0656,-0.46743 0.0797,-0.69603 C 30.46727,7.35648 28.50265,5.94783 27.11377,3.8802 26.9409,3.62232 26.74829,2.55834 27.06017,2.83916 28.59052,4.21781 30.42744,5.32906 32.35678,5.87763 31.96026,4.65596 31.12347,3.61209 29.95542,2.8194 28.15484,1.59879 25.91753,1.09502 23.7677,1.26965 c -2.23943,0.18132 -4.08728,1.66087 -5.47123,3.32599 -3.59446,4.32752 -2.32904,10.20903 1.32962,14.01127 0.11148,0.11607 0.14922,0.36054 0.14287,0.6156 0.0212,0.34255 -0.23213,0.54187 -0.5461,0.5461 -0.25506,0.007 -0.49988,-0.0314 -0.61595,-0.14323 -3.80188,-3.6583 -9.68375,-4.92372 -14.01127,-1.32891 -1.66511,1.38359 -3.14396,3.2318 -3.32599,5.47088 -0.17463,2.15018 0.32949,4.38749 1.54975,6.18807 1.08479,1.5995 2.63948,2.58233 4.47993,2.65501 -0.2981,-2.18088 -1.46509,-4.30248 -2.99826,-6.00428 -0.25294,-0.28081 0.70555,-0.1076 0.93803,0.0483 2.13078,1.43122 3.48404,3.54048 3.74439,5.78167 1.92546,-0.44626 3.81282,-1.62665 4.14761,-3.72674 0.22613,-1.41217 0.10971,-3.80047 -1.20756,-4.72616 -0.86431,-0.60713 -2.4317,-0.86607 -3.07975,0.23001 -0.47061,0.79692 -0.69745,1.9117 0.21731,2.49943 0.44803,0.28681 -0.93804,0.51752 -1.26542,0.30727 C 6.83013,26.4008 6.67526,24.96112 7.42597,24.06929 8.0899,23.28119 8.93339,22.99791 9.94198,22.8822 c 2.22003,-0.254 4.0386,0.9151 4.54731,3.10444 0.59972,2.5781 -0.26388,5.08953 -2.75167,6.25193 -0.8322,0.38911 -1.75754,0.68121 -2.70968,0.84314 0.03,1.43051 -0.38876,2.89242 -1.34091,4.24815 -0.11571,0.16475 -0.2279,0.31997 -0.33902,0.46637 0.35066,0.30868 0.65722,0.67134 0.89641,1.09643 0.762,1.35502 0.7373,3.25614 -0.69004,4.22275 -1.19909,0.81175 -2.49167,0.58667 -3.6837,-0.12135 -0.5902,-0.35031 0.3369,-0.3676 0.61524,-0.20285 1.47073,0.87242 2.98732,-0.36795 3.22263,-1.86972 0.14816,-0.95215 -0.14887,-1.88913 -0.77858,-2.6222 -0.63747,0.69462 -1.33491,1.07633 -2.51249,1.07633 -0.85125,3.5e-4 -2.00272,-0.48789 -2.11314,-1.43122 -0.14463,-1.24601 1.90112,-1.46897 2.7051,-1.29434 0.50836,0.11077 0.99942,0.28716 1.45133,0.52916 0.71861,-1.27317 0.97861,-2.61937 0.89817,-3.95605 -0.97401,-0.002 -1.93816,-0.15981 -2.82292,-0.514"
       style="fill:#000000;fill-opacity:1;fill-rule:nonzero;stroke:none;stroke-width:0.0352778"
       id="path425" />
    <path
       d="m 59.62933,0.01729 -16.1978,-0.0173 1.23014,2.0006 C 46.14969,1.10066 48.26177,0.73341 51.07129,0.62335 53.16467,0.54115 59.41227,0.513 60,0.513 c 0.36104,0 0.38175,-0.49899 0,-0.51296"
       style="fill:#000000;fill-opacity:1;fill-rule:nonzero;stroke:none;stroke-width:0.0352778"
       id="path427"
       sodipodi:nodetypes="ccccsc" />
    <path
       d="M 42.50655,9.01947 C 46.23859,9.44739 47.48248,6.03744 49.95087,4.04601 52.79955,1.74731 56.41719,1.38112 60,1.36701 c 0.37537,-0.001 0.36042,0.4572 0,0.45862 -3.7271,0.0148 -7.6653,1.16346 -10.48752,3.74932 -1.21285,1.11125 -2.01083,2.55305 -3.31117,3.59022 -1.09397,0.87206 -2.46027,1.17898 -3.82764,1.0227 -0.33408,-0.0392 -0.20038,-1.2065 0.13335,-1.1684 v 0"
       style="fill:#000000;fill-opacity:1;fill-rule:nonzero;stroke:none;stroke-width:0.0352778"
       id="path429"
       sodipodi:nodetypes="cccccccsc" />
  </g>
</svg>
