<?xml version="1.0" encoding="UTF-8" standalone="no"?>
<svg
   width="56"
   height="56"
   viewBox="0 0 56 56.000002"
   version="1.1"
   id="svg1173"
   sodipodi:docname="style01.svg"
   inkscape:version="1.4 (e7c3feb1, 2024-10-09)"
   inkscape:export-filename="style01.png"
   inkscape:export-xdpi="1676.25"
   inkscape:export-ydpi="1676.25"
   xmlns:inkscape="http://www.inkscape.org/namespaces/inkscape"
   xmlns:sodipodi="http://sodipodi.sourceforge.net/DTD/sodipodi-0.dtd"
   xmlns="http://www.w3.org/2000/svg"
   xmlns:svg="http://www.w3.org/2000/svg">
  <defs
     id="defs202" />
  <sodipodi:namedview
     id="namedview200"
     pagecolor="#ffffff"
     bordercolor="#666666"
     borderopacity="1.0"
     inkscape:showpageshadow="2"
     inkscape:pageopacity="0.0"
     inkscape:pagecheckerboard="0"
     inkscape:deskcolor="#d1d1d1"
     showgrid="false"
     inkscape:zoom="11.23794"
     inkscape:cx="13.52561"
     inkscape:cy="25.760949"
     inkscape:current-layer="svg1173"
     inkscape:window-width="2040"
     inkscape:window-height="1238"
     inkscape:window-x="0"
     inkscape:window-y="25"
     inkscape:window-maximized="0" />
  <g
     id="g1067"
     style="fill:#000000">
    <path
       d="m 9.4645424,41.630593 c 0.5390396,-0.5711 1.4668496,-2.2874 1.5328196,-3.6311 0.067,-1.3847 -0.29563,-2.6624 -0.56515,-3.1732 -0.26847,-0.5109 -0.0533,-0.8337 0.26952,-0.4301 0.32244,0.4029 1.70744,2.0976 1.61325,3.6036 -0.10266,1.6426 -1.24989,2.9856 -2.3396196,3.7113 -0.60431,0.4032 -0.96803,0.4035 -0.51083,-0.081"
       style="fill:#000000;fill-opacity:1;fill-rule:nonzero;stroke:none;stroke-width:0.0352778"
       id="path727-3" />
    <path
       d="m 8.7048568,8.7525486 c 0.12383,-0.092 0.0953,-0.3549 -0.0511,-0.4889 -1.31656,-1.2961 -1.93604,-3.1517 -2.78271,-4.2411 -0.84737,-1.0894 -2.26554,-1.5134 -2.80423,-0.9744 -0.5394,0.5387 -0.14076,1.983 0.94827,2.8304 1.08938,0.8466 3.05294,1.4386 4.23721,2.7869 0.15028,0.1475 0.33902,0.1722 0.45262,0.087"
       style="fill:#000000;fill-opacity:1;fill-rule:nonzero;stroke:none;stroke-width:0.0352778"
       id="path729-9"
       sodipodi:nodetypes="ccccccc" />
    <path
       d="m 12.839766,12.845671 c 0.0921,-0.1235 0.35525,-0.095 0.4893,0.051 1.29611,1.3169 3.15137,1.936 4.24039,2.783 1.08938,0.847 1.51342,2.2652 0.97473,2.8042 -0.53869,0.5391 -1.98296,0.1408 -2.82998,-0.9486 -0.84738,-1.089 -1.43863,-3.0529 -2.78765,-4.2372 -0.14747,-0.1496 -0.17181,-0.339 -0.0868,-0.4522"
       style="fill:#000000;fill-opacity:1;fill-rule:nonzero;stroke:none;stroke-width:0.0352778"
       id="path731-7"
       sodipodi:nodetypes="ccccccc" />
    <path
       d="m 9.0479024,43.365193 c -0.13088,-0.3697 -0.38347,-0.2645 -0.5027,-0.1763 -1.651,1.2153 -3.01237,2.8712 -3.03813,5.0108 -0.0258,2.1033 1.07033,3.5941 3.25403,3.7761 1.9064096,0.1581 3.2734196,-1.7423 2.6359496,-3.5048 -0.61242,-1.6895 -2.7431996,-1.9879 -3.1809896,-0.1849 -0.0212,0.069 -0.0388,0.1415 -0.0487,0.2174 -0.0723,0.5651 0.24729,1.072 0.71472,1.1317 0.46814,0.06 0.90523,-0.35 0.97826,-0.9144 0.0183,-0.1411 0.0109,-0.2787 -0.0155,-0.4064 0.8971096,-0.1221 1.8425496,0.9863 0.4081596,2.0104 -0.8597196,0.6132 -2.0531696,0.5088 -2.9262896,0.1 -2.75696,-1.2908 -0.36301,-4.9346 1.34831,-5.9901 0.18521,-0.114 0.53411,-0.6121 0.37289,-1.069"
       style="fill:#000000;fill-opacity:1;fill-rule:nonzero;stroke:none;stroke-width:0.0352778"
       id="path733-3" />
    <path
       d="m 10.231472,10.971093 c -0.20143,0.4039 0.0131,0.8075 0.0981,0.9556 1.27777,2.2148 2.19887,4.8144 2.0126,7.401 -0.24165,3.3651 -4.0654096,5.2179 -7.0844796,4.7921 -3.80753,-0.5373 -5.71217996,-5.9563 -2.04188,-8.1015 1.22308,-0.7141 2.65853,-0.483 3.6636,0.4501 0.9966,0.9253 0.71543,2.376 -0.19368,2.8251 -0.12241,-0.3084 -0.37888,-0.5888 -0.73695,-0.7543 -0.65652,-0.3048 -1.39347,-0.1104 -1.645,0.4336 -0.25189,0.544 0.0755,1.2308 0.73378,1.5363 1.52576,0.7144 2.76648,-0.6653 3.0988,-2.044 0.38029,-1.5769 -0.47555,-3.1972 -1.88102,-3.9049 -1.86407,-0.9377 -3.95111,0.6477 -4.84434,2.1731 -1.00682996,1.7209 -1.06009996,3.8227 -0.27834,5.6247 0.37923,0.8749 0.91052,1.5441 1.53846,2.031 0.88195,0.8234 2.12619,1.7773 2.48779,2.0055 3.97792,2.5248 5.1191596,9.8238 2.80388,13.7259 -1.19133,2.0091 -4.30107,2.4035 -5.91926,0.7172 -1.48166996,-1.5438 -1.22448996,-4.148 1.10913,-4.4859 1.26154,-0.1828 2.24367,0.4734 2.65571,1.6411 0.14676,0.4166 0.54081,-0.7419 0.42757,-1.0619 -1.03117,-2.9224 -5.11316,-2.1297 -5.63597996,0.7366 -0.59796,3.2802 1.67675996,6.0773 5.11704996,5.345 3.3027,-0.7028 3.83857,-5.3788 3.85868,-8.049 0.007,-0.9423 -0.0653,-1.9477 -0.23142,-2.9531 1.1920296,1.8168 3.1760496,3.2392 5.4652296,2.9044 2.24825,-0.3284 3.09174,-3.0455 2.91818,-4.9745 -0.1965,-2.1936 -2.58057,-3.5461 -4.38574,-2.0973 -1.08585,0.8728 -0.8964,3.0699 0.21273,3.8467 0.0109,0.01 0.0251,0.016 0.037,0.025 0.0332,0.022 0.0642,0.047 0.0991,0.067 0.0769,0.047 0.15804,0.09 0.24836,0.1217 0.57749,0.2043 1.18286,-0.017 1.35255,-0.4949 0.16898,-0.4777 -0.16264,-1.0312 -0.74013,-1.2354 -0.37783,-0.1341 -0.76553,-0.083 -1.03646,0.1012 -0.4124,-0.4872 -0.13124,-1.2478 0.52211,-1.5921 0.73095,-0.3856 1.62066,-0.1654 2.25989,0.2523 1.94804,1.2742 0.5581,3.8467 -1.07879,4.5917 -2.48144,1.1303 -5.6606696,-2.0997 -6.4745296,-3.9077 -0.58667,-1.6732 -1.52577,-3.1824 -2.92735,-4.1984 2.2673,0.024 4.6915896,-1.1723 6.0176796,-3.0702 2.31599,-3.3119 0.81068,-8.3034 -1.00647,-11.4537 -0.127,-0.219 -0.4632,-0.1908 -0.5962,0.075"
       style="fill:#000000;fill-opacity:1;fill-rule:nonzero;stroke:none;stroke-width:0.0352778"
       id="path735-7" />
    <path
       d="m 1.3217224,8.168993 c -0.67591996,0.6639 -0.77257996,1.6718 -0.45402996,2.534 0.46778996,1.2657 2.00589996,1.4418 3.14395996,1.3846 1.71062,-0.085 3.30129,-0.2667 4.54519,1.1751 0.3436,0.3979 0.55774,0.091 0.59831,-0.261 0.0402,-0.3493 -0.28046,-0.6506 -0.37571,-0.7931 -0.75389,-1.1162 -2.3682,-1.6369 -3.73309,-1.4975 -0.85796,0.088 -1.66582,0.1252 -2.52942,-0.021 -0.64982,-0.1093 -1.88136996,-0.908 -0.88336,-1.4686 0.13759,-0.077 0.28399,-0.1147 0.43039,-0.1203 0.0229,0.1231 0.067,0.2473 0.13723,0.3648 0.27094,0.4551 0.79904,0.642 1.17757,0.4159 0.3803,-0.2261 0.46814,-0.7775 0.1965,-1.2337 -0.0473,-0.08 -0.10477,-0.1481 -0.16616,-0.2106 -0.50764,-0.5923 -1.4425,-0.9024 -2.08738,-0.2691"
       style="fill:#000000;fill-opacity:1;fill-rule:nonzero;stroke:none;stroke-width:0.0352778"
       id="path737-5" />
    <path
       d="m -0.27953756,46.916993 c -0.48295,-0.6198 -0.45473,-1.4591 -0.0988,-2.1336 0.52282,-0.9881 1.80480996,-0.9659 2.73543996,-0.7951 1.39559,0.2557 2.68428,0.5782 3.86292,-0.4714 0.32667,-0.2903 0.46954,-0.015 0.46425,0.2787 -0.005,0.2921 -0.30162,0.5049 -0.39582,0.6121 -0.74012,0.8347 -2.12513,1.088 -3.23144,0.8244 -0.69462,-0.1654 -1.35502,-0.2843 -2.08103996,-0.2585 -0.54539,0.018 -1.64535,0.5418 -0.88653,1.1116 0.10548,0.078 0.22119,0.1245 0.34114,0.1453 0.0328,-0.099 0.0825,-0.1947 0.15381,-0.2854 0.27023,-0.3439 0.72565996,-0.4403 1.01246996,-0.2134 0.28752,0.2279 0.29951,0.6904 0.0268,1.0361 -0.048,0.06 -0.10266,0.1093 -0.1591,0.1552 -0.48188996,0.4311 -1.28481996,0.5846 -1.74412996,-0.01"
       style="fill:#000000;fill-opacity:1;fill-rule:nonzero;stroke:none;stroke-width:0.0352778"
       id="path739-0" />
    <path
       d="m 0.63874244,25.367893 c -0.57079,0.5398 -0.66887,1.3741 -0.41804,2.0941 0.36724,1.0559 1.63829996,1.2263 2.58338996,1.1977 1.41923,-0.043 2.74144,-0.1679 3.74897,1.047 0.27834,0.3366 0.46179,0.086 0.50094,-0.2056 0.0392,-0.2897 -0.2226,-0.544 -0.29915,-0.6639 -0.60572,-0.9374 -1.9371,-1.396 -3.07093,-1.3018 -0.71191,0.059 -1.38289,0.077 -2.09691,-0.058 -0.53517,-0.1 -1.54410996,-0.7821 -0.70837996,-1.2312 0.11536,-0.061 0.23706996,-0.09 0.35876996,-0.093 0.0176,0.1027 0.0522,0.2053 0.10937,0.3052 0.21519,0.381 0.65052,0.5443 0.96802,0.3633 0.31926,-0.182 0.4004,-0.6374 0.18344,-1.0202 -0.0384,-0.066 -0.0854,-0.1231 -0.1337,-0.1771 -0.4124,-0.4988 -1.18322,-0.7715 -1.72578996,-0.2565"
       style="fill:#000000;fill-opacity:1;fill-rule:nonzero;stroke:none;stroke-width:0.0352778"
       id="path741-2" />
    <path
       d="m 41.629762,9.465793 c -0.57115,0.5394 -2.28741,1.4668 -3.6315,1.5328 -1.385,0.067 -2.66241,-0.2956 -3.17359,-0.5648 -0.51047,-0.2692 -0.83326,-0.054 -0.42968,0.2692 0.40323,0.3228 2.09726,1.7074 3.60398,1.6136 1.64253,-0.103 2.9852,-1.2503 3.71122,-2.3397 0.40217,-0.6046 0.40358,-0.9683 -0.0804,-0.5111"
       style="fill:#000000;fill-opacity:1;fill-rule:nonzero;stroke:none;stroke-width:0.0352778"
       id="path743-1" />
    <path
       d="m 43.363312,9.048793 c -0.36971,-0.1302 -0.26388,-0.3831 -0.17569,-0.5024 1.21532,-1.6506 2.87197,-3.012 5.01051,-3.0381 2.10326,-0.026 3.5948,1.0703 3.77613,3.254 0.1584,1.9064 -1.74166,3.2735 -3.50414,2.6356 -1.68946,-0.612 -1.98826,-2.7428 -0.18556,-3.1806 0.0695,-0.021 0.14181,-0.039 0.21801,-0.048 0.5648,-0.073 1.07174,0.2469 1.13136,0.714 0.06,0.4685 -0.3496,0.9059 -0.9144,0.9786 -0.14146,0.018 -0.27869,0.011 -0.40675,-0.015 -0.12136,0.8971 0.98637,1.8425 2.01083,0.4078 0.61348,-0.8594 0.50871,-2.0525 0.0998,-2.9256 -1.29081,-2.7573 -4.935,-0.3634 -5.99016,1.348 -0.11465,0.1855 -0.61278,0.5337 -1.06998,0.3725"
       style="fill:#000000;fill-opacity:1;fill-rule:nonzero;stroke:none;stroke-width:0.0352778"
       id="path745-8" />
    <path
       d="m 37.665952,0.601193 c -2.86562,0.5228 -3.65866,4.6048 -0.7359,5.6356 0.31962,0.1139 1.47849,-0.2801 1.06151,-0.4272 -1.16769,-0.4121 -1.82351,-1.3946 -1.64148,-2.6554 0.33797,-2.3333 2.94252,-2.5911 4.48593,-1.1091 1.68592,1.6178 1.29222,4.7272 -0.71649,5.9189 -3.90243,2.3153 -11.20105,1.1744 -13.72588,-2.8032 -0.2286,-0.3626 -1.18287,-1.6069 -2.00625,-2.4885 -0.48683,-0.6279 -1.1557,-1.1588 -2.03059,-1.5381 -1.80128,-0.7821 -3.90349,-0.7292 -5.62504,0.2787 -1.52541,0.8929 -3.11044,2.9799 -2.17241,4.8436 0.70767,1.4059 2.32763,2.261 3.9049,1.8807 1.3783,-0.3316 2.75802,-1.573 2.04329,-3.0984 -0.30515,-0.658 -0.99201,-0.9857 -1.536,-0.7338 -0.54398,0.2519 -0.73801,0.9885 -0.43391,1.6453 0.1658,0.3581 0.44661,0.6139 0.75459,0.737 -0.44944,0.9087 -1.89971,1.1899 -2.82504,0.1933 -0.9331,-1.0054 -1.16417,-2.4405 -0.45015,-3.6632 2.14524,-3.6707 7.56461,-1.766 8.10154,2.0415 0.4251,3.0194 -1.42663,6.8428 -4.79248,7.0845 -2.58622,0.1859 -5.18619,-0.7349 -7.40022,-2.0126 -0.14817,-0.085 -0.55245,-0.2999 -0.95568,-0.098 -0.2667,0.133 -0.29422,0.4699 -0.0755,0.5962 3.14995,1.8168 8.14176,3.3221 11.45399,1.0068 1.89759,-1.3264 3.09386,-3.7511 3.06987,-6.0184 1.01565,1.4009 2.52342,2.34 4.19594,2.9267 1.80764,0.8124 5.04155,3.9931 3.91019,6.4759 -0.74542,1.6366 -3.31752,3.0262 -4.59175,1.0785 -0.41769,-0.6393 -0.63783,-1.529 -0.25259,-2.2599 0.34466,-0.6537 1.1056,-0.9349 1.59208,-0.5225 -0.18344,0.2713 -0.23495,0.6586 -0.10089,1.0372 0.20461,0.5768 0.75777,0.9087 1.23543,0.7394 0.47801,-0.1693 0.6992,-0.7751 0.4953,-1.3526 -0.0325,-0.09 -0.0751,-0.171 -0.12206,-0.2483 -0.0198,-0.035 -0.0448,-0.066 -0.0667,-0.099 -0.009,-0.012 -0.0155,-0.026 -0.0258,-0.037 -0.77612,-1.1088 -2.97357,-1.2986 -3.84599,-0.2128 -1.44886,1.8056 -0.096,4.1893 2.09691,4.3861 1.92899,0.1733 4.64609,-0.6702 4.97558,-2.9185 0.33443,-2.2888 -1.08832,-4.2735 -2.90548,-5.4652 1.00542,0.1661 2.01084,0.2381 2.95346,0.231 2.66982,-0.019 7.34624,-0.5559 8.04898,-3.8579 0.73236,-3.4407 -2.06516,-5.7154 -5.34529,-5.1174"
       style="fill:#000000;fill-opacity:1;fill-rule:nonzero;stroke:none;stroke-width:0.0352778"
       id="path747-7" />
    <path
       d="m 8.1673724,1.322993 c 0.66393,-0.6756 1.67287,-0.7726 2.5343596,-0.4534 1.26576,0.4675 1.44145,2.0052 1.385,3.1433 -0.085,1.7102 -0.2674,3.3013 1.17475,4.5452 0.39829,0.3432 0.0921,0.5577 -0.26105,0.5986 -0.34925,0.04 -0.65052,-0.2808 -0.79269,-0.3764 -1.11619,-0.7528 -1.63725,-2.3678 -1.4979,-3.7331 0.0875,-0.8576 0.12453,-1.6654 -0.0201,-2.529 -0.11007,-0.6499 -0.9080496,-1.8818 -1.4686096,-0.8827 -0.0769,0.1369 -0.11466,0.2829 -0.12101,0.4293 0.12348,0.023 0.24695,0.067 0.36548,0.1376 0.45509,0.2713 0.6413496,0.7994 0.41593,1.1783 -0.22719,0.3799 -0.77753,0.4674 -1.23402,0.1958 -0.0797,-0.047 -0.14746,-0.1048 -0.21061,-0.1658 -0.59266,-0.5084 -0.90276,-1.4429 -0.26952,-2.0877"
       style="fill:#000000;fill-opacity:1;fill-rule:nonzero;stroke:none;stroke-width:0.0352778"
       id="path749-1" />
    <path
       d="m 46.915072,-0.278307 c -0.61877,-0.483 -1.45803,-0.4544 -2.13254,-0.099 -0.98848,0.5231 -0.9659,1.8051 -0.79516,2.7354 0.25541,1.3963 0.5775,2.6846 -0.47166,3.8636 -0.28999,0.326 -0.0152,0.4692 0.27904,0.4643 0.2921,-0.01 0.50412,-0.302 0.61137,-0.3958 0.83502,-0.7409 1.08867,-2.1255 0.82515,-3.2318 -0.16581,-0.6947 -0.28505,-1.3551 -0.25824,-2.0814 0.0173,-0.5454 0.54152,-1.645 1.11055,-0.8858 0.078,0.1047 0.12453,0.2208 0.14605,0.3404 -0.0988,0.033 -0.19579,0.083 -0.28575,0.1541 -0.34396,0.2703 -0.44062,0.7257 -0.21343,1.0122 0.22824,0.2878 0.69074,0.3002 1.03646,0.027 0.0589,-0.048 0.10901,-0.103 0.15487,-0.1587 0.43144,-0.4823 0.5849,-1.2852 -0.007,-1.7445"
       style="fill:#000000;fill-opacity:1;fill-rule:nonzero;stroke:none;stroke-width:0.0352778"
       id="path751-5" />
    <path
       d="m 25.366352,0.639593 c 0.54081,-0.5708 1.37371,-0.6685 2.09444,-0.4177 1.05551,0.3676 1.22626,1.638 1.19803,2.5834 -0.043,1.4189 -0.16757,2.7411 1.04634,3.749 0.33655,0.2783 0.0854,0.4618 -0.20531,0.5009 -0.28928,0.039 -0.54399,-0.2226 -0.66393,-0.2995 -0.93733,-0.6057 -1.3963,-1.9367 -1.30175,-3.0702 0.0586,-0.7123 0.0773,-1.3832 -0.0579,-2.0969 -0.0995,-0.5359 -0.78282,-1.5445 -1.2312,-0.7087 -0.0614,0.1153 -0.0907,0.237 -0.0935,0.3587 0.10337,0.017 0.20532,0.052 0.30551,0.109 0.38135,0.2152 0.54363,0.6513 0.36371,0.9688 -0.18203,0.3189 -0.63782,0.4004 -1.02023,0.1831 -0.0667,-0.039 -0.12312,-0.085 -0.17745,-0.1337 -0.49918,-0.4124 -0.77152,-1.1833 -0.25682,-1.7262"
       style="fill:#000000;fill-opacity:1;fill-rule:nonzero;stroke:none;stroke-width:0.0352778"
       id="path753-5" />
    <path
       d="M 48.688132,0.00773332 56.0254,0 c 0.16581,-1.7476011e-4 0.591772,0.25500032 0.600942,0.52700032 0.0109,0.327 -0.309892,0.59063298 -0.651742,0.59063298 h -3.690598 c -1.09926,0 -2.19463,0.176667 -3.2124,0.617667 -0.16369,0.071 -0.36512,-0.037 -0.45931,-0.2879 -0.10831,-0.2882 -0.22507,-1.09919998 -0.22507,-1.22519998 C 48.387222,0.09590032 48.476122,0 48.688142,0"
       style="fill:#000000;fill-opacity:1;fill-rule:nonzero;stroke:none;stroke-width:0.0352778"
       id="path755-8"
       sodipodi:nodetypes="cscssccsc" />
    <path
       d="M 0.00242976,48.678393 0,56 c -5.5022648e-5,0.1658 0.24979976,0.607793 0.52178976,0.616593 C 0.84881976,56.627593 1.1162197,56.3415 1.1162197,56 v -3.725707 c 0,-1.0989 0.17286,-2.1943 0.61384,-3.2124 0.0709,-0.1637 -0.0363,-0.3648 -0.28787,-0.4593 -0.28822,-0.108 -1.09889994,-0.2251 -1.22519994,-0.2251 C 0.09069976,48.377493 0,48.466493 0,48.678393"
       style="fill:#000000;fill-opacity:1;fill-rule:nonzero;stroke:none;stroke-width:0.0352778"
       id="path757-5"
       sodipodi:nodetypes="cscssscsc" />
  </g>
</svg>
