<?xml version="1.0" encoding="UTF-8" standalone="no"?>
<svg
   width="1000"
   height="996.7442"
   viewBox="0 0 1000 996.74425"
   version="1.1"
   id="svg1173"
   sodipodi:docname="style04.svg"
   inkscape:version="1.4 (e7c3feb1, 2024-10-09)"
   inkscape:export-filename="style04.png"
   inkscape:export-xdpi="1841.4592"
   inkscape:export-ydpi="1841.4592"
   xmlns:inkscape="http://www.inkscape.org/namespaces/inkscape"
   xmlns:sodipodi="http://sodipodi.sourceforge.net/DTD/sodipodi-0.dtd"
   xmlns="http://www.w3.org/2000/svg"
   xmlns:svg="http://www.w3.org/2000/svg">
  <defs
     id="defs1455" />
  <sodipodi:namedview
     id="namedview1453"
     pagecolor="#ffffff"
     bordercolor="#666666"
     borderopacity="1.0"
     inkscape:showpageshadow="2"
     inkscape:pageopacity="0.0"
     inkscape:pagecheckerboard="0"
     inkscape:deskcolor="#d1d1d1"
     showgrid="false"
     inkscape:zoom="7.1270529"
     inkscape:cx="37.392735"
     inkscape:cy="43.706705"
     inkscape:current-layer="svg1173"
     inkscape:window-width="1880"
     inkscape:window-height="1314"
     inkscape:window-x="0"
     inkscape:window-y="25"
     inkscape:window-maximized="0" />
  <g
     id="g2519"
     transform="matrix(19.181867,0,0,19.181867,-4611.8346,-2446.6345)"
     style="fill:#000000">
    <path
       d="m 278.06472,130.89963 c 1.19503,-0.77964 2.58424,-1.42628 4.0374,-1.84044 -2.75735,0.115 -5.44121,0.81562 -7.33062,1.92158 -2.65176,1.55187 -4.93366,3.6837 -7.50545,5.36152 -1.05939,0.69109 -2.27154,1.27705 -3.54542,1.69086 2.40877,-0.21731 4.95635,-0.83538 6.84096,-1.94804 2.6457,-1.5621 4.93131,-3.50802 7.50313,-5.18548 z m 8.30531,-2.37772 c 1.4242,0.22578 3.03417,0.81527 4.22229,1.77271 1.92581,1.55187 2.70704,4.08552 1.10423,6.16832 -1.03491,1.34549 -3.35002,1.7533 -4.86597,1.0989 -1.80746,-0.7807 -2.92587,-3.66254 -0.71865,-4.81048 1.50107,-0.78105 3.94572,-0.64735 4.25729,1.27388 0.0382,0.15416 0.054,0.31962 0.0405,0.49107 -0.056,0.71437 -0.57549,1.2573 -1.15962,1.21108 -0.58459,-0.0459 -1.01261,-0.66216 -0.95666,-1.37653 0.0237,-0.30339 0.13437,-0.57186 0.29478,-0.78105 0.085,-0.55563 -0.85549,-1.09538 -1.70713,-0.0727 -0.32508,0.39052 -0.39081,0.93521 -0.4094,1.42098 -0.0548,1.43122 1.58281,2.71075 2.99046,2.06975 2.20903,-1.00647 1.70452,-3.99133 0.54833,-5.52062 -2.54096,-3.36232 -7.80398,-2.22708 -10.63488,0.25824 -2.4832,2.17946 -3.8294,4.02731 -8.45382,6.04661 -3.28818,1.43545 -8.20131,1.64147 -12.16336,0.91616 -1.38712,-0.19226 -2.86526,-0.81068 -4.0199,-1.74131 -1.92582,-1.55116 -2.70687,-4.08552 -1.1042,-6.16797 1.0347,-1.34549 3.34998,-1.75366 4.86587,-1.0989 1.80728,0.7807 2.92594,3.66254 0.71861,4.81048 -1.49367,0.77646 -3.92395,0.65017 -4.2545,-1.24531 -0.0469,-0.1658 -0.0674,-0.34572 -0.0498,-0.53446 0.0628,-0.68756 0.5708,-1.20332 1.13348,-1.15182 0.56303,0.0515 0.96802,0.65158 0.90487,1.3395 -0.0236,0.26317 -0.11465,0.50059 -0.24729,0.6918 0.0691,0.63747 0.85584,1.22061 1.74413,0.15452 0.32491,-0.39053 0.39052,-0.93522 0.40922,-1.42099 0.055,-1.43122 -1.58291,-2.71075 -2.9905,-2.06975 -2.20874,1.00612 -1.7092,3.99485 -0.54821,5.52062 2.72838,3.58845 7.93679,2.11102 10.95728,-0.39088 2.77177,-2.29658 5.07996,-4.94736 8.71936,-6.16056 3.03128,-1.01035 7.21251,-1.36102 11.3731,-0.70132"
       style="fill:#000000;fill-opacity:1;fill-rule:nonzero;stroke:none;stroke-width:0.0352778"
       id="path687" />
    <path
       d="m 249.13221,157.5146 c 1.11231,-1.88454 1.73073,-4.4323 1.94804,-6.84072 -0.41381,1.27388 -0.99977,2.48568 -1.69122,3.54542 -1.67745,2.57175 -3.80929,4.85352 -5.36151,7.505 -1.10561,1.88983 -1.80622,4.57376 -1.92158,7.33072 0.41416,-1.45309 1.06115,-2.84233 1.84044,-4.03719 1.67781,-2.5721 3.62373,-4.8574 5.18583,-7.50323 z m -6.86188,4.43547 c 1.2132,-3.6396 3.86398,-5.94748 6.16056,-8.71925 2.50155,-3.02049 3.97898,-8.2289 0.39088,-10.95763 -1.52612,-1.16064 -4.5145,-1.66053 -5.52062,0.54857 -0.641,1.40758 0.63817,3.04517 2.06939,2.99049 0.48578,-0.0187 1.03082,-0.0847 1.42099,-0.40957 1.06645,-0.88794 0.48331,-1.67499 -0.15416,-1.74378 -0.19121,0.13229 -0.42863,0.22331 -0.69215,0.24729 -0.68792,0.0628 -1.28799,-0.34184 -1.3395,-0.90522 -0.0515,-0.56268 0.46461,-1.07068 1.15217,-1.13348 0.18839,-0.0173 0.36866,0.003 0.53446,0.0501 1.89548,0.3302 2.02177,2.76049 1.24495,4.25415 -1.14758,2.20733 -4.02942,1.08867 -4.81047,-0.71826 -0.65441,-1.51623 -0.2466,-3.83116 1.0989,-4.86621 2.0828,-1.60267 4.6168,-0.82162 6.16797,1.10419 0.93098,1.155 1.54904,2.63278 1.74166,4.02026 0.72531,3.96169 0.51929,8.87483 -0.91616,12.16307 -2.0193,4.62456 -3.86715,5.97077 -6.04697,8.45397 -2.48496,2.83069 -3.62056,8.09378 -0.25788,10.63484 1.52929,1.1564 4.51415,1.66052 5.52027,-0.54857 0.64135,-1.40759 -0.63853,-3.04518 -2.06975,-2.99015 -0.48577,0.0187 -1.03046,0.0843 -1.42064,0.40923 -1.0227,0.8516 -0.48295,1.79211 0.0727,1.70709 0.20919,-0.16052 0.47766,-0.27094 0.78069,-0.29492 0.71438,-0.0557 1.33103,0.37253 1.3769,0.95673 0.0459,0.5842 -0.49672,1.10384 -1.21109,1.15993 -0.1718,0.0131 -0.3369,-0.002 -0.49107,-0.0406 -1.92158,-0.3115 -2.05493,-2.75625 -1.27388,-4.25767 1.14794,-2.20663 4.02978,-1.08868 4.81013,0.71896 0.65475,1.51588 0.24659,3.83116 -1.09855,4.86551 -2.0828,1.60302 -4.61681,0.82197 -6.16832,-1.10349 -0.95779,-1.18851 -1.54729,-2.79823 -1.77271,-4.2224 -0.66005,-4.16101 -0.30903,-8.34213 0.70132,-11.3732"
       style="fill:#000000;fill-opacity:1;fill-rule:nonzero;stroke:none;stroke-width:0.0352778"
       id="path689" />
    <path
       d="m 240.71211,136.74057 c 0.19932,0.19967 0.41134,0.31327 0.63606,0.33796 0.22648,0.0272 0.41945,-0.0392 0.5782,-0.19826 0.0469,-0.0466 0.0988,-0.12523 0.15523,-0.23389 0.0557,-0.10901 0.0998,-0.18239 0.13335,-0.21519 0.14675,-0.14676 0.79445,0.0441 1.9431,0.56903 1.14864,0.52387 1.78223,0.72672 1.90288,0.60642 0.0921,-0.0921 0.0854,-0.22507 -0.0212,-0.39723 -0.58384,-0.41169 -1.18886,-0.74471 -1.81328,-0.99695 -0.37076,-0.15875 -0.79621,-0.29845 -1.27423,-0.41804 -0.37183,-0.0935 -0.57785,-0.16016 -0.61736,-0.19932 -0.0797,-0.0794 -0.15099,-0.21343 -0.21378,-0.40322 -0.0621,-0.18874 -0.12136,-0.30974 -0.17463,-0.36301 -0.27164,-0.27199 -0.69638,-0.11924 -1.27388,0.45826 -0.17321,0.17286 -0.25365,0.41275 -0.24518,0.72143 0.0109,0.30868 0.10513,0.5528 0.28469,0.73201 z m 0.14993,-3.35633 c 0.67628,0.67628 1.25695,0.78635 1.74273,0.32879 0.63676,0.37148 1.45732,0.81316 2.45815,1.32398 0.68404,0.35207 1.10349,0.60325 1.2566,0.75706 0.0194,0.0194 0.049,0.0564 0.0882,0.11007 0.0469,0.0469 0.0833,0.0833 0.11007,0.10971 0.23812,0.23883 0.40569,0.37818 0.49847,0.41839 0.14676,0.0533 0.30198,-0.004 0.46814,-0.17003 0.14605,-0.14606 0.14887,-0.28893 0.01,-0.42828 0.0473,0.0473 -0.67028,-0.40393 -2.15159,-1.35396 -0.52387,-0.33867 -1.09502,-0.67663 -1.71274,-1.016 -0.45014,-0.25188 -0.70026,-0.40111 -0.74612,-0.44732 -0.0476,-0.0473 -0.11007,-0.18627 -0.18874,-0.41945 -0.0794,-0.23143 -0.15769,-0.38418 -0.23071,-0.4572 -0.50483,-0.50448 -1.01142,-0.50236 -1.5233,0.009 -0.4378,0.43779 -0.46425,0.84948 -0.0787,1.23472 z m 1.88207,-2.30011 c 0.0589,0.0589 0.18944,0.10195 0.38806,0.12912 0.25153,0.0265 0.4579,0.0801 0.61665,0.15981 0.25859,0.12629 0.84385,0.64382 1.75225,1.55257 0.43251,0.43215 0.8763,0.93627 1.32997,1.50954 0.45544,0.57362 0.72249,0.90205 0.80222,0.98143 0.079,0.0794 0.19332,0.12241 0.33867,0.12947 0.14605,0.006 0.25223,-0.024 0.3182,-0.09 0.0466,-0.0462 0.0522,-0.13794 0.0152,-0.27411 -0.0363,-0.13547 -0.11359,-0.26423 -0.23354,-0.38453 l -2.21015,-2.21015 c -0.0265,-0.0265 -0.51894,-0.63747 -1.47496,-1.83163 0.0801,-0.54574 0.0303,-0.90664 -0.14923,-1.08655 -0.20602,-0.20567 -0.4699,-0.3235 -0.79199,-0.35419 -0.32102,-0.0293 -0.5662,0.0395 -0.73166,0.20567 -0.17991,0.17956 -0.26458,0.43956 -0.25505,0.7814 0.0106,0.34184 0.10583,0.60255 0.28539,0.78211 z m 6.17502,3.42618 c 0.1323,0.13229 0.29069,0.10548 0.47696,-0.0811 0.12665,-0.12665 0.12665,-0.30374 7.1e-4,-0.53693 -0.0339,-0.0603 -0.27235,-0.41169 -0.71791,-1.05551 -0.60431,-0.86924 -1.02834,-1.54093 -1.27529,-2.01224 -0.0593,-0.11219 -0.1076,-0.26706 -0.14287,-0.46249 -0.0374,-0.1965 -0.0684,-0.32103 -0.0949,-0.37324 -0.0737,-0.10054 -0.14464,-0.20109 -0.21484,-0.30516 -0.0688,-0.10195 -0.0674,-0.24306 0.005,-0.42262 0.17356,-0.4117 0.26564,-0.64982 0.27975,-0.71685 0.0194,-0.1524 -0.06,-0.31926 -0.23954,-0.49883 -0.27869,-0.27869 -0.57502,-0.43921 -0.89147,-0.4826 -0.31538,-0.0434 -0.55597,0.0187 -0.72213,0.18521 -0.19967,0.19932 -0.31644,0.43533 -0.35349,0.71191 -0.037,0.27587 0.0215,0.4893 0.17428,0.64276 0.0399,0.0399 0.12664,0.0727 0.25894,0.0995 0.17215,0.0399 0.30585,0.0854 0.39863,0.1397 1.89301,3.29953 2.91077,5.02144 3.05823,5.16855 z m -3.12843,4.32188 c 0.15275,0.1524 0.3422,0.28469 0.56797,0.39864 0.22613,0.11324 0.38383,0.16651 0.47343,0.16404 0.0896,-0.004 0.53905,-0.40957 1.34902,-1.2199 0.054,-0.0536 0.1584,-0.16793 0.31327,-0.34467 0.15593,-0.17497 0.28681,-0.31573 0.39405,-0.42298 0.23813,-0.23848 0.72955,-0.71014 1.47426,-1.41323 0.74295,-0.70449 1.36102,-1.30175 1.85209,-1.79281 0.37147,-0.37112 0.40498,-0.7112 0.0988,-1.01671 -0.23107,-0.23177 -0.44026,-0.32103 -0.62688,-0.2674 -0.12665,0.0328 -0.32385,0.1845 -0.59655,0.4572 l -0.10971,0.11042 c 0.006,-0.006 -0.14958,0.16898 -0.46885,0.52669 -0.37853,0.4184 -0.78704,0.86043 -1.22484,1.32468 -0.63147,0.67099 -1.31445,1.37548 -2.0514,2.11173 -0.0332,0.0332 -0.39617,0.30904 -1.08621,0.82621 l -0.39864,0.2988 c -0.0526,0.0938 -0.0388,0.17992 0.0402,0.25929 z m 4.47217,-5.72699 c 0.15275,0.15275 0.29174,0.16545 0.41768,0.0395 0.133,-0.13335 0.1069,-0.36407 -0.079,-0.69674 -0.17215,-0.27869 -0.34219,-0.56056 -0.50976,-0.84631 -0.0653,-0.17251 -0.14746,-0.66076 -0.24765,-1.46368 -0.0328,-0.29845 -0.0328,-0.46425 10e-4,-0.49777 0.0324,-0.0328 0.115,-0.0864 0.2487,-0.16016 0.13194,-0.0723 0.22719,-0.13899 0.28787,-0.19897 0.1136,-0.11394 0.14394,-0.31185 0.09,-0.5969 -0.0533,-0.28645 -0.16898,-0.51858 -0.34819,-0.69779 -0.21943,-0.21978 -0.47978,-0.32385 -0.78176,-0.31327 -0.30162,0.01 -0.56691,0.12806 -0.79234,0.35313 -0.22507,0.22543 -0.24271,0.43498 -0.0494,0.6283 0.0265,0.0261 0.0642,0.0547 0.11395,0.0843 0.0501,0.03 0.0847,0.055 0.10442,0.0741 0.0995,0.0995 0.20285,0.3549 0.30868,0.76729 0.1136,0.51118 0.23284,1.022 0.35913,1.53282 0.25259,0.99589 0.54504,1.66053 0.87666,1.99214"
       style="fill:#000000;fill-opacity:1;fill-rule:nonzero;stroke:none;stroke-width:0.0352778"
       id="path691" />
    <path
       d="m 263.37809,141.13019 c -0.19932,-0.19932 -0.4117,-0.31327 -0.63606,-0.33797 -0.22649,-0.0272 -0.41946,0.0395 -0.57821,0.19862 -0.0469,0.0462 -0.0988,0.12488 -0.15557,0.23354 -0.0554,0.10901 -0.0998,0.18238 -0.133,0.21554 -0.14675,0.14641 -0.79481,-0.0445 -1.9431,-0.56903 -1.149,-0.52387 -1.78223,-0.72672 -1.90288,-0.60642 -0.0924,0.0917 -0.0857,0.22507 0.0212,0.39687 0.58384,0.41205 1.18886,0.74472 1.81292,0.99695 0.37077,0.15911 0.79657,0.29881 1.27459,0.4184 0.37182,0.0935 0.57785,0.15981 0.61736,0.19896 0.0797,0.0794 0.15063,0.21379 0.21378,0.40358 0.0621,0.18874 0.12136,0.30939 0.17427,0.36266 0.272,0.27199 0.69639,0.11924 1.27424,-0.45826 0.17286,-0.17251 0.25329,-0.4124 0.24482,-0.72143 -0.0106,-0.30833 -0.10477,-0.55245 -0.28433,-0.73201 z m -0.14993,3.35632 c -0.67628,-0.67627 -1.25695,-0.78634 -1.74273,-0.32878 -0.63676,-0.37148 -1.45732,-0.8128 -2.45851,-1.32398 -0.68368,-0.35207 -1.10313,-0.60325 -1.25624,-0.75671 -0.0197,-0.0194 -0.0494,-0.0564 -0.0882,-0.11042 -0.0469,-0.0466 -0.0836,-0.0832 -0.11007,-0.10971 -0.23848,-0.23883 -0.40569,-0.37818 -0.49847,-0.41804 -0.14676,-0.0533 -0.30233,0.004 -0.46814,0.17003 -0.14605,0.14606 -0.14887,0.28893 -0.01,0.42828 -0.0473,-0.0476 0.67027,0.40358 2.15159,1.35396 0.52352,0.33867 1.09502,0.67627 1.71238,1.016 0.4505,0.25188 0.70062,0.40111 0.74648,0.44697 0.0476,0.0476 0.11007,0.18627 0.18873,0.4198 0.0794,0.23143 0.1577,0.38383 0.23037,0.4572 0.50518,0.50412 1.01141,0.50236 1.52365,-0.01 0.43744,-0.43779 0.46425,-0.84913 0.0787,-1.23472 z m -1.88207,2.30012 c -0.0589,-0.0589 -0.1898,-0.1016 -0.38806,-0.12877 -0.25118,-0.0268 -0.45826,-0.0801 -0.61701,-0.16016 -0.25858,-0.12629 -0.84384,-0.64382 -1.75225,-1.55258 -0.43215,-0.43215 -0.8763,-0.93627 -1.32962,-1.50953 -0.45578,-0.57362 -0.72284,-0.90205 -0.80221,-0.98143 -0.079,-0.079 -0.19332,-0.12241 -0.33867,-0.12947 -0.14605,-0.006 -0.25223,0.024 -0.31856,0.0903 -0.0462,0.0459 -0.0519,0.13794 -0.0152,0.27376 0.0367,0.13546 0.11395,0.26458 0.23354,0.38453 l 2.21016,2.21015 c 0.0268,0.0268 0.51928,0.63747 1.47531,1.83162 -0.0804,0.5461 -0.0303,0.90664 0.14923,1.08656 0.20602,0.20567 0.4699,0.32349 0.79198,0.35419 0.32103,0.0296 0.56586,-0.0395 0.73166,-0.20532 0.17957,-0.17992 0.26424,-0.43956 0.25506,-0.78176 -0.0106,-0.34184 -0.10618,-0.60254 -0.28539,-0.78211 z m -6.17503,-3.42583 c -0.13229,-0.13229 -0.29069,-0.10583 -0.47695,0.0808 -0.12665,0.12665 -0.12665,0.3041 -7.1e-4,0.53728 0.0335,0.06 0.27235,0.41169 0.7179,1.05551 0.60431,0.86889 1.02835,1.54058 1.2753,2.01189 0.0589,0.11254 0.10724,0.26741 0.14287,0.46249 0.0374,0.1965 0.0681,0.32103 0.0949,0.37324 0.0734,0.10055 0.14464,0.20109 0.21449,0.30516 0.0691,0.10195 0.0677,0.24306 -0.005,0.42298 -0.17357,0.41134 -0.26564,0.64946 -0.27975,0.71684 -0.0194,0.15205 0.06,0.31891 0.23953,0.49848 0.27835,0.27869 0.57503,0.43921 0.89112,0.48295 0.31574,0.043 0.55598,-0.0187 0.72249,-0.18521 0.19932,-0.19932 0.31609,-0.43533 0.35348,-0.7119 0.0371,-0.27623 -0.0215,-0.48966 -0.17427,-0.64312 -0.0399,-0.0395 -0.127,-0.0727 -0.25894,-0.0995 -0.17251,-0.0395 -0.30621,-0.0854 -0.39864,-0.13935 -1.893,-3.29953 -2.91077,-5.02144 -3.05823,-5.16854 z m 3.12808,-4.32188 c -0.1524,-0.15275 -0.34149,-0.28504 -0.56762,-0.39899 -0.22613,-0.11324 -0.38382,-0.16616 -0.47378,-0.16404 -0.0892,0.004 -0.53869,0.40957 -1.34902,1.2199 -0.0536,0.0536 -0.15804,0.16792 -0.31327,0.34502 -0.15592,0.17462 -0.28645,0.31538 -0.3937,0.42298 -0.23847,0.23812 -0.72954,0.71014 -1.47425,1.41323 -0.74295,0.70414 -1.36102,1.30139 -1.85244,1.79246 -0.37112,0.37148 -0.40464,0.7112 -0.0988,1.01671 0.23142,0.23212 0.44062,0.32102 0.62724,0.2674 0.12665,-0.0325 0.32385,-0.1845 0.59655,-0.4572 l 0.10971,-0.11007 c -0.006,0.006 0.14958,-0.16933 0.46884,-0.52669 0.37853,-0.41875 0.7867,-0.86043 1.22485,-1.32468 0.63147,-0.67099 1.31445,-1.37548 2.0514,-2.11208 0.0328,-0.0328 0.39582,-0.30904 1.0862,-0.82621 l 0.39829,-0.29845 c 0.0529,-0.0938 0.0392,-0.18027 -0.0402,-0.25929 z m -4.47181,5.72664 c -0.15275,-0.15275 -0.2921,-0.16545 -0.41804,-0.0395 -0.13264,0.13335 -0.10689,0.36442 0.0794,0.69674 0.1718,0.27904 0.34219,0.56091 0.50941,0.84631 0.0656,0.17251 0.14746,0.66075 0.248,1.46368 0.0328,0.29845 0.0328,0.4646 -0.001,0.49812 -0.0324,0.0328 -0.11536,0.0861 -0.24871,0.16016 -0.13194,0.0723 -0.22754,0.13864 -0.28786,0.19897 -0.1136,0.11359 -0.14394,0.3115 -0.09,0.5969 0.0529,0.28645 0.16863,0.51858 0.34819,0.69744 0.21943,0.21978 0.47978,0.3242 0.78176,0.31326 0.30162,-0.009 0.56656,-0.1277 0.79198,-0.35277 0.22543,-0.22578 0.24271,-0.43533 0.0494,-0.6283 -0.0265,-0.0265 -0.0639,-0.0547 -0.11359,-0.0843 -0.0501,-0.03 -0.0847,-0.055 -0.10443,-0.0744 -0.0995,-0.0995 -0.20284,-0.3549 -0.30903,-0.76729 -0.11324,-0.51082 -0.23283,-1.02165 -0.35913,-1.53247 -0.25223,-0.99589 -0.54469,-1.66052 -0.8763,-1.99249"
       style="fill:#000000;fill-opacity:1;fill-rule:nonzero;stroke:none;stroke-width:0.0352778"
       id="path693" />
    <path
       d="m 250.83754,140.09372 c 0.22013,0.22084 0.53552,0.30233 0.94368,0.24871 0.40887,-0.0561 0.76765,-0.23812 1.0735,-0.54363 0.41699,-0.41663 0.67734,-0.80927 0.77858,-1.18004 0.10231,-0.369 0.048,-0.6604 -0.16333,-0.87171 -0.1972,-0.19756 -0.53834,-0.25682 -1.022,-0.18274 -0.48401,0.0755 -0.8516,0.23742 -1.10313,0.4886 -0.34573,0.34572 -0.56445,0.72566 -0.65441,1.13841 -0.0896,0.41275 -0.0409,0.71437 0.14711,0.9024"
       style="fill:#000000;fill-opacity:1;fill-rule:nonzero;stroke:none;stroke-width:0.0352778"
       id="path695" />
  </g>
</svg>
