<?xml version="1.0" encoding="UTF-8" standalone="no"?>
<svg
   width="1000"
   height="1000"
   viewBox="0 0 1000 1000.0001"
   version="1.1"
   id="svg1173"
   sodipodi:docname="style13.svg"
   inkscape:version="1.4 (e7c3feb1, 2024-10-09)"
   inkscape:export-filename="style13.png"
   inkscape:export-xdpi="2353.4683"
   inkscape:export-ydpi="2353.4683"
   xmlns:inkscape="http://www.inkscape.org/namespaces/inkscape"
   xmlns:sodipodi="http://sodipodi.sourceforge.net/DTD/sodipodi-0.dtd"
   xmlns="http://www.w3.org/2000/svg"
   xmlns:svg="http://www.w3.org/2000/svg">
  <defs
     id="defs2863">
    <inkscape:path-effect
       effect="mirror_symmetry"
       start_point="0,0"
       end_point="9,9"
       center_point="4.5,4.5"
       id="path-effect3000"
       is_visible="true"
       lpeversion="1.2"
       lpesatellites=""
       mode="free"
       discard_orig_path="false"
       fuse_paths="false"
       oposite_fuse="false"
       split_items="false"
       split_open="false"
       link_styles="false" />
    <inkscape:path-effect
       effect="mirror_symmetry"
       start_point="0,0"
       end_point="9,9"
       center_point="4.5,4.5"
       id="path-effect2998"
       is_visible="true"
       lpeversion="1.2"
       lpesatellites=""
       mode="free"
       discard_orig_path="false"
       fuse_paths="false"
       oposite_fuse="false"
       split_items="false"
       split_open="false"
       link_styles="false" />
    <inkscape:path-effect
       effect="mirror_symmetry"
       start_point="0,0"
       end_point="50,50"
       center_point="25,25"
       id="path-effect2996"
       is_visible="true"
       lpeversion="1.2"
       lpesatellites=""
       mode="free"
       discard_orig_path="false"
       fuse_paths="false"
       oposite_fuse="false"
       split_items="false"
       split_open="false"
       link_styles="false" />
  </defs>
  <sodipodi:namedview
     id="namedview2861"
     pagecolor="#ffffff"
     bordercolor="#666666"
     borderopacity="1.0"
     inkscape:showpageshadow="2"
     inkscape:pageopacity="0.0"
     inkscape:pagecheckerboard="0"
     inkscape:deskcolor="#d1d1d1"
     showgrid="false"
     inkscape:zoom="11.221375"
     inkscape:cx="22.858161"
     inkscape:cy="26.601018"
     inkscape:current-layer="svg1173"
     inkscape:window-width="1976"
     inkscape:window-height="1344"
     inkscape:window-x="0"
     inkscape:window-y="25"
     inkscape:window-maximized="0" />
  <g
     id="g3023"
     style="fill:#000000"
     transform="matrix(24.515293,0,0,24.515293,53.107188,53.107188)">
    <path
       d="m 15.914663,-0.93826166 c -0.64558,0.0275 -1.20614,0.28256989 -1.68663,0.76269971 -0.48048,0.48048982 -0.86959,1.08338959 -1.16487,1.81116955 -0.29492,0.72989 -0.46073,1.10878 -0.49354,1.14123 -0.0554,0.0557 -0.11747,0.0875 -0.1905,0.096 -0.6731,-2.25671985 -1.19979,-3.57821935 -1.58467,-3.9627492 -0.60713,-0.6067802 -1.3151596,-0.9630804 -2.1244296,-1.0668004 -0.28011,-0.0406 -0.52846,0.048 -0.74472,0.2638801 -0.61559,0.6166502 -0.67945,1.47284004 -0.19085,2.56891963 0.13653,0.31114988 0.4004,0.75953987 0.79022,1.34443987 0.42545,0.61701 0.72002,1.09538 0.88865,1.44039 0.32879,0.68051 0.46073,1.25342 0.39652,1.71768 -0.38241,-0.30445 -0.65158,-0.53376 -0.80362,-0.68545 -0.0399,-0.0399 -0.0882,-0.096 -0.14464,-0.16898 -0.073,-0.0723 -0.12383,-0.12312 -0.15593,-0.15558 -0.5909,-0.59196 -1.2439,-0.89993 -1.95686,-0.92357 l -0.25153,0.25189 c -0.007,0.56903 0.18803,1.22837 0.58737,1.9812 0.43427,0.83149 1.02906,1.62771 1.78894,2.3876002 0.57009,0.5693842 1.2357796,1.1627588 1.9984896,1.7825934 0.76552,0.6205428 1.20756,0.9909628 1.32644,1.1109028 0.22472,0.22472 0.47449,0.52881 0.75036,0.91687 0.27517,0.38911 0.47025,0.64029 0.58244,0.75142 0.15875,0.15945 0.42015,0.31538 0.78034,0.46743 0.13582,-0.0871 0.24871,-0.17569 0.33585,-0.26388 0.34431,-0.34361 0.44167,-0.74366 0.28786,-1.1998 -0.0797,-0.24024 -0.24835,-0.53587 -0.50235,-0.88829 -0.23284,-0.32809 -0.3616,-0.5676202 -0.38488,-0.7210814 -0.28082,-1.6714728 -0.37183,-2.911135 -0.27623,-3.721115 0.096,-0.8068 0.29916,-1.49507 0.61242,-2.06269 0.25471,-0.48154 0.6724,-1.00965 1.24813,-1.58503 0.14323,-0.14394 0.42333,-0.32844 0.83961,-0.55281 0.41663,-0.22436 0.68792,-0.39969 0.81668,-0.52775 0.2787,-0.27975 0.43709,-0.58596991 0.47272,-0.91757979 0.0374,-0.33301987 -0.0554,-0.61135977 -0.28081,-0.83642968 -0.40005,-0.39898985 -0.92216,-0.58455978 -1.56598,-0.55668979 z M -0.93826166,15.914663 c 0.0275,-0.64558 0.28256989,-1.20614 0.76269971,-1.68663 0.48048982,-0.48048 1.08338959,-0.86959 1.81116955,-1.16487 0.72989,-0.29492 1.10878,-0.46073 1.14123,-0.49354 0.0557,-0.0554 0.0875,-0.11747 0.096,-0.1905 -2.25671985,-0.6731 -3.57821935,-1.19979 -3.9627492,-1.58467 -0.6067802,-0.60713 -0.9630804,-1.3151596 -1.0668004,-2.1244296 -0.0406,-0.28011 0.048,-0.52846 0.2638801,-0.74472 0.6166502,-0.61559 1.47284004,-0.67945 2.56891963,-0.19085 0.31114988,0.13653 0.75953987,0.4004 1.34443987,0.79022 0.61701,0.42545 1.09538,0.72002 1.44039,0.88865 0.68051,0.32879 1.25342,0.46073 1.71768,0.39652 -0.30445,-0.38241 -0.53376,-0.65158 -0.68545,-0.80362 -0.0399,-0.0399 -0.096,-0.0882 -0.16898,-0.14464 -0.0723,-0.073 -0.12312,-0.12383 -0.15558,-0.15593 -0.59196,-0.5909 -0.89993,-1.2439 -0.92357,-1.95686 l 0.25189,-0.25153 c 0.56903,-0.007 1.22837,0.18803 1.9812,0.58737 0.83149,0.43427 1.62771,1.02906 2.3876002,1.78894 0.5693842,0.57009 1.1627588,1.2357796 1.7825934,1.9984896 0.6205428,0.76552 0.9909628,1.20756 1.1109028,1.32644 0.22472,0.22472 0.52881,0.47449 0.91687,0.75036 0.38911,0.27517 0.64029,0.47025 0.75142,0.58244 0.15945,0.15875 0.31538,0.42015 0.46743,0.78034 -0.0871,0.13582 -0.17569,0.24871 -0.26388,0.33585 -0.34361,0.34431 -0.74366,0.44167 -1.1998,0.28786 -0.24024,-0.0797 -0.53587,-0.24835 -0.88829,-0.50235 -0.32809,-0.23284 -0.5676202,-0.3616 -0.7210814,-0.38488 -1.6714728,-0.28082 -2.911135,-0.37183 -3.721115,-0.27623 -0.8068,0.096 -1.49507,0.29916 -2.06269,0.61242 -0.48154,0.25471 -1.00965,0.6724 -1.58503,1.24813 -0.14394,0.14323 -0.32844,0.42333 -0.55281,0.83961 -0.22436,0.41663 -0.39969,0.68792 -0.52775,0.81668 -0.27975,0.2787 -0.58596991,0.43709 -0.91757979,0.47272 -0.33301987,0.0374 -0.61135977,-0.0554 -0.83642968,-0.28081 -0.39898985,-0.40005 -0.58455978,-0.92216 -0.55668979,-1.56598 z"
       style="fill:#000000;fill-opacity:1;fill-rule:nonzero;stroke:none;stroke-width:0.0352778"
       id="path445"
       sodipodi:nodetypes="ccccccccccccccccccccccccccccccccccccc"
       inkscape:path-effect="#path-effect2996"
       inkscape:original-d="m 15.914663,-0.93826166 c -0.64558,0.0275 -1.20614,0.28256989 -1.68663,0.76269971 -0.48048,0.48048982 -0.86959,1.08338959 -1.16487,1.81116955 -0.29492,0.72989 -0.46073,1.10878 -0.49354,1.14123 -0.0554,0.0557 -0.11747,0.0875 -0.1905,0.096 -0.6731,-2.25671985 -1.19979,-3.57821935 -1.58467,-3.9627492 -0.60713,-0.6067802 -1.3151596,-0.9630804 -2.1244296,-1.0668004 -0.28011,-0.0406 -0.52846,0.048 -0.74472,0.2638801 -0.61559,0.6166502 -0.67945,1.47284004 -0.19085,2.56891963 0.13653,0.31114988 0.4004,0.75953987 0.79022,1.34443987 0.42545,0.61701 0.72002,1.09538 0.88865,1.44039 0.32879,0.68051 0.46073,1.25342 0.39652,1.71768 -0.38241,-0.30445 -0.65158,-0.53376 -0.80362,-0.68545 -0.0399,-0.0399 -0.0882,-0.096 -0.14464,-0.16898 -0.073,-0.0723 -0.12383,-0.12312 -0.15593,-0.15558 -0.5909,-0.59196 -1.2439,-0.89993 -1.95686,-0.92357 l -0.25153,0.25189 c -0.007,0.56903 0.18803,1.22837 0.58737,1.9812 0.43427,0.83149 1.02906,1.62771 1.78894,2.3876002 0.57009,0.5693842 1.2357796,1.1627588 1.9984896,1.7825934 0.76552,0.6205428 1.20756,0.9909628 1.32644,1.1109028 0.22472,0.22472 0.47449,0.52881 0.75036,0.91687 0.27517,0.38911 0.47025,0.64029 0.58244,0.75142 0.15875,0.15945 0.42015,0.31538 0.78034,0.46743 0.13582,-0.0871 0.24871,-0.17569 0.33585,-0.26388 0.34431,-0.34361 0.44167,-0.74366 0.28786,-1.1998 -0.0797,-0.24024 -0.24835,-0.53587 -0.50235,-0.88829 -0.23284,-0.32809 -0.3616,-0.5676202 -0.38488,-0.7210814 -0.28082,-1.6714728 -0.37183,-2.911135 -0.27623,-3.721115 0.096,-0.8068 0.29916,-1.49507 0.61242,-2.06269 0.25471,-0.48154 0.6724,-1.00965 1.24813,-1.58503 0.14323,-0.14394 0.42333,-0.32844 0.83961,-0.55281 0.41663,-0.22436 0.68792,-0.39969 0.81668,-0.52775 0.2787,-0.27975 0.43709,-0.58596991 0.47272,-0.91757979 0.0374,-0.33301987 -0.0554,-0.61135977 -0.28081,-0.83642968 -0.40005,-0.39898985 -0.92216,-0.58455978 -1.56598,-0.55668979 z"
       class="UnoptimicedTransforms" />
    <path
       d="m 34.840866,0 c -2.92862,-0.00151418 -5.33618,1.3960676 -6.85278,3.9223076 -1.55116,2.58516 -3.33763,6.7144364 -6.93702,6.5729764 -3.59904,-0.14076 -4.77626,-5.3121464 -2.06763,-7.3353264 1.7459,-1.30352 3.58422,0.15628 3.46498,2.09973 -0.0526,0.85126 -0.56515,1.9551 -1.33314,2.17064 -0.63712,0.17957 -1.05269,-0.242 -1.16664,-0.79269 0.26247,-0.17639 0.48789,-0.44661 0.61913,-0.79057 0.28857,-0.75812 0.0258,-1.5614 -0.58703,-1.79494 -0.61277,-0.23353 -1.34443,0.1905 -1.63336,0.94792 -1.57515,4.3367012 7.04039,4.6535036 5.97641,-0.43674 -0.43215,-2.06799 -2.75131,-2.76649 -4.59317,-2.75096 -2.15582,0.018 -3.80153,1.46544 -4.26649,3.52107 -1.11301,4.9240864 5.32836,7.0238264 8.97079,5.4871264 4.88562,-2.0609394 4.87503,-9.95681634 10.88386,-9.95681634 H 38 c 0.82827,0 0.837256,-0.87860668 0,-0.86372766 M 0,34.840866 c -0.00151418,-2.92862 1.3960676,-5.33618 3.9223076,-6.85278 2.58516,-1.55116 6.7144364,-3.33763 6.5729764,-6.93702 -0.14076,-3.59904 -5.3121464,-4.77626 -7.3353264,-2.06763 -1.30352,1.7459 0.15628,3.58422 2.09973,3.46498 0.85126,-0.0526 1.9551,-0.56515 2.17064,-1.33314 0.17957,-0.63712 -0.242,-1.05269 -0.79269,-1.16664 -0.17639,0.26247 -0.44661,0.48789 -0.79057,0.61913 -0.75812,0.28857 -1.5614,0.0258 -1.79494,-0.58703 -0.23353,-0.61277 0.1905,-1.34443 0.94792,-1.63336 4.3367012,-1.57515 4.6535036,7.04039 -0.43674,5.97641 -2.06799,-0.43215 -2.76649,-2.75131 -2.75096,-4.59317 0.018,-2.15582 1.46544,-3.80153 3.52107,-4.26649 4.9240864,-1.11301 7.0238264,5.32836 5.4871264,8.97079 -2.0609394,4.88562 -9.95681634,4.87503 -9.95681634,10.88386 V 38 c 0,0.82827 -0.87860668,0.837256 -0.86372766,0"
       style="fill:#000000;fill-opacity:1;fill-rule:nonzero;stroke:none;stroke-width:0.0352778"
       id="path447"
       inkscape:path-effect="#path-effect2998"
       inkscape:original-d="m 34.840866,0 c -2.92862,-0.00151418 -5.33618,1.3960676 -6.85278,3.9223076 -1.55116,2.58516 -3.33763,6.7144364 -6.93702,6.5729764 -3.59904,-0.14076 -4.77626,-5.3121464 -2.06763,-7.3353264 1.7459,-1.30352 3.58422,0.15628 3.46498,2.09973 -0.0526,0.85126 -0.56515,1.9551 -1.33314,2.17064 -0.63712,0.17957 -1.05269,-0.242 -1.16664,-0.79269 0.26247,-0.17639 0.48789,-0.44661 0.61913,-0.79057 0.28857,-0.75812 0.0258,-1.5614 -0.58703,-1.79494 -0.61277,-0.23353 -1.34443,0.1905 -1.63336,0.94792 -1.57515,4.3367012 7.04039,4.6535036 5.97641,-0.43674 -0.43215,-2.06799 -2.75131,-2.76649 -4.59317,-2.75096 -2.15582,0.018 -3.80153,1.46544 -4.26649,3.52107 -1.11301,4.9240864 5.32836,7.0238264 8.97079,5.4871264 4.88562,-2.0609394 4.87503,-9.95681634 10.88386,-9.95681634 H 38 c 0.82827,0 0.837256,-0.87860668 0,-0.86372766"
       class="UnoptimicedTransforms"
       sodipodi:nodetypes="ccccccccccccccssc" />
    <path
       d="m 31.619406,4.6984176 c 1.46456,-1.86302 3.709799,-2.9905 6.260939,-2.9905 H 38 c 0.822327,0 0.798462,0.85161 0,0.85161 h -0.438034 c -2.00021,0 -3.33347,0.87489 -4.40228,2.11843 -0.41465,0.47237 -1.41785,1.29928 -1.94701,1.49754 -0.37938,0.14252 -0.57327,0.0663 -0.44098,-0.17639 0.1323,-0.24235 0.40556,-0.73836 0.84776,-1.30069 M 4.6984176,31.619406 c -1.86302,1.46456 -2.9905,3.709799 -2.9905,6.260939 V 38 c 0,0.822327 0.85161,0.798462 0.85161,0 v -0.438034 c 0,-2.00021 0.87489,-3.33347 2.11843,-4.40228 0.47237,-0.41465 1.29928,-1.41785 1.49754,-1.94701 0.14252,-0.37938 0.0663,-0.57327 -0.17639,-0.44098 -0.24235,0.1323 -0.73836,0.40556 -1.30069,0.84776"
       style="fill:#000000;fill-opacity:1;fill-rule:nonzero;stroke:none;stroke-width:0.0352778"
       id="path449"
       inkscape:path-effect="#path-effect3000"
       inkscape:original-d="m 31.619406,4.6984176 c 1.46456,-1.86302 3.709799,-2.9905 6.260939,-2.9905 H 38 c 0.822327,0 0.798462,0.85161 0,0.85161 h -0.438034 c -2.00021,0 -3.33347,0.87489 -4.40228,2.11843 -0.41465,0.47237 -1.41785,1.29928 -1.94701,1.49754 -0.37938,0.14252 -0.57327,0.0663 -0.44098,-0.17639 0.1323,-0.24235 0.40556,-0.73836 0.84776,-1.30069"
       class="UnoptimicedTransforms"
       sodipodi:nodetypes="csssscccc" />
  </g>
</svg>
