<?xml version="1.0" encoding="UTF-8" standalone="no"?>
<svg
   width="55.60677"
   height="55.722668"
   viewBox="0 0 55.60677 55.72267"
   version="1.1"
   id="svg1173"
   sodipodi:docname="style05.svg"
   inkscape:version="1.4 (e7c3feb1, 2024-10-09)"
   inkscape:export-filename="style05.png"
   inkscape:export-xdpi="1726.4084"
   inkscape:export-ydpi="1726.4084"
   xmlns:inkscape="http://www.inkscape.org/namespaces/inkscape"
   xmlns:sodipodi="http://sodipodi.sourceforge.net/DTD/sodipodi-0.dtd"
   xmlns="http://www.w3.org/2000/svg"
   xmlns:svg="http://www.w3.org/2000/svg">
  <defs
     id="defs1626" />
  <sodipodi:namedview
     id="namedview1624"
     pagecolor="#ffffff"
     bordercolor="#666666"
     borderopacity="1.0"
     inkscape:showpageshadow="2"
     inkscape:pageopacity="0.0"
     inkscape:pagecheckerboard="0"
     inkscape:deskcolor="#d1d1d1"
     showgrid="false"
     inkscape:zoom="9.5718508"
     inkscape:cx="21.939331"
     inkscape:cy="30.453881"
     inkscape:current-layer="svg1173"
     inkscape:window-width="1672"
     inkscape:window-height="1246"
     inkscape:window-x="0"
     inkscape:window-y="25"
     inkscape:window-maximized="0" />
  <g
     id="g2523"
     transform="translate(-241.02903,-197.80181)"
     style="fill:#000000">
    <path
       d="m 261.21662,202.67157 c 0.56515,0.38629 1.13382,0.7687 1.70215,1.15111 1.08444,-0.73025 2.16782,-1.46297 3.23462,-2.22073 0.36442,-0.25859 0.72602,-0.51894 1.08867,-0.77682 -0.69391,-0.33726 -1.48202,-0.72849 -2.33115,-1.12642 -0.89077,-0.41769 -1.74343,-0.51894 -2.55623,-0.45579 -1.03752,0.0797 -1.98367,0.54222 -2.90971,1.10808 -0.26,0.15945 -0.52317,0.32279 -0.78776,0.48542 0.85373,0.61277 1.69545,1.2446 2.55941,1.83515 z m -1.67958,4.41572 c -0.24342,0.16686 -0.51717,0.32843 -0.81139,0.4766 0.44909,0.31221 0.87912,0.63853 1.28905,0.9338 0.97367,0.70168 1.96886,1.43228 2.87691,2.24579 0.93697,-0.82833 1.97414,-1.56598 2.96474,-2.2793 0.38347,-0.27658 0.77152,-0.55563 1.16769,-0.82197 -0.37006,-0.17745 -0.7186,-0.37853 -1.03011,-0.59302 -1.07421,-0.73766 -2.14206,-1.4852 -3.2138,-2.22744 -1.08867,0.74401 -2.15653,1.51835 -3.24309,2.26554 z m 2.37808,6.27274 c -0.50659,0.98566 -0.48049,2.23696 -0.20885,3.28224 0.15452,0.59867 0.50694,1.16558 0.88124,1.651 0.14464,0.18627 0.41381,0.25224 0.27799,0.35313 0.30445,-0.22577 0.50412,-0.59231 0.69462,-0.91193 1.25554,-2.10996 0.59902,-4.02166 -0.76588,-5.6642 -0.34255,0.40217 -0.64312,0.83009 -0.87912,1.28976 z m 7.32726,-12.59099 c 0.92562,0.5662 1.87209,1.0287 2.90961,1.10772 0.24595,0.0194 0.49773,0.0141 0.75103,-0.002 0.93733,-0.13476 1.80537,-0.55492 2.65133,-1.07739 0.6241,-0.38558 1.25938,-0.79375 1.91368,-1.15358 -0.8927,-0.83996 -2.2878,-1.3148 -3.42237,-1.34196 -1.84351,-0.0444 -3.60796,1.10842 -5.1562,2.24895 0.11783,0.0734 0.2358,0.14676 0.35292,0.21837 z m -14.31297,6.02015 c -0.33408,0.53587 0.47837,0.89041 0.83926,0.96167 0.42086,0.0829 0.88441,-0.0194 1.31939,-0.17533 -0.61278,-0.40146 -1.90253,-1.19556 -2.15865,-0.78634 z m 15.80981,0.63676 c 0.43007,-0.51999 -0.27686,-0.7814 -0.68573,-0.66957 -0.35606,0.0974 -0.69286,0.3108 -1.01159,0.49142 -0.15752,0.0892 -0.31186,0.18521 -0.46648,0.28046 0.82063,0.31679 1.71027,0.4445 2.1638,-0.10231 z m -24.51072,-6.49569 c 0.52811,-1.85632 2.3689,-2.79718 4.1656,-3.04871 2.20627,-0.30903 4.052,0.3048 5.94184,1.41464 0.53586,0.31432 1.05586,0.65687 1.5688,1.01071 0.32914,-0.18062 0.65758,-0.35772 0.99554,-0.52 0.18238,-0.0889 0.36618,-0.17004 0.55668,-0.25047 0.037,-0.0159 0.0698,-0.0342 0.10689,-0.049 0.0317,-0.0127 0.0663,-0.0222 0.097,-0.0332 1.00859,-0.40887 2.09126,-0.71191 3.09809,-0.83926 0.71438,-0.0917 1.61255,-0.0504 2.31916,0.10619 1.10914,0.24659 2.1456,0.81421 3.1448,1.41993 1.07086,-0.72743 2.17428,-1.39594 3.39729,-1.88348 1.91382,-0.76306 5.18361,-0.6096 6.87074,0.88371 0.39796,-0.17004 0.80341,-0.31292 1.21983,-0.40746 0.70721,-0.15981 1.60376,-0.20391 2.31913,-0.11607 1.00707,0.12453 2.09116,0.42263 3.10127,0.82727 0.0314,0.012 0.0648,0.0194 0.0975,0.0328 0.0366,0.0145 0.0696,0.0332 0.10668,0.0487 0.19043,0.0797 0.37536,0.16051 0.55742,0.24835 0.90082,0.42933 1.73606,0.9525 2.69032,1.40653 1.17549,0.55774 2.14189,0.93098 3.31199,0.84913 1.26559,-0.0896 2.50239,-0.50165 3.6722,-1.1564 0.25577,-0.12418 0.63486,-0.1845 0.92989,-0.2099 0.1542,-0.0127 0.18397,0.0702 0.0681,0.14781 -1.34302,0.83996 -3.13862,1.44956 -4.72253,1.65735 -0.71508,0.0935 -1.61343,0.0568 -2.31979,-0.0977 -1.49172,-0.32597 -2.85655,-1.23155 -4.17298,-2.03024 -0.92713,-0.56303 -1.87536,-1.02093 -2.91373,-1.09784 -0.81319,-0.0582 -1.6655,0.0459 -2.55365,0.46743 -0.23012,0.10866 -0.45445,0.21696 -0.67494,0.32385 0.28854,0.53869 0.42112,1.18286 0.3361,1.94204 -0.20698,1.8542 -2.02767,3.25826 -3.6569,3.84563 -1.54203,0.55598 -3.29946,0.43321 -4.79887,-0.17744 -0.27563,-0.11289 0.0806,-0.32668 0.19389,-0.36478 0.27933,-0.0931 0.59323,-0.10054 0.86705,0.0109 2.4456,0.9966 5.16516,-0.32667 6.04753,-2.80035 0.26003,-0.73025 0.20588,-1.37865 -0.0515,-1.93498 -0.94657,0.46707 -1.75606,0.86818 -2.35839,1.10419 -1.3021,0.51082 -2.90354,0.71402 -4.39593,0.51435 -0.83756,-0.0759 -1.65336,-0.26247 -2.37645,-0.54222 -0.28526,-0.11077 -0.62149,-0.26105 -0.99176,-0.43462 -0.16369,0.12241 -0.32562,0.24271 -0.4826,0.35736 -1.29294,0.94086 -2.62644,1.82739 -3.95464,2.71886 0.72037,0.48542 1.44004,0.97155 2.15547,1.46509 0.44662,0.30797 0.88265,0.62618 1.31339,0.95638 0.17815,0.13688 0.43568,0.30339 0.73343,0.46567 0.80475,-0.47273 1.65516,-0.84738 2.59499,-0.97332 0.52818,-0.0713 1.29343,-0.0339 1.60638,0.46884 0.38692,0.61701 -0.30607,1.13736 -0.79569,1.35291 -1.02595,0.4512 -2.22801,0.34783 -3.32878,-0.0233 -0.48895,0.32984 -0.96767,0.67592 -1.44074,1.02411 -0.95039,0.69921 -2.01119,1.44639 -2.91642,2.3114 0.34502,0.34255 0.67275,0.69991 0.97473,1.07668 1.36842,1.70674 1.17404,4.09116 7e-4,5.83247 -0.95038,1.41006 -2.51566,1.1938 -3.39513,-0.11218 -1.21179,-1.79776 -1.04211,-4.14972 0.28998,-5.81166 0.25224,-0.31468 0.52811,-0.61207 0.81492,-0.90064 -1.34444,-1.37019 -3.10339,-2.5266 -4.47887,-3.42054 -1.09502,0.36725 -2.30434,0.4879 -3.26848,0.0638 -0.55528,-0.24412 -0.97543,-0.64911 -0.73837,-1.28129 0.22402,-0.59584 1.24425,-0.61206 1.74061,-0.58772 0.92957,0.0459 1.80834,0.44732 2.62996,0.95638 1.2319,-0.6283 2.39077,-1.66017 3.52354,-2.4257 0.1718,-0.11571 0.34361,-0.23178 0.51541,-0.34749 -0.27129,-0.18627 -0.54116,-0.37606 -0.81386,-0.56092 -1.17475,-0.79375 -2.32128,-1.64535 -3.48544,-2.46732 -0.81104,0.46249 -1.6503,0.86536 -2.53612,1.06186 -0.70662,0.15769 -1.60408,0.19826 -2.31916,0.10724 -1.58574,-0.20073 -3.38314,-0.80363 -4.7304,-1.63865 -0.11501,-0.0776 -0.0854,-0.16051 0.0684,-0.14781 0.29562,0.0236 0.67451,0.0822 0.93098,0.20637 1.17228,0.64911 2.41088,1.05728 3.677,1.14159 1.17052,0.0773 2.13395,-0.29951 3.30765,-0.86325 0.2794,-0.13405 0.54715,-0.27411 0.81103,-0.41663 -0.65934,-0.4505 -1.32644,-0.88723 -2.0126,-1.28975 -1.35854,-0.79799 -2.70686,-1.31057 -4.30036,-1.15077 -1.54023,0.15382 -2.96968,1.19063 -3.28859,2.74638 -0.3175,1.54728 0.92569,3.02119 2.11596,3.82023 1.2633,0.84737 2.82822,0.93239 4.21252,0.36795 0.36089,-0.14676 1.43087,0.0656 0.6738,0.375 -1.69509,0.69074 -3.58069,0.67557 -5.26697,-0.0247 -1.69298,-0.70379 -3.48615,-2.7492 -2.93158,-4.70041"
       style="fill:#000000;fill-opacity:1;fill-rule:nonzero;stroke:none;stroke-width:0.0352778"
       id="path703" />
    <path
       d="m 241.57289,232.34194 c 0.0861,0.8629 0.45014,1.69122 1.02658,2.30894 0.39476,-0.75918 0.86607,-1.49084 1.30916,-2.20804 0.52282,-0.84596 0.94298,-1.71415 1.07774,-2.65148 0.0162,-0.25329 0.0212,-0.50482 0.002,-0.75106 -0.078,-1.01883 -0.52599,-1.94981 -1.07844,-2.85997 -0.41381,0.6103 -0.81456,1.22802 -1.18639,1.8609 -0.79763,1.3589 -1.31057,2.70722 -1.15076,4.30071 z m 4.32576,-10.50325 c 0.38629,-0.56515 0.76835,-1.13383 1.15112,-1.7018 -0.73061,-1.08444 -1.46297,-2.16782 -2.22074,-3.23497 -0.30692,-0.43215 -0.6163,-0.86043 -0.9211,-1.29081 -0.14923,0.24235 -0.29881,0.48365 -0.44521,0.72248 -0.56621,0.92569 -1.02835,1.87184 -1.10772,2.90936 -0.0635,0.81315 0.0377,1.66582 0.45579,2.55658 0.45014,0.96132 0.889,1.83974 1.25412,2.59645 0.61242,-0.85302 1.24354,-1.69404 1.83374,-2.55729 z m 4.41572,1.67993 c 0.16722,0.24306 0.32844,0.51682 0.4766,0.81104 0.31221,-0.44944 0.63853,-0.87913 0.93381,-1.28905 0.70167,-0.97367 1.43263,-1.96886 2.24578,-2.87691 -0.82832,-0.93662 -1.56598,-1.97414 -2.2793,-2.96439 -0.27657,-0.38347 -0.55562,-0.77188 -0.82197,-1.16805 -0.17745,0.37007 -0.37853,0.71861 -0.59302,1.03011 -0.73801,1.07386 -1.48519,2.14242 -2.22779,3.21381 0.74471,1.08902 1.51835,2.15653 2.26589,3.24344 z m -0.2981,4.60728 c 0.53587,0.33408 0.89006,-0.47837 0.96132,-0.83926 0.0833,-0.42087 -0.019,-0.88406 -0.17497,-1.31939 -0.40147,0.61277 -1.19557,1.90288 -0.78635,2.15865 z m 0.63642,-15.80974 c -0.51965,-0.43004 -0.78106,0.27693 -0.66922,0.68545 0.097,0.3563 0.31079,0.69285 0.49142,1.01176 0.0892,0.1577 0.1852,0.31186 0.28045,0.46673 0.3168,-0.82056 0.44415,-1.71062 -0.10265,-2.16394 z m 5.93442,8.82438 c 0.98566,0.50624 2.23697,0.48013 3.28225,0.20885 0.59831,-0.15487 1.16558,-0.5073 1.651,-0.88159 0.18626,-0.14464 0.25223,-0.41346 0.35313,-0.27799 -0.22578,-0.30445 -0.59267,-0.50412 -0.91193,-0.69427 -2.11032,-1.25589 -4.02202,-0.59937 -5.66456,0.76588 0.40252,0.3422 0.83044,0.64276 1.29011,0.87912 z m -14.06384,5.57883 c 0.27411,-0.46708 0.56903,-0.92216 0.87454,-1.37125 -0.65864,-1.07209 -1.29893,-2.18475 -1.56492,-3.38137 -0.15699,-0.70661 -0.19791,-1.60514 -0.10619,-2.31951 0.12735,-1.00648 0.43039,-2.08951 0.83926,-3.0981 0.0109,-0.0307 0.0201,-0.0649 0.0328,-0.0967 0.0148,-0.0374 0.0332,-0.0702 0.0494,-0.10724 0.0801,-0.1905 0.16192,-0.3743 0.25047,-0.55669 0.15205,-0.31609 0.31715,-0.62441 0.48542,-0.93239 -0.73378,-1.07809 -1.40793,-2.18899 -1.89935,-3.42089 -1.10314,-2.76754 -0.29316,-8.37212 3.71933,-7.92374 1.8542,0.20708 3.25826,2.02777 3.84563,3.6569 0.55598,1.54199 0.43321,3.29953 -0.17744,4.79883 -0.11325,0.27588 -0.32668,-0.0804 -0.36478,-0.19367 -0.0931,-0.2794 -0.10089,-0.59373 0.0106,-0.86713 0.99659,-2.44581 -0.32632,-5.16537 -2.80035,-6.04767 -2.57211,-0.91616 -4.1395,2.06163 -4.18924,4.15079 -0.0441,1.83832 1.10208,3.59833 2.23979,5.14314 0.18626,-0.33972 0.37182,-0.68439 0.54645,-1.04916 0.56339,-1.17369 0.9405,-2.13677 0.86325,-3.30729 -0.0843,-1.26647 -0.49248,-2.50508 -1.14195,-3.67736 -0.12347,-0.25647 -0.18273,-0.635 -0.20602,-0.93098 -0.0127,-0.15381 0.0702,-0.18344 0.14782,-0.0681 0.83502,1.34691 1.43792,3.14431 1.6383,4.73005 0.0914,0.71508 0.0508,1.61255 -0.1069,2.31916 -0.21272,0.95991 -0.6671,1.86514 -1.17792,2.73897 0.15522,0.20743 0.30727,0.41063 0.4505,0.60748 0.94121,1.29293 1.82774,2.62643 2.71921,3.95464 0.48542,-0.72037 0.97155,-1.44004 1.46473,-2.15547 0.30798,-0.44662 0.62653,-0.88265 0.95673,-1.3134 0.13653,-0.17815 0.30339,-0.43568 0.46567,-0.73342 -0.47272,-0.80469 -0.84737,-1.65488 -0.97331,-2.59503 -0.0713,-0.52811 -0.0339,-1.29329 0.46849,-1.6062 0.61736,-0.387 1.13771,0.30586 1.35325,0.79551 0.45156,1.02588 0.34784,2.22815 -0.0236,3.32881 0.32984,0.48895 0.67627,0.96767 1.02446,1.44075 0.69921,0.95038 1.44604,2.01154 2.3114,2.91677 0.34255,-0.34502 0.69991,-0.67275 1.07668,-0.97508 1.70709,-1.36843 4.09117,-1.1744 5.83212,-0.001 1.41041,0.95074 1.19416,2.51601 -0.11183,3.39549 -1.79811,1.21179 -4.14972,1.0421 -5.81201,-0.28999 -0.31433,-0.25223 -0.61172,-0.5281 -0.90029,-0.81491 -1.37019,1.34443 -2.52659,3.10338 -3.42053,4.47886 0.36724,1.09538 0.48824,2.3047 0.0639,3.26849 -0.24412,0.55527 -0.64946,0.97543 -1.28129,0.73801 -0.59619,-0.22331 -0.61207,-1.24389 -0.58773,-1.7399 0.0462,-0.92992 0.44732,-1.80834 0.95638,-2.63031 -0.62829,-1.2319 -1.66017,-2.39077 -2.4257,-3.5239 -0.11571,-0.17145 -0.23177,-0.34325 -0.34748,-0.51505 -0.18662,0.27164 -0.37642,0.54116 -0.56092,0.81386 -0.81386,1.20473 -1.6891,2.37948 -2.52977,3.57469 0.0917,0.20567 0.17639,0.40146 0.24342,0.57503 0.2801,0.7232 0.46672,1.53882 0.54257,2.37631 0.19967,1.49261 -0.004,3.09386 -0.51435,4.39597 -0.26176,0.66745 -0.72602,1.59067 -1.25836,2.67123 0.24941,0.12841 0.51858,0.22578 0.80539,0.28434 1.54799,0.3175 3.02154,-0.92569 3.82059,-2.11596 0.84702,-1.26295 0.93239,-2.82822 0.36794,-4.21252 -0.14711,-0.36089 0.0656,-1.43087 0.37501,-0.67416 0.69073,1.6958 0.67557,3.58105 -0.0247,5.26768 -0.70379,1.69298 -2.7492,3.48615 -4.70041,2.93158 -0.41346,-0.11747 -0.77929,-0.30409 -1.10455,-0.53657 -0.0765,0.15839 -0.1531,0.31714 -0.23001,0.48013 -0.42157,0.88829 -0.52564,1.7406 -0.46743,2.55411 0.0769,1.03822 0.53481,1.98649 1.09749,2.91324 0.79904,1.31692 1.70463,2.68146 2.03024,4.17336 0.15487,0.70626 0.19156,1.60443 0.0981,2.31987 -0.20778,1.58362 -0.81774,3.37925 -1.6577,4.72228 -0.0773,0.11642 -0.16016,0.0864 -0.14782,-0.0677 0.0254,-0.29528 0.0861,-0.67452 0.20991,-0.93028 0.65511,-1.16981 1.06715,-2.40665 1.1564,-3.67206 0.0822,-1.17017 -0.29104,-2.13643 -0.84913,-3.31223 -0.45368,-0.95427 -0.97684,-1.78929 -1.40618,-2.69029 -0.0878,-0.18168 -0.16898,-0.36689 -0.24835,-0.55739 -0.0155,-0.037 -0.0342,-0.0702 -0.0483,-0.10654 -0.0138,-0.0328 -0.0215,-0.0663 -0.0332,-0.0977 -0.40464,-1.01001 -0.70274,-2.09409 -0.82727,-3.10127 -0.0878,-0.71509 -0.0437,-1.61185 0.11607,-2.31881 0.0871,-0.38453 0.21378,-0.75918 0.36618,-1.12748 -0.60784,-0.7941 -0.96308,-1.80869 -1.10314,-2.81058 -0.30903,-2.20663 0.30516,-4.05201 1.41464,-5.94184"
       style="fill:#000000;fill-opacity:1;fill-rule:nonzero;stroke:none;stroke-width:0.0352778"
       id="path705" />
  </g>
</svg>
