<?xml version="1.0" encoding="UTF-8" standalone="no"?>
<svg
   width="25"
   height="25"
   viewBox="0 0 25 25.000001"
   version="1.1"
   id="svg1173"
   sodipodi:docname="style17.svg"
   inkscape:version="1.4 (e7c3feb1, 2024-10-09)"
   inkscape:export-filename="style17.png"
   inkscape:export-xdpi="3312.1404"
   inkscape:export-ydpi="3312.1404"
   xmlns:inkscape="http://www.inkscape.org/namespaces/inkscape"
   xmlns:sodipodi="http://sodipodi.sourceforge.net/DTD/sodipodi-0.dtd"
   xmlns="http://www.w3.org/2000/svg"
   xmlns:svg="http://www.w3.org/2000/svg">
  <defs
     id="defs3749" />
  <sodipodi:namedview
     id="namedview3747"
     pagecolor="#ffffff"
     bordercolor="#666666"
     borderopacity="1.0"
     inkscape:showpageshadow="2"
     inkscape:pageopacity="0.0"
     inkscape:pagecheckerboard="0"
     inkscape:deskcolor="#d1d1d1"
     showgrid="false"
     inkscape:zoom="18.373202"
     inkscape:cx="3.3744799"
     inkscape:cy="15.18516"
     inkscape:current-layer="svg1173"
     inkscape:window-width="2032"
     inkscape:window-height="1137"
     inkscape:window-x="0"
     inkscape:window-y="25"
     inkscape:window-maximized="0" />
  <g
     id="g4278"
     style="fill:#000000">
    <path
       d="m -3.50931,6.27124 c 0.15981,-0.19439 0.69426,-0.0384 1.60478,0.47448 L -1.60255,6.8512 -1.72179,6.61025 C -2.28023,5.52828 -2.64148,4.2731 -2.80905,2.85282 c -0.1651,-1.25201 -0.15381,-1.99108 0.0314,-2.21686 0.27199,-0.33584 0.53587,-0.39758 0.78634,-0.19508 0.0998,0.0836 0.15663,0.21096 0.17498,0.38841 -0.36054,1.66652 -0.0596,3.47486 0.90593,5.43171 1.03964,2.06411 2.7178,4.04672 5.03696,5.94325 1.98261,1.62772 4.12609,2.77883 6.42409,3.4604 1.98931,0.5902 3.88443,0.78034 5.68113,0.57362 0.20673,-1.79529 0.0166,-3.69076 -0.57467,-5.68184 C 14.97624,8.25808 13.82478,6.11637 12.19777,4.1334 10.30018,1.81459 8.31862,0.13714 6.25417,-0.90391 4.2966,-1.86946 2.48862,-2.17038 0.82245,-1.80914 c -0.1778,-0.018 -0.3048,-0.0769 -0.38876,-0.17392 -0.2032,-0.25365 -0.14076,-0.5147 0.19543,-0.78811 0.22543,-0.18556 0.96415,-0.19614 2.21651,-0.0321 1.41958,0.16863 2.67511,0.52952 3.75743,1.08762 l 0.24025,0.1203 -0.10478,-0.30198 C 6.22594,-2.80926 6.06931,-3.34372 6.26369,-3.50388 c 0.54398,-0.44486 1.76142,0.48683 3.64772,2.79223 0.44592,0.54399 0.84879,1.14124 1.20545,1.79176 0.36018,0.65299 0.52952,0.96097 0.50517,0.93345 0.0346,0.043 0.078,0.0699 0.12736,0.0751 0.003,-0.14146 -0.0208,-0.57079 -0.0663,-1.27882 -0.019,-0.33725 0.008,-0.53128 0.0801,-0.59125 0.22367,-0.17957 0.59091,0.0423 1.10385,0.67098 0.75459,0.92287 1.41534,2.33892 1.98084,4.25697 0.48895,1.8161 0.96873,3.62832 1.44392,5.43419 1.01918,3.66854 1.21462,5.76121 0.58738,6.27592 -0.005,0.004 -0.0127,0.007 -0.0183,0.0113 -0.004,0.005 -0.007,0.013 -0.0113,0.0183 -0.51365,0.62759 -2.60703,0.43215 -6.27522,-0.58667 C 8.76885,15.82368 6.95592,15.34425 5.14053,14.85495 3.22247,14.2898 1.80572,13.62905 0.8825,12.87375 0.25491,12.36081 0.0316,11.99392 0.21293,11.77062 c 0.0589,-0.0723 0.254,-0.0991 0.59055,-0.0797 0.70802,0.0444 1.13735,0.0681 1.27811,0.0663 -0.004,-0.0501 -0.0314,-0.0942 -0.0748,-0.12736 0.0286,0.024 -0.27975,-0.14569 -0.93415,-0.50623 C 0.42317,10.76767 -0.17479,10.3648 -0.71806,9.91818 -3.02382,8.03259 -3.95409,6.81515 -3.50924,6.27117"
       style="fill:#000000;fill-opacity:1;fill-rule:nonzero;stroke:none;stroke-width:0.0352778"
       id="path503" />
    <path
       d="M 10.48891,10.45271 C 10.47871,10.29855 10.47021,10.14474 10.44761,9.98704 9.87822,5.95762 7.05847,3.06131 2.86712,2.83095 c 0.23001,4.1917 3.12631,7.01146 7.15645,7.58154 0.15663,0.0212 0.3115,0.0307 0.46531,0.0402 z M 2.64031,2.21605 c 0.0833,-0.0106 0.17463,-0.0159 0.28011,-0.009 4.445,0.24271 9.02335,3.31576 9.09814,8.13577 C 14.45625,9.81189 16.09914,7.61514 15.46378,4.75693 15.42568,4.5876 15.34384,3.76034 15.68004,3.76034 H 25 c 0.4706,0 0.42052,1.53211 0,1.53211 h -8.80914 c 0.36124,3.1944 -1.05763,5.94783 -4.29366,6.56837 -0.62159,3.23532 -3.41185,4.65561 -6.6052,4.29507 V 25 c 0,0.42051 -1.532,0.47061 -1.532,0 v -9.35632 c 0,-0.33549 0.86292,-0.254 1.0319,-0.21554 2.85856,0.6357 5.05496,-1.00718 5.58659,-3.44558 C 5.55814,11.90916 2.48544,7.33118 2.24167,2.88477 2.23567,2.78035 2.24132,2.68862 2.25257,2.60431 2.29137,2.37395 2.44518,2.23566 2.64027,2.21625"
       style="fill:#000000;fill-opacity:1;fill-rule:nonzero;stroke:none;stroke-width:0.0352778"
       id="path505"
       sodipodi:nodetypes="ccccccccccssscccsssccccc" />
    <path
       d="m 0.693099,18.01697 c 5.13221,1.35467 10.49796,0.90452 14.52139,-2.80811 3.70664,-4.02343 4.15502,-9.38565 2.80141,-14.51504 C 17.960899,0.48533 17.997899,0 18.310469,0 H 25 c 0.49495,0 0.48397,1.03848 0,1.03848 h -6.138451 c 1.17687,5.03732 0.70132,10.25666 -2.59609,14.32525 0.001,0.0653 -0.0289,0.13476 -0.10407,0.20532 -0.10407,0.0981 -0.21308,0.18485 -0.31891,0.27869 -0.0924,0.10407 -0.1778,0.21167 -0.27447,0.31397 -0.0702,0.0751 -0.13934,0.10513 -0.20461,0.10443 -4.06929,3.29741 -9.28758,3.77366 -14.3256,2.59644 V 25 c 0,0.48331 -1.020446,0.49419 -1.02164,0 L -1e-6,18.31119 c -7.55e-4,-0.31256 0.484289,-0.3496 0.693139,-0.29422"
       style="fill:#000000;fill-opacity:1;fill-rule:nonzero;stroke:none;stroke-width:0.0352778"
       id="path507"
       sodipodi:nodetypes="cccssscccccccsssc" />
  </g>
</svg>
