<?xml version="1.0" encoding="UTF-8" standalone="no"?>
<svg
   width="62.330677"
   height="62.172276"
   viewBox="0 0 62.330677 62.172278"
   version="1.1"
   id="svg1173"
   sodipodi:docname="style07.svg"
   inkscape:version="1.4 (e7c3feb1, 2024-10-09)"
   inkscape:export-filename="style07.png"
   inkscape:export-xdpi="1540.1726"
   inkscape:export-ydpi="1540.1726"
   xmlns:inkscape="http://www.inkscape.org/namespaces/inkscape"
   xmlns:sodipodi="http://sodipodi.sourceforge.net/DTD/sodipodi-0.dtd"
   xmlns="http://www.w3.org/2000/svg"
   xmlns:svg="http://www.w3.org/2000/svg">
  <defs
     id="defs1939" />
  <sodipodi:namedview
     id="namedview1937"
     pagecolor="#ffffff"
     bordercolor="#666666"
     borderopacity="1.0"
     inkscape:showpageshadow="2"
     inkscape:pageopacity="0.0"
     inkscape:pagecheckerboard="0"
     inkscape:deskcolor="#d1d1d1"
     showgrid="false"
     inkscape:zoom="8.8843594"
     inkscape:cx="44.910385"
     inkscape:cy="29.490027"
     inkscape:current-layer="svg1173"
     inkscape:window-width="1776"
     inkscape:window-height="1053"
     inkscape:window-x="0"
     inkscape:window-y="25"
     inkscape:window-maximized="0" />
  <g
     id="g2529"
     transform="translate(-95.239621,-193.8509)"
     style="fill:#000000">
    <path
       d="m 102.8106,252.41183 c -0.1087,0.68368 -0.2353,1.36384 -0.369,2.04223 -0.1179,0.5976 0.052,0.25858 0.3164,0.0452 0.1859,-0.14993 0.35207,-0.32349 0.51541,-0.49671 0.13441,-0.14146 0.25153,-0.2981 0.36654,-0.45508 -0.22684,0.29845 0.0476,-0.17039 0.0952,-0.30904 0.1718,-0.50694 0.2353,-1.04457 0.25329,-1.57797 0.0325,-1.00859 -0.24589,-1.94204 -0.73237,-2.71886 -0.11571,1.16064 -0.26347,2.3181 -0.44547,3.47028 z m 3.05502,-11.98528 c -0.0543,-0.62653 -0.18097,-1.25024 -0.40005,-1.8415 -0.0589,-0.11571 -0.13476,-0.25999 -0.18874,-0.34043 -0.10618,-0.15734 -0.21237,-0.31503 -0.33408,-0.46108 -0.19896,-0.23777 -0.4064,-0.47025 -0.64276,-0.67133 -0.34748,-0.29563 -0.72919,-0.55175 -1.13383,-0.762 0.27059,2.58268 0.3997,5.17983 0.36548,7.7791 -0.009,0.68121 -0.0363,1.36207 -0.0713,2.04258 1.63125,-1.41711 2.59821,-3.54012 2.40524,-5.74534 z m -1.85173,-29.91308 c -0.93416,0.39405 -1.84889,1.00259 -1.62379,1.73108 0.1876,0.60783 0.84098,0.15839 1.05194,-0.11783 0.25259,-0.33126 0.34889,-0.7613 0.4579,-1.15535 0.042,-0.15134 0.0769,-0.30515 0.11395,-0.4579 z m 2.06128,2.4518 c -0.42298,0.33338 -0.80363,0.73519 -1.15217,1.24425 -0.4438,0.6484 -1.40617,2.59997 -0.27305,3.07022 0.7934,0.3295 1.29293,-3.45722 1.35643,-3.88373 0.0212,-0.14393 0.0466,-0.28716 0.0688,-0.43074 z m -6.13447,4.18395 c 0.652,-1.57833 1.8302,-2.86421 3.41455,-3.53096 0.3683,-0.15522 -0.002,0.79269 -0.26035,0.9017 -2.4253,1.02059 -3.6639,3.70205 -2.4955,6.16515 1.1017,2.32198 4.08053,1.5494 5.6384,0.27516 1.97908,-1.6196 2.26131,-4.56565 2.62043,-6.92714 0.12595,-0.82691 0.27411,-1.65065 0.43004,-2.47333 -0.38171,0.10795 -0.76059,0.22543 -1.13559,0.34749 -0.44803,0.14605 -0.85267,0.31397 -1.22873,0.51082 -0.21695,1.57586 -0.37959,3.19723 -1.26012,4.54837 -0.33725,0.51823 -0.87665,0.97613 -1.49331,1.08338 -0.79375,0.13758 -0.90593,-1.05975 -0.83008,-1.5554 0.24694,-1.6129 1.45838,-3.30412 2.84762,-4.23474 0.12735,-0.79199 0.26635,-1.58186 0.40746,-2.37173 -0.33761,0.0554 -0.67557,0.10725 -1.0153,0.1524 -0.20814,0.0279 -0.56938,0.11536 -0.97472,0.25012 -0.20355,0.81139 -0.48966,1.5942 -0.94509,2.28141 -0.25471,0.38383 -0.79021,1.04352 -1.33031,0.91899 -0.6661,-0.15381 -0.6579,-0.81351 -0.5264,-1.35537 0.2798,-1.15182 1.29544,-1.95615 2.3954,-2.46592 0.11253,-0.57432 0.20567,-1.15288 0.29351,-1.72932 0.0367,-0.24235 0.0769,-0.49388 0.11712,-0.74753 -1.24072,0.20179 -2.70193,0.3877 -3.63393,1.137 -0.6643,0.53305 -0.091,1.22696 0.5337,0.81492 0.6019,-0.39688 0.4332,0.242 0.053,0.49283 -0.4442,0.29351 -1.2898,0.67839 -1.6538,0.0847 -0.4569,1.74695 -0.6908,3.54965 -0.652,5.4289 0.023,1.13629 0.1404,2.25989 0.3158,3.37537 0.072,-0.49212 0.1982,-0.96414 0.3686,-1.37724 z m 9.78854,-7.84719 c -0.78352,0.1524 -1.56774,0.30339 -2.35303,0.44873 -0.10653,0.58526 -0.21272,1.17087 -0.31397,1.75719 -0.0162,0.0938 -0.0314,0.18873 -0.0462,0.28328 0.76588,-0.38065 1.57409,-0.67487 2.40418,-0.91405 0.10231,-0.52529 0.20602,-1.05057 0.30903,-1.57515 z m 0.18168,-0.92393 c 0.14711,-0.7493 0.29316,-1.4993 0.42298,-2.25213 -0.13193,0.025 -0.26423,0.0497 -0.39617,0.0741 -0.65687,0.121 -1.31339,0.24659 -1.96991,0.36971 -0.0582,0.31115 -0.11853,0.62159 -0.17639,0.93274 -0.079,0.42404 -0.15733,0.84808 -0.236,1.27212 0.78316,-0.13935 1.57127,-0.26458 2.35549,-0.39652 z m 1.75155,1.97979 c 0.096,-0.5013 0.20813,-0.99836 0.33055,-1.4926 -0.5715,0.10901 -1.14265,0.21943 -1.71344,0.33055 -0.0991,0.50906 -0.19721,1.01847 -0.29422,1.52788 0.55245,-0.14111 1.11301,-0.26141 1.67711,-0.36583 z m 0.27199,3.73451 c 0.49353,0.1651 1.01423,0.20637 1.52964,0.16827 1.49966,-0.11042 2.15336,-1.45521 2.09691,-2.80141 -0.006,-0.1464 -0.22472,-0.98495 -0.096,-1.004 -0.17286,0.0254 -0.34502,0.0511 -0.51823,0.0765 -0.87136,0.12982 -1.74378,0.25929 -2.61409,0.40111 -0.0593,0.36053 -0.11571,0.72178 -0.17215,1.08373 -0.0981,0.62265 -0.19156,1.24566 -0.28434,1.86937 -0.0113,0.0755 -0.0222,0.15099 -0.0335,0.22648 -0.0236,0.16263 -0.002,-0.0519 0.0917,-0.0201 z m 0.84455,-7.71349 c 0.10583,-0.26106 0.22754,-0.50976 0.35912,-0.75142 -0.76588,0.11818 -1.52858,0.26 -2.29093,0.40287 -0.0632,0.44309 -0.12383,0.87701 -0.20179,1.28094 -0.0624,0.32315 -0.12559,0.64594 -0.18803,0.96908 0.26564,-0.0469 0.53234,-0.0914 0.79622,-0.14252 0.32737,-0.0635 0.65687,-0.12347 0.98601,-0.18168 0.15734,-0.53305 0.33055,-1.0608 0.5394,-1.57727 z m 1.43862,-1.58997 c 0.29951,-0.0452 0.59902,-0.0889 0.89888,-0.13335 0.64559,-0.0956 1.29082,-0.19932 1.92617,-0.35066 0.53093,-0.127 2.26519,-0.91264 1.12042,-1.43933 -1.09537,-0.50412 -2.56011,0.57926 -3.32952,1.23719 -0.23777,0.20355 -0.4392,0.43603 -0.61595,0.68615 z m -2.44933,-2.22673 c 0.76235,-0.17004 1.50495,-0.38277 2.13677,-0.86501 0.36725,-0.28046 -0.41874,-0.49072 -0.62724,-0.47273 -0.69885,0.0596 -1.18815,0.76624 -1.50953,1.33774 z m 6.76028,4.23439 c 1.5942,-0.38911 2.99508,-0.98178 4.09751,-2.22885 1.06433,-1.20403 1.38783,-2.90654 0.48155,-4.28167 -0.85902,-1.30139 -2.78977,-1.4104 -4.16384,-1.13947 -1.47779,0.29069 -2.75414,1.38677 -3.33269,2.75943 -0.17533,0.41839 -0.77329,0.71191 -0.49283,0.0462 0.69462,-1.65171 1.96532,-2.98626 3.66853,-3.59481 0.29104,-0.10407 0.59937,-0.17921 0.91511,-0.22895 -0.99342,-0.14358 -1.9932,-0.24024 -3.00355,-0.26105 -1.94628,-0.0402 -3.81071,0.21237 -5.61587,0.70167 0.0385,0.0236 0.0748,0.0512 0.10795,0.0882 0.41628,0.46426 0.16192,1.04846 -0.13794,1.50283 -0.17921,0.272 -1.02058,0.64453 -0.64276,0.0713 0.17639,-0.26776 0.27975,-0.72178 -0.0875,-0.91475 -0.37747,-0.19791 -0.71331,0.41628 -0.86571,0.66781 -0.28787,0.47448 -0.41805,1.05269 -0.53235,1.58962 -0.0956,0.45049 -0.18062,0.90346 -0.26811,1.35572 -0.0134,0.0684 -0.0257,0.13723 -0.0388,0.20602 0.86289,-0.12276 1.72191,-0.27622 2.56646,-0.45049 0.46707,-0.94933 1.15817,-1.7967 2.03164,-2.25955 0.5073,-0.26846 1.12924,-0.21978 1.38183,0.3362 0.23284,0.51259 -0.23354,1.15182 -0.54962,1.50636 -0.64947,0.72919 -1.67499,1.07597 -2.70898,1.29187 -0.18274,0.56657 -0.2974,1.18146 -0.39229,1.796 0.72778,-0.133 1.4552,-0.26459 2.18369,-0.39229 0.15875,-0.0279 0.31785,-0.0519 0.4766,-0.0773 0.7867,-1.0989 1.8602,-1.95263 3.14325,-2.52801 0.6978,-0.31326 1.56387,-0.49706 2.28459,-0.16545 0.63924,0.29386 0.37324,1.03293 0.0258,1.43087 -1.28517,1.47284 -3.41701,1.66334 -5.27368,1.90958 -0.30797,0.63994 -0.51823,1.33915 -0.71649,2.00308 -0.0289,0.0963 -0.0533,0.19367 -0.0808,0.29033 1.8535,-0.31185 3.72075,-0.58596 5.53932,-1.03046 z m -10.43129,-0.91228 c 0.78246,-0.14747 1.56528,-0.29316 2.34844,-0.4371 0.0363,-0.23636 0.073,-0.47201 0.10407,-0.70908 0.0462,-0.34996 0.12947,-0.71261 0.24307,-1.07456 -0.47943,0.0829 -0.9465,0.14746 -1.36384,0.21731 -0.32491,0.0547 -0.65299,0.10865 -0.98284,0.15981 -0.11642,0.61418 -0.23354,1.22872 -0.3489,1.84362 z m -2.58833,-1.53 c -0.043,0.69215 -0.13194,1.38571 -0.23283,2.06939 0.6791,-0.13017 1.35819,-0.26035 2.03729,-0.38946 0.0759,-0.39829 0.1524,-0.79693 0.22825,-1.19522 0.0434,-0.2286 0.085,-0.4579 0.127,-0.68721 -0.71649,0.0967 -1.43898,0.17286 -2.15971,0.2025 z m -0.45508,3.50414 c -0.0804,0.51188 -0.16193,1.03999 -0.26212,1.56633 0.32632,-0.11924 0.64982,-0.21519 0.95392,-0.2861 0.33902,-0.0794 0.68121,-0.15169 1.02517,-0.21943 0.13476,-0.73448 0.27128,-1.46861 0.41169,-2.20204 -0.66887,0.12559 -1.33844,0.24907 -2.00766,0.37677 -0.0402,0.25718 -0.0811,0.51259 -0.121,0.76447 z m 33.60561,-4.94771 c 0.20109,0.23636 0.43357,0.44415 0.67099,0.64312 0.14605,0.12135 0.30409,0.22789 0.46143,0.33408 0.0804,0.054 0.22472,0.12982 0.34043,0.18873 0.59125,0.21908 1.21497,0.34572 1.8415,0.40005 2.20521,0.19297 4.32788,-0.77399 5.74534,-2.40488 -0.68051,0.0349 -1.36137,0.0621 -2.04258,0.0709 -2.59927,0.0339 -5.19642,-0.0949 -7.77911,-0.36584 0.21026,0.40499 0.46637,0.78705 0.762,1.13383 z m 14.54821,-0.31115 c 0.5334,-0.018 1.07068,-0.0815 1.57797,-0.25329 0.13864,-0.0476 0.60748,-0.32209 0.30903,-0.0949 0.15699,-0.11501 0.31362,-0.23213 0.45509,-0.36689 0.17321,-0.16369 0.34678,-0.3295 0.49671,-0.51576 0.21343,-0.26459 0.55245,-0.43392 -0.0452,-0.31609 -0.67874,0.1337 -1.35854,0.26035 -2.04223,0.369 -1.15217,0.18168 -2.30963,0.32985 -3.47027,0.44521 0.77646,0.48683 1.71026,0.76482 2.71886,0.73272 z m -48.68722,-0.94368 c -0.40711,-1.01459 -1.29434,-1.83021 -2.25248,-2.31563 -0.5331,-0.27023 -1.1709,-0.41593 -1.7628,-0.44733 -0.033,-0.002 -0.4583,-7e-4 -0.4678,0.0639 -0.065,0.43286 0.1069,0.92464 0.2314,1.32716 0.3362,1.0922 1.124,1.94451 2.0747,2.54529 0.75881,0.47978 1.66545,0.58773 2.55798,0.59302 -0.0455,-0.61525 -0.1591,-1.21215 -0.381,-1.76636 z m -2.71888,41.55864 c -0.1309,0.13758 -0.2624,0.27728 -0.4191,0.38629 -1.2714,0.88935 -3.0984,0.89358 -4.2972,-0.14923 -0.8265,-0.71966 -1.4668,-1.97449 -1.7201,-3.04518 -0.7722,-3.27025 2.1399,-6.01027 5.3615,-5.63633 0.5175,0.0603 1.0015,0.1898 1.4524,0.3743 -0.028,-0.20355 -0.054,-0.4071 -0.084,-0.6103 -0.4025,-2.73015 -0.9743,-5.43419 -1.6478,-8.10895 -0.7137,-2.8321 -1.5152,-5.60811 -1.7886,-8.52841 -0.4145,-4.42595 0.689,-8.4903 2.7372,-12.3832 0.1496,-0.2847 0.3087,-0.56445 0.4668,-0.84526 0.018,-0.0325 0.2518,-0.44697 0.1308,-0.2159 -0.6822,1.29646 -1.2555,2.61479 -1.6997,3.96416 0.1436,-0.16086 0.2925,-0.30162 0.4057,-0.40781 1.0203,-0.96132 2.46525,-1.17686 3.78676,-1.43404 0.0741,-0.0145 0.14852,-0.0279 0.2226,-0.0423 0.10442,-0.70908 0.19509,-1.43969 0.21414,-2.16288 -0.47802,0.002 -0.95462,-0.0187 -1.42628,-0.0705 -1.99422,-0.21978 -3.62582,-1.8789 -4.00402,-3.82129 -0.2713,-1.39206 0.296,-2.79506 1.9336,-2.4765 2.087,0.40675 3.69496,1.92511 4.01211,4.05377 0.0667,0.44485 0.0945,0.89888 0.0977,1.35643 0.084,-0.002 0.16827,-0.005 0.25082,-0.008 0.68227,-0.0268 1.36772,-0.0914 2.05317,-0.1718 0.12135,-0.63994 0.25223,-1.27776 0.4191,-1.905 0.21378,-0.80328 0.65934,-1.64606 1.30104,-2.1904 0.0533,-0.0452 0.12453,-0.10336 0.20708,-0.16581 -1.28093,0.43463 -2.53435,0.98496 -3.76802,1.63407 -0.23071,0.12136 0.1838,-0.11253 0.21626,-0.13053 0.28045,-0.15804 0.56056,-0.31714 0.8456,-0.46672 3.89255,-2.04823 7.95655,-3.15207 12.38286,-2.7372 2.92029,0.2734 5.6963,1.07491 8.5284,1.78858 2.67476,0.67345 5.3788,1.2453 8.1086,1.64747 0.20355,0.03 0.4071,0.0561 0.61066,0.0843 -0.18451,-0.45085 -0.31397,-0.93486 -0.3743,-1.45238 -0.37394,-3.22157 2.36573,-6.13375 5.63633,-5.36152 1.07068,0.25329 2.32551,0.89323 3.04518,1.72014 1.04281,1.19874 1.03858,3.02543 0.14922,4.29719 -0.109,0.15663 -0.2487,0.28822 -0.38629,0.41875 -0.10371,0.0974 -0.89817,-0.54928 -0.9906,-0.4625 0.98954,-0.9338 1.25483,-2.33327 0.85514,-3.60856 -0.18345,-0.58773 -0.55951,-1.0929 -1.00472,-1.50707 -0.0949,-0.0833 -0.19367,-0.16192 -0.29668,-0.23459 -0.0469,-0.0349 -0.078,-0.0607 -0.10054,-0.0804 -0.0265,-0.007 -0.0582,-0.0159 -0.10266,-0.0307 -0.3489,-0.1136 -0.71402,-0.16087 -1.07739,-0.18486 -2.8776,-0.19015 -4.80695,2.47192 -4.76073,5.13503 0.008,0.50201 0.0977,0.99448 0.25012,1.46756 3.44558,0.44097 6.92644,0.64135 10.39812,0.52917 -0.20496,-0.26706 -0.37994,-0.56127 -0.51223,-0.88618 -0.68615,-1.68804 -0.35877,-3.95817 1.26929,-5.01826 1.2439,-0.81104 2.75696,-1.68946 4.28096,-1.10702 1.9805,0.75671 2.81764,3.31011 1.00436,4.76603 -0.36336,0.29068 -0.87348,0.39581 -1.23366,0.68474 1.35325,-1.08585 1.35855,-3.35245 -0.15311,-4.33211 -0.71543,-0.46426 -1.58185,-0.73413 -2.44051,-0.58244 -0.17357,0.031 -0.34714,0.0681 -0.51612,0.11959 -0.0265,0.0212 -0.0564,0.0452 -0.0945,0.0748 -0.28399,0.28434 -0.54363,0.59443 -0.72602,0.95462 -0.98213,1.92864 -0.39582,3.96734 0.9906,5.23487 0.67874,-0.0441 1.35643,-0.10019 2.03306,-0.16969 1.46544,-0.15134 2.92805,-0.34643 4.37797,-0.61207 0.34078,-0.0631 0.68192,-0.12594 1.0227,-0.19508 0.58879,-0.11924 0.26953,0.0621 0.0448,0.31609 -0.31186,0.35489 -0.65053,0.69179 -1.04669,0.95355 -1.18851,0.78564 -2.57317,1.59315 -4.02908,1.64007 -1.15006,0.037 -2.36926,-0.27975 -3.32493,-0.94368 -1.7018,2.10961 -4.48028,3.07516 -7.18009,2.39218 -1.84114,-0.46602 -3.54894,-1.49754 -4.53813,-3.03424 -2.21968,-0.25647 -4.42842,-0.61242 -6.6167,-1.06997 -2.53788,-0.53023 -5.05107,-1.28411 -7.59037,-1.87043 0.38982,0.26811 0.72284,0.61771 0.96802,1.05727 0.88089,1.58186 0.11078,3.52955 -0.82409,4.88033 -1.20367,1.73955 -2.98344,2.53647 -4.96993,3.05365 -1.75577,0.45649 -3.57928,0.66145 -5.36645,0.98037 -0.1143,0.49671 -0.21344,0.99589 -0.30304,1.49789 1.0982,-0.18027 2.19816,-0.32103 3.26214,-0.47872 0.1023,-0.0155 0.20531,-0.031 0.30726,-0.0455 0.0804,-0.0116 0.12171,0.0173 0.14711,0.0885 1.12078,3.18629 -2.01542,6.03815 -5.10928,5.00204 -0.0794,-0.0265 -0.0765,-0.0889 -0.0663,-0.15875 0.17216,-1.17934 0.33196,-2.37455 0.53622,-3.56024 -0.29563,0.0519 -0.59161,0.10443 -0.88688,0.16193 -0.26458,0.0511 -0.5274,0.11289 -0.79022,0.17851 -0.0787,0.42403 -0.15805,0.84807 -0.23248,1.27282 -0.35419,2.02141 -0.6089,4.03401 -1.32222,5.97217 -1.01035,2.74885 -5.13679,6.40187 -7.87404,3.48439 -0.058,-0.0617 -0.1111,-0.12805 -0.163,-0.19473 0.5652,2.35726 1.251,4.69512 1.7438,7.05379 0.4576,2.18828 0.8135,4.39703 1.07037,6.6167 1.5367,0.98919 2.56822,2.69699 3.03389,4.53814 0.68298,2.70016 -0.28293,5.47828 -2.39219,7.18008 0.66428,0.95568 0.98072,2.17488 0.94368,3.32493 -0.0469,1.45592 -0.85442,2.84057 -1.64005,4.02908 -0.2618,0.39617 -0.5987,0.73484 -0.9536,1.04669 -0.254,0.22472 -0.4353,0.54398 -0.3157,-0.0448 0.069,-0.34079 0.1316,-0.68192 0.1947,-1.0227 0.2656,-1.44992 0.4607,-2.91254 0.6121,-4.37798 0.07,-0.67662 0.1252,-1.35431 0.1697,-2.03306 -1.2676,-1.38606 -3.3063,-1.97273 -5.2349,-0.9906 -0.3602,0.18239 -0.6703,0.44239 -0.9546,0.72602 -0.03,0.0385 -0.054,0.0684 -0.075,0.0945 -0.051,0.16898 -0.088,0.34254 -0.1192,0.51611 -0.1517,0.85866 0.1182,1.72508 0.5824,2.44052 0.9797,1.51165 3.2463,1.50636 4.3321,0.1531 -0.2889,0.36019 -0.394,0.8703 -0.6847,1.23367 -1.4559,1.81327 -4.0093,0.97613 -4.766,-1.00436 -0.5821,-1.524 0.2959,-3.03707 1.107,-4.28096 1.0604,-1.62772 3.3302,-1.95545 5.0182,-1.2693 0.325,0.1323 0.6192,0.30727 0.8866,0.51224 0.1118,-3.47134 -0.088,-6.95255 -0.5295,-10.39813 -0.4728,-0.1524 -0.9656,-0.24165 -1.4676,-0.25012 -2.6631,-0.0462 -5.3252,1.88313 -5.135,4.76074 0.024,0.36336 0.071,0.72849 0.1852,1.07738 0.015,0.0448 0.024,0.0762 0.03,0.10301 0.02,0.0222 0.045,0.0533 0.08,0.10019 0.073,0.10301 0.1514,0.20179 0.2346,0.29704 0.4142,0.44485 0.9197,0.82092 1.5075,1.00436 1.2749,0.3997 2.6747,0.13441 3.6082,-0.85513 -0.087,0.0924 0.5598,0.88688 0.4628,0.9906"
       style="fill:#000000;fill-opacity:1;fill-rule:nonzero;stroke:none;stroke-width:0.0352778"
       id="path699" />
  </g>
</svg>
